<svg id="_01" data-name="01" xmlns="http://www.w3.org/2000/svg" viewBox="0 0 4680 3120"><defs><style>.cls-1,.cls-10{fill:#fff;}.cls-1{opacity:0;}.cls-2{fill:#0f25f4;}.cls-3{fill:#0029aa;}.cls-4{fill:#ef7430;}.cls-5{fill:#f5ae97;}.cls-6{fill:#ed856e;}.cls-7{fill:#173d42;}.cls-8{fill:#081e1e;}.cls-9{fill:#ffd44a;}.cls-11{fill:#063bf9;}.cls-12{fill:#cb6655;}.cls-13{fill:#5a1f20;}.cls-14{fill:#072c35;}.cls-15{fill:#492c1d;}.cls-16{fill:#331b11;}.cls-17{fill:#838484;}.cls-18{fill:#bbbcbc;}.cls-19{fill:#d8d8d8;}.cls-20{fill:#d65413;}.cls-21{fill:#b23e0b;}.cls-22{fill:#edaa24;}.cls-23{fill:#e9fdff;}.cls-24{fill:#e1f2f8;}.cls-25{fill:#98aeb3;}.cls-26{opacity:0.5;}.cls-27{fill:#d0e9ed;}</style></defs><title>01</title><rect class="cls-1" width="4680" height="3120"/><ellipse class="cls-2" cx="2360.47" cy="2654.54" rx="1456.47" ry="105.46"/><ellipse class="cls-3" cx="2350.76" cy="2644.26" rx="676.02" ry="40.33"/><path class="cls-4" d="M2804,592.44l-1-13.13c10.74-.79,16.46-1.18,16.46-1.18l.88,13.14S2814.61,591.65,2804,592.44Z"/><path class="cls-4" d="M1563.7,2099l-.28-13.16c10.61-.23,21.7-.49,33-.77l.34,13.16C1585.44,2098.51,1574.33,2098.77,1563.7,2099Zm66-1.67-.38-13.16q15.57-.45,32.93-1l.43,13.16Q1645.34,2096.86,1629.73,2097.32Zm65.94-2.14-.47-13.15q15.88-.57,32.9-1.23l.51,13.16Q1711.59,2094.62,1695.67,2095.18Zm65.87-2.56-.55-13.15q16-.67,32.87-1.44l.6,13.16Q1777.62,2091.94,1761.54,2092.62Zm65.83-3-.64-13.15q16.14-.78,32.86-1.64l.68,13.15Q1843.53,2088.86,1827.37,2089.65Zm65.79-3.38-.72-13.15q16.2-.88,32.84-1.85l.76,13.15Q1909.39,2085.38,1893.16,2086.27Zm65.76-3.81-.81-13.14q16.25-1,32.83-2.06l.84,13.14Q1975.19,2081.47,1958.92,2082.46Zm65.72-4.23-.89-13.14q16.27-1.1,32.81-2.28l.93,13.13Q2040.95,2077.13,2024.64,2078.23Zm65.69-4.69-1-13.13q16.29-1.22,32.78-2.51l1,13.12Q2106.65,2072.32,2090.33,2073.54Zm65.66-5.16-1.08-13.12q16.31-1.35,32.76-2.77l1.13,13.12Q2172.31,2067,2156,2068.38Zm65.61-5.67-1.19-13.11c11-1,22-2,32.74-3l1.24,13.11C2243.6,2060.7,2232.57,2061.72,2221.6,2062.71Zm65.56-6.21-1.3-13.1c10.95-1.09,22-2.2,32.71-3.32l1.35,13.1C2309.15,2054.3,2298.13,2055.41,2287.16,2056.5Zm65.51-6.8-1.42-13.08c10.93-1.19,21.92-2.41,32.67-3.63l1.48,13.08C2374.64,2047.29,2363.62,2048.52,2352.67,2049.7Zm65.45-7.43-1.56-13.07c10.94-1.3,21.94-2.64,32.7-4l1.63,13.07C2440.1,2039.63,2429.07,2041,2418.12,2042.27Zm65.45-8.14-1.7-13.06c10.88-1.42,21.82-2.88,32.51-4.33l1.78,13C2505.45,2031.24,2494.48,2032.71,2483.57,2034.13Zm65.22-8.91-1.86-13c10.89-1.56,21.82-3.16,32.5-4.76l2,13C2570.68,2022.06,2559.71,2023.66,2548.79,2025.22Zm65.16-9.77-2-13c10.9-1.72,21.82-3.48,32.43-5.23l2.15,13C2635.83,2012,2624.89,2013.73,2614,2015.45Zm65-10.76-2.26-13c10.88-1.9,21.76-3.84,32.33-5.78l2.38,13C2700.81,2000.84,2689.89,2002.79,2679,2004.69Zm64.84-11.89-2.49-12.93c10.84-2.09,21.67-4.24,32.2-6.39l2.63,12.9C2765.58,1988.53,2754.7,1990.7,2743.81,1992.8Zm64.62-13.2-2.79-12.87c10.82-2.34,21.6-4.74,32-7.13l2.94,12.83C2830.13,1974.84,2819.29,1977.25,2808.43,1979.6Zm64.3-14.76-3.12-12.79c10.77-2.63,21.47-5.33,31.81-8l3.32,12.74C2894.33,1959.48,2883.56,1962.19,2872.73,1964.84Zm63.89-16.66-3.54-12.68c10.7-3,21.29-6,31.49-9.1l3.78,12.61C2958.07,1942.09,2947.39,1945.18,2936.62,1948.18Zm63.28-19-4.06-12.53c10.6-3.43,21-7,31-10.49l4.38,12.42C3021.15,1922.13,3010.61,1925.69,2999.9,1929.17Zm62.38-22.08-4.75-12.28c10.42-4,20.6-8.18,30.25-12.32l5.19,12.1C3083.17,1898.79,3072.85,1903,3062.28,1907.09Zm60.9-26.22-5.71-11.87c10.1-4.86,19.84-9.86,28.93-14.87l6.35,11.54C3143.44,1870.79,3133.5,1875.9,3123.18,1880.87Zm58.22-32.21-7.12-11.07c9.45-6.07,18.31-12.33,26.34-18.58l8.09,10.39C3200.37,1835.9,3191.18,1842.38,3181.4,1848.66Zm52.55-41.38-9.29-9.33a188.58,188.58,0,0,0,20.49-23.94l10.72,7.65A201.94,201.94,0,0,1,3234,1807.28Zm38.49-55.15-12.15-5.05a112.51,112.51,0,0,0,7.83-29.3l13.07,1.63A125.63,125.63,0,0,1,3272.44,1752.13Zm-4.82-65a106.74,106.74,0,0,0-8.95-28.95l11.91-5.62a119.91,119.91,0,0,1,10,32.52Zm-25.31-54.6a172.92,172.92,0,0,0-21.92-22.13l8.53-10a185.07,185.07,0,0,1,23.59,23.84Zm-47.45-41c-8.48-5.49-17.83-10.9-27.79-16.09l6.08-11.68c10.33,5.38,20,11,28.86,16.71Zm-57-30c-9.46-4.12-19.61-8.2-30.14-12.13l4.6-12.34c10.76,4,21.12,8.19,30.8,12.4Zm-60.92-22.86c-9.94-3.24-20.45-6.47-31.23-9.59l3.66-12.65c10.92,3.16,21.57,6.43,31.65,9.72Zm-62.78-18.23c-10.2-2.65-20.9-5.3-31.79-7.86l3-12.82c11,2.59,21.78,5.26,32.08,7.93Zm-63.76-15.06c-10.34-2.23-21.15-4.46-32.12-6.63l2.56-12.92c11,2.19,21.92,4.44,32.33,6.68ZM2886,1492.61c-10.43-1.92-21.3-3.85-32.31-5.74l2.22-13c11.07,1.9,22,3.84,32.48,5.76Zm-64.7-11.12c-10.5-1.69-21.42-3.39-32.45-5.07l2-13c11.07,1.68,22,3.39,32.56,5.08Zm-65-9.87c-10.52-1.51-21.47-3-32.53-4.57l1.79-13c11.09,1.52,22.07,3.06,32.62,4.58Zm-65.1-8.94c-10.51-1.38-21.47-2.79-32.6-4.19l1.65-13.07c11.15,1.41,22.14,2.83,32.66,4.21Zm-65.22-8.24q-16.23-2-32.64-3.93l1.55-13.07q16.42,1.93,32.69,3.93Zm-65.3-7.75q-16.26-1.89-32.66-3.74l1.48-13.08q16.41,1.86,32.7,3.74Zm-65.34-7.42q-16.3-1.82-32.69-3.62l1.44-13.09,32.71,3.63Zm-65.39-7.22-32.69-3.58,1.43-13.09,32.7,3.58Zm-65.4-7.16-32.7-3.59,1.44-13.09,32.7,3.59Zm-65.4-7.22q-16.35-1.82-32.7-3.67l1.48-13.08,32.68,3.67Zm-65.48-7.41q-16.38-1.87-32.71-3.8l1.53-13.08q16.34,1.92,32.68,3.8Zm-65.35-7.69q-16.32-2-32.57-4l1.62-13.07q16.23,2,32.52,4Zm-65.23-8.12c-11-1.41-22-2.85-32.65-4.26l1.74-13c10.6,1.41,21.57,2.84,32.58,4.25Zm-65.28-8.69c-11.05-1.53-22-3.08-32.61-4.6l1.88-13c10.56,1.53,21.51,3.07,32.53,4.6Zm-65.2-9.41c-11-1.66-22-3.35-32.56-5l2.06-13c10.57,1.68,21.5,3.36,32.47,5ZM1907.62,1366c-11-1.83-21.91-3.71-32.48-5.56l2.28-13c10.53,1.85,21.42,3.71,32.36,5.54Zm-64.92-11.43c-11-2-21.85-4.13-32.38-6.21l2.55-12.92c10.49,2.07,21.33,4.15,32.24,6.18Zm-64.69-12.8c-10.92-2.3-21.76-4.66-32.24-7l2.9-12.85c10.41,2.35,21.2,4.7,32,7Zm-64.37-14.51c-10.87-2.63-21.64-5.33-32-8l3.32-12.74c10.31,2.68,21,5.36,31.8,8Zm-63.91-16.65c-10.78-3-21.45-6.16-31.71-9.29l3.85-12.6c10.17,3.11,20.74,6.21,31.43,9.22Zm-63.2-19.36c-10.67-3.56-21.17-7.24-31.22-10.93l4.54-12.36c9.93,3.64,20.31,7.28,30.85,10.8Zm-62.11-22.87c-10.46-4.26-20.71-8.67-30.45-13.1l5.45-12c9.58,4.36,19.66,8.69,30,12.88Zm-60.33-27.53c-10.1-5.2-19.9-10.58-29.12-16l6.68-11.35c9,5.29,18.58,10.56,28.46,15.64Zm-57.23-33.83c-9.42-6.46-18.41-13.17-26.71-20l8.32-10.2c8,6.54,16.71,13,25.84,19.29Zm-51.52-42.32a277,277,0,0,1-22.2-25l10.39-8.1a260.44,260.44,0,0,0,21.13,23.84Zm-40.93-52.87a188.92,188.92,0,0,1-14.27-30.87l12.43-4.36a175.13,175.13,0,0,0,13.27,28.69Zm-21.84-64.38c-.42-4.21-.63-8.47-.63-12.65a125.49,125.49,0,0,1,1.91-21.81l13,2.28a112.13,112.13,0,0,0-1.7,19.52c0,3.76.19,7.58.56,11.37ZM1316,986.11l-12-5.45a169.21,169.21,0,0,1,17.12-29.07l10.65,7.74A155.46,155.46,0,0,0,1316,986.11Zm36.34-50.82-9.39-9.24a307.76,307.76,0,0,1,24.81-22.46l8.32,10.21A290.3,290.3,0,0,0,1352.34,935.29ZM1402,894.52l-7.45-10.86c8.75-6,18.18-12,28-17.89l6.74,11.31C1419.66,882.82,1410.46,888.68,1402,894.52Zm55.72-33.36-6.16-11.64c9.42-5,19.39-10,29.63-14.88l5.68,11.88C1476.73,851.34,1466.93,856.27,1457.67,861.16ZM1516.54,833l-5.26-12.07c9.79-4.27,20.06-8.57,30.52-12.77l4.91,12.21C1536.37,824.5,1526.22,828.75,1516.54,833Zm60.7-24.45-4.61-12.33c10-3.75,20.5-7.53,31.08-11.22l4.34,12.43C1597.56,801.06,1587.19,804.8,1577.24,808.52Zm61.86-21.61L1635,774.4c10.22-3.35,20.8-6.72,31.46-10l3.89,12.58C1659.76,780.24,1649.24,783.59,1639.1,786.91Zm62.66-19.38-3.69-12.64c10.34-3,21-6.06,31.73-9l3.52,12.69C1722.66,761.5,1712,764.52,1701.76,767.53ZM1765,750l-3.37-12.73c10.43-2.75,21.18-5.52,31.93-8.23l3.22,12.76C1786.07,744.46,1775.38,747.22,1765,750Zm63.66-16.05-3.08-12.8c10.5-2.53,21.29-5.07,32.08-7.56l3,12.83C1849.87,728.86,1839.12,731.39,1828.66,733.91Zm64-14.77-2.85-12.86c10.56-2.33,21.4-4.68,32.21-7l2.74,12.88C1914,714.47,1903.18,716.81,1892.66,719.14Zm64.25-13.66-2.63-12.9c10.6-2.16,21.47-4.34,32.31-6.47l2.54,12.92C1978.32,701.15,1967.48,703.32,1956.91,705.48Zm64.48-12.68-2.46-12.94c10.69-2,21.62-4.06,32.49-6l2.37,12.95C2042.94,688.75,2032,690.78,2021.39,692.8ZM2086.16,681l-2.28-13c10.66-1.88,21.57-3.77,32.41-5.61l2.21,13C2107.68,677.2,2096.8,679.08,2086.16,681Zm64.64-11-2.14-13c10.69-1.76,21.63-3.53,32.52-5.26l2.06,13C2172.38,666.43,2161.47,668.2,2150.8,670Zm64.92-10.32-2-13c10.72-1.65,21.67-3.31,32.56-4.93l1.94,13C2237.35,656.33,2226.42,658,2215.72,659.63Zm65-9.67-1.88-13c10.77-1.55,21.74-3.1,32.61-4.62l1.82,13C2302.44,646.86,2291.49,648.41,2280.75,650Zm65.12-9.07-1.75-13c10.79-1.46,21.78-2.91,32.65-4.33l1.7,13.06C2367.62,638,2356.65,639.44,2345.87,640.89Zm65.22-8.49-1.65-13.07c10.79-1.36,21.79-2.72,32.69-4.05l1.59,13.07C2432.84,629.68,2421.86,631,2411.09,632.4Zm65.29-8-1.54-13.08q16.62-2,32.72-3.79l1.49,13.08Q2493,622.48,2476.38,624.44Zm65.37-7.44-1.44-13.09q16.74-1.85,32.76-3.54l1.39,13.1Q2558.47,615.17,2541.75,617Zm65.44-6.94-1.34-13.1q16.92-1.73,32.8-3.28l1.29,13.1Q2624.1,608.34,2607.19,610.06Zm65.52-6.43-1.23-13.11c11-1,22-2,32.85-3l1.18,13.12C2694.7,601.58,2683.66,602.6,2672.71,603.63Zm65.64-5.91-1.13-13.12c11.22-1,22.3-1.88,33-2.74l1.06,13.13C2760.6,595.84,2749.54,596.76,2738.35,597.72Z"/><path class="cls-4" d="M1514.77,2099.82l-.12-13.16s5.69-.06,16.41-.23l.21,13.17C1520.49,2099.77,1514.77,2099.82,1514.77,2099.82Z"/><path class="cls-5" d="M2804.43,630.17c-2-13.54-8.89-25.26-17.3-34.91-17.49-20-41.5-31.15-41.5-31.15s56.44-51.49,57.34-67c.31-5.54-15-1.48-36.55,8.27h0c-38.78,17.54-97.7,53.44-122.09,84.89a55.28,55.28,0,0,0-11.91,30A41.09,41.09,0,0,1,2620,646.7L2586.55,679l9.5,53.26,67.07,43.18,48.56-46.67a39.94,39.94,0,0,1,20.5-10.29c35.83-6.62,59.84-42.05,59.84-42.05h0C2803.48,659.32,2806.44,643.82,2804.43,630.17Z"/><path class="cls-6" d="M2749.27,597.35l35.74-.08,2.12-2c-17.49-20-41.5-31.16-41.5-31.16s56.44-51.48,57.33-67c.32-5.55-15-1.49-36.54,8.26,1.11-.34,30.85-9.12,15.62,10.68-15.51,20.16-58.32,55.94-58.32,55.94Z"/><path class="cls-6" d="M2783.43,685.85a49.52,49.52,0,0,0,8.59-9.42c46.41-69.37-46.39-112.33-46.39-112.33a115.51,115.51,0,0,0-21.91,7.88l0,0c-18.67,8.83-42.63,26.12-43.65,56.86C2678.51,675.53,2746.6,716.88,2783.43,685.85Z"/><path class="cls-5" d="M2783.43,685.85a49.52,49.52,0,0,0,8.59-9.42c46.41-69.37-46.39-112.33-46.39-112.33a115.51,115.51,0,0,0-21.91,7.88l0,0c-14.75,10-28.56,25.55-29.34,48.74C2693,661.86,2745.69,698.84,2783.43,685.85Z"/><path class="cls-5" d="M2752,621.76h0c-.19,4.31-.93,8-2.29,10.43-7.39,13.48-26-7-29.44-26.27,0,0-17.26,31.32-40,20.37s-.17-41-.17-41,26.82-14.24,46.53-14.63C2742.64,570.37,2752.8,602.59,2752,621.76Z"/><path class="cls-6" d="M2752,621.77c-.19,4.31-.93,8-2.29,10.43-7.39,13.48-26-7-29.44-26.27,0,0-17.26,31.32-40,20.37,19.84,5.32,39.71-28.95,39.71-28.95s13.1,22.38,20,28.95C2746.71,632.72,2751.75,622.21,2752,621.77Z"/><path class="cls-7" d="M2841.82,1745.47c-29,160.81-436.73,325.14-436.73,325.14l-9.76-134.42-10.82-149L2529,1717.68,2307.56,1662,2211.1,1438l281.82-44.62,271.38,151.38S2870.81,1584.67,2841.82,1745.47Z"/><path class="cls-8" d="M2395.33,1936.19l-10.82-149L2529,1717.68,2307.56,1662,2211.1,1438s472.54,207.3,482.56,231.73S2664.32,1861.5,2395.33,1936.19Z"/><path class="cls-9" d="M2587.3,2594.57c-59.77,42.71-160.3,56.57-230,56.22-1.88,0-3.82-.07-5.79-.18h0c-71-4-197.55-72.51-197.55-72.51l8.29-40,22.64-109.26,89.06-74.29,112.8,59,30.78,63.4c97.37-7.67,134.77,46,154.62,79.53C2584.48,2577.24,2587.3,2594.57,2587.3,2594.57Z"/><path class="cls-10" d="M2587.3,2594.57c-59.77,42.71-160.3,56.57-230,56.22-1.88,0-3.82-.07-5.79-.18h0c-9.33-152.68,66-173.62,66-173.62,97.37-7.67,134.77,46,154.62,79.53C2584.48,2577.24,2587.3,2594.57,2587.3,2594.57Z"/><path class="cls-4" d="M2587.3,2594.57c-59.77,42.71-160.3,56.57-230,56.22s-203.34-72.7-203.34-72.7l8.29-40s121.16,92.66,230.14,76.7,137.9-28.77,179.76-58.31C2584.48,2577.24,2587.3,2594.57,2587.3,2594.57Z"/><path class="cls-9" d="M2266.28,2268.41c-58.77-31.95-110.14-108.76-137.58-165.95-.74-1.54-1.46-3.15-2.16-4.81h0c-25-59.76-19.26-190.66-19.26-190.66l36-9.12,98.49-24.95,96.3,43.37-3.42,115.87L2295,2082.6c45.05,76.69,16,128.7-3.58,158.3C2279.36,2259.21,2266.28,2268.41,2266.28,2268.41Z"/><path class="cls-10" d="M2266.28,2268.41c-58.77-31.95-110.14-108.76-137.58-165.95-.74-1.54-1.46-3.15-2.16-4.81h0c121.33-68.42,168.47-15.05,168.47-15.05,45.05,76.69,16,128.7-3.58,158.3C2279.36,2259.21,2266.28,2268.41,2266.28,2268.41Z"/><path class="cls-4" d="M2266.28,2268.41c-58.77-31.95-110.14-108.76-137.58-165.95S2107.29,1907,2107.29,1907l36-9.12s-27.66,136.11,28.79,219,78.47,101.48,119.32,124C2279.36,2259.21,2266.28,2268.41,2266.28,2268.41Z"/><path class="cls-7" d="M2492.92,2432c-131.29,92.6-241,76.24-304.69,51-38.13-15.09-59.81-33.36-59.81-33.36l70.7-547.84s-66.28-92.23-152.68-234.16-47-305.53-47-305.53l268.14-125.23,39.76,243,149.23,317.31A278.93,278.93,0,0,1,2483,1910.46Z"/><path class="cls-8" d="M2241.7,1894.41,2188.23,2483c-38.13-15.09-59.81-33.36-59.81-33.36l70.7-547.84s-66.28-92.23-152.68-234.16-47-305.53-47-305.53S1995.79,1636.19,2241.7,1894.41Z"/><path class="cls-10" d="M2352.4,2483l-3.29-.05,8.81-587.52a163.4,163.4,0,0,0-34.29-102c-76.13-98.35-134.71-222.69-170.45-309.67-38.72-94.22-59.73-166.15-59.93-166.86l3.16-.92c.21.71,21.17,72.5,59.83,166.57,35.66,86.78,94.1,210.81,170,308.86a166.76,166.76,0,0,1,35,104.1Z"/><path class="cls-3" d="M2315.05,952.77c.07.31.24,1.19.48,2.55A15.91,15.91,0,0,1,2315.05,952.77Z"/><path class="cls-11" d="M2730.05,756.93l-32.61,24.38L2481.06,947.43a105.21,105.21,0,0,1-80.22,19.5L2315,952.63a.89.89,0,0,0,0,.14c.07.31.24,1.19.48,2.55,0,0,0,0,0,.09,1.87,10.76,7.8,51.46,0,97.7a245.71,245.71,0,0,1-6.54,28.39c-7.76,26.2-.28,73.5,11.42,120.66,17.35,69.91,44,139.52,44,139.52s-214.24,65.16-325.71,37.48c-15.29-3.79-28.65-9.34-39.25-17,0,0-7.34-305-26.8-423.75-2.85-17.38-6-30.77-9.34-38.63-26.49-61.56-62.67-163.94,190.29-136.24,0,0,60.24-8.43,136.13,15.67,54.26,17.22,91.28,30.63,108,36.88h0c6.65,2.48,10.08,3.83,10.08,3.83l200.62-195.66S2683.07,740,2730.05,756.93Z"/><path class="cls-3" d="M2730.05,756.93l-32.61,24.37L2481.06,947.43a105.21,105.21,0,0,1-80.22,19.5L2315,952.63c-4.21-40.08-37.14-81.42-37.14-81.42,28,2.08,32.16,41.5,52.92,65.38s125.57,1,125.57,1Z"/><path class="cls-3" d="M2398,858.85s-8.43-21.34-.32-42.78c6.65,2.48,10.08,3.83,10.08,3.83S2395.6,841.44,2398,858.85Z"/><path class="cls-3" d="M2320.42,1202.16c-27.69-61.64-134.36-22.17-198.77-25.21s-4.22-45.53,89.45-58.21,104.43-65.63,104.43-65.63h0a245.71,245.71,0,0,1-6.54,28.39C2301.24,1107.7,2308.72,1155,2320.42,1202.16Z"/><path class="cls-5" d="M2023,771.94l-9.26-147.76s18.12-114.45,23.41-119.4c1.07-1,5.19-4.29,11.06-8.89,23-18.05,73.1-56.32,73.1-56.32l58.26-29.9,24.42,3.47,53,85.75c.5,2.69,1.26,7.07,2.11,12.75s1.81,12.74,2.65,20.73q.43,4.17.83,8.66c.63,7.11,1.13,14.78,1.42,22.81.28,7.84.36,16,.13,24.34-1.53,54.79-16.29,115.71-72.2,127.1h0c-12.91,2.63-28,2.61-45.64-.72h0S2139,733,2146,748.79a50.61,50.61,0,0,0,21.12,23.49c18.59,10.65,48.22,29.56,42.58,39-8.12,13.61-104.51,47.88-116.41,38.66s-13-10.58-13-10.58l-29.61-49.95h0C2034.85,780.28,2023,771.94,2023,771.94Z"/><path class="cls-12" d="M2090.77,586.4c-.06-10-13.13-14.49-19.38-6.66-5.2,6.49-7.55,17.25,4.82,34,24,32.48,37.77,9,32.07-1.48s-17.57-11.4-17.51-25.41Z"/><path class="cls-6" d="M2071.14,636.92c9,7.2,12.59,11.65,18.05,14.71,0,0,28.92,6.5,36.26-15.63C2123.51,637.84,2102.72,656.44,2071.14,636.92Z"/><path class="cls-13" d="M2183,568.49c-.58-5.15,4.29-11.63,8.94-13.63,5.39-2.32,12.06,1,16.54,5,1.92,1.71,5.2,1,6.68-.89a4.86,4.86,0,0,0-.9-6.68c-6.88-6.14-17.59-10.21-26.45-6-8.36,4-15.34,13.87-14.27,23.36a4.76,4.76,0,0,0,9.46-1.15Z"/><ellipse class="cls-14" cx="2201.84" cy="586.44" rx="8.49" ry="13.54" transform="translate(-12.92 50.86) rotate(-1.32)"/><path class="cls-13" d="M2261.69,532.37c.3,2.78.57,5.67.83,8.66h-.28c-4.62.18-10.88,4.1-12.07,8.67a4.34,4.34,0,1,1-8.42-2.11c2.2-8.42,11.37-14.58,19.77-15.21Z"/><path class="cls-14" d="M2263.94,563.84c.28,7.84.36,16,.13,24.35a6.94,6.94,0,0,1-1,.13c-4.28.1-7.86-5.35-8-12.16s3.18-12.4,7.45-12.51A4.8,4.8,0,0,1,2263.94,563.84Z"/><path class="cls-6" d="M2191.85,715.29c-12.91,2.63-28,2.61-45.64-.72,0,0-22.45-10.74-28.51-33.44C2117.7,681.13,2141.4,718.86,2191.85,715.29Z"/><path class="cls-6" d="M2256.93,498.89c.5,2.69,1.26,7.07,2.11,12.75-22.78-7.87-53.11-53.86-53.11-53.86-1.06,92.85-97.11,110.61-97.11,110.61l-60.65-72.5c23-18.05,73.1-56.32,73.1-56.32l58.26-29.9,24.42,3.47Z"/><path class="cls-12" d="M2231,659.76l-36.45-10.19c-3-.83-5.75,1-5.56,3.85.69,10.24,4.58,30.9,22.52,30.83,14.24-.06,19.7-13.79,21.54-20.25A3.43,3.43,0,0,0,2231,659.76Z"/><path class="cls-15" d="M2257.77,490.7q.63,3.49,1.25,7.09c5.14,30.28-59.88-53.58-59.88-53.58C2204.8,507.43,2139,552.9,2115,567.28a9.13,9.13,0,0,1-11.52-1.92c-14-15.65-71.53-12.77-47.16,45.2,8.79,20.92,19.24,31,28.68,35.49a36.78,36.78,0,0,1,21.23,34c-1.91,83,69.18,183.73,17.32,213.75-59.06,34.19-107.12-90.35-193.81-71.51-59.59,13-60,6.72-59.13-2.1a12.08,12.08,0,0,1,.85-3.47,13.84,13.84,0,0,1,4.65-6c102.67-75.86,34.16-243,94.78-366.39,37.09-75.52,88.64-86.44,123.48-83.35l.11,0c22.56,2,38.08,9.92,38.08,9.92a68.4,68.4,0,0,1,20.36-8.87C2181.82,354.59,2234,361.27,2257.77,490.7Z"/><path class="cls-16" d="M2152.88,362.05l0,0c-15.57,7.09-.35,42.68.72,45.13-20.06-38.19-56.84-45.77-59.12-46.2,22.56,2,38.08,9.92,38.08,9.92A68.4,68.4,0,0,1,2152.88,362.05Z"/><path class="cls-16" d="M2257.77,490.7q.63,3.49,1.25,7.09c5.14,30.28-59.88-53.58-59.88-53.58C2204.8,507.43,2139,552.9,2115,567.28a9.13,9.13,0,0,1-11.52-1.92c-14-15.65-71.53-12.77-47.16,45.2,8.79,20.92,19.24,31,28.68,35.49a36.78,36.78,0,0,1,21.23,34c-1.91,83,69.18,183.73,17.32,213.75-59.06,34.19-107.12-90.35-193.81-71.51-59.59,13-60,6.72-59.13-2.1v0a6.65,6.65,0,0,1,3.09-4.88c41.14-26.43,78.19-45.18,139.19,6.43,151,127.77,74.88-116.88,73.87-144.78s-51.95-41.57-47.64-99.07S2106.35,554,2106.35,554c96.2-40.65,86.52-129.78,86.52-129.78C2246.06,492.43,2257.77,490.7,2257.77,490.7Z"/><path class="cls-16" d="M2045.91,387s-60.34,13-77.9,144.44C1968,531.45,1993.64,420.73,2045.91,387Z"/><path class="cls-16" d="M2114.85,382.42s84.54,74.11-12.9,148.47C2102,530.89,2177.23,463.59,2114.85,382.42Z"/><path class="cls-16" d="M2080.25,391.46s39,44.69-56.09,153.43C2024.16,544.89,2094.23,461,2080.25,391.46Z"/><path class="cls-16" d="M1982.8,569.42s-14.14,46.1-17.49,117.47-48.22,85.51-48.22,85.51,51.2,2.14,59.29-84.9S1982.8,569.42,1982.8,569.42Z"/><path class="cls-16" d="M2014.56,638s15.13,215.83,63.75,194C2078.31,831.91,2044.65,831.89,2014.56,638Z"/><path class="cls-5" d="M2097,1339s30.47,43,72.65,51.91,92.15-73,92.15-73l-73.9-85.45-98.34,4.43Z"/><path class="cls-3" d="M2038.11,1319.57l.59,58.81c-15.29-3.8-28.65-9.34-39.25-17,0,0-7.34-305-26.8-423.75l46.81-34.53s31.1,95,27,167.63l134.11,138.94Z"/><path class="cls-11" d="M1955.68,819.57s-63.45-12.07-79.61,88.11-40.26,233.74,0,267.13S2084,1361.34,2084,1361.34s62.36-100.17,127.12-124.35l-181.28-162.35S2046.38,821.23,1955.68,819.57Z"/><path class="cls-17" d="M2714.38,1330.39l-4.57-98a13.78,13.78,0,0,0-14.12-13.13l-280.8,7.55a13.62,13.62,0,0,0-4.72,1L2165,1325.48l-3.21-7.31-33.16,11v20.11l0,0a13.54,13.54,0,0,0,4.78,10.49l178.32,153.15a13.75,13.75,0,0,0,14.63,2.11l379.93-171.44A13.78,13.78,0,0,0,2714.38,1330.39Z"/><path class="cls-18" d="M2311.73,1492.59l-178.32-153.16a13.76,13.76,0,0,1,3.87-23.23l272.89-108.78a13.62,13.62,0,0,1,4.72-1l280.8-7.55a13.77,13.77,0,0,1,14.12,13.12l4.57,98a13.78,13.78,0,0,1-8.09,13.19l-379.93,171.43A13.77,13.77,0,0,1,2311.73,1492.59Z"/><path class="cls-17" d="M2299.69,1452.16l74.7-290.53a14.75,14.75,0,0,1,8.35-9.83l399.35-175.27a14.74,14.74,0,0,1,20,17.84l-91.19,295.8a14.74,14.74,0,0,1-8.11,9.12L2320,1469.3A14.74,14.74,0,0,1,2299.69,1452.16Z"/><path class="cls-19" d="M2311.49,1461.71l74.7-290.54a14.74,14.74,0,0,1,8.35-9.82l399.35-175.27a14.73,14.73,0,0,1,20,17.83l-91.19,295.8a14.75,14.75,0,0,1-8.11,9.13l-382.84,170A14.74,14.74,0,0,1,2311.49,1461.71Z"/><path class="cls-5" d="M2184.35,1353.08c-32.25-9.84-53.53-34.4-53.53-34.4s7.2-15.25,21.5-21.66h0a31.49,31.49,0,0,1,13-2.78c23,.08,32,26.26,32,26.26,23.42-21.12,46.54-15.49,48.18-10.58S2216.61,1362.91,2184.35,1353.08Z"/><path class="cls-6" d="M2245.57,1309.91c-21.49-6.48-49.17,17.58-49.17,17.58-12.35-39.77-42.78-30.86-44.05-30.48a31.49,31.49,0,0,1,13-2.78c23,.08,32,26.26,32,26.26C2220.81,1299.37,2243.93,1305,2245.57,1309.91Z"/><path class="cls-8" d="M1906.36,1326.49l-149.42-110.9V1104.3a65.7,65.7,0,0,0-25-51.55h0l-22.51-18.61-26.49,2-1.23,2.36H949a65.88,65.88,0,0,0-65.8,65.8v298.49a65.33,65.33,0,0,0,3.7,21.71l-3.7,8.82,20,16.65a66.43,66.43,0,0,0,7.75,6.45l.17.14h0a65.45,65.45,0,0,0,37.86,12h742.13a65.88,65.88,0,0,0,65.8-65.8v-59l121.75,37.44a31.9,31.9,0,0,0,9.31,1.41h0a31.12,31.12,0,0,0,18.36-56.1Z"/><path class="cls-7" d="M928.86,1451.78a65.88,65.88,0,0,1-65.8-65.8v-298.5a65.87,65.87,0,0,1,65.8-65.79H1671a65.87,65.87,0,0,1,65.8,65.79v111.3l149.42,110.9a31.12,31.12,0,0,1-18.36,56.1h0a31.9,31.9,0,0,1-9.31-1.41l-121.75-37.44v59a65.88,65.88,0,0,1-65.8,65.8Z"/><path class="cls-4" d="M1865.41,1342.05l-152-46.73V1386a42.46,42.46,0,0,1-42.45,42.45H928.86a42.28,42.28,0,0,1-30.48-12.91h0a42.35,42.35,0,0,1-12-29.54v-298.5A42.46,42.46,0,0,1,928.86,1045H1671a42.45,42.45,0,0,1,42.45,42.45v123l158.85,117.9C1879.29,1333.61,1873.73,1344.61,1865.41,1342.05Z"/><path class="cls-20" d="M1697.14,1054v0L898.41,1415.54l0,0h0a42.35,42.35,0,0,1-12-29.54v-298.5A42.46,42.46,0,0,1,928.86,1045H1671A42.23,42.23,0,0,1,1697.14,1054Z"/><path class="cls-21" d="M1070.1,1112.28A125.73,125.73,0,1,0,1195.85,1238,125.73,125.73,0,0,0,1070.1,1112.28Z"/><rect class="cls-21" x="1228.65" y="1143.12" width="245.96" height="17.48" rx="7.42"/><rect class="cls-21" x="1228.65" y="1184.68" width="358.68" height="17.48" rx="7.42"/><path class="cls-21" d="M1658.38,1228.27h-421a8.74,8.74,0,0,0,0,17.48h421a8.74,8.74,0,0,0,0-17.48Z"/><rect class="cls-21" x="1228.65" y="1271.85" width="234.86" height="17.48" rx="8.74"/><rect class="cls-21" x="1228.65" y="1315.44" width="358.68" height="17.48" rx="7.42"/><path class="cls-10" d="M1187.19,1230.3a125.73,125.73,0,1,1-125.74-125.75A125.25,125.25,0,0,1,1187.19,1230.3Z"/><circle class="cls-9" cx="1061.45" cy="1199.17" r="50.55"/><path class="cls-9" d="M1151.09,1318.46a125.74,125.74,0,0,1-179.29,0,107.69,107.69,0,0,1,179.29,0Z"/><rect class="cls-10" x="1219.99" y="1135.39" width="245.96" height="17.48" rx="7.42"/><rect class="cls-10" x="1219.99" y="1176.95" width="358.68" height="17.48" rx="7.42"/><rect class="cls-10" x="1219.99" y="1220.54" width="438.47" height="17.48" rx="8.74"/><rect class="cls-10" x="1219.99" y="1264.12" width="234.86" height="17.48" rx="8.74"/><rect class="cls-10" x="1219.99" y="1307.71" width="358.68" height="17.48" rx="7.42"/><path class="cls-3" d="M2570.11,1951.14l149.43-110.9V1729a65.67,65.67,0,0,1,25-51.54v0l22.51-18.6,26.49,2,1.23,2.35h732.73a65.87,65.87,0,0,1,65.79,65.8v298.5a65.56,65.56,0,0,1-3.69,21.7l3.69,8.82-20,16.66a66.25,66.25,0,0,1-7.74,6.44l-.17.15h0a65.4,65.4,0,0,1-37.86,12H2785.33a65.86,65.86,0,0,1-65.79-65.79v-59l-121.76,37.43a31.46,31.46,0,0,1-9.3,1.41h0a31.12,31.12,0,0,1-18.36-56.1Z"/><path class="cls-2" d="M3547.62,2076.43a65.87,65.87,0,0,0,65.79-65.8V1712.14a65.87,65.87,0,0,0-65.79-65.8H2805.48a65.87,65.87,0,0,0-65.79,65.8v111.29l-149.43,110.9a31.12,31.12,0,0,0,18.36,56.1h0a31.46,31.46,0,0,0,9.3-1.41l121.76-37.44v59.05a65.87,65.87,0,0,0,65.79,65.8Z"/><path class="cls-4" d="M2611.07,1966.7,2763,1920v90.67a42.45,42.45,0,0,0,42.45,42.44h742.13a42.32,42.32,0,0,0,30.49-12.91h0a42.32,42.32,0,0,0,11.95-29.53V1712.13a42.45,42.45,0,0,0-42.45-42.45H2805.48a42.47,42.47,0,0,0-42.45,42.45v123l-158.85,117.9C2597.19,1958.26,2602.74,1969.26,2611.07,1966.7Z"/><path class="cls-20" d="M2779.33,1678.7v0l798.73,361.48,0,0h0a42.32,42.32,0,0,0,11.95-29.53V1712.13a42.45,42.45,0,0,0-42.45-42.45H2805.48A42.28,42.28,0,0,0,2779.33,1678.7Z"/><path class="cls-7" d="M3426.38,1722.37a25.61,25.61,0,0,1-25.59,25.59H2926.92a25.59,25.59,0,1,1,0-51.18h473.87A25.58,25.58,0,0,1,3426.38,1722.37Z"/><path class="cls-10" d="M3409.17,1722.37a25.61,25.61,0,0,1-25.6,25.59H2926.92a25.59,25.59,0,1,1,0-51.18h456.65A25.59,25.59,0,0,1,3409.17,1722.37Z"/><path class="cls-7" d="M2937.47,1735.64a3.73,3.73,0,0,1-1.88-2.49,4.32,4.32,0,0,1,.88-3.19l2.84-4.3-4.91.31a4.49,4.49,0,0,1-3.22-.81,3.8,3.8,0,0,1,0-5.6,4.49,4.49,0,0,1,3.22-.81l5,.39-2.84-4.38a4.28,4.28,0,0,1-.88-3.19,3.46,3.46,0,0,1,1.88-2.42,3.16,3.16,0,0,1,3.07-.34,4.72,4.72,0,0,1,2.3,2.57l2.38,5.3,2.46-5.3a4.39,4.39,0,0,1,2.26-2.57,3.23,3.23,0,0,1,3.11.34,3.44,3.44,0,0,1,1.88,2.5,4.61,4.61,0,0,1-1,3.19l-2.84,4.3,5-.39a4.86,4.86,0,0,1,3.26.85,3.25,3.25,0,0,1,1.19,2.76,3.36,3.36,0,0,1-1.19,2.8,4.5,4.5,0,0,1-3.26.81l-5-.31,2.84,4.3a4.54,4.54,0,0,1,1,3.15,3.4,3.4,0,0,1-1.88,2.45,3.23,3.23,0,0,1-3.11.35,4.75,4.75,0,0,1-2.26-2.5l-2.46-5.45-2.53,5.45a4.77,4.77,0,0,1-2.27,2.5A3.2,3.2,0,0,1,2937.47,1735.64Z"/><path class="cls-7" d="M3007.18,1735.64a3.67,3.67,0,0,1-1.88-2.49,4.28,4.28,0,0,1,.88-3.19l2.84-4.3-4.91.31a4.51,4.51,0,0,1-3.23-.81,3.8,3.8,0,0,1,0-5.6,4.51,4.51,0,0,1,3.23-.81l5,.39-2.84-4.38a4.29,4.29,0,0,1-.89-3.19,3.51,3.51,0,0,1,1.88-2.42,3.16,3.16,0,0,1,3.07-.34,4.73,4.73,0,0,1,2.31,2.57l2.38,5.3,2.45-5.3a4.43,4.43,0,0,1,2.27-2.57,3.23,3.23,0,0,1,3.11.34,3.46,3.46,0,0,1,1.88,2.5,4.61,4.61,0,0,1-1,3.19l-2.84,4.3,5-.39a4.86,4.86,0,0,1,3.26.85,3.27,3.27,0,0,1,1.19,2.76,3.39,3.39,0,0,1-1.19,2.8,4.5,4.5,0,0,1-3.26.81l-5-.31,2.84,4.3a4.54,4.54,0,0,1,1,3.15,3.42,3.42,0,0,1-1.88,2.45,3.23,3.23,0,0,1-3.11.35,4.77,4.77,0,0,1-2.27-2.5L3015,1728l-2.54,5.45a4.75,4.75,0,0,1-2.26,2.5A3.19,3.19,0,0,1,3007.18,1735.64Z"/><path class="cls-7" d="M3076.88,1735.64a3.73,3.73,0,0,1-1.88-2.49,4.32,4.32,0,0,1,.88-3.19l2.84-4.3-4.91.31a4.49,4.49,0,0,1-3.22-.81,3.8,3.8,0,0,1,0-5.6,4.49,4.49,0,0,1,3.22-.81l5,.39-2.84-4.38a4.28,4.28,0,0,1-.88-3.19,3.48,3.48,0,0,1,1.88-2.42,3.16,3.16,0,0,1,3.07-.34,4.72,4.72,0,0,1,2.3,2.57l2.38,5.3,2.46-5.3a4.39,4.39,0,0,1,2.26-2.57,3.23,3.23,0,0,1,3.11.34,3.44,3.44,0,0,1,1.88,2.5,4.61,4.61,0,0,1-1,3.19l-2.84,4.3,5-.39a4.89,4.89,0,0,1,3.27.85,3.27,3.27,0,0,1,1.19,2.76,3.39,3.39,0,0,1-1.19,2.8,4.53,4.53,0,0,1-3.27.81l-5-.31,2.84,4.3a4.54,4.54,0,0,1,1,3.15,3.4,3.4,0,0,1-1.88,2.45,3.23,3.23,0,0,1-3.11.35,4.75,4.75,0,0,1-2.26-2.5l-2.46-5.45-2.53,5.45a4.73,4.73,0,0,1-2.27,2.5A3.2,3.2,0,0,1,3076.88,1735.64Z"/><path class="cls-7" d="M3146.59,1735.64a3.67,3.67,0,0,1-1.88-2.49,4.28,4.28,0,0,1,.88-3.19l2.84-4.3-4.91.31a4.51,4.51,0,0,1-3.23-.81,3.8,3.8,0,0,1,0-5.6,4.51,4.51,0,0,1,3.23-.81l5,.39-2.85-4.38a4.32,4.32,0,0,1-.88-3.19,3.51,3.51,0,0,1,1.88-2.42,3.16,3.16,0,0,1,3.07-.34,4.73,4.73,0,0,1,2.31,2.57l2.38,5.3,2.45-5.3a4.43,4.43,0,0,1,2.27-2.57,3.23,3.23,0,0,1,3.11.34,3.46,3.46,0,0,1,1.88,2.5,4.61,4.61,0,0,1-1,3.19l-2.84,4.3,5-.39a4.86,4.86,0,0,1,3.26.85,3.27,3.27,0,0,1,1.19,2.76,3.39,3.39,0,0,1-1.19,2.8,4.5,4.5,0,0,1-3.26.81l-5-.31,2.84,4.3a4.54,4.54,0,0,1,1,3.15,3.42,3.42,0,0,1-1.88,2.45,3.23,3.23,0,0,1-3.11.35,4.77,4.77,0,0,1-2.27-2.5l-2.45-5.45-2.54,5.45a4.75,4.75,0,0,1-2.26,2.5A3.19,3.19,0,0,1,3146.59,1735.64Z"/><path class="cls-7" d="M3216.29,1735.64a3.73,3.73,0,0,1-1.88-2.49,4.32,4.32,0,0,1,.88-3.19l2.85-4.3-4.92.31a4.5,4.5,0,0,1-3.22-.81,3.8,3.8,0,0,1,0-5.6,4.5,4.5,0,0,1,3.22-.81l5,.39-2.84-4.38a4.28,4.28,0,0,1-.88-3.19,3.48,3.48,0,0,1,1.88-2.42,3.16,3.16,0,0,1,3.07-.34,4.72,4.72,0,0,1,2.3,2.57l2.38,5.3,2.46-5.3a4.42,4.42,0,0,1,2.26-2.57,3.23,3.23,0,0,1,3.11.34,3.41,3.41,0,0,1,1.88,2.5,4.65,4.65,0,0,1-.95,3.19l-2.85,4.3,5-.39a4.89,4.89,0,0,1,3.27.85,3.27,3.27,0,0,1,1.19,2.76,3.39,3.39,0,0,1-1.19,2.8,4.53,4.53,0,0,1-3.27.81l-5-.31,2.85,4.3a4.58,4.58,0,0,1,.95,3.15,3.37,3.37,0,0,1-1.88,2.45,3.23,3.23,0,0,1-3.11.35,4.75,4.75,0,0,1-2.26-2.5l-2.46-5.45-2.53,5.45a4.75,4.75,0,0,1-2.26,2.5A3.21,3.21,0,0,1,3216.29,1735.64Z"/><path class="cls-7" d="M3286,1735.64a3.7,3.7,0,0,1-1.88-2.49,4.28,4.28,0,0,1,.88-3.19l2.84-4.3-4.91.31a4.53,4.53,0,0,1-3.23-.81,3.82,3.82,0,0,1,0-5.6,4.53,4.53,0,0,1,3.23-.81l5,.39-2.84-4.38a4.28,4.28,0,0,1-.88-3.19,3.46,3.46,0,0,1,1.88-2.42,3.16,3.16,0,0,1,3.07-.34,4.72,4.72,0,0,1,2.3,2.57l2.38,5.3,2.46-5.3a4.39,4.39,0,0,1,2.26-2.57,3.23,3.23,0,0,1,3.11.34,3.46,3.46,0,0,1,1.88,2.5,4.61,4.61,0,0,1-1,3.19l-2.84,4.3,5-.39a4.86,4.86,0,0,1,3.26.85,3.25,3.25,0,0,1,1.19,2.76,3.36,3.36,0,0,1-1.19,2.8,4.5,4.5,0,0,1-3.26.81l-5-.31,2.84,4.3a4.54,4.54,0,0,1,1,3.15,3.42,3.42,0,0,1-1.88,2.45,3.23,3.23,0,0,1-3.11.35,4.72,4.72,0,0,1-2.26-2.5l-2.46-5.45-2.53,5.45a4.77,4.77,0,0,1-2.27,2.5A3.19,3.19,0,0,1,3286,1735.64Z"/><path class="cls-7" d="M3355.7,1735.64a3.73,3.73,0,0,1-1.88-2.49,4.29,4.29,0,0,1,.89-3.19l2.84-4.3-4.92.31a4.5,4.5,0,0,1-3.22-.81,3.8,3.8,0,0,1,0-5.6,4.5,4.5,0,0,1,3.22-.81l5,.39-2.84-4.38a4.32,4.32,0,0,1-.88-3.19,3.51,3.51,0,0,1,1.88-2.42,3.16,3.16,0,0,1,3.07-.34,4.72,4.72,0,0,1,2.3,2.57l2.39,5.3,2.45-5.3a4.4,4.4,0,0,1,2.27-2.57,3.21,3.21,0,0,1,3.1.34,3.45,3.45,0,0,1,1.89,2.5,4.71,4.71,0,0,1-1,3.19l-2.84,4.3,5-.39a4.88,4.88,0,0,1,3.26.85,3.27,3.27,0,0,1,1.19,2.76,3.39,3.39,0,0,1-1.19,2.8,4.51,4.51,0,0,1-3.26.81l-5-.31,2.84,4.3a4.64,4.64,0,0,1,1,3.15,3.41,3.41,0,0,1-1.89,2.45,3.21,3.21,0,0,1-3.1.35,4.73,4.73,0,0,1-2.27-2.5l-2.45-5.45-2.54,5.45a4.75,4.75,0,0,1-2.26,2.5A3.21,3.21,0,0,1,3355.7,1735.64Z"/><path class="cls-21" d="M3037.87,1800.46a92.58,92.58,0,1,0,92.59,92.59A92.58,92.58,0,0,0,3037.87,1800.46Z"/><path class="cls-10" d="M3141.12,1886.76a92.58,92.58,0,1,1-92.59-92.59A92.2,92.2,0,0,1,3141.12,1886.76Z"/><circle class="cls-9" cx="3048.53" cy="1863.84" r="37.22"/><path class="cls-9" d="M3114.54,1951.67a92.57,92.57,0,0,1-132,0,79.29,79.29,0,0,1,132,0Z"/><path class="cls-21" d="M3347.88,1782.5h-114c-5.41,34.84-40.48,28.59-40.48,28.59,0,178.94,97.49,208.53,97.49,208.53s97.5-29.59,97.5-208.53C3388.37,1811.09,3353.29,1817.34,3347.88,1782.5Z"/><path class="cls-2" d="M3397.29,1804.45c0,178.93-97.5,208.52-97.5,208.52s-97.49-29.59-97.49-208.52c0,0,35.08,6.24,40.49-28.6h114C3362.21,1810.69,3397.29,1804.45,3397.29,1804.45Z"/><path class="cls-10" d="M3340.52,1798.42a51.66,51.66,0,0,0,19.53,20.95,55.89,55.89,0,0,0,14.18,5.92c-1.39,29.25-5.79,55.64-13.09,78.55-7,21.94-16.65,40.77-28.7,56-12.47,15.73-24.86,24.22-32.65,28.45-7.79-4.23-20.18-12.72-32.64-28.45-12.06-15.21-21.71-34-28.71-56-7.3-22.91-11.69-49.3-13.09-78.55a55.59,55.59,0,0,0,14.18-5.92,51.53,51.53,0,0,0,19.53-20.95Zm4.83-7.53h-91.12a44.31,44.31,0,0,1-18.55,22,50.21,50.21,0,0,1-18.1,6.33c1.06,32.47,5.65,61.64,13.7,86.88,7.26,22.81,17.35,42.45,30,58.38,15.47,19.51,31.09,28.65,38.54,32.21,7.46-3.56,23.08-12.7,38.55-32.21,12.62-15.93,22.7-35.57,30-58.38,8-25.24,12.64-54.41,13.7-86.88a50.39,50.39,0,0,1-18.11-6.33,44.31,44.31,0,0,1-18.55-22Z"/><path class="cls-10" d="M3286.12,1910.16a3.76,3.76,0,0,1-2.66-1.1l-13.73-13.74a3.76,3.76,0,0,1,5.32-5.32l10.7,10.71,32.31-42.19a3.76,3.76,0,1,1,6,4.58l-34.92,45.59a3.76,3.76,0,0,1-2.74,1.46Z"/><rect class="cls-7" x="2792.33" y="378.82" width="525.44" height="189.72" rx="38.37"/><path class="cls-10" d="M2869.73,510.3a63.4,63.4,0,0,1-13.58-1.49,41.07,41.07,0,0,1-11.77-4.35,7,7,0,0,1-3.72-4.29,7.88,7.88,0,0,1,.32-5.25,6.56,6.56,0,0,1,3.4-3.61c1.55-.71,3.43-.53,5.62.53a33.47,33.47,0,0,0,9.44,3.61,46.66,46.66,0,0,0,10.29,1.16q7.64,0,11-2.38a7.13,7.13,0,0,0,3.34-6,5.87,5.87,0,0,0-2.33-4.88q-2.34-1.8-8.17-3.07l-12-2.55q-20.05-4.23-20-20.79a20.94,20.94,0,0,1,3.82-12.46,24.94,24.94,0,0,1,10.66-8.33,39.54,39.54,0,0,1,15.86-3,48.18,48.18,0,0,1,11.67,1.43,34.25,34.25,0,0,1,10.08,4.19,6.68,6.68,0,0,1,3.28,4.14,7.42,7.42,0,0,1-.37,4.88,6,6,0,0,1-3.39,3.29c-1.59.63-3.55.39-5.89-.75a30.23,30.23,0,0,0-7.42-2.65,38.51,38.51,0,0,0-8.07-.85q-6.67,0-10.34,2.6a7.94,7.94,0,0,0-3.66,6.74,6.23,6.23,0,0,0,2.23,5c1.48,1.28,4.07,2.3,7.74,3.08l12,2.55q20.58,4.45,20.58,20.15a20.47,20.47,0,0,1-3.77,12.25,24.44,24.44,0,0,1-10.6,8.17A41,41,0,0,1,2869.73,510.3Z"/><path class="cls-10" d="M2919.27,510.09a8.14,8.14,0,0,1-6.16-2.23,8.74,8.74,0,0,1-2.12-6.26V441.88q0-8.49,8.28-8.49t8.16,8.49V501.6Q2927.43,510.09,2919.27,510.09Z"/><path class="cls-10" d="M2979.52,510.3q-12.63,0-21.38-4.77a32.18,32.18,0,0,1-13.31-13.37,42.41,42.41,0,0,1-4.56-20.16q0-11.87,4.72-20.57A32.8,32.8,0,0,1,2958.62,438q8.91-4.77,21.43-4.77a52.61,52.61,0,0,1,11.46,1.27,40.66,40.66,0,0,1,11,4.25,6.41,6.41,0,0,1,3.45,4.24,7.88,7.88,0,0,1-.59,5.14,7.18,7.18,0,0,1-3.55,3.61c-1.59.74-3.49.58-5.68-.48a34.11,34.11,0,0,0-16-3.71q-11.35,0-17,6.31T2957.45,472q0,12,5.79,18.14t17.13,6.16a46.5,46.5,0,0,0,12.73-1.91V479.75h-9.55q-6.59,0-6.58-5.94t6.58-5.94h16.65q6.48,0,6.47,6.57v24.61a9.15,9.15,0,0,1-1.11,4.67,6.36,6.36,0,0,1-3.55,2.76,68.21,68.21,0,0,1-10.72,2.76A67.5,67.5,0,0,1,2979.52,510.3Z"/><path class="cls-10" d="M3028.84,510.09q-7.64,0-7.63-8V441.67a8.76,8.76,0,0,1,2-6.16,6.83,6.83,0,0,1,5.25-2.12,7.41,7.41,0,0,1,4.35,1.12,18.61,18.61,0,0,1,3.61,3.66L3070.74,482V441.24q0-7.85,7.64-7.85t7.64,7.85v61.21a8.2,8.2,0,0,1-1.8,5.57,6.15,6.15,0,0,1-4.88,2.07,8.37,8.37,0,0,1-4.72-1.17,17.51,17.51,0,0,1-3.77-3.71l-34.37-43.81v40.73Q3036.48,510.08,3028.84,510.09Z"/><path class="cls-10" d="M3162.71,510.3q-15.91,0-24.24-8.17t-8.32-24.29V441.77a8.49,8.49,0,0,1,2.12-6.2,8.2,8.2,0,0,1,6.15-2.18q8.17,0,8.17,8.38v36.17q0,9.13,4.14,13.74t12,4.62q16,0,16-18.36V441.77q0-8.37,8.17-8.38a7.89,7.89,0,0,1,6,2.18,8.65,8.65,0,0,1,2.07,6.2v36.07q0,16.13-8.17,24.29T3162.71,510.3Z"/><path class="cls-10" d="M3217.77,510.09a8.14,8.14,0,0,1-6.16-2.23,8.74,8.74,0,0,1-2.12-6.26V442.73q0-8.39,8.38-8.38h25.78q12.51,0,19.31,6.31t6.79,17.55q0,11.25-6.79,17.61t-19.31,6.37h-17.72V501.6a8.85,8.85,0,0,1-2.06,6.26A8,8,0,0,1,3217.77,510.09Zm8.16-40.63h15q13.05,0,13.05-11.25,0-11-13.05-11h-15Z"/><path class="cls-3" d="M1910.71,2093.25a361.18,361.18,0,0,1-106.5,257.08q-7.62,7.61-15.59,14.7a360.6,360.6,0,0,1-223.08,91.34q-9.16.45-18.42.44a363.58,363.58,0,0,1,0-727.15q9.26,0,18.42.46a360.18,360.18,0,0,1,181.55,59.35c-.68,1.35-1.35,2.7-2,4.06q-2.92,6.24-5.31,12.76a147.18,147.18,0,0,0-8.81,50.29c0,81.6,66.39,148,148,148q3.27,0,6.48-.14,7.14-.32,14.07-1.29A365,365,0,0,1,1910.71,2093.25Z"/><path class="cls-2" d="M1947.52,2093.25A363.55,363.55,0,0,1,1584,2456.81q-9.24,0-18.42-.44a363.58,363.58,0,0,1-238.68-620.21c64.32-64.32,148.49-101.57,238.68-106q9.18-.45,18.42-.46a361.65,361.65,0,0,1,172.84,43.53,146.28,146.28,0,0,0-9.71,16.28c-.68,1.35-1.35,2.7-2,4.06q-2.92,6.24-5.31,12.76a147.18,147.18,0,0,0-8.81,50.29c0,81.6,66.39,148,148,148q3.27,0,6.48-.14,7.14-.32,14.07-1.29c4-.55,8.07-1.29,12-2.18a145.43,145.43,0,0,0,22.39-7A365.22,365.22,0,0,1,1947.52,2093.25Z"/><path class="cls-22" d="M1924.18,2093.25c0,111.06-53.23,209.7-135.56,271.78A338.63,338.63,0,0,1,1584,2433.47q-6.8,0-13.52-.26c-181.64-7.1-326.72-156.6-326.72-340s145.08-332.88,326.72-340c4.48-.16,9-.26,13.52-.26a338.51,338.51,0,0,1,161.14,40.53q-2.94,6.23-5.31,12.76a147.08,147.08,0,0,0-8.8,50.28c0,81.59,66.38,148,148,148q3.25,0,6.48-.14,7.13-.32,14.07-1.28c4-.56,8-1.3,12-2.19A340.4,340.4,0,0,1,1924.18,2093.25Z"/><path class="cls-9" d="M1897.15,2093.25c0,183.36-145.08,332.86-326.71,340-181.64-7.1-326.72-156.6-326.72-340s145.08-332.88,326.72-340a338.21,338.21,0,0,1,169.35,53,147.08,147.08,0,0,0-8.8,50.28c0,81.59,66.38,148,148,148q3.25,0,6.48-.14A340.35,340.35,0,0,1,1897.15,2093.25Z"/><path class="cls-22" d="M1778.59,2031.36h-.89c-3.61-3.67-18.5-18.77-39-38.86v-33.43H1704c-54.37-51.62-122-111.62-142.68-111.62-23,0-90.52,60-144.35,111.62h-33.52v32.72c-20.59,20.43-35.52,35.84-39.11,39.56h-.84v248.31a13.38,13.38,0,0,0,3.59,9.06h0l.16.2-.75.68.76-.67,0,0-.23.21a15.22,15.22,0,0,0,5.06,3.55,10.7,10.7,0,0,0,4.68,1.14h406.55a15.77,15.77,0,0,0,6.45-1.37,15.41,15.41,0,0,0,5.27-3.32l-.21-.18c.16-.17.24-.27.24-.27l-.06-.07a13.38,13.38,0,0,0,3.53-9Z"/><path class="cls-23" d="M1366.43,2019.2s177.46-184.77,217.81-184.77c36.26,0,217.2,184.77,217.2,184.77s-7.38-.29-14.91-.29H1380C1374.22,2018.91,1366.43,2019.2,1366.43,2019.2Z"/><path class="cls-24" d="M1797.74,2018.6s-177.8-183.68-214-183.68c-40.35,0-216.1,186.24-216.1,186.24S1543.66,1847.9,1584,1847.9C1620.25,1847.9,1797.74,2018.6,1797.74,2018.6Z"/><path class="cls-25" d="M1367,2018.62s176,200.43,216.31,200.43c36.25,0,217.33-200.18,217.33-200.18s-7,4.4-14.56,4.4H1379.47C1373.72,2023.27,1367,2018.62,1367,2018.62Z"/><rect class="cls-10" x="1406.37" y="1946.06" width="355.2" height="241.67"/><path class="cls-23" d="M1366.43,2018.33v248.31c0,7.77,6.81,14.06,15.21,14.06h404.58c8.41,0,15.22-6.29,15.22-14.06V2018.33l-43,.35L1584,2154.59,1418,2018.33Z"/><path class="cls-24" d="M1758.52,2018.68,1584,2154.59l-166-136.26h-51.6v248.31c0,7.77,6.81,14.06,15.21,14.06h404.59c8.39,0,15.21-6.29,15.21-14.06V2018.33ZM1792.63,2262c0,7.46-6.54,13.49-14.6,13.49H1389.62c-8.07,0-14.61-6-14.61-13.49V2023.66h38l171,141.14,177.25-140.89,31.41-.25Z"/><g class="cls-26"><polygon class="cls-25" points="1625.89 2121.34 1634.12 2124.77 1783.51 2261.84 1610.94 2131.99 1625.89 2121.34"/></g><g class="cls-26"><polygon class="cls-25" points="1540.66 2119.02 1531.53 2124.1 1385.82 2264.88 1556.92 2131.99 1540.66 2119.02"/></g><path class="cls-27" d="M1370,2276.16s173.63-157.57,214-157.57c36.25,0,214,157.57,214,157.57a16.84,16.84,0,0,1-11.76,4.54H1379.68C1373.91,2280.7,1370,2276.16,1370,2276.16Z"/><path class="cls-24" d="M1788.16,2265.94a14.58,14.58,0,0,1-6.89,1.73H1384.75a10,10,0,0,1-5.25-1.6c-6,6-9.5,9.64-9.5,9.64s4,5.14,9.71,5.14h406.55a16,16,0,0,0,11.75-5.14S1794.36,2272.05,1788.16,2265.94Z"/><path class="cls-24" d="M1797.43,2276.59s-177.8-157.57-214-157.57c-40.35,0-214,157.57-214,157.57s173.62-153.74,214-153.74C1619.63,2122.85,1797.43,2276.59,1797.43,2276.59Z"/><circle class="cls-4" cx="1878.95" cy="1856.58" r="124.61"/><path class="cls-10" d="M1867.07,1936.19q-12.66,0-18.44-13.3l-24.5-48.49q-3.64-8.37-.21-14.69t14.15-6.32a15.49,15.49,0,0,1,9.43,2.68q3.64,2.68,6.44,10.18l14.2,29.62,46.23-112.1q3-7.29,6.65-10t10.08-2.68q8.14,0,11.58,6.32t-.43,14.47l-56.52,131Q1880.15,1936.2,1867.07,1936.19Z"/><path class="cls-22" d="M3149.79,1426.2h0a47.18,47.18,0,0,1-30.18-52.49c9.1-51.29,7.76-110.4-19.17-169.25s-70.79-98.5-115.55-125.13a47.18,47.18,0,0,1-20-57.16h0a47.21,47.21,0,0,1,68.79-23.71c54.34,33.28,113.42,85.88,150.8,167.54s38.55,160.76,28.22,223.64A47.21,47.21,0,0,1,3149.79,1426.2Z"/><path class="cls-22" d="M3281.19,1474.59h0a45.12,45.12,0,0,1-28.41-52.24c16.13-72.21,21.22-171.77-26.29-275.58s-126.18-165-191.37-200a45.12,45.12,0,0,1-21-55.65h0a45.14,45.14,0,0,1,62.65-24.35c68.47,34.55,171.73,106.11,233.72,241.57s48.65,260.37,30,334.77A45.14,45.14,0,0,1,3281.19,1474.59Z"/><path class="cls-22" d="M3014.38,1376.35h0a46.83,46.83,0,0,1-30.82-46.28c1.24-22.3-2-44.89-12-66.64s-24.92-39-42.61-52.62c-16.24-12.52-22.09-34.38-14.88-53.57h0a47.18,47.18,0,0,1,72.39-21.17c28.7,21.4,54.65,49.85,71.93,87.62s21.86,76,19.29,111.71A47.18,47.18,0,0,1,3014.38,1376.35Z"/><circle class="cls-22" cx="2882.65" cy="1304.13" r="52.37"/><path class="cls-9" d="M3125.47,1442.43h0a47.18,47.18,0,0,1-30.18-52.49c9.1-51.29,7.76-110.4-19.17-169.25s-70.79-98.5-115.55-125.13a47.18,47.18,0,0,1-20-57.16h0a47.21,47.21,0,0,1,68.79-23.71c54.34,33.28,113.42,85.88,150.79,167.54s38.56,160.76,28.23,223.64A47.21,47.21,0,0,1,3125.47,1442.43Z"/><path class="cls-9" d="M3256.87,1490.82h0a45.12,45.12,0,0,1-28.41-52.24c16.13-72.21,21.22-171.77-26.29-275.58S3076,998,3010.8,963a45.11,45.11,0,0,1-21-55.65h0A45.14,45.14,0,0,1,3052.49,883c68.47,34.55,171.73,106.11,233.72,241.57s48.65,260.37,30,334.77A45.14,45.14,0,0,1,3256.87,1490.82Z"/><path class="cls-9" d="M2990.06,1392.58h0a46.85,46.85,0,0,1-30.83-46.28c1.24-22.3-2-44.89-12-66.64s-24.92-39-42.61-52.62c-16.24-12.52-22.09-34.38-14.88-53.57h0a47.18,47.18,0,0,1,72.39-21.17c28.7,21.4,54.65,49.85,71.93,87.62s21.86,76,19.29,111.71A47.18,47.18,0,0,1,2990.06,1392.58Z"/><circle class="cls-9" cx="2858.33" cy="1320.36" r="52.37"/></svg>