<svg xmlns="http://www.w3.org/2000/svg" viewBox="0 0 4680 3120"><defs><style>.cls-1,.cls-3{fill:#fff;}.cls-1{opacity:0;}.cls-2{fill:#ffefeb;}.cls-4{fill:#f7c2ad;}.cls-5{fill:#d3b4a3;}.cls-6{opacity:0.37;}.cls-7{fill:#4d1b1c;}.cls-8{fill:#bf9e88;}.cls-9{opacity:0.53;}.cls-10{opacity:0.58;}.cls-11{fill:#fdb23d;}.cls-12{opacity:0.2;}.cls-13{fill:#9e7e6c;}.cls-14{opacity:0.6;}.cls-15{opacity:0.5;}.cls-16{opacity:0.15;}.cls-17{fill:#330406;}.cls-18{fill:#db9883;}.cls-19{opacity:0.68;}.cls-20{opacity:0.26;}.cls-21{opacity:0.38;}.cls-22{fill:#eaa992;}.cls-23{fill:#029d99;}.cls-24{fill:#017771;}.cls-25{fill:#f2674a;}.cls-26{opacity:0.24;}.cls-27{opacity:0.39;}.cls-28{fill:#e59a83;}</style></defs><title>03</title><g id="_03" data-name="03"><rect id="_03-2" data-name="03" class="cls-1" width="4680" height="3120"/><path class="cls-2" d="M3727.27,2139.08q-15.39,13-31.34,25.24a867.09,867.09,0,0,1-154,95c-101.65,48.7-212.54,87.47-326.64,115.31q-15.63,3.82-31.33,7.35c-133.16,30-269.93,45.14-400.89,43.79q-39.87-.41-79.78-3.13-15.68-1.07-31.34-2.5c-168.74-15.51-335.05-63.12-480.67-149.27q-13.9-8.22-27.54-16.91a22.12,22.12,0,0,0-3.8-1.91c-29.95-11.84-110.3,20.11-138.66,25.57-71.34,13.74-142.92,26.4-214.41,39.39q-63.78,11.58-127.6,23-15.67,2.83-31.34,5.62-141.45,25.28-283,49.83c-66.51,11.53-133.19,16.47-197.64,10.75q-15.76-1.4-31.34-3.66c-81.89-12-159.44-42.64-227.49-100.68-115.71-98.67-193.83-238.84-239.88-381.39-70.47-218.12-78.32-455.7-52.85-681.92,17-150.7,55.63-300.6,129.7-433.36,85-152.37,227.21-284.38,390.52-364.26q15.55-7.61,31.34-14.57c153.65-67.77,323.45-89.05,480.67-38.57q15.76,5.06,31.34,11.08c52.72,20.41,103.78,49.28,152,87.58,65.57,52,111.24,121.63,153.26,192.71,22.28,37.68,43.08,76.21,66,113.52,12.82,20.89,71.06,81.47,71.06,102.82,0,24.83,15.12,41.12,38.32,51.47a156.56,156.56,0,0,0,31.34,9.76c71.35,15,175.6-.42,203.09-5.61,97.24-18.36,187.59-58.12,277.58-99.39l31.34-14.39c59.39-27.29,118.95-54.22,180.57-75.08,97-32.83,197.9-58.7,300.1-71.2q15.65-1.9,31.33-3.39c70.36-6.67,141.18-6.72,211.6,1.93,92.41,11.36,184.68,35.46,269.07,74q15.87,7.23,31.34,15.17c119.86,61.45,221,154,279.55,282.8C4174,1429.43,4030.72,1883.64,3727.27,2139.08Z"/><path class="cls-2" d="M1175.36,2480.7q-8.91,0-17.71-.23c-11.38-.29-22.69-.88-33.59-1.75-45.5-3.62-88.82-12.35-128.76-26a462.77,462.77,0,0,1-119.84-61.44c-148.17-105.76-232.53-258.47-277.22-368C519.14,1829.57,487,1601,502.71,1344c4.9-80,16.06-156.2,33.19-226.44,18.93-77.63,45.68-150.24,79.5-215.82,81-157.07,224.59-299,393.91-389.31,10.81-5.77,21.73-11.33,32.46-16.53,82.11-39.88,166.36-66.3,250.4-78.51,89.37-13,176.42-9.51,258.72,10.33,11.41,2.74,22.86,5.84,34,9.21a633.4,633.4,0,0,1,167,78.67C1828,565.94,1881.82,637,1926.3,699.66c10.64,15,21.19,30.38,31.39,45.27,14.48,21.13,29.46,43,44.91,64,4.71,6.41,14.9,16.87,26.69,29,30.78,31.59,54.38,56.93,55.23,71.6,1.22,21.2,14.53,36,40.68,45.29a169,169,0,0,0,32.88,7.62c85.87,12,211.69-17.63,213-17.93,99.72-23.77,189-66.53,287-115.84l16.39-8.26,15.93-8c65.18-32.85,124.25-62,187.08-86.15,111.72-42.94,214.48-72.26,314.16-89.64,11.3-2,22.42-3.75,33.06-5.31,77.49-11.47,153.13-15.18,224.83-11,103.93,6,201.54,25.43,290.12,57.71,11.45,4.16,23,8.63,34.2,13.3,68,28.18,128.54,64.06,180,106.65,55.41,45.88,100.55,99.87,134.17,160.46,48.4,87.23,78.89,182.93,90.63,284.44,11.18,96.71,5.17,196.37-17.89,296.22-45.55,197.31-154.67,381-307.25,517.29h0c-10.27,9.19-21,18.36-31.85,27.24a935.7,935.7,0,0,1-158.18,104.76c-103.8,54.35-218.09,99.9-339.68,135.39-10.88,3.18-21.92,6.3-32.8,9.27-141.28,38.68-283.42,61.68-422.48,68.35-28.16,1.36-56.7,1.95-84.81,1.76-11.24-.07-22.48-.27-33.4-.58-92-2.66-181.88-13.75-267-33-89.56-20.21-174.29-49.53-251.83-87.13-10-4.86-20.2-10-30.23-15.26a20,20,0,0,0-3.39-1.37c-22.12-6.83-71.75,10.32-108,22.84-14.27,4.93-26.6,9.19-35,11.22-57.1,13.83-115.34,27.24-171.65,40.22q-26.48,6.1-52.94,12.22c-48.48,11.21-92.2,21.28-133.67,30.76q-16.41,3.8-32.83,7.53c-98.37,22.49-198.14,45-296.56,67C1297.65,2473.09,1234.7,2480.7,1175.36,2480.7ZM1395.64,418c-114.55,0-233.29,28.78-350.16,85.54-10.63,5.15-21.45,10.67-32.17,16.38C845.48,609.43,703.2,750,623,905.59,559,1029.52,521.43,1177.18,511.2,1344.46c-15.63,255.75,16.3,483.09,94.92,675.7,44.26,108.44,127.77,259.66,274.29,364.24,69.46,49.6,151.67,78.48,244.32,85.84,10.76.86,21.91,1.44,33.14,1.73,63.8,1.65,131.66-5.78,207.43-22.71,98.4-22,198.16-44.55,296.52-67q16.41-3.74,32.82-7.52c41.47-9.49,85.18-19.55,133.66-30.77l52.94-12.22c56.29-13,114.5-26.38,171.56-40.19,8-1.94,20.15-6.13,34.21-11,39.43-13.63,88.5-30.58,113.26-22.94a28.28,28.28,0,0,1,4.85,2c10,5.23,20,10.32,30,15.14,149.71,72.6,327.92,113.83,515.37,119.23,10.86.32,22,.51,33.2.58,28,.19,56.34-.39,84.35-1.74,138.44-6.64,280-29.54,420.65-68.06,10.83-3,21.82-6.06,32.65-9.23,121.06-35.34,234.82-80.68,338.12-134.76a927.1,927.1,0,0,0,156.75-103.82c10.77-8.8,21.38-17.88,31.55-27h0c323.95-289.33,421.83-746.68,232.73-1087.48C4016,846.17,3911.7,757.56,3770.55,699.05c-11.14-4.62-22.52-9-33.86-13.16-87.8-32-184.6-51.24-287.7-57.21-71.12-4.11-146.17-.42-223.1,11-10.57,1.55-21.62,3.33-32.84,5.28-99.13,17.28-201.37,46.46-312.57,89.2-62.46,24-121.33,53.06-186.3,85.81l-15.93,8-16.4,8.26c-98.51,49.56-188.24,92.54-288.84,116.52-1.06.25-89.22,21-169.16,21a341.92,341.92,0,0,1-46.94-2.92,176.88,176.88,0,0,1-34.55-8C2093,952.38,2077.45,934.62,2076,910c-.73-12.67-32.08-44.86-52.83-66.16-12-12.33-22.39-23-27.45-29.87-15.53-21.11-30.55-43-45.07-64.21-10.19-14.85-20.71-30.21-31.32-45.15-44-62-97.28-132.36-172.12-181.94A624.77,624.77,0,0,0,1582.46,445c-11-3.32-22.3-6.37-33.56-9.08A653,653,0,0,0,1395.64,418Z"/><path class="cls-3" d="M1167.23,426.42V2406.26q-15.76-1.4-31.34-3.66V441Q1151.45,433.39,1167.23,426.42Z"/><path class="cls-3" d="M1679.24,398.93V2340.06q-15.67,2.83-31.34,5.62V387.85Q1663.67,392.91,1679.24,398.93Z"/><path class="cls-3" d="M2191.25,956.79V2270.91q-13.9-8.22-27.54-16.91a22.12,22.12,0,0,0-3.8-1.91V947A156.56,156.56,0,0,0,2191.25,956.79Z"/><path class="cls-3" d="M2703.26,837.4V2422.68q-15.68-1.07-31.34-2.5V851.79Z"/><path class="cls-3" d="M3215.26,687.73V2374.67q-15.63,3.82-31.33,7.35V691.12Q3199.58,689.22,3215.26,687.73Z"/><path class="cls-3" d="M3727.27,778.85V2139.08q-15.39,13-31.34,25.24V763.68Q3711.8,770.91,3727.27,778.85Z"/><ellipse class="cls-2" cx="2623.04" cy="2613.88" rx="1150.66" ry="146.12"/><path class="cls-4" d="M1345.34,2475c346.55-.78,693.12-5,1039.68-6.46q517.21-2.14,1034.41-.64,291.75,1,583.48,3.29c9.72.07,10.23-18.21.48-18.29q-519.81-4.3-1039.66-4.27-517.21,0-1034.46,5c-194.54,1.8-389.07,4.27-583.61,9-6.55.16-6.93,12.39-.32,12.37Z"/><path class="cls-5" d="M3067.39,1948.49l-231.75,184.92-17.58-14.78-34.12-28.7L2376.87,1747.6l107.07-5.09.55.51c14,.59,28.21,1.17,42.52,1.75l-1.35-4.24,24.43-1.16a41.27,41.27,0,0,1-.28,6.29c26,1,51.88,1.86,76.29,2.58l-4.59-12.26,287-13.64,18.78,26.74,90.94,129.45Z"/><g class="cls-6"><path class="cls-7" d="M3018.25,1878.53c-11.05,40.56-23.74,74.81-30.13,86.88-34.62,65.32-89.74,121-158.09,149.2a80.51,80.51,0,0,1-12,4c-7.18,1.71-14.48,1.9-20.81-1.58-9.45-5.19-12.66-15.87-13.31-27.12a110.51,110.51,0,0,1,.38-15.5q3.48-40.42,6.95-80.84c.71-8.25,1.48-16.73,5.16-24.15,3.82-7.72,10.43-13.61,16.69-19.52,42.52-40.22,72.25-89.34,93.08-143.66,5.77-15.06,12.23-36.59,21.11-57.18Z"/></g><path class="cls-8" d="M2885.47,2696.87c-36.56-23.09-408.54-87.89-417-99-4.05-5.3-5.78-140.47-6.48-280.74-.76-154.6-.28-315.39-.28-315.39L2415.63,1922l-51.36-88.85-31.36-54.25c2.51-14.7,5.05-29.23,7.48-42.62,16.2.8,37.5,1.86,62,3,24.79,1.17,52.84,2.45,82.13,3.7,14,.59,28.21,1.17,42.52,1.75q11.38.46,22.8.89h.15c26,1,51.78,1.85,76.14,2.57,71.22,2,130,2.56,144.13-.64,0,0,98.11,236.39,102.79,264.43.23,1.37.63,1.87,1.18,1.56.85-.46,2.08-2.84,3.63-6.84l.4,36.32.14,12.25,5.3,478.9Z"/><path class="cls-5" d="M3530.88,2610.08c-2.8,6.55-612.08,109.89-644.78,87.19-.2-.13-.4-.27-.63-.4L2879,2116.43c45.34-30.14,105-35.56,160.53-39.26l380.28-25.36c22.7-1.52,82.1,1.6,96.56-17.56,9.53-12.61,5.65-50.21-14.35-49.93l-358.41,5.21c-57.6.83-115.29,1.67-172.63,7.25-31,3-63.31,8-88.46,26.35-1.54,1.13-3,2.32-4.51,3.58l-.22-20c17.79-46,77.77-305.79,99.85-318,25.23-14,371.91,32.71,413,31.77s247.64-14.94,250.44,3.74S3529,1987.3,3525.28,2013.68,3533.69,2603.55,3530.88,2610.08Z"/><path class="cls-5" d="M3516.41,2034.25c-14.46,19.16-73.86,16-96.56,17.56l-380.28,25.36c-55.52,3.7-115.19,9.12-160.53,39.26l-1-89.72c1.46-1.26,3-2.45,4.51-3.58,25.15-18.37,57.45-23.33,88.46-26.35,57.34-5.58,115-6.42,172.63-7.25l358.41-5.21C3522.06,1984,3525.94,2021.64,3516.41,2034.25Z"/><g class="cls-9"><path class="cls-3" d="M3056.42,2105.41q183.51-12,366.78-27.47a894,894,0,0,1,5.53,125.65,6,6,0,0,1-.89,3.6c-.91,1.14-2.51,1.44-4,1.65-110.5,16.2-221,32.39-331.9,45.76-5.68.69-11.94,1.23-16.63-2-4.12-2.89-5.94-8-7.43-12.83a423.88,423.88,0,0,1-18.79-127.07Z"/></g><path class="cls-3" d="M2986.27,2627.94a66,66,0,0,1,8.94-2.7c18.8-3.86,207.5-19.22,206.83-36.17a794.89,794.89,0,0,1,5.83-131.94L2955,2484.8a6.44,6.44,0,0,0-2.85.77c-2,1.26-2,4.06-1.76,6.38,3.15,35.68,3.35,71.52,2.12,107.29-.63,18.45-7.29,30.3,12.13,33.17C2971.77,2633.47,2979.15,2630.5,2986.27,2627.94Z"/><g class="cls-10"><path class="cls-11" d="M3180.33,2571c.07,3.47.18,6.95.31,10.42.55,14-155.3,26.68-170.84,29.87a55,55,0,0,0-7.38,2.23c-5.88,2.12-12,4.57-17.88,3.7-16-2.38-10.53-12.16-10-27.4.78-22.53.86-45.1-.29-67.61q-.54-10.52-1.46-21c-.17-1.91-.17-4.23,1.45-5.27a5.41,5.41,0,0,1,2.35-.63l208.87-22.86A654.62,654.62,0,0,0,3180.33,2571Z"/></g><g class="cls-12"><path class="cls-7" d="M3253.62,2491.58c5.67,1.92,13-.79,18.8-1.77,6.71-1.13,13.44-2.1,20.13-3.38q21.18-4.07,42.43-7.7c13.77-2.37,27.5-4.9,41.28-7.16,6.58-1.08,13.2-2.44,19.83-3.16,5-.53,9.47-.25,11.35-5.77,1.38-4-1.6-8.14-5.32-9.37-5.43-1.79-11.58.18-17,1.11q-9.42,1.62-18.83,3.32c-13.34,2.4-26.66,4.86-39.91,7.7q-19.28,4.13-38.48,8.6c-6.2,1.45-12.31,3.27-18.45,5-5.72,1.58-13.06,2.27-17.41,6.55a3.67,3.67,0,0,0,1.6,6.06Z"/></g><g class="cls-12"><path class="cls-7" d="M3260.19,2546.17c6,.61,12.63-2,18.56-3.19q9.81-2,19.67-3.84c13.52-2.47,27.06-4.94,40.63-7.12q20-3.21,40.08-5.4c6.62-.73,13.26-1.3,19.89-2,6.43-.69,12-1,16.27-6.44,1-1.29,1.34-3.15,0-4.4-5-4.67-9.81-4.57-16.27-4-6.65.55-13.27,1.38-19.89,2.21q-20.8,2.64-41.47,6.24c-13.52,2.37-26.95,5-40.25,8.43q-9.69,2.47-19.31,5.17c-6.38,1.79-14.54,2.89-20,6.77a4.13,4.13,0,0,0,2.06,7.62Z"/></g><path class="cls-13" d="M2428.32,1812.85q44.54,70.19,82.34,144.33c1.53,3,3.22,6.18,6.17,7.78,3.8,2.07,8.46.93,12.69,0a103.7,103.7,0,0,1,56.71,3.57,1010.69,1010.69,0,0,1-56.64-175.17,468,468,0,0,0-91.58,2.3Z"/><g class="cls-14"><path class="cls-13" d="M2874.2,2013.59l-4.86,13.17c-40.07-60.24-82.89-119.27-135.45-169s-115.69-90-186-107q1-2.57,2.07-5.06c26,1,51.78,1.85,76.14,2.57,71.22,2,130,2.56,144.13-.64,0,0,98.11,236.39,102.79,264.43C2873.25,2013.4,2873.65,2013.9,2874.2,2013.59Z"/></g><g class="cls-6"><path class="cls-7" d="M2856.08,2037.44a1956.84,1956.84,0,0,1-251.79-21.65c-24.45-3.7-118.12-17.71-142.57-14L2415.63,1922l-51.36-88.85-31.36-54.25c2.51-14.7,5.05-29.23,7.48-42.62,16.2.8,37.5,1.86,62,3a584.84,584.84,0,0,0,41.58,62.78C2605.59,2014.89,2856.08,2037.44,2856.08,2037.44Z"/></g><g class="cls-12"><path class="cls-7" d="M2885.47,2696.87c-36.56-23.09-408.54-87.89-417-99-4.05-5.3-5.78-140.47-6.48-280.74-.76-154.6-.28-315.39-.28-315.39,24.45-3.67,118.12,10.34,142.57,14q72.49,11,145.68,16.52c36.91,2.79,85.28-2.5,117.79,18.06-53.18-4.41-107.29,16.84-159.19,25.38-52.52,8.65-105.89,31.21-144.27,68.64-40.65,39.65-53.72,71.82-51.13,130.43,2.72,61.6,24.92,122.58,64.2,170.31,68.57,83.33,203.29,133.77,306.3,89.09Z"/></g><rect class="cls-7" x="2663.32" y="1821.59" width="2.83" height="408.94" transform="translate(336.22 4431.01) rotate(-83.17)"/><g class="cls-6"><path class="cls-7" d="M3521.36,2016c-.15,7.29-1.83,14.1-5,18.23-14.46,19.16-73.86,16-96.56,17.56l-380.28,25.36c-55.52,3.7-115.19,9.12-160.53,39.26l-.68-61.25v-1.28c7.84-.32,558.7-23,643-40.78C3521.38,2014.1,3521.38,2015.07,3521.36,2016Z"/></g><path class="cls-7" d="M3525.62,2015.05c-1.26.32-2.69.64-4.26,1-86.9,17.82-637.28,40.48-642.93,40.72l-.07-1.56-.05-1.28h0c7.84-.32,558.7-23,643-40.78,1.31-.27,2.51-.55,3.59-.82Z"/><rect class="cls-7" x="2880.48" y="2053.88" width="2.83" height="643.01" transform="translate(-26.26 32.23) rotate(-0.64)"/><g class="cls-15"><path class="cls-13" d="M3190.9,1820.74A394,394,0,0,0,3311,1973.56c-12.18-35.86-24.12-72.08-29.23-109.61s-3.07-76.82,11.92-111.6c-11.78,10.63-43.88,37.23-57.9,44.68Z"/></g><g class="cls-16"><path class="cls-17" d="M3180.64,2581.38c.55,14-155.3,26.68-170.84,29.87a55,55,0,0,0-7.38,2.23c-5.88,2.12-12,4.57-17.88,3.7-16-2.38-10.53-12.16-10-27.4.78-22.53.86-45.1-.29-67.61q1.47,2.19,3.12,4.21c9.51,11.62,22.91,19.36,36.53,25.68,51.53,23.9,110.84,30.4,166.44,18.9C3180.4,2574.43,3180.51,2577.91,3180.64,2581.38Z"/></g><path class="cls-4" d="M1279.56,1967.78a123,123,0,0,0,.23-22.28c-4.27-53.93-41.77-104.62-66.31-151.87l-48.89-94.13-57.08-109.9c-55.78-107.41-113-220.88-109.34-341.85,1.05-34.35,7.44-69.46,25.71-98.57s50-51.26,84.39-51.23c53.52,0,92.66,49.81,117.26,97.34q7,13.51,13.36,27.26c67.46,145.36,84.8,309.73,95.77,470.24C1341.15,1787.47,1331.82,1885.83,1279.56,1967.78Z"/><g class="cls-15"><path class="cls-18" d="M1279.56,1967.78a123,123,0,0,0,.23-22.28c-4.27-53.93-41.77-104.62-66.31-151.87l-48.89-94.13c32.47-3.21,63.4-26,80.38-55,21.87-37.35,25.56-82.36,26.49-125.64,2.14-99.64-7.66-199.78-32.57-296.28,67.46,145.36,84.8,309.73,95.77,470.24C1341.15,1787.47,1331.82,1885.83,1279.56,1967.78Z"/></g><path class="cls-3" d="M1066.18,1152.8c45.79,90.65,87.46,183,121.79,278.62a2022.5,2022.5,0,0,1,80.62,292.89q8.15,41.37,14.49,83.08c2.17,14.24,4.54,28.44,6.64,42.69s6.25,27.78,9.45,41.78c1.25,5.46,9.55,4.13,9.61-1.31.15-12.83,1.34-25.81,0-38.58s-2.88-25.67-4.56-38.48c-3.3-25.08-7.74-50.07-12.36-74.93q-14-75.32-34-149.29c-26.77-98.49-60.9-195.22-103.42-288-24-52.45-50.15-103.86-79.88-153.31-3.24-5.37-11.15-.65-8.36,4.88Z"/><path class="cls-18" d="M1489.81,2158.62c0,16,0,32.47-.07,49.16-.1,59.82-.31,122.51-.53,177.45-.08,20.63-.17,40.16-.25,58-.27,61.16-.51,103-.51,103H1274.92c-7.7-6.74-15.36-18.52-22.9-34.29q-1.65-3.45-3.3-7.15c-5.66-12.74-11.25-27.65-16.73-44.3,0-.05,0-.1,0-.15-4.31-13.1-8.56-27.27-12.71-42.29q-4.44-16-8.73-33.18c-9.67-38.64-18.78-81.29-27.09-124.92-5.81-30.51-11.23-61.5-16.18-91.95-5.66-34.89-10.71-69.07-15-101-5-37.21-9-71.35-11.79-100-5.19-53.29-6.17-87.46-1.68-86.73,39.85,6.49,108.38,23.21,174.26,40.39,9.85,2.56,19.63,5.14,29.25,7.69,16.16,4.28,31.86,8.51,46.6,12.51,28.5,7.73,53.42,14.64,71.21,19.62s28.38,8,28.38,8c.49,4.84.82,22.43,1,48.62.1,11,.17,23.53.22,37.27C1489.81,2084.42,1489.84,2120.22,1489.81,2158.62Z"/><g class="cls-19"><path class="cls-4" d="M1489.7,2054.41c-4,.87-8,1.74-12,2.58a930.24,930.24,0,0,1-314.7,11.62q-5.36-.72-10.78-1.58c-5-37.21-9-71.35-11.79-100,58.55,23.18,121.22,37.1,183.91,44.11,54.84,6.13,110,7.3,165.14,6C1489.58,2028.15,1489.65,2040.67,1489.7,2054.41Z"/><path class="cls-4" d="M1489.21,2385.23c-.08,20.63-.17,40.16-.25,58-85,14.37-171.42,21-257,17.09-4.31-13.1-8.56-27.27-12.71-42.29q34.41,1.5,68.86,1.34c54.47-.26,109.54-3.75,161.64-19.65A385.12,385.12,0,0,0,1489.21,2385.23Z"/><path class="cls-4" d="M1489.81,2158.62c0,16,0,32.47-.07,49.16-32.71-.22-65.6,5.57-97.92,11.51q-104.41,19.18-208.41,40.68c-5.81-30.51-11.23-61.5-16.18-91.95A1146.06,1146.06,0,0,0,1489.81,2158.62Z"/></g><path class="cls-4" d="M1675.49,1495.07c-.1.46-.22.91-.33,1.37-7.62,30.49-23.94,58-40,85L1576,1680.57c-52.8,88.5-108.64,180.21-195.48,235.7l-14-1.28c3-138.76,10.31-289.63,100.42-395.2a354.71,354.71,0,0,1,43.86-42.81c35.34-29.31,75.56-53.22,115.29-76.61,6-3.51,12.52-7.15,19.38-6.24s12.44,6.35,16.59,12C1680.31,1431.08,1682.71,1464.92,1675.49,1495.07Z"/><g class="cls-15"><path class="cls-18" d="M1675.49,1495.07c-.1.46-.22.91-.33,1.37-7.62,30.49-23.94,58-40,85L1576,1680.57c-52.8,88.5-108.64,180.21-195.48,235.7l-14-1.28c3-138.76,10.31-289.63,100.42-395.2a354.71,354.71,0,0,1,43.86-42.81l4.26,5.67c1.22,1.63-62.29,104.52-67.57,115.86-17.36,37.32-60.85,116.81-27,155.29,55.25,62.83,171.77-126.26,195.46-164.52C1635.26,1558,1653.23,1524.26,1675.49,1495.07Z"/></g><path class="cls-4" d="M1565.08,1060.48c-9.8,60-31,117.37-52.1,174.35-28,75.6-58.8,150.61-88.2,225.61-12.39,31.57-24.52,63.13-36.11,94.74,10.33-108.7-18-220.56-30.26-328.27-13.84-121.79-18.09-245.83,4-366.92,6-32.83,14.55-66.6,35.93-92.22a92.1,92.1,0,0,1,19.76-17.61c20.86-13.82,47.17-19.18,69.47-8.75,23.08,10.78,36.47,35,46.38,58.5A476.38,476.38,0,0,1,1565.08,1060.48Z"/><g class="cls-15"><path class="cls-18" d="M1416.15,1252.53c-8.24,69.73-18.94,144.18,8.63,207.91-12.39,31.57-24.52,63.13-36.11,94.74,10.33-108.7-18-220.56-30.26-328.27-13.84-121.79-18.09-245.83,4-366.92,6-32.83,14.55-66.6,35.93-92.22a92.1,92.1,0,0,1,19.76-17.61l2,3.56A2282.28,2282.28,0,0,1,1416.15,1252.53Z"/></g><path class="cls-4" d="M2030.05,977a141.41,141.41,0,0,1-3.27,30.31c-12.37,55.89-51.92,101.77-94.69,139.8-15.22,13.53-31.26,26.56-49.83,34.91-17.33,7.8-36.29,11.27-55.16,13.6a511,511,0,0,1-230-24.47l-8.16-8.08q8.63-19.42,18.56-38.24A638.63,638.63,0,0,1,1807,899.37c45.93-31.87,104.68-58.25,156.29-36.78C2006.82,880.69,2030.1,929.25,2030.05,977Z"/><g class="cls-15"><path class="cls-18" d="M2030.05,977a141.41,141.41,0,0,1-3.27,30.31c-12.37,55.89-51.92,101.77-94.69,139.8-15.22,13.53-31.26,26.56-49.83,34.91-17.33,7.8-36.29,11.27-55.16,13.6a511,511,0,0,1-230-24.47l-8.16-8.08q8.63-19.42,18.56-38.24a241.53,241.53,0,0,0,88.15-33.42c40.43-25.26,68.46-65,106.95-92.47,22.1-15.78,53.9-26.08,89-30.89a359.29,359.29,0,0,1,104.54,1.4A294,294,0,0,1,2030.05,977Z"/></g><path class="cls-3" d="M1468.87,786.54c-1.68,78.75-5.4,157.64-14,236a2203.93,2203.93,0,0,1-38.63,233.57c-4.82,21.86-10.16,43.6-15.4,65.36q-3.85,16-8,32c-2.79,10.85-6.12,22-7,33.17-.59,7.77,9.18,9.89,12.69,3.38,9.16-17,13.34-37.47,18.52-56,5.46-19.45,10.37-39,15-58.69q13.62-58.23,23.34-117.24a1914,1914,0,0,0,24.13-237.81c1.77-44.6,1.24-89.19-1.28-133.75-.29-5.25-9.24-5.3-9.36,0Z"/><path class="cls-3" d="M1395,1836.42c24.13-55.08,48.39-109.83,79.22-161.57a1068.84,1068.84,0,0,1,103.52-144.38c10.55-12.45,21.27-24.87,30.81-38.12,4.77-6.62,10.28-13.69,13.73-21.11,1.8-3.88,2.62-8,4.39-12q2.5-5.6,4.7-11.31c2.64-6.8-8.25-11.18-11.68-4.92-1.68,3.06-3.42,6.1-5.26,9.08a49.75,49.75,0,0,1-6.62,8c-5.15,5.54-8.89,13.05-13.45,19.13-8.82,11.75-18.13,23.08-27.6,34.3-19.43,23-38.25,46.4-55.72,71a928.43,928.43,0,0,0-88.92,154.44c-13.86,30.51-26.12,61.87-34.8,94.28-1.19,4.43,5.72,7.73,7.68,3.24Z"/><path class="cls-3" d="M1641,1128.24c23,1.92,44.71-15.67,62.29-28.21,22.49-16,44.92-32.15,67.65-47.85,42.09-29.07,84.16-59.32,134.88-70.85a228.78,228.78,0,0,1,41.7-5.54c14.51-.56,29.73,1.72,44-1.56,5.41-1.24,6.73-9.66,1.6-12.2-11.67-5.77-25.05-5.82-37.79-5.32a243.6,243.6,0,0,0-38.81,4.82,246.24,246.24,0,0,0-71.37,27c-22.54,12.67-43.25,28.24-63.82,43.81q-33.54,25.38-67.44,50.26c-11.66,8.55-23.15,17.41-35,25.65s-24,13.66-38.4,15.84c-2.52.38-1.66,4,.57,4.19Z"/><path class="cls-4" d="M1229.16,954.5c-2.27,6.55,6.5,11.56,11.82,12.42,8,1.32,16-3.25,19.9-10.14,8.77-15.28,0-34.78-15-42.27-16.77-8.4-37.41-1.55-47.24,14.07-9.2,14.62-7.9,34.8,3.33,47.92,6.51,7.61,16.07,12,25.93,12.85,8.07.72,21.66-.71,25.88-8.76,2.13-4.07-.57-8.3-5-8.67-3.42-.28-6.3,1.33-9.6,2a26.2,26.2,0,0,1-9.22,0,28.36,28.36,0,0,1-15.32-7.72c-8.63-8.9-8.2-24.54.19-33.44,9.34-9.91,27-9.92,34.18,2.45,3.2,5.52,3.55,13-1,18a9.86,9.86,0,0,1-8.67,2.9c-2.84-.38-4.92-2.43-7.68-3a2.14,2.14,0,0,0-2.55,1.45Z"/><path class="cls-4" d="M1628.31,993c12.61,9.74,32.48,8.81,41.89-5.07,10-14.77,1.5-36.43-14.81-42.34-19.57-7.1-35.53,10.2-41.4,27-3.33,9.59-4.71,21.55,0,30.91a16.65,16.65,0,0,0,5.13,6.36,8.55,8.55,0,0,0,3.49,1.89c2.66.38,3.12.43,1.36.17,5,1.57,8.55,2.74,13.81,1.47,7.12-1.73,5.62-12.93-1.73-12.78-.7,0-3.7-.73-2.85-.13s-.71-1.79-1.07-2.44c-1.31-2.33-2.59-4-2.93-6.73-.65-5.29.78-11.22,2.74-16.12,2.78-7,10.22-17.52,19.13-14.05,7,2.73,10.85,13,6.43,19.33-5.16,7.34-15.85,9.32-23.49,5.06-4.48-2.49-10.11,4-5.72,7.42Z"/><g class="cls-20"><path d="M1488.45,2546.25H1274.92c-8.82-7.72-17.59-22.06-26.2-41.44a173.66,173.66,0,0,0,90.8-6.88c48.45-17.5,88-57.93,104.52-106.75,11.86-35.1,12-72.93,12.14-110q.3-132.58.6-265.17c0-18.34.3-37.36,3.29-55.49,17.74,5,28.38,8,28.38,8C1491.55,1999.37,1488.45,2546.25,1488.45,2546.25Z"/></g><g class="cls-21"><path class="cls-3" d="M1287.34,2506.26c1.41,10.19-2.16,16.89-8.92,21-1.08-2.26-2.17-4.6-3.25-7-5.57-12.54-11.07-27.2-16.46-43.59-7.27-22.06-14.34-47.23-21.14-74.39-49.19-196.65-83.75-498.57-70.59-496.43,39.2,6.39,106.63,22.84,171.44,39.74-47.13,77-68.52,168.6-73.35,259.18C1259.7,2305.57,1273.54,2406.28,1287.34,2506.26Z"/></g><path class="cls-7" d="M2192,1286.8c75.7,29.57,147.78-64.08,62.08-102.11-25-11.08-58.05-13-80.46,4.89C2136,1219.54,2150.44,1270.57,2192,1286.8Z"/><path class="cls-22" d="M1993.77,2582.18c-2.36,7.68-7.55,17.06-15.44,15.53-2.47-.47-4.56-2-6.51-3.62-49.52-40.54-44.13-118.47-78.37-172.54-14.41-22.76-35.39-40.45-53.26-60.59s-33.37-44.83-32.76-71.76a63.46,63.46,0,0,1,10.69-33.19c13.43-20.49,37.68-34.34,62.29-32.18l11.06-13.83a121,121,0,0,1,38.54-8.15c34.13-1.63,68.68,10.88,86.62,39.31,14.12,22.38,15.89,50.19,16,76.65A881.49,881.49,0,0,1,1993.77,2582.18Z"/><path class="cls-18" d="M1975.24,2427.74c-6.28-32.69-25.37-65.82-42.14-94.2-12.63-21.39-25.7-43.21-44.92-58.95s-46.17-24.4-69.42-15.63c-.22-1-.44-2-.64-2.95,13.43-20.49,37.68-34.34,62.29-32.18l11.06-13.83a121,121,0,0,1,38.54-8.15l1.09,1.17c17.8,19.48,28.93,44,38.66,68.53,9.48,23.93,18,48.56,20.66,74.17S1988.37,2405.6,1975.24,2427.74Z"/><path class="cls-4" d="M2490.09,945.28c-7.69,33.86-15.44,77.5-14.34,112.21.46,14.72-1.74,23.83-5.46,29.08l0,0a14.38,14.38,0,0,1-1.06,1.33c-13.72,15.63-44-12.33-44-12.33s-5,12.11-12.15,28.13c0,0,0,0,0,0-12.66,28.26-32.13,68.67-43.08,76.13a7,7,0,0,1-2.4,1.13c-11.56,2.43-52.81.82-76.88-5.85-8.5-2.35-14.85-5.33-17-9,0,0-6.46,11.94-14.3,29.74-2.22,5.08-4.57,10.64-6.9,16.53-3.94,10-7.86,20.87-11.19,32-16-2.85-31.21-18.71-49.93-39.2l-6.65-7.29c-21.59-23.66-51.32-108.08-62.9-142.59,20.5-25,49-62.12,59.65-86.86,5.08-11.88,8.47-27.62,10.69-43.9,5.36-39,4.13-81.26,4.13-81.26l83-20.61L2395,794.06l40-9.94,7.82,12.1,61.34,94.94S2497.17,914.07,2490.09,945.28Z"/><path class="cls-22" d="M2504.2,891.16s-7,22.91-14.11,54.12c-1.9-5.41-4.3-10.53-8.26-13.17-6.41-4.29-18.4-3.12-26-7.78-14.2-8.77-22.4-24.88-36-34.53-20.37,18.05-56.37,15.74-81.05,26.43-23.78,10.31-32.24,22-45.18,43.77-6.07,10.21-14.64,20.43-26.4,22-5.26.72-10.58-.4-15.88-.34s-11.14,1.68-13.9,6.21c-12-9.19-19.37-19.71-21-34.78-2.24-20.85-11.57-55.6-.12-73.17,15.66-24,37.77-43.22,62.92-57.16a212.44,212.44,0,0,1,37.67-16.3c25.2-8.15,51.56-11.88,78.08-12.43a375.94,375.94,0,0,1,47.57,2.13l.28,0Z"/><path class="cls-22" d="M2226,961.67l-20.32,17.39-21.37,11.5c-66.92,36-28.08,159.68,7,214.74-2.16-2.37-4.37-4.81-6.65-7.29-21.59-23.66-51.32-108.08-62.9-142.59,20.5-25,49.05-62.12,59.65-86.86,5.08-11.88,8.47-27.62,10.7-43.9A50,50,0,0,1,2202,927C2216.38,932.08,2228.46,946.61,2226,961.67Z"/><path d="M2228.53,1297.42c-22.47,0-125.48-206.14-129.9-215l-.15-.3.22-.26c.1-.11,9.89-11.14,22.68-26.76l.57-.7.29.86c11.75,35,41.38,118.94,62.8,142.41l3.18,3.49c20.29,22.27,36.31,39.85,53.12,42.85l.55.1-.16.53c-5,16.89-8,32.06-8.76,45.08-.29,4.68-1.52,7.18-3.78,7.64A3.52,3.52,0,0,1,2228.53,1297.42Zm-128.85-215.15c2.23,4.47,28.6,57.11,57,108.62,49.26,89.32,66.5,106.66,72.3,105.49,1.73-.35,2.73-2.61,3-6.72.79-13,3.7-28,8.65-44.77-16.94-3.33-32.94-20.89-53.13-43.06l-3.19-3.49c-21.37-23.41-50.76-106.35-62.72-141.91C2110.12,1070.4,2101.19,1080.57,2099.68,1082.27Z"/><path class="cls-17" d="M2434.36,979.45a22.15,22.15,0,0,0-2-2.11,7.41,7.41,0,0,0-4.82-4,4.13,4.13,0,0,0-1-.08c-6.69-3.31-14.83-3.63-20.57,1.8-1.67,1.58.12,3.9,2.08,3.56a52.89,52.89,0,0,1,11.85-1.06c-1.86,1.72-3,4.1-4,7a26.45,26.45,0,0,0-.74,13.59c.7,4.12,6.76,6.63,10.14,4.13,5.3-3.92,9.11-9.25,9.17-16.06a20.62,20.62,0,0,0-.36-4A1.83,1.83,0,0,0,2434.36,979.45Z"/><path class="cls-17" d="M2451,961.93c3.31-12.15-10.81-22.19-20.79-24.92a64.5,64.5,0,0,0-22-1.61c-7.16.58-17.1.34-22.53,5.43-3,2.81-2,7.63,1.25,9.68,5.44,3.43,11.84,1.33,17.87.67s12.22-1.45,18.29-.73a40,40,0,0,1,13.08,4c4.57,2.3,7.5,5.94,11.55,8.79a2.25,2.25,0,0,0,3.3-1.34Z"/><path class="cls-17" d="M2396.54,1085.76c-11.68,11.39-18.09,18.39-22.27,34.17-.64,2.41-1.49,5.21-3.66,6.27a4.4,4.4,0,0,1-.5.21,7.18,7.18,0,0,1-3.13.13c-17.14-2.1-29.06-20.15-30.24-37.9-.59-8.78,1.45-17.49,6.77-24.14,1.24.7,2.48,1.38,3.74,2C2362.69,1074.72,2379.87,1080.32,2396.54,1085.76Z"/><path class="cls-7" d="M2596.39,828.74c-1.92,4.34-5.86,7.57-10.87,10-18.57,8.84-51.87,6.19-51.87,6.19s5.32,6.72,5,25.54A129.16,129.16,0,0,1,2536.5,891c-6.18,34.7,19,35.65,19,35.65a18.07,18.07,0,0,1-6.65,4.92c-7.65,3.76-18.08,5.54-18.08,5.54-34.7,0-45.63-48.49-45.63-48.49-5,7,0,25.42,0,25.42q-5.67-1.57-10.81-3.5a119.07,119.07,0,0,1-16.56-7.53c-40.37-22.16-48.7-58.13-48.7-58.13-3.83,22.05,7.13,42.79-3.83,44.69s-44.18,8.08-85.54,18.07-30.43,70.36-48.5,68.24-12.36-28.48-12.36-28.48c-10.45,5.53-12.36,28.48-12.36,28.48-13.31-10.67-7.61-25.74-7.61-25.74s-23.29,2.66-23.87,6c-.36,2.09-15.56,2.58-17.86,4-4.42,2.65-7.67,8.78-10,13.18-5.61,10.61-6.18,24.55-16.45,32.29-9.52,7.17-55.81-2.19-51.26-7.51,15-17.52,21.84-26.61,26.28-50.64,6.18-33.45-32.33-51.17-31.38-110.12s25.2-102.21,88.43-138.82c26.16-15.15,44-17.19,56.71-15,18,3.17,25.58,14.94,31.71,10.2,10.46-8.09,10.94-22.82,105.35-14.27s115.24,78.45,145.66,120.76C2572.25,842,2595.81,829.06,2596.39,828.74Z"/><path class="cls-17" d="M2457.79,903c-40.37-22.16-48.7-58.13-48.7-58.13-3.83,22.05,7.13,42.79-3.83,44.69s-44.18,8.08-85.54,18.07-30.43,70.36-48.5,68.24-12.36-28.48-12.36-28.48c-10.45,5.53-12.36,28.48-12.36,28.48-13.31-10.67-7.61-25.74-7.61-25.74s-23.29,2.66-23.87,6c-.36,2.09-15.56,2.58-17.86,4-4.42,2.65-7.67,8.78-10,13.18-5.61,10.61-6.18,24.55-16.45,32.29-9.52,7.17-55.81-2.19-51.26-7.51,15-17.52,21.84-26.61,26.28-50.64,6.18-33.45-32.33-51.17-31.38-110.12s25.2-102.21,88.43-138.82c26.16-15.15,44-17.19,56.71-15a76.86,76.86,0,0,0-33.94,15.76c-18.69,15.16-30.22,37.72-36.25,61-6.08,23.47-6.77,49.5,4.6,70.92s37.12,36.21,60.4,29.44c-7.88,13.06,1,31.35,14.84,37.67s30.3,3.32,44.33-2.65c40.18-17.08,70.88-49.76,87.69-89.51-5,11.75,20.21,45.52,25.92,56.13C2435.14,877.31,2444.89,892,2457.79,903Z"/><path class="cls-7" d="M2235,659.3c5.89-.8,10.92-2.1,16.87-.58,6.56,1.68,11,5.88,14.72,11.35a70.44,70.44,0,0,1,8.55,16.47c1.79,5.18.91,12.42,5.17,16.17a4.74,4.74,0,0,0,5.51.72c7.93-4,4.4-16.2,1.72-22.57-3.18-7.57-8.27-15.53-14.55-20.91-9.83-8.42-28.52-14-40-5.38a2.6,2.6,0,0,0,2,4.73Z"/><path class="cls-23" d="M2610.86,1401.33c-.11,3.05-2.07,6.08-5.35,9.18-13.2,12.52-47.87,26.27-70,47.47a78.61,78.61,0,0,0-10.67,12.43c-11.17,16.44-37.21,32.43-63.13,43.77-28.55,12.48-56.94,19.32-65.18,14.88-15.72-8.48-21.58-61.26-21.58-61.26s-38.83,6.52-38.31,96.45c0,9.09-4.89,19.48-13.82,30.82-22.72,28.84-71.24,63.82-128.94,99.07-144.1,88-345.49,177.7-345.49,177.7s-245,70.38-267.18,57.35-36.5,3.91-40.41-10.43,15,1.3,24.77-65.17q.56-3.78,1.16-7.5c10.28-63,31.79-113.76,74.43-164.54,44.31-52.79,99.71-204.63,109.49-243.73s54.74-150.53,59.94-186.38-11.73-64.51,6.53-112.09,71.67-111.42,103-119.9,78.85-2.6,100.36,13,56,25.21,96.44,8c0,0,1.79,5.66,4.88,14.89,11.58,34.51,41.31,118.93,62.9,142.59,21.85,23.94,38.73,43.31,56.58,46.49a29,29,0,0,0,13.79-.87c16.56-5.06,9.76-32.18,4.3-47.71,7.84-17.8,14.3-29.74,14.3-29.74,8.23,14,78.23,18.12,93.88,14.83a7,7,0,0,0,2.4-1.13c21.2,10.73,42,23.16,57.17,36.37,23.18,20.24,45.7,41.09,66.92,63.38,14.3,15,28.15,30.47,41.83,46,7.92,9,15.5,21,24.75,28.56s17.84,16,26.68,23.06C2595.8,1384.06,2611.39,1387.28,2610.86,1401.33Z"/><g class="cls-15"><path class="cls-24" d="M2535.52,1458a78.61,78.61,0,0,0-10.67,12.43c-11.17,16.44-37.21,32.43-63.13,43.77-28.55,12.48-56.94,19.32-65.18,14.88-15.72-8.48-21.58-61.26-21.58-61.26s-38.83,6.52-38.31,96.45c0,9.09-4.89,19.48-13.82,30.82-60.15-11.38-119.55-35.58-175-62.09-17.14-8.2-34.31-16.73-49.19-28.55-51.29-40.74-65.24-121.35-30.63-177l8.18-47.46q-.55-30.65-1.1-61.3c-.09-4.8,1-11.06,5.72-11.8,4.28-.67,7.3,4,9,8,18.4,43.52,14.17,99.48,43.58,137.45,27.78,35.86,73.42,58.56,118.59,60,13.49.44,30.57-3.91,32.59-17.25.7-4.62-.66-9.7,1.62-13.77,2-3.61,6.39-5.3,10.51-5.45,23.33-.82,34.6,32.63,59.41,26.48,26-6.46,21.45-44.1,40.67-56.47,8.43,18.08,6.45,39.4,13.09,58.22,8,22.58,28.09,39.54,50.67,47.52s47.35,7.81,70.95,3.74Q2533.6,1456.61,2535.52,1458Z"/></g><g class="cls-15"><path class="cls-24" d="M2193.89,1694.14c-144.1,88-345.49,177.7-345.49,177.7s-245,70.38-267.18,57.35-36.5,3.91-40.41-10.43,15,1.3,24.77-65.17q.56-3.78,1.16-7.5c39-.33,81,18.44,114-1.87,26-16,33.86-49.14,44.62-77.67a266.29,266.29,0,0,1,40.72-71.63c17.2-21.61,35.5-26.78,60.79-36.92,24.38-9.77,49.42-22.23,63.41-44.46,29.57-47,.58-104.1-21.77-146.44a539,539,0,0,1-56.34-171.54l7.46-5.87c19.28,33.55,62.86,44.55,88.78,73.28,17.15,19,25.26,44.31,38.45,66.26,23.63,39.31,62.65,66.55,101.47,91s79.4,47.92,109.07,82.89C2178.91,1628.43,2193.74,1661.57,2193.89,1694.14Z"/></g><path class="cls-4" d="M2549.81,1745.66a41.27,41.27,0,0,0,.28-6.29c-.18-5.32-1.56-8.91-3.22-11.32a11.27,11.27,0,0,0-6.39-4.8l-2.22.79-16,5.73,3.43,10.76,1.35,4.24c-14.31-.58-28.55-1.16-42.52-1.75l-.55-.51c-8.77-8-18.54-18.4-25.3-30.27a66,66,0,0,1-7.14-17.66c-3.84-16.54-2.84-29.91-.71-39.44h0c2.41-10.74,6.27-16.59,6.27-16.59l-326.14-8.31a204.55,204.55,0,0,1-80.62-18.68,262.69,262.69,0,0,1-30-16.17c-15.74-9.94-30.81-22.25-41.88-37.13-24.87-33.42-69.71-127.5-97-186.89-8.55-18.61-15.38-33.81-19.33-42.68-2.42-5.43-3.77-8.49-3.77-8.49,2-2,1.24-8.31,1.31-10.71a210.5,210.5,0,0,1,3.55-32.08c0-.3-.07-.56-.11-.85a3.18,3.18,0,0,1-.37-1.65c.72-20.49,12-38.44,28.42-50.19,17.51-12.53,41.44-14.44,62.14-11.34,20.88,3.15,41.3,11.54,58.94,23.06a163.17,163.17,0,0,1,25.13,20.16c6.71,6.61,12.43,14.51,19.57,20.73a226.84,226.84,0,0,0,4.52,23.15c1.45,5.87,3.12,11.8,5,17.72,19.38,62.34,57.65,124.19,57.65,124.19s88,23.46,137.51,43.67,222.86,52.13,242.63,60.36,59.75,94.74,79.29,118.2,27.38,43,27.38,43l4.27,11.38,6.37,17,4.59,12.26C2601.69,1747.52,2575.82,1746.64,2549.81,1745.66Z"/><path class="cls-22" d="M2450.79,1655.13c2.41-10.74,6.27-16.59,6.27-16.59l-326.14-8.31a204.55,204.55,0,0,1-80.62-18.68,262.69,262.69,0,0,1-30-16.17c21.84-5.78,43.68-12.61,65.32-17.51a377.12,377.12,0,0,1,144.32-4.29c82.28,13.58,163.11,54.55,245.1,39.29A174.85,174.85,0,0,1,2450.79,1655.13Z"/><path class="cls-22" d="M2066.42,1318.19l-1.76-.46c-33.85-27.56-73.75-54.14-117.24-50.38-53,4.58-78.26,55-66,104-8.55-18.61-15.38-33.81-19.34-42.68-2.42-5.43-3.77-8.49-3.77-8.49,2-2,1.24-8.31,1.32-10.71a209.23,209.23,0,0,1,3.54-32.08c0-.3-.07-.56-.11-.85a3.08,3.08,0,0,1-.36-1.65c.71-20.49,12-38.44,28.41-50.19,17.51-12.53,41.44-14.44,62.14-11.34,20.88,3.15,41.3,11.54,58.94,23.06a163.17,163.17,0,0,1,25.13,20.16c6.71,6.61,12.43,14.51,19.57,20.73a229.59,229.59,0,0,0,4.52,23.15C2062.89,1306.34,2064.56,1312.27,2066.42,1318.19Z"/><path class="cls-24" d="M2092,1296.73c-3.67,5.33-10.66,6.7-16.77,6.61a36.86,36.86,0,0,1-13.83-2.87c-15.57-6.46-26.18-22.47-38.19-34a142.32,142.32,0,0,0-53.43-32.42c-21.06-7-44.68-9.51-65.66-.93-17.74,7.23-33.23,22-35.33,41.82a3.14,3.14,0,0,1-1.49,2.42c-.15,1-.28,1.88-.3,2.31-.25,5.57,0,11.23-.7,16.73-.64,5.2.34,10.56.26,15.84-.1,5.54-1,12.71-4.49,16.48-2.22,2.45-5.53,3.48-10.34,1.73-8.91-3.2-16.41-12.37-21.58-19.92-5.7-8.32-9.62-17.65-13.45-26.93-1.4-3.39,4.09-5.47,5.78-2.44,7.14,12.76,14.32,26.79,25.92,36.13,2.51,2,6.85,6.06,9.9,2.94,2-2,1.24-8.31,1.32-10.71a207,207,0,0,1,3.5-31.81l.14-.81a2.9,2.9,0,0,1-.57-2c.71-20.49,12-38.44,28.41-50.19,17.51-12.53,41.44-14.44,62.14-11.34,20.88,3.15,41.3,11.54,58.94,23.06a163.17,163.17,0,0,1,25.13,20.16c6.71,6.61,12.43,14.51,19.57,20.73,1.07.94,2.19,1.85,3.34,2.69,4.3,3.19,9.56,5.86,15,5.93.19,0,.48,0,.81-.08a3.13,3.13,0,0,0,.4.84l.21,1.16c2.64-1.89,3.08-2.6,1.35-2.12a5.6,5.6,0,0,0-2,.12c-.62-1.94-.35-5.49-.24-7.14.51-7.24,1.67-13.94-.3-21.12-1.57-5.67-3.45-11.33-4.32-17.15a2,2,0,0,1,3.77-1c2.73,7.23,3.16,15.32,6.24,22.37,2.72,6.23,7.67,11.13,10.39,17.29C2094,1284.49,2095.71,1291.43,2092,1296.73Z"/><path d="M2076.69,1287.86l-.21-1.16a3.13,3.13,0,0,1-.4-.84,5.6,5.6,0,0,1,2-.12C2079.77,1285.26,2079.33,1286,2076.69,1287.86Z"/><path class="cls-24" d="M2386.2,1344.94c-1.83,3.93-.82,8.84-.93,13.12a121.18,121.18,0,0,1-1.48,16.14,152.81,152.81,0,0,1-9,32.37c-4,10-8,19.86-10.47,30.42s-3.69,21.27,3.55,30.08c5.35,6.5,15.56-.55,13.57-7.9-2.62-9.64-1.49-19-.14-28.83,1.47-10.63,3-21.27,5.1-31.79,1.87-9.48,3.82-19.11,4.5-28.77.47-6.77,1.62-19.72-3.71-25a.64.64,0,0,0-1,.13Z"/><path class="cls-4" d="M3147.85,1174.79s-28.26,8-35.19,7.47c-4.65-.36-2.81,12.45-4.81,21.41-1,4.39-2.88,7.85-6.91,8.39-12.25,1.64-33.05,0-33.05,0l-107.66,89.58s-18-7.41-30.81,19l-.1.21c-28.33,59-57.27,117.77-88.05,175.56-15.31,28.71-31.06,57.27-44.94,86.31-11.3,23.66-32.62,42.75-57.47,50.9-29.41,9.65-59.58-10.43-84.69-23.22q-31.7-16.14-63.39-32.3l-13.5-6.85c-24.84-12.57-49.72-26-75-38.38-13.4-6.58-26.9-12.9-40.57-18.69,25.92-11.34,52-27.33,63.13-43.77,19.38-28.56,65.05-45.09,80.66-59.9l13,7.08,9,4.91c16.37,8.92,33.75,18.34,48,25.82,11.84,6.2,21.53,11.08,26.75,13.24,2.6,1.08,6.74-.45,12-4,39.24-26.72,142.07-167.2,154.28-203.83,13.86-41.57,58.1-114.6,77.82-122.6s81-19.71,83.15-12.78c.33,1.07.72,2.33,1.05,3.74,1.8,7.68,1.67,19.68-21.31,28.23l-13.86,4.27s74.87-4.7,113.5-4c10,.19,17.64.74,20.83,1.84C3145.18,1157.75,3147.85,1174.79,3147.85,1174.79Z"/><path class="cls-22" d="M3102.47,1199.74c1.69,1.42,3.56,2.66,5.38,3.93-1,4.39-2.88,7.85-6.91,8.39-12.25,1.64-33.05,0-33.05,0l-107.66,89.58s-18-7.41-30.81,19c-7.83-33.68,4.81-71.35,22.3-102.43,4.65-8.27,9.75-16.72,10.55-26.17s-4.34-20.19-13.62-22.16l73.19-36.88c3.78-1.9,7.67-7.57,3.81-9.29q2.54-.74,4.92-1.67c1.8,7.68,1.67,19.68-21.31,28.23l-13.86,4.27s74.87-4.7,113.5-4C3093.94,1164.31,3084,1184.09,3102.47,1199.74Z"/><path class="cls-25" d="M3055.54,1142.56l-.42.15h0Z"/><path class="cls-25" d="M3212,1349.72c.39,7.88-6.29,14-13.24,18.09-.63.37-1.26.73-1.89,1.07a123.25,123.25,0,0,1-81.65,12.07,116.38,116.38,0,0,1-20.19-5.88,7.35,7.35,0,0,1-3.27-2c-2-2.55-.13-6.22,1.66-8.93a135.44,135.44,0,0,0,14.66-29.61,147.64,147.64,0,0,0,7.21-66.55c-.92-7.61-4.86-35.18-12.51-56.41-7.14-19.83-17.52-34.13-31.7-21.44-6.83,6.11-9.67,16.73-10.64,28.15-1.17,13.53.27,28.2.73,37.83q.66,13.68,1,27.6c1,36.37.64,73.6,0,109.62a511.38,511.38,0,0,1-22.19,140q-4.14,13.62-9.06,27c-9.93,27-22.41,53.58-41.56,75.06a187.9,187.9,0,0,1-32.15,28.36,208,208,0,0,1-18.3,11.52c-8.72,4.87-18.05,9.92-27.53,13.18-7.75,2.67-21.62,1.23-28.11,5.07,7.41-4.38,10.86-12.56,13.82-20.27A805.46,805.46,0,0,0,2949.76,1417c1.52-38.75.29-78,4.62-116.36a311.74,311.74,0,0,1,7.52-42.26c10.84-42.45,35.53-84.07,72.37-106a113.2,113.2,0,0,1,20.85-9.73,101.49,101.49,0,0,1,37.43,3.77,111.55,111.55,0,0,1,11.48,4c1.14.47,2.27,1,3.39,1.46a115.59,115.59,0,0,1,25.59,15.89,111.54,111.54,0,0,1,22.53,24.89,100,100,0,0,1,12.54,27c6,20.47,5.75,42.26,10.63,63a131.46,131.46,0,0,0,25.19,51.78C3207.56,1339.06,3211.72,1343.87,3212,1349.72Z"/><path class="cls-11" d="M3062.18,1393.3a511.4,511.4,0,0,1-31.25,167c-9.93,27-22.41,53.58-41.56,75.06a187.9,187.9,0,0,1-32.15,28.36c4.9-7.16,9.42-14.53,13.56-21.94a420.36,420.36,0,0,0,51.52-166.71c2.36-26.09-10.84-204.22,15.77-211.8,10.38-3,18.21,5.55,24.12,20.42C3063.17,1320.05,3062.83,1357.28,3062.18,1393.3Z"/><g class="cls-26"><path class="cls-17" d="M3144.34,1377.26a10.55,10.55,0,0,1-2.63,6,122.48,122.48,0,0,1-26.48-2.3,116.38,116.38,0,0,1-20.19-5.88,7.35,7.35,0,0,1-3.27-2c-2-2.55-.13-6.22,1.66-8.93a135.44,135.44,0,0,0,14.66-29.61,147.64,147.64,0,0,0,7.21-66.55c-.92-7.61-4.86-35.18-12.51-56.41-7.14-19.83-17.52-34.13-31.7-21.44-6.83,6.11-9.67,16.73-10.64,28.15-1.17,13.53.27,28.2.73,37.83q.66,13.68,1,27.6c1,36.37.64,73.6,0,109.62a511.38,511.38,0,0,1-22.19,140c8.34-30,13.75-60.75,13-91.8-1.56-68-32-138.09-8.42-201.91,6.42-17.35,16.59-33.12,22.87-50.52,4.83-13.39,7.82-28.45,18.41-38a33.68,33.68,0,0,1,6.66-4.63,111.55,111.55,0,0,1,11.48,4c1.14.47,2.27,1,3.39,1.46a115.59,115.59,0,0,1,25.59,15.89c7.23,16.79,10.48,35.38,11,53.74a321.59,321.59,0,0,1-13.62,100.22c-3.23,10.48-6.85,21.25-5.68,32.15S3133.45,1376,3144.34,1377.26Z"/></g><path class="cls-4" d="M3062.3,1223c6.06-3.23,13.18-6.65,20-7.79,4.17-.69,10.07,1.52,13.75-.72,6-3.64,11-26.24,13.23-33.06,2.91-9,13.47-33.53.6-39.31-16.19-7.26-28.06,30.2-33.77,38.59-3.42,5-3.95,9.08-8.15,13.48C3061.62,1200.82,3061.77,1213.8,3062.3,1223Z"/><path class="cls-22" d="M2694.43,1501.59c5.52-18.75-16.23-36-18.92-53.26,11.83,6.19,21.52,11.06,26.74,13.23,2.6,1.08,6.73-.46,12-4.06A178.29,178.29,0,0,0,2694.43,1501.59Z"/><path class="cls-22" d="M2227.43,1002.27c-23.77-14.33-40-44.32-36.42-72.31,3.07-24.28,34.78-42.54,46-12.67a38.7,38.7,0,0,1,1.83,20.58C2235.6,955.56,2226.62,984.29,2227.43,1002.27Z"/><path class="cls-22" d="M2290.65,1175.16c-8.51-2.35-14.86-5.33-17-9,0,0-6.46,11.94-14.29,29.74-2.23,5.08-4.57,10.64-6.91,16.53-49.54-84-37.41-148-37.41-148C2233.56,1140,2290.65,1175.16,2290.65,1175.16Z"/><path class="cls-4" d="M2402,2678.85a24.15,24.15,0,0,1-6.18,10.17c-15.42,14.91-48,3.67-48,3.67-22.06,22-50.95,5.67-50.95,5.67-15.1,11.33-37.14,2.3-37.14,2.3-9.58,1.37-34.19,4.31-39.89-5.38,4.59,7.79-32.74,3.47-35,3.1-13.62-2.19-28.3-4.82-40.88-10.72-15.43-7.24-70.19,0-117.08-15.74s-70.06-37.45-70.06-37.45c-.26-1.17-.48-2.38-.67-3.62-5-31.73,10.43-83.76,25.19-123.35,4.06-10.89,8.08-20.85,11.6-29.18,36.62,5,97.83,1.85,136.11-1.8,3.21,14.73,16.72,28.43,26.27,39.34,2.12,2.44,4.06,4.74,5.63,6.88,19.75,26.84,51.85,38.31,81.8,49.65,32.9,12.46,57.15,29.49,86.48,48,16.63,10.48,42,18.19,55.82,32C2389.73,2657.14,2411.44,2649.58,2402,2678.85Z"/><path class="cls-22" d="M2395.82,2689c-15.42,14.91-48,3.67-48,3.67-22.06,22-50.95,5.67-50.95,5.67-15.1,11.33-37.14,2.3-37.14,2.3-9.58,1.37-34.19,4.31-39.89-5.38,4.59,7.79-32.74,3.47-35,3.1-13.62-2.19-28.3-4.82-40.88-10.72-15.43-7.24-70.19,0-117.08-15.74s-70.06-37.45-70.06-37.45c-.26-1.17-.48-2.38-.67-3.62a661.69,661.69,0,0,0,198,49.47c40.77,3.71,136,10.09,168.71-19.11C2349.65,2665.65,2370.49,2680.71,2395.82,2689Z"/><path class="cls-7" d="M2462,2317.13c-35.45,24.15-81.19,45.54-114.66,59.71-26.44,11.19-45.22,17.9-45.22,17.9s-4.3,20.32-9.4,41.23c-5.29,21.74-11.44,44.12-14.49,44.94-6,1.62-83.54-12.56-129.29-6.59-5.46.71-12.23,1.47-19.93,2.2-38.28,3.65-99.49,6.81-136.11,1.8-17.8-2.43-29.79-6.78-30.53-13.94-2.55-24.88,17.48-117.36,17.48-117.36s-19.89,0-35.8-45.77-35.82-71.62-35.82-71.62l-91.72,8s-13.57,2.35-36-1a197.39,197.39,0,0,1-35.4-8.9c-42.76-14.91-135.27-11.92-175-149.19-11.33-39.08-18.44-82.26-8.58-122.48,2.39-9.74,2.89-29.48,14-34.29,3.6-1.55,7.7-1.27,11.59-.67,1.57.23,3.1.46,4.59.64,17,2.15,28.06.39,44.64-9.63,14.32-8.66,27-19.71,40.39-29.62,28.75-21.24,57.25-42.79,85.81-64.26q9.87-7.43,19.73-14.88c75.87-57.3,151.61-115.5,231.44-167.12,113.39-73.29,268.55-32.13,277-29.14s71.22,29.1,59.2,81.57c-2.66,11.59-5.94,28.47-9.46,47.72-2.43,13.4-5,27.93-7.48,42.64-10.22,59.8-19.92,122.47-19.92,122.47,1.55-.37,3.12-.67,4.74-.93,9.7-1.53,20.73-1.06,32.57.87,20.3,3.36,43,11.11,65.33,20.68l46.09,79.72S2461.24,2162.55,2462,2317.13Z"/><path class="cls-22" d="M2155.28,2515.86c-13,2.23-26.92,1.13-40.37-2.26-46.28-11.67-88.21-6.34-133.61-6.1,4.06-10.89,8.08-20.85,11.6-29.18,36.62,5,97.83,1.85,136.11-1.8C2132.22,2491.25,2145.73,2505,2155.28,2515.86Z"/><path d="M1997.91,1759c1.1-2.76,4.38-4.62,7.14-5.24,4.43-1,8.5-.34,10.67,3.8,3.89,7.41,2.68,16.48,2.74,24.57.13,20-.68,39.8-2.18,59.71-2.93,39.12-8,77.81-14.23,116.54-6.27,39.33-13.2,78.55-18.17,118.07s-6.49,78.95-7.31,118.69c-.47,23-.49,45.92-.61,68.88a688.56,688.56,0,0,0,3.49,68.88c.22,2.36,4.1,3.39,4.52.61,3.28-21.54,6.12-42.86,7.25-64.65,1.15-22.15,2.5-44.3,3.31-66.46,1.59-43.27,3.45-86.47,8.84-129.46,10.64-84.83,32.38-169.66,29.13-255.66-.46-12-1.31-24-2.85-35.9-1.06-8.21-2.7-18.9-8.66-25.28-4.06-4.34-10.62-8.61-16.76-8.46-6.64.16-11.12,4.08-11.86,10.61-.38,3.42,4.48,3.45,5.54.75Z"/><path d="M1797.05,2236.29c21.61,5.24,41.19-1.3,61.16-9.41a272,272,0,0,0,55.53-30.51c16.41-11.75,32.65-23.88,47.47-37.6a220.62,220.62,0,0,0,20.66-21.81c6.19-7.54,13.49-16.77,14.7-26.73.46-3.81-4.79-6.61-7.8-4.48-7.06,5-12.27,13.74-17.64,20.46a232,232,0,0,1-19,20.69c-13.57,13.3-28.49,25.13-43.66,36.53-16.3,12.23-30.57,27.12-47.89,37.93-18.43,11.5-41.23,16-62.63,11.48-2.23-.47-3.2,2.9-1,3.45Z"/><path d="M2459.67,2104.07c-5.63-1.94-12-1.32-17.91-1.41-6.46-.09-12.92-.15-19.38-.1-13.24.11-26.48-.36-39.71.4-12.59.72-25.28,1.73-37.58,4.7-6.21,1.5-12.19,3.71-18.34,5.41-2.86.79-5.77,1.34-8.62,2.16-3.66,1.05-5.75,2.92-8.93,4.81-2.58,1.53-3.75,6-1,8.14,5.24,4.09,9.1,6,15.89,5s13.09-4,19.3-6.57a189.32,189.32,0,0,1,37.56-11.64,198.38,198.38,0,0,1,39.2-3.6c6.84.1,13.68.32,20.52.59,6.26.25,13,1.37,19.05-.31,3.89-1.07,3.54-6.33,0-7.55Z"/><path d="M2347.84,1901.35v0c-12.13,9.3-13,184.65-23.54,211.71-8.61,22.11,12.58,199.67,20.6,263.76-26.45,11.2-45.23,17.91-45.23,17.91s-4.3,20.31-9.4,41.22c1.07-23.2,2.1-42.74,2.1-42.74q16.59-246.1,22.91-492.75C2325,1899,2336,1899.41,2347.84,1901.35Z"/><path class="cls-18" d="M2321.31,2659.9a196.2,196.2,0,0,0,13.73,24.68c3.57,5.31,8.18,12.69,15.24,12.76a1.92,1.92,0,0,0,1.65-2.86c-1.72-2.71-4.17-4.38-6.36-6.68a64.23,64.23,0,0,1-7.31-9.94c-4.32-6.76-8.51-13.59-12.38-20.63-1.66-3-6-.37-4.57,2.67Z"/><path class="cls-18" d="M2278.71,2659.57c3.51,9.21,6.63,18.71,10.9,27.61,3.32,6.92,7.21,14.24,14.86,16.49a2.27,2.27,0,0,0,2.54-3.3c-3.67-6.42-8.58-11.8-11.81-18.65-3.8-8.09-7.35-16.3-11-24.45-1.37-3.07-6.68-.87-5.47,2.3Z"/><path class="cls-18" d="M2239.35,2663.73A60.79,60.79,0,0,0,2257,2700.5c1.66,1.59,4.52-.46,3.25-2.52-3.24-5.24-6.66-10.55-9.5-16.06-3.13-6.06-4.82-12.39-7.09-18.77-.77-2.17-4.52-2-4.29.58Z"/><path class="cls-18" d="M2198.32,2667.64c.39,6.28,3.48,12,6.75,17.28,2.67,4.28,6.72,11.43,12,12.31,1.26.21,2.91-.56,2.77-2.11-.47-5-5.21-9.1-7.88-13.2-3.25-5-5.4-10.76-8.94-15.56-1.34-1.82-4.89-1.48-4.72,1.28Z"/><path class="cls-22" d="M2504.7,1683.17c0,9.06,5.06,15.9,10.6,22.66,6,7.3,12.27,13.69,21.07,17.12,3,1.15,5.15-3.16,3-5.2-10.8-10.39-25.2-21.31-31.27-35.51-.75-1.76-3.43-.76-3.43.93Z"/><path class="cls-17" d="M2548.4,931.61l.47,0c-7.65,3.76-18.08,5.54-18.08,5.54-34.7,0-45.63-48.49-45.63-48.49-5,7,0,25.42,0,25.42q-5.67-1.57-10.81-3.5c-2.53-11-4.19-22.26-3-33.44,1.31-12.58,6.53-25.15,16.28-33.2C2491,879.56,2501.63,933.74,2548.4,931.61Z"/><path class="cls-17" d="M2538.64,870.43c-15.68-18.63-22.5-47-16.49-69.18-8.29,32.2,39.3,40.37,63.37,37.45-18.57,8.84-51.87,6.19-51.87,6.19S2539,851.61,2538.64,870.43Z"/><path class="cls-22" d="M2469.2,1087.94c-13.72,15.63-44-12.33-44-12.33s-5,12.11-12.15,28.13q1.41-15,3.47-30c1.46-10.49,5.27-14.62,10.21-13.86,2.89.45,6.17,2.57,9.59,6.07C2437,1066.78,2463.44,1089.93,2469.2,1087.94Z"/><path class="cls-22" d="M2470.31,1086.09c0,.16,0,.32,0,.48l0,0A2.78,2.78,0,0,0,2470.31,1086.09Z"/><g class="cls-27"><circle class="cls-25" cx="2336.65" cy="1002.27" r="34"/></g><path class="cls-28" d="M2370.61,1126.2a4.4,4.4,0,0,1-.5.21,7.18,7.18,0,0,1-3.13.13c-17.14-2.1-29.06-20.15-30.24-37.9l6.94,4.9c7.88,5.56,15.93,11.3,21.41,19.24A33.33,33.33,0,0,1,2370.61,1126.2Z"/><path class="cls-22" d="M2584.85,1555.72a125.23,125.23,0,0,0,5.93,22.38l-13.5-6.85c-24.84-12.57-49.72-26-75-38.38-13.4-6.58-26.9-12.9-40.57-18.69,25.92-11.34,52-27.33,63.13-43.77,19.38-28.56,65.05-45.09,80.66-59.9l13,7.08,9,4.91C2599.1,1463.19,2577,1508.15,2584.85,1555.72Z"/><path class="cls-22" d="M3131.62,1137.74a6.11,6.11,0,0,0,.77-1.24,1.56,1.56,0,0,1,.9.74C3134,1138.56,3130.67,1138.91,3131.62,1137.74Z"/><path class="cls-22" d="M2538.26,1724l-16,5.73,3.43,10.76,1.35,4.24c-14.31-.58-28.55-1.16-42.52-1.75l-.55-.51c-8.77-8-18.54-18.4-25.3-30.27,17.49,17.41,46.09,24.3,68.63,13.44,2.3-1.1,4.64-2.39,7.19-2.42A10.2,10.2,0,0,1,2538.26,1724Z"/><path class="cls-22" d="M2549.81,1745.66a41.27,41.27,0,0,0,.28-6.29c-.18-5.32-1.56-8.91-3.22-11.32a69.53,69.53,0,0,0,60.07-3.8c2.8-1.6,5.51-3.42,8.2-5.26l6.37,17,4.59,12.26C2601.69,1747.52,2575.82,1746.64,2549.81,1745.66Z"/><path class="cls-11" d="M3212,1349.72c.39,7.88-6.29,14-13.24,18.09-9.3-2.9-18.1-6.88-25.7-13a59.75,59.75,0,0,1-21.88-50.61c1.15-14.06,7.3-27.27,9.33-41.23,1.79-12.26.35-24.73-1.09-37q-1.95-16.62-3.89-33.24a100,100,0,0,1,12.54,27c6,20.47,5.75,42.26,10.63,63a131.46,131.46,0,0,0,25.19,51.78C3207.56,1339.06,3211.72,1343.87,3212,1349.72Z"/><g class="cls-26"><path class="cls-17" d="M3087.33,1146.79a165.94,165.94,0,0,0-29.27,20,164,164,0,0,0-12.85,12.16c-4.07,4.27-8,8.7-11.6,13.34-14.71,18.43-26.1,39.32-34.81,61.17-2.19,5.46-4.15,11-6,16.6s-3.53,11.22-5,16.91c-3,11.4-5.48,22.92-7.44,34.55s-3.58,23.32-4.87,35.07-2.25,23.53-3.11,35.34c-1.78,23.61-3,47.31-4.86,71l-1.46,17.73-1.39,17.74c-.92,11.83-2,23.68-3.32,35.5-2.68,23.62-6.58,47.27-13.76,70-1.86,5.67-3.82,11.31-6.14,16.81-1.09,2.77-2.39,5.46-3.58,8.19s-2.57,5.38-4,8a151.92,151.92,0,0,1-9.26,15.26,146,146,0,0,1-11.11,13.92,152.29,152.29,0,0,0,19-29.87c1.35-2.62,2.47-5.36,3.69-8s2.28-5.45,3.25-8.24c2.1-5.51,3.84-11.15,5.48-16.82a305.8,305.8,0,0,0,7.57-34.56c1.92-11.64,3.33-23.38,4.45-35.15,2.18-23.54,3.43-47.25,5.22-70.92s2.87-47.31,4.56-71c.91-11.85,1.94-23.7,3.26-35.53s3-23.65,5.1-35.39,4.81-23.39,7.92-34.92a283.13,283.13,0,0,1,11.73-33.88,259.07,259.07,0,0,1,16-32,220.45,220.45,0,0,1,20.72-29.21c3.85-4.56,7.95-8.91,12.22-13.08a167.12,167.12,0,0,1,13.41-11.82,160.37,160.37,0,0,1,14.57-10.31A165.59,165.59,0,0,1,3087.33,1146.79Z"/></g><path d="M1693.63,2190.71c20.85,15.89,56,37.6,86.9,45.84a197.47,197.47,0,0,1-35.41-8.9c-42.76-14.91-135.26-11.92-175-149.18-11.33-39.09-18.44-82.27-8.58-122.49,2.4-9.74,2.89-29.48,14-34.29,3.6-1.55,7.7-1.27,11.59-.67,1.57.23,3.1.46,4.59.64,17,2.15,28.06.39,44.64-9.63,14.32-8.66,27-19.71,40.4-29.62,28.74-21.24,57.24-42.79,85.81-64.26q9.85-7.43,19.72-14.88l3.77,1.49c-36.32,59-84.15,101-139.84,140.4-54.26,38.38-32.86,94.24-18.51,147.22A186.77,186.77,0,0,0,1693.63,2190.71Z"/><path class="cls-22" d="M2618.48,1417.59c-6.33,5.4-13.89,9.86-20.92,14.28a278.34,278.34,0,0,0-95.27,101c-13.4-6.58-26.9-12.9-40.57-18.69,25.92-11.34,52-27.33,63.13-43.77,19.38-28.56,65.05-45.09,80.66-59.9Z"/></g></svg>