<?xml version="1.0" encoding="utf-8"?>
<!-- Generator: Adobe Illustrator 24.0.0, SVG Export Plug-In . SVG Version: 6.00 Build 0)  -->
<svg version="1.1" id="Layer_1" xmlns="http://www.w3.org/2000/svg" xmlns:xlink="http://www.w3.org/1999/xlink" x="0px" y="0px"
	 viewBox="0 0 4680 3120" style="enable-background:new 0 0 4680 3120;" xml:space="preserve">
<style type="text/css">
	.st0{fill:#FFF2C9;}
	.st1{fill:#FFCA90;}
	.st2{fill:#EEAC6D;}
	.st3{fill:#DF8B4C;}
	.st4{fill:#A74714;}
	.st5{fill:#CF6B20;}
	.st6{fill:#FFFFD6;}
	.st7{fill:#FFEABA;}
	.st8{fill:none;stroke:#000000;stroke-width:5.81;stroke-miterlimit:10;}
	.st9{fill:#FFE572;}
	.st10{fill:#834A20;}
	.st11{fill:#FF9D73;}
	.st12{fill:#DB0000;}
	.st13{fill:#FF7641;}
	.st14{fill:#C24710;}
	.st15{fill:#450010;}
	.st16{fill:#FFB600;}
	.st17{fill:#FF8600;}
	.st18{fill:#FFFF7E;}
</style>
<title>01</title>
<g id="_01">
	<rect x="8.5" class="st0" width="4671.5" height="3120"/>
	<rect x="2777.6" y="935" class="st1" width="649" height="551.7"/>
	<polygon class="st2" points="2777.6,935 2685.6,962 2685.6,1459.6 2777.6,1486.7 	"/>
	<polygon class="st1" points="3821.9,2762.4 3818.9,1945.9 3437.5,1549.6 3407.7,2306.5 	"/>
	<polygon class="st2" points="3768.2,2702.8 3762.3,1695.6 4036.4,1892.2 4060.3,3066.4 	"/>
	<polygon class="st3" points="3976.8,2404.8 3976.8,2956.6 4079.5,3110.6 4079.5,2513.9 	"/>
	<polygon class="st4" points="3973.9,2407.8 4274.8,2404.8 4274.8,2515.1 4081.1,2515.1 	"/>
	<polygon class="st3" points="4212.3,2509.1 4021.5,2407.8 4021.5,1907.2 4212.3,1907.2 	"/>
	<rect x="4079.5" y="2507.5" class="st5" width="179.7" height="609.6"/>
	<polygon class="st3" points="3607.3,640.7 4197.4,640.7 4197.4,1380.7 3607.3,1385.7 	"/>
	<polygon class="st1" points="3595.4,855.2 3595.4,1409.5 3661,1478 3661,908.9 	"/>
	<polygon class="st2" points="3661,908.9 4197.4,908.9 4197.4,1475.1 3661,1478 	"/>
	<path class="st6" d="M3595.4,855.2h524.5l77.5,53.6H3655L3595.4,855.2z"/>
	<polygon class="st1" points="4268.9,593 4268.9,1737.3 4179.5,1689.6 4179.5,640.7 	"/>
	<path class="st2" d="M4268.9,593h405.3v1141.3h-405.3V593z"/>
	<polygon class="st7" points="3815.9,1099.6 4036.4,1248.6 4507.3,1248.6 4328.5,1099.6 	"/>
	<rect x="4036.4" y="1248.6" class="st3" width="476.8" height="667.5"/>
	<polygon class="st1" points="3828.1,1093 3828.1,1760.5 4048.6,1909.5 4048.6,1242 	"/>
	<polygon class="st2" points="3553.7,646.6 3553.7,1329 3607.3,1385.7 3607.3,640.7 	"/>
	<polygon class="st2" points="4304.6,1600.2 4304.6,2655.1 4400,2732.6 4400,1683.7 	"/>
	<path class="st3" d="M4400,2732.6h274.1V1677.7H4400V2732.6z"/>
	<polygon class="st7" points="4304.6,1600.2 4674.1,1600.2 4674.1,1677.7 4397,1677.7 	"/>
	<polygon class="st1" points="4161.6,1743.2 4161.6,3120 4257,3120 4257,1826.7 	"/>
	<polygon class="st7" points="4161.6,1743.2 4674.1,1743.2 4674.1,1820.7 4254,1820.7 	"/>
	<polygon class="st8" points="4328.5,2828 4328.5,3114 4471.5,3114 4471.5,2994.8 	"/>
	<rect x="4257" y="1820.7" class="st2" width="417.2" height="1299.3"/>
	<rect x="4361.3" y="590" class="st9" width="125.2" height="286.1"/>
	<rect x="4355.3" y="1817.8" class="st9" width="125.2" height="286.1"/>
	<path class="st2" d="M2032.2,936.5h508.4l54.1,70.5h-562.5V936.5z"/>
	<rect x="2032.2" y="1007" class="st1" width="562.5" height="998.2"/>
	<rect x="2170.1" y="1004.3" class="st6" width="102.8" height="249.5"/>
	<rect x="1.4" y="423.9" class="st1" width="843.7" height="1139.2"/>
	<rect x="826.1" y="421.2" class="st2" width="843.7" height="1524.4"/>
	<rect x="193.4" y="502.5" class="st3" width="876.2" height="1079.5"/>
	<rect x="14.9" y="714.1" class="st2" width="892.4" height="1030.7"/>
	<rect x="1269.6" y="741.2" class="st3" width="843.7" height="1524.4"/>
	<rect x="1791.5" y="2089.3" class="st4" width="367.8" height="775.7"/>
	<polygon class="st5" points="1894.7,2722.2 2162,2526 2162,3109.1 1888.9,3109.1 	"/>
	<path class="st7" d="M1329.1,1457.3l156.9-70.5h881.6l-91.9,70.5H1329.1z"/>
	<path class="st1" d="M1164.2,1541.4l167.9-84.1h943.5l-98.4,84.1H1164.2z"/>
	<polygon class="st2" points="2159.3,1538.7 2159.3,2265.6 2372.9,2059.5 2372.9,1386.8 	"/>
	<path class="st7" d="M2178.2,1538.7l-265,173.6H534.1c0,0,389.4-168.2,400.2-173.6H2178.2z"/>
	<polygon class="st3" points="1910.5,1706.8 1910.5,2444.6 2175.5,2260.2 2175.5,1533.3 	"/>
	<rect x="528.7" y="1706.8" class="st5" width="1384.6" height="743.2"/>
	<rect x="1615.8" y="1706.8" class="st9" width="151.4" height="396"/>
	<rect x="1358.9" y="738.5" class="st9" width="151.4" height="396"/>
	<polygon class="st1" points="1214.6,2412.1 1902.4,2412.1 1650.9,2596.5 904.6,2596.5 	"/>
	<polygon class="st3" points="1648.2,2596.5 1648.2,3111.9 1907.8,3111.9 1902.4,2412.1 	"/>
	<path class="st4" d="M945.1,2596.5v515.3h703.1v-515.3C1648.2,2596.5,945.1,2593.8,945.1,2596.5z"/>
	<polygon class="st5" points="1248,2802.6 1588.7,2802.6 1261.5,3114.6 869.4,3114.6 	"/>
	<polygon class="st3" points="1588.7,2802.6 1588.7,3114.6 1258.8,3114.6 	"/>
	<path class="st7" d="M642.2,1940.1c10.8,0,427.3,5.4,427.3,5.4L993.8,2130h-357L642.2,1940.1z"/>
	<polygon class="st10" points="993.8,2130 1220.9,1994.4 1058.7,1972.7 	"/>
	<polygon class="st3" points="1220.9,1994.4 1220.9,2900.3 991.1,3120 991.1,2130 	"/>
	<polygon class="st2" points="993.8,2130 636.8,2130 636.8,3120 999.2,3120 	"/>
	<path class="st3" d="M485.4,838.9L9.5,866v526.2l481.4,5.4C490.8,1397.6,485.4,841.6,485.4,838.9z"/>
	<polygon class="st1" points="485.4,838.9 609.8,871.4 609.8,1381.4 490.8,1397.6 	"/>
	<path class="st7" d="M9.5,1386.8c10.8,5.4,432.7,43.4,432.7,43.4l221.8-43.4L507,1375.9L9.5,1386.8z"/>
	<polygon class="st2" points="442.1,1430.2 442.1,2504.3 0,2493.4 0,1386.8 	"/>
	<polygon class="st3" points="674.7,1386.8 674.7,2357.8 442.1,2504.3 442.1,1430.2 	"/>
	<path class="st4" d="M442.1,2504.3v613H0v-623.9L442.1,2504.3z"/>
	<polygon class="st5" points="655.8,2366 655.8,3120 428.6,3120 428.6,2506.3 	"/>
	<polygon class="st9" points="369.1,1818.1 217.7,1818.1 217.7,1405.8 369.1,1422.1 	"/>
	<path class="st11" d="M3540.2,1701.2c0,5.4,67.6,646.3,67.6,646.3l238-37.9l-24.3-581.4L3540.2,1701.2z"/>
	<polygon class="st11" points="2420.6,1674.1 2301.6,1993.2 2561.2,2036.5 2653.2,1771.5 	"/>
	<path class="st12" d="M2653.2,1165.7l-17.4,7.9c-65,29.5-115.4,83.9-140.1,150.9l-134.6,365.8c0,0,124.4,135.2,275.8,102.8
		C2701.9,1663.3,2653.2,1165.7,2653.2,1165.7z"/>
	<path class="st11" d="M2977.7,1025.1l-91.9,54.1l2.6,84.9c1.8,59.1,30.6,114.1,78.1,149.3l0,0c45,33.3,102.2,45.5,156.8,33.3
		l83-18.4c47.8-10.6,89.8-39,117.5-79.5l97.6-142.6l-124.4-92L2977.7,1025.1z"/>
	<path class="st11" d="M2996.6,908.8l-37.9,162.3l32.6,40.7c34.1,42.6,85.8,67.5,140.4,67.5l0,0c57.8,0,112.1-27.8,145.9-74.7
		l43.6-60.5l11.6-107.5c6.6-61.1,25.2-120.4,54.6-174.3l20.3-37.2l-189.3-43.3L2996.6,908.8z"/>
	<path class="st13" d="M3267.1,812.8c-102.8-62.2-105.5-63.5-105.5-63.5s-4.6,0.9-12.4,3.2l-152.6,156.3l-25.2,108
		C3001.2,1032.6,3171.1,1106.9,3267.1,812.8z"/>
	<path class="st11" d="M3058.8,240.9c0,0-182.7,235.6-161.5,578.3c1.4,23.1,7.8,45.9,19.9,65.7c16.9,27.7,41.5,47.1,79.4,50.8
		c54.1,5.3,232.6,42.6,292-181S3486.1,214.2,3058.8,240.9z"/>
	<path class="st14" d="M2999.3,511.3c-0.2,1.2-0.6,2.4-1,3.6c-0.4,1.2-0.8,2.3-1.3,3.5c-0.9,2.3-1.8,4.6-2.7,6.9
		c-1.9,4.6-3.8,9.1-5.8,13.7c-4,9.1-8.1,18.1-12.2,27.1c-4.1,9-8.4,17.9-12.6,26.9s-8.6,17.8-13,26.7l-3.3,6.6l-1.7,3.3
		c-0.6,1.1-1.1,2.2-1.6,3.2c-1.8,4.1-2.5,8.6-2,13.1c0.5,4.5,2.3,8.8,5,12.4c5.6,7.5,14.9,11.4,24.1,10l14.7-2
		c9.8-1.3,19.6-2.5,29.5-3.6c-9.7,2.2-19.4,4.2-29.1,6.2l-14.6,2.9c-5.2,1-10.6,0.6-15.6-1.3c-10.3-3.9-17.6-13.1-19.2-23.9
		c-0.7-5.4,0-10.9,2.2-15.9c0.6-1.3,1.1-2.4,1.6-3.5l1.6-3.3l3.3-6.7l13.2-26.5c4.5-8.8,8.9-17.7,13.4-26.5l13.6-26.4l6.8-13.2
		c1.1-2.2,2.3-4.4,3.4-6.6c0.6-1.1,1.1-2.2,1.6-3.3C2998.5,513.6,2999,512.5,2999.3,511.3z"/>
	<path class="st14" d="M3064.2,500.5c2.2-2.6,4.6-5.1,7.2-7.3c2.6-2.2,5.4-4.2,8.2-6.1c5.8-3.8,12-6.9,18.4-9.3
		c6.6-2.5,13.5-4.1,20.5-5c7.2-0.9,14.5-0.8,21.6,0.2c14.6,2,28.2,8.5,39,18.6c1.3,1.2,2.5,2.6,3.7,3.9l1.8,2
		c0.6,0.7,1.1,1.4,1.6,2.1c1.1,1.4,2.1,2.8,3.1,4.2s1.8,3,2.7,4.5l1.3,2.3c0.4,0.8,0.8,1.6,1.1,2.3c0.7,1.6,1.4,3.1,2,4.7
		c0.3,0.8,0.6,1.6,0.9,2.4l0.8,2.5c0.5,1.7,0.9,3.3,1.3,5c-1.4-1-2.7-2.1-4-3.2l-1.9-1.6c-0.3-0.3-0.6-0.5-0.9-0.8s-0.6-0.5-1-0.8
		c-1.3-1-2.6-2-3.8-3c-0.6-0.5-1.2-1-1.8-1.5l-1.9-1.4l-3.7-2.8c-1.3-0.8-2.6-1.7-3.8-2.5c-0.6-0.4-1.3-0.8-1.9-1.3l-1.9-1.1
		l-3.8-2.2c-5-2.7-10.2-5-15.6-6.9c-5.3-1.8-10.8-3.1-16.3-3.9c-11.1-1.7-22.8-1.4-34.9-0.2c-6.1,0.6-12.2,1.5-18.5,2.6
		c-3.1,0.5-6.3,1.1-9.5,1.7L3064.2,500.5z"/>
	<path class="st14" d="M2945.2,489.7c-0.1-1.6,0.1-3.3,0.5-4.9c0.4-1.5,0.9-3,1.6-4.4c4.5-9.5,14.5-15.3,25.1-14.3
		c1,0.1,1.9,0.2,2.9,0.4s1.9,0.5,2.8,0.8s1.8,0.7,2.6,1.1c0.8,0.4,1.6,0.9,2.4,1.4c3,1.8,5.5,4.3,7.4,7.2c0.9,1.3,1.6,2.7,2.2,4.2
		c0.6,1.5,1,2.9,1.3,4.5c0.3,1.5,0.4,3.1,0.4,4.6c0,1.6-0.2,3.3-0.6,4.9c-1.5-0.4-3-1-4.5-1.6c-1.4-0.5-2.7-1-3.9-1.5
		s-2.4-0.9-3.5-1.4s-2.1-0.8-3.1-1.1c-1.6-0.6-3.3-1-5-1.4c-1.2-0.2-2.5-0.4-3.7-0.5c-1.2-0.1-2.4-0.2-3.9-0.2s-3.3,0.1-5.4,0.3
		s-4.4,0.5-7,0.9l-4.1,0.6C2948.5,489.3,2947,489.5,2945.2,489.7z"/>
	<path class="st14" d="M2945.2,765.5c4.8,2.2,9.8,4.1,14.8,5.6c5,1.6,10.1,2.8,15.2,3.8c10.2,1.9,20.6,2.5,30.9,1.6
		c10.3-0.9,20.5-3.3,30.1-7c9.8-3.9,19.1-8.9,27.9-14.7c-7.6,7.6-16.5,13.9-26.2,18.6c-9.9,4.7-20.5,7.6-31.4,8.5
		c-10.9,0.9-21.8-0.1-32.3-2.9c-5.2-1.4-10.3-3.2-15.2-5.4C2954.2,771.4,2949.6,768.7,2945.2,765.5z"/>
	<path class="st14" d="M3053.4,743.9c2.6,1.5,4.9,3.4,7.1,5.4c2.1,2,4.1,4.1,5.9,6.4c1.8,2.3,3.5,4.6,5,7.1c1.6,2.5,2.8,5.3,3.8,8.1
		c-2.6-1.5-4.9-3.4-7.1-5.4c-4.2-4-7.9-8.5-10.9-13.5C3055.6,749.4,3054.3,746.7,3053.4,743.9z"/>
	
		<ellipse transform="matrix(0.1498 -0.9887 0.9887 0.1498 2098.1089 3528.6553)" class="st14" cx="3100.8" cy="544.4" rx="24.4" ry="19"/>
	
		<ellipse transform="matrix(0.1533 -0.9882 0.9882 0.1533 1972.6743 3372.2498)" class="st14" cx="2954.3" cy="534.9" rx="24.3" ry="14.4"/>
	<path class="st14" d="M3386,768.2c-5.4-5.4,148.7-154.1,154.1-300.2l-216.3-54l-59.5,70.3l59.5,54.1l-24.3,165L3386,768.2z"/>
	<path class="st15" d="M3529.4,430.2c33.7-19.3,45.9-34.2,17.7-67.8c-22.9-133.7-148.6-152-197.9-154c-54.4-72.7-189-42.3-220-21.6
		c-27-16.2-238,43.3-143.3,183.9c59.5-119,55.4-106.8,55.4-106.8s66.2,160.9,255.5,69c0,0-27,81.1,43.3,102.8s181.2,24.3,198.8,60.8
		C3574,526.2,3594.3,468,3529.4,430.2z M3357.5,221.4c83.3,12.9,128.9,68.6,150.5,105.4C3460.4,296.2,3398.1,291.4,3357.5,221.4z"/>
	
		<ellipse transform="matrix(0.3595 -0.9331 0.9331 0.3595 1499.478 3558.7473)" class="st11" cx="3342.1" cy="687.1" rx="95.7" ry="44.9"/>
	
		<ellipse transform="matrix(0.3595 -0.9331 0.9331 0.3595 1499.478 3558.7473)" class="st13" cx="3342.1" cy="687.1" rx="51.1" ry="23.9"/>
	<path class="st12" d="M2929,1046.7l2.9,55.6c4.6,87.7,69.3,160.6,155.9,175.7l0,0c62.9,10.9,127-10.7,170.4-57.5l135.9-146.7
		l346.1,286.6L3421.2,2242h-751.8l-54.1-622l37.9-454.3L2929,1046.7z"/>
	<path class="st12" d="M3740.3,1360.4l-1.2,0.5c-89.7,38-161.8,108.2-202.1,196.9l0,0c-29.8,65.5-40.7,137.9-31.7,209.2l23.2,183.9
		c0,0,174-130.7,325.4-98.3C3853.9,1771.5,3794.4,1382.1,3740.3,1360.4z"/>
	<path class="st16" d="M2639.7,1170.2l-24.3,449.8l37.9,649l-240.7,540.9l2.7,308.3h1119.6l-43.3-524.6l-46-410.1l-148.7-109.1v-119
		l146-448.9l205.5-232.6l-0.6-0.7c-28.1-31.6-62.6-56.9-101.2-74.1l0,0l-195.6,253.3l-146,340.7l-454.3-64.9l-5.4-124.4l22.5-489.5
		l-55,18.9L2639.7,1170.2z"/>
	<polygon class="st6" points="3307.6,1506.5 3242.7,1663.3 3388.7,1722.8 3442.8,1560.6 	"/>
	<polygon class="st16" points="3320.8,1547 3280.2,1645.1 3371.5,1682.2 3405.3,1580.8 	"/>
	<polygon class="st6" points="2604.5,1452.4 2761.4,1436.2 2750.5,1587.6 2604.5,1598.4 	"/>
	<polygon class="st16" points="2628,1471.8 2737.8,1460.5 2730.3,1566.5 2628,1574.1 	"/>
	<polygon class="st17" points="2707.3,1831 2707.3,2187.9 3150.8,2198.7 3204.9,1890.5 	"/>
	<polygon class="st5" points="1977.1,2517.8 2171.8,2636.8 3423.9,2796.4 3177.8,2669.3 	"/>
	<path class="st3" d="M3280.6,2068.9c0-5.4,270.4,178.5,270.4,178.5l-129.8,546.3l-243.4-124.4L3280.6,2068.9z"/>
	<polyline class="st7" points="2069.1,1933.7 1977.1,2517.8 3177.8,2669.3 3280.6,2068.9 2071.8,1931 	"/>
	<polygon class="st18" points="2187.2,1938.2 2134,2247.4 2307.1,2274.5 2360.2,1958.1 	"/>
	<path class="st11" d="M2012.3,2542.2c5.4,0,137.9,40.6,137.9,40.6h92c13.4,0,25.7,7.1,32.4,18.6l0,0c10.4,17.9,4.4,40.9-13.5,51.4
		c-3.8,2.2-7.9,3.7-12.2,4.5l-66.3,12.1l-91.9-32.4L2012.3,2542.2z"/>
	<path class="st11" d="M3464.1,2357.6c0,0,106.3,11.8,147.6-76.8s76.8-189,224.4-118.1c11.8,17.7,17.7,189,17.7,189
		s-29.5,129.9-200.8,141.7c-124,0-177.2,53.2-177.2,53.2L3464.1,2357.6z"/>
	<path class="st11" d="M3542.4,2480.4c0,0-90.9,104.3-98.4,175.1c-115.8-108.9-115.6-114.8-115.6-114.8l55.9-122.8l37.6-99.6
		l46.3,42.4C3468.3,2360.7,3551.3,2344.8,3542.4,2480.4z"/>
	<polygon class="st11" points="3328.4,2540.7 3248.4,2686.6 3111.9,2713.2 3152.4,2755.4 3294.5,2740.8 3380.5,2589.1 	"/>
	<polygon class="st11" points="3204.2,2749.2 3335.3,2765.3 3413.7,2623.8 3380.5,2589.1 	"/>
	<polygon class="st11" points="3444,2655.5 3335.3,2765.3 3392,2605.6 	"/>
	<polygon class="st11" points="3444,2655.5 3411.7,2784.8 3338.5,2755.1 	"/>
	<path class="st11" d="M3416.8,2316.3L3416.8,2316.3c-22.8-7.6-47.6-6.4-69.6,3.2l-91.8,40.4c-12.6,5.6-19.7,19.2-17,32.7l0,0
		c3.2,16,18.7,26.3,34.7,23.1c2.1-0.4,4.1-1,6-1.9l28.8-12.6c19.6-8.6,42.4-5,58.4,9.2l13.6,12.1L3416.8,2316.3z"/>
</g>
</svg>
