<svg xmlns="http://www.w3.org/2000/svg" viewBox="0 0 4680 3120"><defs><style>.cls-1{fill:#e4eef2;}.cls-2{fill:#b6c9ce;}.cls-3{fill:#359687;}.cls-17,.cls-4{fill:#fff;}.cls-5{fill:#68b0a5;}.cls-6{fill:#c9dce2;}.cls-7{fill:#6d444a;}.cls-8{fill:#282735;}.cls-9{fill:#ffc768;}.cls-10{fill:#ef3c1b;}.cls-11{fill:#ff9676;}.cls-12{fill:#f43d1e;}.cls-13{fill:#ff795d;}.cls-14{fill:#ff7e5c;}.cls-15{fill:#f63b18;}.cls-16{fill:#9dbac1;}.cls-17{stroke:#000;stroke-width:2.14px;}.cls-17,.cls-27{stroke-miterlimit:10;}.cls-18{fill:#037c6b;}.cls-19{fill:#00514a;}.cls-20{fill:#282737;}.cls-21{fill:#645acd;}.cls-22{fill:#2d1f90;}.cls-23{fill:#900003;}.cls-24{fill:#f9c770;}.cls-25{fill:#fec868;}.cls-26{fill:#d19235;}.cls-27{fill:none;stroke:#d3c1b3;stroke-width:10.71px;}.cls-28{fill:#d3c1b3;}</style></defs><title>03</title><g id="_03" data-name="03"><rect id="_03-2" data-name="03" class="cls-1" width="4680" height="3120"/><ellipse class="cls-2" cx="2234.96" cy="2515.29" rx="1682.78" ry="144.51"/><path class="cls-3" d="M4164.18,1570.76c-63.28-42.07-277.38-170-429.4-87-180.22,98.42-335.68,442.78-335.68,442.78s116.62-125.4,205.06-103.14,215.75,106.43,391.42-65.62c102.83-100.72,149.32-143.28,170.18-161.25A16.2,16.2,0,0,0,4164.18,1570.76Z"/><path class="cls-4" d="M4075.08,1579.39c-109.73-4.9-267.92,21.54-394.43,78.89-19.53,10.74-64.77,30-126.93,81.88-52.18,43-99.14,96.35-125.57,136.22a5.47,5.47,0,0,0,1.54,7.59c4.33,2.88,7.68-1.53,7.53-1.44,48.77-64.6,121.59-133.2,201.28-181.46,98.67-58.45,221.26-88.85,334.1-106l11.33-1.47c86-11.79,94.35-4.31,94.12-11.21A3.13,3.13,0,0,0,4075.08,1579.39Z"/><path class="cls-5" d="M3711.46,1752.94c-85.25-6-185.55,96.52-278.46,165.78-197.16,147-393.18,171.81-380.74,175.89,35.32,11.59,205.08-57.16,300.17-109.38s129.82-36.12,185.44-.21,141.36,51.81,209.83,12.1c52-30.13,136.39-27.95,174.12-25.13a9.06,9.06,0,0,0,8-14.29C3894.33,1907.61,3782.42,1757.9,3711.46,1752.94Z"/><path class="cls-4" d="M3629.22,1855.21,3622,1857c-16.85,4.18-127.24,43-208.58,85.19a2.06,2.06,0,0,0-.89,2.79,2.12,2.12,0,0,0,2.72.92c48.67-21.15,112.8-45.61,161.76-62.92,53.11-19.19,89.48-31.8,152.71-16.19,69.55,18.24,114.85,57.32,114.7,57.22a1.66,1.66,0,0,0,2.14-2.53C3789.12,1869.92,3705.33,1837.32,3629.22,1855.21Z"/><path class="cls-3" d="M3607.64,2077.34c-14.28-104.86-66.25-146.43-159.53-137.4-78.87,7.64-158.9,62.17-212.87,107.68,1.65-.19,3.31-.34,5-.47a71.38,71.38,0,0,1,21.26-5.31,27.43,27.43,0,0,1,3-.07,223.65,223.65,0,0,1,39.78-11.6c63.54-12.87,104.41,116.71,170.8,190.13,52.06,57.56,133.27,40.36,165.93,30.24a9.6,9.6,0,0,0,5.17-14.53C3631.49,2214.6,3619.55,2164.72,3607.64,2077.34Z"/><path class="cls-4" d="M3476.22,1996.3c-46.43-32.68-99.3-32-152.78-6.29-22.22,11.38-33.38,18.14-57,35.61a1.84,1.84,0,0,0,2.06,3.05c12-7.36,24.35-15.2,38.29-22.21,87.6-47.51,141.69-12.65,144.81-12.33,3.08,3.67,38.88,8.36,62.21,82.67a304.42,304.42,0,0,1,9.92,42.78v.09a1.92,1.92,0,0,0,3.81-.36C3526.15,2077.4,3510.77,2022.57,3476.22,1996.3Z"/><path class="cls-6" d="M3288,657.48c-60.58-31.1-177-28.81-208.1,31.77S3142,801.82,3180,858.32c53,78.8,130.22,25.75,161.32-34.83A123.3,123.3,0,0,0,3288,657.48Z"/><path class="cls-6" d="M1287.33,545.51A119.14,119.14,0,0,0,1119,551.74c-44.77,48.22-73.09,157.1-24.87,201.87s121-28.35,183.45-48.94C1364.7,676,1335.55,590.29,1287.33,545.51Z"/><path class="cls-6" d="M3225.93,1491c7.83-68.69,39.25-135,33.5-203.89-3.83-45.77-24-88.73-48.64-127.49-90-141.55-240.69-236.31-400.08-288.53-150-49.14-304.72-84.72-460.9-72.9-322.91,24.45-388.73-26.85-718.73-97.43-213-45.56-451.35,116.87-576,305a449.22,449.22,0,0,0-33.49,60.18c-43,93.31-54.72,200.89-34.1,301.46,24.25,118.23,97.86,209.07,72.31,335.2-15.55,76.83-19.45,148-27.34,224-16.19,156.1,85.16,293.64,210.88,367.91,102.12,60.33,221.84,83,339.25,81.34,105.66-1.44,211.15-21,313.54-47.19,98.68-25.29,195.15-58.61,298.58-48.09,86,8.73,163.5,45.93,243.61,73.65,191.26,66.21,422.95,75.55,597.85-25.23,112.24-64.69,190.8-169.73,225.65-282.67,27.84-90.26,31.37-174.66,10.51-266.81C3250.87,1685,3214.69,1589.58,3225.93,1491Z"/><path class="cls-3" d="M979,974.13a10.86,10.86,0,0,0-13.34,11c.75,18.44,1.2,60.67-1,157.1-3.79,164.71,95.69,188.5,147.06,221.59s43.39,147.56,43.39,147.56,97.36-233.7,63-367C1189.13,1032.06,1028.53,985.85,979,974.13Z"/><path class="cls-6" d="M1157.47,1250.83c-29.85-88.16-89.32-177.69-141.94-229.14a2.08,2.08,0,0,0-2.82-.08c-3.49,3,4,3.72,37.59,51.19l4.46,6.22c43.27,63.07,84.5,137,101.06,212,12.86,61.09,12.62,128.13,3.33,181.57,0-.12-.65,3.54,2.74,4.35a3.67,3.67,0,0,0,4.42-2.73c7.42-31.19,12-78.6,9.19-123.81C1172.46,1296.24,1161.15,1265.3,1157.47,1250.83Z"/><path class="cls-5" d="M1062.78,1262c-34.91-32.46-159.4-18.69-200.18-13.16a6.07,6.07,0,0,0-3.31,10.48c18.65,17.17,58.37,57.5,67.4,96.71,11.91,51.69,58.94,86.38,102,97.15s66.8,20.42,84.78,90.85,62,185,83.87,197c7.69,4.22-69.88-103.08-88.2-266.84C1100.47,1396.94,1104.72,1300.94,1062.78,1262Z"/><path class="cls-6" d="M1052.83,1353.34l-2.46-4.33c-26.08-45.44-80.39-71.52-131.88-76a1.11,1.11,0,0,0-.26,2.21c-.12,0,39.74,4.25,80.5,29.94,36.58,23.79,47.06,47.36,62,82.14,13.94,31.89,31.32,74.47,43.25,108a1.42,1.42,0,0,0,1.7.91,1.39,1.39,0,0,0,.95-1.71C1090,1435.32,1058.5,1363.5,1052.83,1353.34Z"/><path class="cls-3" d="M1044.82,1439.11c-45.25-43.55-89.84-43.34-141,5.81-42.61,40.95-69.63,62.19-86.24,67.33a6.45,6.45,0,0,0-3.33,9.79c13,18.9,48.46,61.72,99.75,53.14,65.43-11,140.8-62,168.82-28.83s27,53.49,29.46,70.34,10,72.5,42.38,85.53c4.9,2-31.41-47.89-38.62-94.39S1090.07,1482.65,1044.82,1439.11Z"/><path class="cls-6" d="M1089.49,1517.27c-17.43-35.73-44.9-58.1-82.88-60.25-29.08-.57-60,21.83-78.14,43.26a1.29,1.29,0,0,0,1.86,1.78l0,0a203.54,203.54,0,0,1,23-18.35c43.17-29.34,63.93-16.91,67.07-17.55,1.77,1.13,44.69,5.32,71,66.71,4.4,9.48,7.65,18.76,10.87,27.6a1.24,1.24,0,0,0,2.36-.75C1099.48,1540.68,1096.42,1532.49,1089.49,1517.27Z"/><path class="cls-7" d="M2838.08,1656.44a3.22,3.22,0,0,1-.06-6.43c3.21,0,6.41-.16,9.53-.31a3.21,3.21,0,1,1,.32,6.41c-3.19.16-6.47.27-9.74.33Zm-22.47-.42h-.17c-3.19-.16-6.45-.37-9.7-.63a3.21,3.21,0,0,1,.5-6.4c3.19.25,6.4.46,9.53.62a3.21,3.21,0,0,1-.16,6.42Zm54.47-2a3.21,3.21,0,0,1-.44-6.39c3.17-.44,6.32-1,9.38-1.51a3.21,3.21,0,0,1,1.16,6.32c-3.15.58-6.4,1.1-9.65,1.55Zm-86.44-1-.42,0c-3.16-.42-6.39-.88-9.6-1.37a3.21,3.21,0,1,1,1-6.35c3.18.48,6.36.94,9.47,1.36a3.21,3.21,0,0,1-.42,6.39Zm-31.67-5.28a3.36,3.36,0,0,1-.63-.06c-3.13-.62-6.33-1.29-9.49-2a3.21,3.21,0,0,1,1.36-6.28c3.13.68,6.28,1.33,9.38,2a3.21,3.21,0,0,1-.62,6.36Zm149.48-.48a3.21,3.21,0,0,1-.93-6.28c3-.92,6.06-1.92,9-3a3.21,3.21,0,1,1,2.18,6c-3,1.1-6.16,2.13-9.3,3.09A3.37,3.37,0,0,1,2901.45,1647.26Zm-180.81-6.62a3.56,3.56,0,0,1-.79-.1c-3.08-.78-6.23-1.61-9.37-2.45a3.21,3.21,0,1,1,1.66-6.2c3.12.83,6.24,1.65,9.29,2.42a3.22,3.22,0,0,1-.79,6.33Zm210.52-5.45a3.21,3.21,0,0,1-1.5-6.06c2.79-1.46,5.55-3,8.2-4.65a3.22,3.22,0,0,1,3.35,5.49c-2.77,1.69-5.65,3.32-8.56,4.85A3.22,3.22,0,0,1,2931.16,1635.19ZM2689.68,1632a3.31,3.31,0,0,1-.93-.13q-4.61-1.4-9.25-2.84a3.21,3.21,0,0,1,1.92-6.13q4.6,1.44,9.18,2.81a3.21,3.21,0,0,1-.92,6.29Zm-30.6-9.82a3.11,3.11,0,0,1-1-.17q-4.56-1.54-9.14-3.16a3.21,3.21,0,0,1,2.13-6.06q4.56,1.61,9.08,3.14a3.21,3.21,0,0,1-1,6.25Zm298.68-4.88a3.21,3.21,0,0,1-2.07-5.67c2.39-2,4.75-4.13,7-6.3a3.21,3.21,0,1,1,4.45,4.63c-2.36,2.27-4.82,4.48-7.32,6.58A3.19,3.19,0,0,1,2957.76,1617.34Zm-328.94-6a3.25,3.25,0,0,1-1.13-.2q-4.5-1.7-9-3.44a3.21,3.21,0,0,1,2.31-6q4.5,1.74,9,3.42a3.21,3.21,0,0,1-1.14,6.22Zm-29.92-11.73a3.17,3.17,0,0,1-1.21-.23l-8.94-3.68a3.22,3.22,0,0,1,2.47-5.94q4.46,1.86,8.89,3.67a3.21,3.21,0,0,1-1.21,6.18Zm381-5.46a3.21,3.21,0,0,1-2.51-5.22q3-3.81,6.06-7.53a3.21,3.21,0,0,1,5,4q-3,3.7-6,7.49A3.24,3.24,0,0,1,2979.91,1594.18Zm-410.63-7a3.23,3.23,0,0,1-1.28-.27c-2.95-1.28-5.89-2.58-8.85-3.89a3.21,3.21,0,0,1,2.6-5.87l8.81,3.87a3.21,3.21,0,0,1-1.28,6.16ZM2539.94,1574a3.22,3.22,0,0,1-1.34-.3l-8.76-4.06a3.21,3.21,0,0,1,2.72-5.82l8.73,4.05a3.21,3.21,0,0,1-1.35,6.13Zm460.41-4.59a3.22,3.22,0,0,1-2.43-5.31q3.16-3.7,6.33-7.3a3.21,3.21,0,1,1,4.83,4.24q-3.14,3.57-6.29,7.24A3.17,3.17,0,0,1,3000.35,1569.42Zm-489.47-9.14a3.18,3.18,0,0,1-1.4-.32l-8.68-4.23a3.21,3.21,0,1,1,2.83-5.77q4.34,2.13,8.65,4.21a3.22,3.22,0,0,1-1.4,6.11ZM2482.06,1546a3.24,3.24,0,0,1-1.44-.34l-8.61-4.38a3.21,3.21,0,0,1,2.92-5.72q4.31,2.21,8.58,4.36a3.21,3.21,0,0,1-1.45,6.08Zm539.67-.57a3.21,3.21,0,0,1-2.35-5.4q3.32-3.58,6.63-7a3.21,3.21,0,0,1,4.65,4.43q-3.28,3.43-6.58,7A3.2,3.2,0,0,1,3021.73,1545.46Zm-568.25-14.14a3.22,3.22,0,0,1-1.49-.37l-8.54-4.5a3.21,3.21,0,0,1,3-5.68q4.26,2.26,8.52,4.49a3.21,3.21,0,0,1-1.5,6.06Zm590.62-8.89a3.21,3.21,0,0,1-2.25-5.5c2.3-2.26,4.63-4.52,7-6.74a3.21,3.21,0,0,1,4.44,4.65c-2.3,2.19-4.61,4.44-6.89,6.67A3.15,3.15,0,0,1,3044.1,1522.43Zm-619-6.24a3.14,3.14,0,0,1-1.53-.39q-4.23-2.29-8.47-4.62a3.21,3.21,0,1,1,3.08-5.63l8.45,4.6a3.21,3.21,0,0,1-1.53,6ZM2397,1500.68a3.17,3.17,0,0,1-1.56-.41l-8.42-4.72a3.22,3.22,0,1,1,3.16-5.6l8.4,4.72a3.21,3.21,0,0,1-1.58,6Zm670.59-.18a3.21,3.21,0,0,1-2.14-5.61c2.42-2.15,4.87-4.29,7.3-6.38a3.21,3.21,0,1,1,4.18,4.88c-2.39,2.06-4.82,4.18-7.21,6.3A3.21,3.21,0,0,1,3067.55,1500.5ZM2369,1484.83a3.23,3.23,0,0,1-1.6-.43l-8.36-4.83a3.21,3.21,0,0,1,3.22-5.55l8.34,4.81a3.21,3.21,0,0,1-1.6,6Zm723.13-5a3.21,3.21,0,0,1-2-5.73c2.54-2,5.11-4,7.65-6a3.22,3.22,0,0,1,3.9,5.12c-2.51,1.91-5.06,3.88-7.56,5.87A3.26,3.26,0,0,1,3092.13,1479.86Zm-750.91-11.21a3.22,3.22,0,0,1-1.63-.44c-2.77-1.64-5.54-3.27-8.3-4.92a3.21,3.21,0,0,1,3.28-5.52l8.28,4.9a3.21,3.21,0,0,1-1.63,6Zm776.7-7.9a3.22,3.22,0,0,1-1.83-5.86c2.67-1.84,5.37-3.67,8-5.43a3.21,3.21,0,0,1,3.54,5.36c-2.63,1.74-5.29,3.54-7.92,5.35A3.2,3.2,0,0,1,3117.92,1460.75Zm-804.31-8.57a3.22,3.22,0,0,1-1.65-.46q-4.14-2.49-8.26-5a3.21,3.21,0,0,1,3.34-5.49q4.11,2.51,8.24,5a3.21,3.21,0,0,1-1.67,6Zm831.36-8.73a3.21,3.21,0,0,1-1.63-6c2.8-1.65,5.63-3.27,8.42-4.82a3.21,3.21,0,0,1,3.13,5.61c-2.75,1.53-5.54,3.13-8.3,4.75A3.19,3.19,0,0,1,3145,1443.45Zm-858.8-8a3.14,3.14,0,0,1-1.68-.48l-8.24-5.09a3.21,3.21,0,1,1,3.38-5.46l8.23,5.09a3.21,3.21,0,0,1-1.69,5.94Zm887.11-7.11a3.21,3.21,0,0,1-1.39-6.11c2.92-1.4,5.89-2.77,8.82-4.08a3.21,3.21,0,0,1,2.62,5.86c-2.87,1.29-5.79,2.64-8.66,4A3.27,3.27,0,0,1,3173.28,1428.33Zm-914.47-9.93a3.21,3.21,0,0,1-1.7-.49c-2.73-1.72-5.46-3.43-8.18-5.16a3.21,3.21,0,1,1,3.44-5.43q4.07,2.58,8.16,5.15a3.21,3.21,0,0,1-1.72,5.93Zm944-2.58a3.21,3.21,0,0,1-1.1-6.23c3-1.11,6.14-2.19,9.19-3.2a3.21,3.21,0,1,1,2,6.1c-3,1-6,2-9,3.14A3.22,3.22,0,0,1,3202.84,1415.82Zm30.69-9.37a3.22,3.22,0,0,1-.75-6.34c3.17-.77,6.37-1.49,9.51-2.13a3.21,3.21,0,1,1,1.29,6.29c-3.06.63-6.19,1.33-9.28,2.08A2.91,2.91,0,0,1,3233.53,1406.45Zm-1001.86-5.28a3.25,3.25,0,0,1-1.73-.51l-8.1-5.21a3.21,3.21,0,1,1,3.48-5.4q4,2.61,8.09,5.2a3.21,3.21,0,0,1-1.74,5.92Zm1075.14-.26a3.11,3.11,0,0,1-.43,0c-3-.39-6.11-.69-9.37-.9a3.21,3.21,0,0,1,.41-6.41c3.4.21,6.71.53,9.81,1a3.21,3.21,0,0,1-.42,6.39Zm-41.68-.05a3.21,3.21,0,0,1-.33-6.41c3.26-.35,6.54-.63,9.74-.83a3.22,3.22,0,1,1,.4,6.42c-3.11.19-6.29.46-9.46.8Zm-1060.38-17.1a3.25,3.25,0,0,1-1.76-.52l-8-5.26a3.21,3.21,0,1,1,3.52-5.37l8,5.25a3.21,3.21,0,0,1-1.75,5.9Zm-26.83-17.64a3.14,3.14,0,0,1-1.77-.54l-8-5.34a3.21,3.21,0,1,1,3.56-5.34l8,5.33a3.21,3.21,0,0,1-1.78,5.89Zm-26.73-17.86a3.22,3.22,0,0,1-1.79-.55l-8-5.4a3.21,3.21,0,0,1,3.6-5.32q4,2.7,8,5.39a3.21,3.21,0,0,1-1.8,5.88Zm-26.6-18a3.29,3.29,0,0,1-1.81-.56l-8-5.46a3.21,3.21,0,1,1,3.64-5.29q4,2.71,7.95,5.44a3.22,3.22,0,0,1-1.82,5.87ZM2098.11,1312a3.2,3.2,0,0,1-1.83-.58q-4-2.75-7.92-5.5a3.21,3.21,0,1,1,3.67-5.27l7.91,5.49a3.22,3.22,0,0,1-1.83,5.86Zm-26.36-18.4a3.18,3.18,0,0,1-1.85-.59l-7.89-5.55a3.21,3.21,0,0,1,3.71-5.25l7.88,5.54a3.22,3.22,0,0,1-1.85,5.85ZM2045.5,1275a3.12,3.12,0,0,1-1.86-.6q-3.95-2.81-7.86-5.6a3.21,3.21,0,0,1,3.74-5.22l7.84,5.59a3.21,3.21,0,0,1-1.86,5.83Zm-26.14-18.72a3.22,3.22,0,0,1-1.88-.61l-7.82-5.65a3.21,3.21,0,1,1,3.77-5.2l7.81,5.64a3.21,3.21,0,0,1-1.88,5.82Zm-26-18.88a3.17,3.17,0,0,1-1.89-.62l-7.79-5.69a3.21,3.21,0,1,1,3.79-5.18l7.78,5.68a3.21,3.21,0,0,1-1.89,5.81Zm-25.93-19a3.21,3.21,0,0,1-1.9-.63l-7.76-5.74a3.21,3.21,0,1,1,3.82-5.16l7.75,5.73a3.21,3.21,0,0,1-1.91,5.8Zm-25.82-19.17a3.21,3.21,0,0,1-1.92-.64l-7.73-5.78a3.21,3.21,0,1,1,3.86-5.14l7.71,5.77a3.21,3.21,0,0,1-1.92,5.79Zm-25.72-19.31a3.25,3.25,0,0,1-1.93-.65l-7.7-5.82a3.21,3.21,0,0,1,3.88-5.12l7.69,5.81a3.21,3.21,0,0,1-1.94,5.78Zm-25.62-19.46a3.14,3.14,0,0,1-1.94-.66q-3.87-2.94-7.67-5.86a3.21,3.21,0,0,1,3.91-5.1l7.65,5.86a3.21,3.21,0,0,1-2,5.76Zm-25.51-19.59a3.19,3.19,0,0,1-2-.67l-7.64-5.9a3.21,3.21,0,1,1,3.94-5.08l7.62,5.9a3.21,3.21,0,0,1-2,5.75Zm-25.42-19.73a3.22,3.22,0,0,1-2-.68l-7.61-6a3.21,3.21,0,0,1,4-5.06l7.6,5.94a3.22,3.22,0,0,1-2,5.75ZM1814,1101.24a3.17,3.17,0,0,1-2-.69l-7.58-6a3.21,3.21,0,0,1,4-5l7.57,6a3.21,3.21,0,0,1-2,5.73Zm-25.22-20a3.21,3.21,0,0,1-2-.7l-7.54-6a3.21,3.21,0,1,1,4-5l7.53,6a3.21,3.21,0,0,1-2,5.72ZM1763.67,1061a3.19,3.19,0,0,1-2-.71l-7.51-6.11a3.21,3.21,0,0,1,4.06-5q3.51,2.86,7.5,6.1a3.21,3.21,0,0,1-2,5.7Zm-25-20.47a3.17,3.17,0,0,1-2-.74c-5-4.11-7.59-6.3-7.59-6.3a3.21,3.21,0,0,1,4.13-4.92s2.6,2.18,7.55,6.27a3.21,3.21,0,0,1-2,5.69Z"/><path class="cls-8" d="M840.71,1563.44c-244.54,71-385.22,326.79-314.23,571.32S853.26,2520,1097.8,2449,1483,2122.21,1412,1877.68,1085.25,1492.45,840.71,1563.44Z"/><path class="cls-4" d="M853.41,1607.2c-220.37,64-347.15,294.49-283.17,514.86s294.48,347.16,514.85,283.18,347.16-294.49,283.18-514.86S1073.78,1543.23,853.41,1607.2Z"/><path class="cls-9" d="M880.91,1667.78a10.15,10.15,0,0,0-19.5,5.66l13.44,46.31a10.16,10.16,0,1,0,19.51-5.66Z"/><path class="cls-9" d="M1063.65,2292.69a10.15,10.15,0,0,0-19.5,5.66l13.45,46.31a10.15,10.15,0,0,0,19.5-5.66Z"/><path class="cls-9" d="M1302,1898.38l-46.32,13.44a10.16,10.16,0,0,0,5.66,19.51l46.31-13.45a10.15,10.15,0,1,0-5.65-19.5Z"/><path class="cls-9" d="M677.12,2081.12l-46.31,13.44a10.15,10.15,0,0,0,5.66,19.5l46.32-13.44a10.15,10.15,0,1,0-5.67-19.5Z"/><path class="cls-8" d="M1136.94,1700a10.16,10.16,0,0,0-13.79,4l-11.84,21.53a10.15,10.15,0,1,0,17.79,9.78l11.84-21.52A10.15,10.15,0,0,0,1136.94,1700Z"/><path class="cls-8" d="M825.79,2268.38a10.16,10.16,0,0,0-13.79,4L797.36,2299a10.15,10.15,0,1,0,17.79,9.78l14.64-26.61A10.16,10.16,0,0,0,825.79,2268.38Z"/><path class="cls-8" d="M1271.53,2160.41,1250,2148.57a10.15,10.15,0,0,0-9.79,17.79l21.53,11.84a10.15,10.15,0,0,0,9.79-17.79Z"/><path class="cls-8" d="M703.18,1849.25l-26.62-14.63a10.15,10.15,0,1,0-9.78,17.79l26.61,14.64a10.16,10.16,0,0,0,9.79-17.8Z"/><path class="cls-8" d="M923.3,1813a11.21,11.21,0,1,0-21.45,6.55l56.86,186.06a11.21,11.21,0,0,0,21.44-6.55Z"/><path class="cls-10" d="M1061.52,1855.51a11.2,11.2,0,0,0-15.23,4.39l-78.63,142.27A11.21,11.21,0,0,0,987.29,2013l78.62-142.28A11.2,11.2,0,0,0,1061.52,1855.51Z"/><path class="cls-8" d="M957.92,1967.19a40.64,40.64,0,1,0,50.36,27.7A40.66,40.66,0,0,0,957.92,1967.19Z"/><path class="cls-4" d="M962.9,1984.33a22.79,22.79,0,1,0,28.25,15.54A22.8,22.8,0,0,0,962.9,1984.33Z"/><path class="cls-6" d="M3192.45,553.08a23.75,23.75,0,1,0,23.74,23.74A23.74,23.74,0,0,0,3192.45,553.08Z"/><path class="cls-6" d="M3532,996.37a31.45,31.45,0,1,0,24.19,37.33A31.46,31.46,0,0,0,3532,996.37Z"/><path class="cls-11" d="M970.84,2248.32s-25.65,29.67-52.46,38.78c0,0,22.27,50.88,63.83,22.61,0,0-13.58-13.76,38.36-39.64S970.84,2248.32,970.84,2248.32Z"/><path class="cls-11" d="M1387.31,1290.46c-9-10.26-14.9-30.8-9.86-55.53l-62.06,9.18s.56,25.83-.57,34.28-4.75,19.31-29.5,20.52-42.83,18.7-51.89,53.7l324,138.79c.61-21.72-90.74-158.48-103-173.77C1433.78,1291.67,1396.36,1300.72,1387.31,1290.46Z"/><path class="cls-12" d="M1439.13,1059.21s5.38-32.11,0-49.5-37.35-28.33-71.36-15.49-101.26,38.17-132.24,58.19-18.51,40.43-14.73,53.4,26.06,92.45,26.06,92.45,45.35-9.07,126.58-37.79,105-58.94,99.37-77.83S1439.13,1059.21,1439.13,1059.21Z"/><path class="cls-13" d="M1354.77,1076.42l14.93-5.61c51.68-19.43,65.76-64.78,65.89-65.24l4.11,1.23c-.13.42-11.63,37.48-51.34,60,15.87-4.73,38.37-14.89,51.33-36.11l3.65,2.23c-22.56,37-70.65,41.83-72.69,42Z"/><path class="cls-11" d="M1314.69,1034.77c-82.89,19.37-79.57,97.32-63.91,145.53s64.75,81.37,120.32,69.2,78.84-77.33,63.37-132.59S1377.17,1020.17,1314.69,1034.77Z"/><path d="M1382.3,1181.12a1.07,1.07,0,0,1-.83-1.75c6.49-7.85,15.13-30.39,14.51-34a60.48,60.48,0,0,1-22.11,2.93,1.1,1.1,0,0,1-.86-.59c-9.64-19.16-10.61-43.25-10.62-43.49a1.07,1.07,0,0,1,2.14-.08c0,.23,1,23.41,10.12,42.06a60.23,60.23,0,0,0,20.93-3,1.74,1.74,0,0,1,2.09.64c2.66,3.89-8.84,30-14.55,36.87A1.06,1.06,0,0,1,1382.3,1181.12Z"/><path d="M1366.44,1201.37a39.11,39.11,0,0,1-28.11-11.25,1.08,1.08,0,0,1,0-1.52,1.07,1.07,0,0,1,1.51,0c20.85,20.29,49.27,5.42,49.55,5.26a1.07,1.07,0,1,1,1,1.89A56.56,56.56,0,0,1,1366.44,1201.37Z"/><path d="M1323.14,1127.78c-3.61.83-5.6,5.56-4.44,10.55s5,8.36,8.62,7.53,5.59-5.55,4.44-10.54S1326.74,1127,1323.14,1127.78Z"/><path d="M1324.92,1135.58a1.08,1.08,0,0,1-.38-2.08c9.14-3.41,12.18-14.92,12.21-15a1.07,1.07,0,1,1,2.07.53c-.13.52-3.32,12.7-13.53,16.52A1.21,1.21,0,0,1,1324.92,1135.58Z"/><path d="M1388.7,1114.87c-3.61.83-5.59,5.55-4.44,10.54s5,8.36,8.62,7.53,5.6-5.55,4.44-10.54S1392.31,1114,1388.7,1114.87Z"/><path d="M1390.48,1122.66a1.07,1.07,0,0,1-.38-2.08c9.15-3.41,12.18-14.92,12.21-15a1.07,1.07,0,1,1,2.07.52c-.13.52-3.32,12.71-13.53,16.52A1,1,0,0,1,1390.48,1122.66Z"/><path class="cls-14" d="M1292.86,1146.45c-18.26,2.46-31.43,16.55-29.42,31.47s18.45,25,36.7,22.55,31.44-16.55,29.43-31.47S1311.13,1144,1292.86,1146.45Z"/><path class="cls-14" d="M1434.5,1118c-18.26,2.46-31.44,16.55-29.42,31.47,1.84,13.7,15.87,23.31,32.3,22.88a128.16,128.16,0,0,0-2.63-54.37Z"/><path class="cls-15" d="M1235.56,1052.41c-31,20-18.51,40.43-14.73,53.4,2.13,7.33,10.19,35.93,16.78,59.4,66.48-21.27,58.9-81.44,58.9-81.44,37.63-20.22,32.45-56.76,27.93-72.86C1292.34,1023.65,1256,1039.17,1235.56,1052.41Z"/><path class="cls-13" d="M1269.75,1150.29a1.84,1.84,0,0,1-.47-.06c-41.91-9.5-51.65-61.93-51.74-62.46l3.87-1.59c29.6,42.8,64.87,39.39,65.23,39.35a2.14,2.14,0,0,1,.47,4.26c-1.43.16-33.14,3.22-62.52-32.29,5,15.19,17.75,42.23,45.63,48.56a2.14,2.14,0,0,1-.47,4.23Z"/><path class="cls-14" d="M1209.92,1150.82c-19.93,20,10.15,72.79,61,65.06l-24.39-56.44S1226.7,1134,1209.92,1150.82Z"/><path class="cls-11" d="M1212.16,1191.38c11,15.87,32,28.57,58.81,24.5L1251,1169.75C1239,1167.58,1214.12,1166.19,1212.16,1191.38Z"/><path class="cls-15" d="M1334.42,1076.17a30.11,30.11,0,0,0-9.26,2.15,35.51,35.51,0,0,0-14.29,10c-6.45,7.61-11.29,20-6.16,29.59,1.16.82,1-.83,1.25-1.83a44,44,0,0,1,2.56-7.81,53,53,0,0,1,10-14.92,62.45,62.45,0,0,1,14.13-11.2c2.26-1.3,4.57-2.48,6.87-3.7,1.32-.66,2.76-.78,1.85-1.94C1340.57,1075.6,1335.47,1076.11,1334.42,1076.17Z"/><path class="cls-15" d="M1391.82,1070.65a46.61,46.61,0,0,0-6.75,10.06c-3.83,7.2-5,15.25-5.32,23.27-.07,1.53,3.27-2.33,3.36-2.43a46.49,46.49,0,0,0,6.62-9.72,76.32,76.32,0,0,0,7.48-25.24C1396.57,1064.7,1392.64,1069.68,1391.82,1070.65Z"/><path class="cls-16" d="M3863,2343.39c-40.68,0-74.22,33.24-74.22,33.24s29.78-60,0-68c-32.5-8.73-121,88.09-121,88.09s47-64.17-2.87-48c-45.22,14.64-131.36,130.66-144,147.06l310.85-28.18C3835.31,2461.26,3902.57,2343.39,3863,2343.39Z"/><path class="cls-16" d="M1205.11,2342.14c-56.72-18.37-3.26,54.56-3.26,54.56s-100.63-110-137.55-100.1c-33.85,9.09,0,77.29,0,77.29s-38.12-37.77-84.35-37.77c-45,0,31.43,133.94,35.55,141.11h334.18C1335.3,2458.6,1256.5,2358.77,1205.11,2342.14Z"/><path class="cls-17" d="M1042.1,2243.48a251.3,251.3,0,0,1-63.28-20.21c-2.93-1.41-5.53,2.9-2.58,4.42a203.87,203.87,0,0,0,64.41,21C1044,2249.2,1045.59,2244.13,1042.1,2243.48Z"/><path class="cls-11" d="M916.23,2290.08s-25.65,29.67-52.46,38.78c0,0,22.27,50.89,63.83,22.61,0,0-13.58-13.76,38.36-39.64S916.23,2290.08,916.23,2290.08Z"/><path class="cls-8" d="M894.22,2327.34c-2.62-6.64-23-17.18-27.22-18.41s-6,9.33-23.9,23.66-103.79,11.34-107.84,14.07-5.19,15.44-5.19,15.44c.52-1.8,193.14,53.33,193.14,53.33,19.71-40.55,4.39-64,4.39-64C886.38,2356.36,896.84,2334,894.22,2327.34Z"/><path class="cls-18" d="M915.87,2405.77c-25.58-11.53-54.15-17.34-81.06-25Z"/><path class="cls-11" d="M1443.93,2381.77s-65.34-59.64-53.48-2.83-7.35,54.67-7.35,54.67c3.54,50.14,62.89,13.37,62.89,13.37C1436.54,2420.29,1443.93,2381.77,1443.93,2381.77Z"/><path class="cls-8" d="M1467.81,2453.16c-10-20.62-7.1-30.93-11.43-31.62s-27.28.07-32.49,4.94-5.37,29.58-40.51,7.47c0,0-23.88,14.57-23.49,59.65,0,0,197.64,32.88,197.34,34.73,0,0,4.45-12,2-16.17S1477.82,2473.79,1467.81,2453.16Z"/><path class="cls-18" d="M1454.62,2500.24c-27.6-4.63-55.9-11.64-83.94-12.21Z"/><path class="cls-18" d="M1013,2105.47c-60,101.64-113,191.14-113,191.14l95.26,33.25s11.28-2,31.49-40.61,95.15-32.85,332.81-418.82l-3.1,66.76c-41.52,413,15.47,303.15,11.67,346.52s.59,87.85.59,87.85l98,18.77s12.75-102.13,17.06-220.11,24.64-472.44,24.64-472.44L1277.89,1670S1073,2003.82,1013,2105.47Z"/><path class="cls-19" d="M1020.49,2280.9a249.16,249.16,0,0,1-62.83-21.61c-2.9-1.43-5.44,2.8-2.55,4.37a204.9,204.9,0,0,0,64.11,21.84C1022.21,2286,1023.53,2281.5,1020.49,2280.9Z"/><path class="cls-19" d="M1444.11,2280.05a249.33,249.33,0,0,1-66.45-.37c-3.2-.42-4.25,4.4-1,5a205,205,0,0,0,67.73.17C1447.37,2284.33,1447.18,2279.64,1444.11,2280.05Z"/><path class="cls-19" d="M1304,1712.16c-4.17,11.59-11.36,23.12-19.36,32.44-10.94,12.75-26.24,16.63-42.39,18.62a1.43,1.43,0,0,0,0,2.85c32.33,3.22,55.53-25.25,65.28-52.94C1308.34,1710.89,1304.81,1710,1304,1712.16Z"/><path class="cls-20" d="M1265.33,1309.39l-22.23,416.8,269.84,22.49V1309.39s-112.9,17.13-149.11,17.13C1338.14,1326.52,1265.33,1309.39,1265.33,1309.39Z"/><path class="cls-21" d="M1181,1444.53l62.22,69.39L1197,1745.53l123.23,9.57c19.14-51.45,71.36-357.23-11.29-468.31Z"/><path class="cls-22" d="M1330.26,1432.83h0a1.24,1.24,0,0,0-1.24,1.22c-1,74.19-5.06,181.77-28.25,259.21a1.23,1.23,0,0,0,.83,1.54,1.49,1.49,0,0,0,.36,0,1.24,1.24,0,0,0,1.18-.88c11.15-37.23,26.22-104.67,28.36-259.88A1.24,1.24,0,0,0,1330.26,1432.83Z"/><path class="cls-22" d="M1301.47,1438.26l-16,34.45,50,35.54C1342.21,1487.45,1327.21,1463.61,1301.47,1438.26Z"/><path class="cls-11" d="M1346.37,1427c-.29.14,7.28-34.5,4.12-37-3.91-3.13-7.94-1-9.74,2.55-3,6-5.06,13.11-7.41,19.46-3.53,9.52-7.86,17.72-15.64,24.45-6.18,5.33-13.26,8.57-16.31,16.73-2.27,6.06-1.52,12.34-.82,18.64a72,72,0,0,0,4.92,20.34c1.3,3,3.15,6.3,6.34,7.64,3.79,1.6,8.42-.58,12.05-2q12.25-4.76,24.8-8.71c6.86-2.16,13.82-5.64,18.55-11.22,4.89-5.78,4.73-12.23,5.11-19.39.18-3.38.42-7,.46-10.77.06-8.5-1-17.27-6.4-23.58C1363.36,1420.54,1352.38,1424.1,1346.37,1427Z"/><path d="M1369.7,1434.57l-17.25,4.21a1.73,1.73,0,0,0,.41,3.4,1.44,1.44,0,0,0,.41,0l17.24-4.21a1.72,1.72,0,1,0-.81-3.35Z"/><path d="M1370.84,1448.36l-17.24,4.22a1.73,1.73,0,0,0,.41,3.4,2,2,0,0,0,.41,0l17.24-4.22a1.72,1.72,0,1,0-.82-3.35Z"/><path d="M1370.46,1462.92l-17.24,4.22a1.72,1.72,0,0,0-1.27,2.08,1.74,1.74,0,0,0,1.68,1.32,2,2,0,0,0,.41,0l17.24-4.22a1.72,1.72,0,0,0-.82-3.35Z"/><path class="cls-21" d="M1234.81,1475.22l78.94-167a48.39,48.39,0,0,1-4.86-21.37v-1.59l-50,21.67c-.29.1-.59.25-.89.35-39.32,17.25-68.68,50.33-89.3,87.22s-43.44,76.41-45.42,119.6c-1.79,38,17.4,85.43,62.13,83.2,29-1.44,56.58-17,80.47-32.08a424.32,424.32,0,0,0,69.57-54.84c-15.77-22.26-27.57-45.27-33.62-69.37Z"/><path class="cls-22" d="M1300.23,1437.56l-110.63,56.77a1.24,1.24,0,0,0,.57,2.34,1.14,1.14,0,0,0,.56-.14l110.63-56.76a1.24,1.24,0,0,0-1.13-2.21Z"/><path class="cls-22" d="M1334.71,1509.32l-106.21,75a1.24,1.24,0,0,0,.71,2.25,1.21,1.21,0,0,0,.72-.23l106.21-75a1.24,1.24,0,0,0-1.43-2Z"/><path class="cls-22" d="M1252.63,1402.56a1.23,1.23,0,0,0-1.63.66l-31.61,75a1.25,1.25,0,0,0,.66,1.63,1.36,1.36,0,0,0,.48.09,1.24,1.24,0,0,0,1.15-.75l31.61-75A1.24,1.24,0,0,0,1252.63,1402.56Z"/><path class="cls-22" d="M1279.33,1362.8l18.83-58.93a1.24,1.24,0,1,0-2.36-.75l-19.19,60.07,41.65,61.66a1.25,1.25,0,0,0,1,.54,1.3,1.3,0,0,0,.7-.21,1.25,1.25,0,0,0,.33-1.72Z"/><path class="cls-21" d="M1589,1362.75l-63-46.15c-24.76-16.64-52.54-25.82-81.87-31.3l-58.35-6.42c-7,91.23,31.32,378,68.87,500.84L1561.13,1739c-16.75-55-52.72-255.43-69.07-322l59.42,35.09c49.64,29,98.76,30,145-1.7v-103C1663.19,1371,1624,1386.6,1589,1362.75Z"/><path class="cls-22" d="M1483.31,1366.87a1.24,1.24,0,0,0-2.43.52l24.8,115.28a1.22,1.22,0,0,0,1.2,1l.27,0a1.25,1.25,0,0,0,.95-1.48Z"/><path class="cls-22" d="M1437.17,1357.11l-39.93-73.22a1.24,1.24,0,0,0-2.18,1.19l39.4,72.24-18.11,50.2,47.7,258.43a1.25,1.25,0,0,0,1.22,1l.23,0a1.23,1.23,0,0,0,1-1.44l-47.58-257.77Z"/><path class="cls-4" d="M1503.11,2393a157.34,157.34,0,0,0,157.32,157.35l1213.28.19a157.33,157.33,0,0,0,157.37-157.3l.15-948.24-1528-.24Z"/><rect class="cls-6" x="1808.91" y="1547.69" width="212.12" height="212.12"/><rect class="cls-21" x="2048.75" y="1547.69" width="212.12" height="212.12"/><rect class="cls-6" x="2288.58" y="1547.69" width="212.12" height="212.12"/><rect class="cls-6" x="2528.41" y="1547.69" width="212.12" height="212.12"/><rect class="cls-6" x="2768.25" y="1547.69" width="212.12" height="212.12"/><rect class="cls-12" x="1569.08" y="1547.69" width="212.12" height="212.12"/><path class="cls-23" d="M1732.94,1572H1594.31a7.22,7.22,0,1,0,0,14.43h138.63a7.22,7.22,0,1,0,0-14.43Z"/><path class="cls-23" d="M1646.26,1597.13h-52a7.22,7.22,0,1,0,0,14.44h52a7.22,7.22,0,1,0,0-14.44Z"/><path class="cls-22" d="M2214.72,1668.34H2076.09a7.22,7.22,0,0,0,0,14.44h138.63a7.22,7.22,0,1,0,0-14.44Z"/><path class="cls-22" d="M2128.05,1693.49h-52a7.22,7.22,0,0,0,0,14.44h52a7.22,7.22,0,0,0,0-14.44Z"/><rect class="cls-6" x="1808.91" y="1791.76" width="212.12" height="212.12"/><rect class="cls-6" x="2048.75" y="1791.76" width="212.12" height="212.12"/><rect class="cls-24" x="2288.58" y="1791.76" width="212.12" height="212.12"/><rect class="cls-12" x="2528.41" y="1791.76" width="212.12" height="212.12"/><rect class="cls-6" x="2768.25" y="1791.76" width="212.12" height="212.12"/><rect class="cls-6" x="1569.08" y="1791.76" width="212.12" height="212.12"/><rect class="cls-18" x="1808.91" y="2035.83" width="212.12" height="212.12"/><rect class="cls-6" x="2048.75" y="2035.83" width="212.12" height="212.12"/><rect class="cls-6" x="2288.58" y="2035.83" width="212.12" height="212.12"/><rect class="cls-6" x="2528.41" y="2035.83" width="212.12" height="212.12"/><rect class="cls-6" x="2768.25" y="2035.83" width="212.12" height="212.12"/><rect class="cls-6" x="1569.08" y="2035.83" width="212.12" height="212.12"/><rect class="cls-6" x="1808.91" y="2279.9" width="212.12" height="212.12"/><rect class="cls-6" x="2048.75" y="2279.9" width="212.12" height="212.12"/><rect class="cls-6" x="2288.58" y="2279.9" width="212.12" height="212.12"/><rect class="cls-6" x="2528.41" y="2279.9" width="212.12" height="212.12"/><path class="cls-12" d="M1569.08,2363.8A140.91,140.91,0,0,0,1696.77,2492h84.41l0-212.12-212.11,0Z"/><path class="cls-21" d="M2768.23,2492h86.07a140.92,140.92,0,0,0,126.07-132.65v-79.45l-212.12,0Z"/><path class="cls-23" d="M2696.56,1816.1H2557.92a7.22,7.22,0,0,0,0,14.44h138.64a7.22,7.22,0,1,0,0-14.44Z"/><path class="cls-23" d="M2609.88,1841.25h-52a7.22,7.22,0,0,0,0,14.44h52a7.22,7.22,0,0,0,0-14.44Z"/><path class="cls-8" d="M2947,1168.76l-1359.42-.21a84.26,84.26,0,0,0-84.28,84.26l0,192,1528,.24,0-192A84.27,84.27,0,0,0,2947,1168.76Z"/><path class="cls-6" d="M2821.61,1221.39a53.26,53.26,0,1,0,53.26,53.27A53.27,53.27,0,0,0,2821.61,1221.39Z"/><path class="cls-24" d="M2821.63,1109.36a25.7,25.7,0,0,0-25.7,25.71l0,122.66a25.71,25.71,0,1,0,51.41,0l0-122.66A25.72,25.72,0,0,0,2821.63,1109.36Z"/><path class="cls-6" d="M1706.23,1221.21a53.26,53.26,0,1,0,53.26,53.27A53.26,53.26,0,0,0,1706.23,1221.21Z"/><path class="cls-24" d="M1706.25,1109.19a25.72,25.72,0,0,0-25.72,25.7v122.67a25.71,25.71,0,0,0,51.42,0V1134.9A25.69,25.69,0,0,0,1706.25,1109.19Z"/><path class="cls-6" d="M1989.27,1221.26a53.26,53.26,0,1,0,53.25,53.27A53.27,53.27,0,0,0,1989.27,1221.26Z"/><path class="cls-24" d="M1989.29,1109.23a25.73,25.73,0,0,0-25.73,25.71V1257.6a25.71,25.71,0,1,0,51.42,0V1135A25.7,25.7,0,0,0,1989.29,1109.23Z"/><path class="cls-6" d="M2547.09,1221.35a53.26,53.26,0,1,0,53.24,53.27A53.27,53.27,0,0,0,2547.09,1221.35Z"/><path class="cls-24" d="M2547.1,1109.32a25.7,25.7,0,0,0-25.71,25.71l0,122.66a25.71,25.71,0,1,0,51.42,0l0-122.66A25.72,25.72,0,0,0,2547.1,1109.32Z"/><path class="cls-11" d="M1827.13,1164.48c-2.88-1-84.64-3.74-84.64-3.74-26.77-3.31,12.22,28.84,16.74,38.65,4.19,9.12,17.7,39.84,26.3,41.25,7.93,1.29,8.52-6.56,8.52-6.56s-.08.73,3.52,5.89c3.38,4.85,8,8.15,11.84,6.7s3.46-6.76,3.46-6.76,3.53,7,6.2,8.49,5.84,2.83,8.21,0-3.22-30.61-3.85-38.31c-.67-8.12-10.85-30.17-10.85-30.17a99.51,99.51,0,0,1,10.43,11.69c5.2,6.75,6.18,12,10,25.32,3.42,11.84,9.72,14.62,11.78,14.83s-2.06-31.13-2.94-35.06S1829.92,1165.48,1827.13,1164.48Z"/><path d="M1812.87,1241a1.06,1.06,0,0,1-1-.88c-.7-3.89-3-13.11-5-21.24-1.61-6.55-3.13-12.73-3.65-15.42-1.18-6-10.91-25.74-11-25.94a1.08,1.08,0,0,1,.49-1.44,1.07,1.07,0,0,1,1.43.49c.41.82,10,20.16,11.19,26.48.51,2.64,2,8.8,3.63,15.32,2,8.17,4.27,17.42,5,21.37a1.06,1.06,0,0,1-.86,1.24Z"/><path d="M1794.05,1235.15a1.08,1.08,0,0,1-1-.77c-3.08-10.61-12.67-39.38-18.13-47.62a1.07,1.07,0,0,1,1.79-1.18c6,9,16.07,40.18,18.4,48.2a1.07,1.07,0,0,1-.73,1.33A1,1,0,0,1,1794.05,1235.15Z"/><path class="cls-4" d="M3598.19,1676.61l-560.8-2.7a515.13,515.13,0,0,0,156.25,372l24.24,23.53h.66l-24.85,23.58a513.89,513.89,0,0,0-160.1,370.22l560.8,2.7a515.1,515.1,0,0,0-156.25-372l-24.24-23.53h-.67l24.86-23.58A513.81,513.81,0,0,0,3598.19,1676.61Z"/><path class="cls-6" d="M3210.44,2046l21.22,23.52h.58l-21.79,23.61c-89,96.48-139.76,230.24-140.43,370.31l491.14,2.36c.67-140.1-48.65-274.39-136.62-371.93l-21.22-23.52h-.58l21.78-23.6c89-96.49,139.76-230.24,140.44-370.31h0l-491.14-2.36C3073.14,1814.19,3122.48,1948.48,3210.44,2046Z"/><path class="cls-25" d="M3234.72,2018.51a284.19,284.19,0,0,0,52.93,51.3l56.48.27a543.56,543.56,0,0,0,47.5-50.61c66.65-81.12,118.16-146.48,118.69-255.19l-398.58-40.84C3111.22,1832,3170.07,1936.68,3234.72,2018.51Z"/><path class="cls-26" d="M3281.43,2065.29l4.79,301.53,56.48.27,6.9-302.15c-8.9,3.34-24.46,5.18-34.41,5.18S3290.22,2068.55,3281.43,2065.29Z"/><path class="cls-25" d="M3467.49,2377.39l-124-67a80.53,80.53,0,0,1-58.42-1.9l-125.67,69a98.81,98.81,0,0,0-51.23,86.13l411.62,2A99.72,99.72,0,0,0,3467.49,2377.39Z"/><path class="cls-22" d="M3633.69,1581.14,3003.51,1578a14.62,14.62,0,0,0-14.69,14.54l-.32,66.45a14.62,14.62,0,0,0,14.55,14.69l630.17,3.13a14.63,14.63,0,0,0,14.69-14.55l.32-66.45A14.62,14.62,0,0,0,3633.69,1581.14Z"/><path class="cls-21" d="M3642.93,1604.36l-649.82-3.13a14.62,14.62,0,0,0-14.7,14.55l-.08,18.6a14.61,14.61,0,0,0,14.55,14.69l649.82,3.13a14.63,14.63,0,0,0,14.7-14.55l.08-18.61A14.6,14.6,0,0,0,3642.93,1604.36Z"/><path class="cls-22" d="M3628.33,2465.73l-630.17-4.67a14.62,14.62,0,0,0-14.69,14.54l-.32,66.45a14.62,14.62,0,0,0,14.55,14.69l630.17,4.67a14.61,14.61,0,0,0,14.69-14.55l.32-66.44A14.62,14.62,0,0,0,3628.33,2465.73Z"/><path class="cls-21" d="M3638.91,2494l-649.84-3.12a14.6,14.6,0,0,0-14.68,14.54l-.09,18.61a14.62,14.62,0,0,0,14.54,14.69l649.84,3.13a14.63,14.63,0,0,0,14.69-14.55l.09-18.61A14.63,14.63,0,0,0,3638.91,2494Z"/><path class="cls-27" d="M3439.32,1336.44a80.38,80.38,0,1,0,80.38,80.38A80.38,80.38,0,0,0,3439.32,1336.44Z"/><path class="cls-28" d="M3490.78,1425.92h-57a5.35,5.35,0,1,1,0-10.7h57a5.35,5.35,0,0,1,0,10.7Z"/><path class="cls-28" d="M3434.44,1424.51a5.34,5.34,0,0,1-5.35-5.35v-50.7a5.35,5.35,0,1,1,10.7,0v50.7A5.34,5.34,0,0,1,3434.44,1424.51Z"/><path class="cls-7" d="M742.84,1338.3a3.42,3.42,0,0,1-1.21-.23,3.21,3.21,0,0,1-1.77-4.18c0-.14,1.33-3.29,3.9-9.07a3.21,3.21,0,1,1,5.87,2.61c-2.52,5.66-3.8,8.83-3.82,8.86A3.2,3.2,0,0,1,742.84,1338.3Zm13.44-29.41a3.27,3.27,0,0,1-1.41-.33,3.21,3.21,0,0,1-1.47-4.29q2-4.11,4.32-8.69a3.21,3.21,0,0,1,5.74,2.89c-1.54,3-3,5.91-4.29,8.62A3.21,3.21,0,0,1,756.28,1308.89ZM771,1280.24a3.2,3.2,0,0,1-2.82-4.73q2.24-4.14,4.64-8.51a3.21,3.21,0,1,1,5.62,3.12q-2.38,4.32-4.61,8.44A3.22,3.22,0,0,1,771,1280.24Zm15.8-28a3.2,3.2,0,0,1-2.77-4.83q2.4-4.11,4.94-8.33a3.21,3.21,0,0,1,5.51,3.31q-2.52,4.2-4.91,8.27A3.2,3.2,0,0,1,786.83,1252.19Zm16.77-27.46a3.21,3.21,0,0,1-2.71-4.93q2.55-4,5.23-8.15a3.21,3.21,0,1,1,5.38,3.5q-2.64,4.1-5.19,8.09A3.19,3.19,0,0,1,803.6,1224.73Zm17.71-26.84a3.22,3.22,0,0,1-2.64-5c1.81-2.64,3.64-5.29,5.52-8a3.21,3.21,0,1,1,5.25,3.7q-2.78,4-5.47,7.89A3.22,3.22,0,0,1,821.31,1197.89ZM840,1171.7a3.21,3.21,0,0,1-2.58-5.13q2.85-3.85,5.8-7.74a3.21,3.21,0,0,1,5.12,3.88q-2.93,3.86-5.76,7.69A3.21,3.21,0,0,1,840,1171.7Zm19.61-25.48a3.21,3.21,0,0,1-2.5-5.22q3-3.75,6.09-7.52a3.22,3.22,0,1,1,5,4.08q-3.06,3.74-6,7.46A3.21,3.21,0,0,1,859.59,1146.22Zm20.58-24.69a3.22,3.22,0,0,1-2.42-5.32q3.15-3.64,6.39-7.27a3.21,3.21,0,1,1,4.8,4.27q-3.21,3.6-6.34,7.21A3.21,3.21,0,0,1,880.17,1121.53Zm21.57-23.84a3.21,3.21,0,0,1-2.34-5.42c2.21-2.33,4.44-4.67,6.69-7a3.21,3.21,0,1,1,4.61,4.46q-3.35,3.46-6.63,6.94A3.19,3.19,0,0,1,901.74,1097.69Zm22.55-22.89a3.21,3.21,0,0,1-2.23-5.51c2.33-2.27,4.69-4.53,7-6.7a3.21,3.21,0,0,1,4.41,4.67c-2.28,2.16-4.61,4.39-6.93,6.64A3.21,3.21,0,0,1,924.29,1074.8ZM947.86,1053a3.21,3.21,0,0,1-2.13-5.62c2.41-2.12,4.87-4.26,7.31-6.36a3.21,3.21,0,0,1,4.18,4.88c-2.42,2.07-4.85,4.19-7.23,6.3A3.19,3.19,0,0,1,947.86,1053Zm24.59-20.68a3.21,3.21,0,0,1-2-5.72c2.52-2,5.08-4,7.61-6a3.21,3.21,0,1,1,3.93,5.08c-2.5,1.94-5,3.94-7.53,5.93A3.21,3.21,0,0,1,972.45,1032.28Zm25.6-19.4a3.21,3.21,0,0,1-1.88-5.82c2.63-1.89,5.3-3.77,7.92-5.59a3.22,3.22,0,0,1,3.66,5.29c-2.59,1.79-5.23,3.65-7.83,5.52A3.27,3.27,0,0,1,998.05,1012.88Zm26.6-18a3.21,3.21,0,0,1-1.73-5.92c2.72-1.73,5.49-3.46,8.22-5.13a3.21,3.21,0,0,1,3.35,5.48c-2.69,1.65-5.43,3.36-8.12,5.07A3.2,3.2,0,0,1,1024.65,994.88Zm27.57-16.45a3.21,3.21,0,0,1-1.57-6c2.81-1.57,5.67-3.13,8.51-4.65a3.21,3.21,0,0,1,3,5.67c-2.79,1.49-5.62,3-8.4,4.59A3.17,3.17,0,0,1,1052.22,978.43Zm28.49-14.79a3.21,3.21,0,0,1-1.39-6.11c2.89-1.39,5.84-2.78,8.77-4.12a3.21,3.21,0,0,1,2.68,5.84c-2.89,1.33-5.81,2.7-8.67,4.07A3.28,3.28,0,0,1,1080.71,963.64Zm29.35-13a3.21,3.21,0,0,1-1.21-6.19c3-1.21,6-2.41,9-3.56a3.21,3.21,0,0,1,2.3,6c-3,1.14-6,2.32-8.9,3.51A3.26,3.26,0,0,1,1110.06,950.64Zm355.49-9.35a3.37,3.37,0,0,1-.93-.13c-3.06-.93-6.15-1.84-9.2-2.72a3.21,3.21,0,1,1,1.78-6.17c3.07.88,6.2,1.8,9.28,2.74a3.21,3.21,0,0,1-.93,6.28Zm-325.38-1.75a3.21,3.21,0,0,1-1-6.26c3.06-1,6.16-2,9.23-3a3.21,3.21,0,1,1,1.91,6.13c-3,.94-6.1,1.93-9.11,2.93A3.29,3.29,0,0,1,1140.17,939.54Zm294.44-6.83a3.11,3.11,0,0,1-.79-.1c-3.1-.78-6.23-1.54-9.31-2.27a3.21,3.21,0,0,1,1.47-6.25c3.11.73,6.28,1.5,9.41,2.29a3.21,3.21,0,0,1-.78,6.33Zm-263.67-2.27a3.21,3.21,0,0,1-.81-6.32c3.13-.81,6.29-1.6,9.41-2.35A3.21,3.21,0,0,1,1181,928c-3.08.73-6.21,1.51-9.29,2.32A3.21,3.21,0,0,1,1170.94,930.44Zm232.34-4.78a3.36,3.36,0,0,1-.63-.06c-3.13-.63-6.3-1.23-9.42-1.79a3.21,3.21,0,0,1,1.15-6.32c3.15.57,6.35,1.18,9.52,1.8a3.22,3.22,0,0,1-.62,6.37Zm-201-2.27a3.21,3.21,0,0,1-.6-6.37c3.16-.6,6.37-1.18,9.55-1.72a3.21,3.21,0,0,1,1.07,6.34c-3.13.53-6.29,1.1-9.41,1.69A3.23,3.23,0,0,1,1202.24,923.39Zm169.38-3.13a3.55,3.55,0,0,1-.46,0c-3.16-.45-6.35-.88-9.49-1.28a3.21,3.21,0,1,1,.79-6.37c3.18.4,6.42.83,9.61,1.29a3.21,3.21,0,0,1-.45,6.39Zm-137.68-1.83a3.21,3.21,0,0,1-.39-6.4c3.19-.39,6.43-.76,9.63-1.09a3.21,3.21,0,1,1,.66,6.39c-3.16.33-6.36.69-9.51,1.08Zm105.77-1.8h-.27c-3.18-.27-6.39-.52-9.56-.73a3.21,3.21,0,0,1,.43-6.41c3.2.22,6.46.46,9.67.74a3.21,3.21,0,0,1-.27,6.41Zm-73.81-1.08a3.21,3.21,0,0,1-.18-6.42c3.21-.18,6.47-.34,9.68-.46a3.21,3.21,0,1,1,.25,6.42c-3.18.12-6.39.28-9.56.46Zm41.74-.67h-.08c-3.18-.07-6.4-.12-9.57-.14a3.21,3.21,0,0,1,0-6.42h0c3.22,0,6.48.06,9.7.14a3.22,3.22,0,0,1-.08,6.43Z"/><path class="cls-6" d="M1855,900.41H1522.15a17.33,17.33,0,0,0,0,34.66H1855a17.33,17.33,0,0,0,0-34.66Z"/><path class="cls-6" d="M1855,960.8H1522.15a17.33,17.33,0,1,0,0,34.65H1855a17.33,17.33,0,1,0,0-34.65Z"/><path class="cls-6" d="M1855,840H1522.15a17.33,17.33,0,0,0,0,34.66H1855a17.33,17.33,0,0,0,0-34.66Z"/><path class="cls-6" d="M1646.9,1021.18H1522.15a17.33,17.33,0,0,0,0,34.66H1646.9a17.33,17.33,0,0,0,0-34.66Z"/><path class="cls-7" d="M3821.05,2070.65a3.21,3.21,0,0,1-3.2-3.12l-.21-6.33a3.22,3.22,0,0,1,3.1-3.32h.11a3.21,3.21,0,0,1,3.21,3.11c.07,2.11.14,4.22.21,6.35a3.22,3.22,0,0,1-3.12,3.31Zm-1.08-28.81a3.2,3.2,0,0,1-3.2-3.07q-.22-4.83-.45-9.61a3.21,3.21,0,0,1,6.41-.31c.16,3.19.31,6.41.45,9.64a3.21,3.21,0,0,1-3.06,3.35Zm-1.68-32.07a3.21,3.21,0,0,1-3.2-3q-.3-4.83-.61-9.6a3.21,3.21,0,0,1,6.41-.42c.21,3.19.42,6.4.61,9.63a3.2,3.2,0,0,1-3,3.4Zm-2.22-32a3.2,3.2,0,0,1-3.19-3c-.25-3.22-.51-6.41-.78-9.59a3.21,3.21,0,1,1,6.4-.53q.4,4.77.78,9.62a3.21,3.21,0,0,1-3,3.45Zm-2.79-32a3.21,3.21,0,0,1-3.19-2.9q-.47-4.81-1-9.57a3.21,3.21,0,0,1,6.39-.65q.49,4.77,1,9.6a3.21,3.21,0,0,1-2.88,3.51Zm-3.41-31.92a3.21,3.21,0,0,1-3.19-2.84c-.37-3.2-.76-6.38-1.15-9.54a3.21,3.21,0,0,1,6.38-.79c.39,3.17.77,6.37,1.15,9.58a3.21,3.21,0,0,1-2.81,3.57Zm-4.08-31.84a3.22,3.22,0,0,1-3.18-2.77q-.68-4.8-1.36-9.52a3.21,3.21,0,1,1,6.35-.93c.47,3.16.92,6.35,1.37,9.56a3.21,3.21,0,0,1-2.74,3.62A2.25,2.25,0,0,1,3805.79,1882Zm-4.81-31.75a3.21,3.21,0,0,1-3.17-2.69q-.78-4.77-1.59-9.48a3.21,3.21,0,0,1,6.33-1.08c.54,3.15,1.08,6.32,1.6,9.52a3.21,3.21,0,0,1-2.65,3.69A3,3,0,0,1,3801,1850.24Zm-5.6-31.6a3.22,3.22,0,0,1-3.15-2.62c-.6-3.17-1.22-6.31-1.84-9.42a3.21,3.21,0,0,1,6.3-1.26c.63,3.13,1.24,6.29,1.85,9.48a3.22,3.22,0,0,1-3.16,3.82Zm-6.46-31.45a3.21,3.21,0,0,1-3.13-2.52c-.7-3.15-1.4-6.28-2.11-9.37a3.21,3.21,0,1,1,6.26-1.44c.72,3.11,1.42,6.25,2.12,9.43a3.21,3.21,0,0,1-2.44,3.83A3.33,3.33,0,0,1,3788.92,1787.19Zm-7.39-31.23a3.22,3.22,0,0,1-3.12-2.42q-1.18-4.69-2.41-9.3a3.21,3.21,0,0,1,6.21-1.64q1.23,4.62,2.43,9.35a3.22,3.22,0,0,1-2.32,3.91A3.11,3.11,0,0,1,3781.53,1756Zm-8.44-31a3.21,3.21,0,0,1-3.08-2.31c-.91-3.1-1.82-6.17-2.75-9.2a3.21,3.21,0,0,1,6.15-1.87c.93,3.06,1.85,6.14,2.76,9.27a3.2,3.2,0,0,1-2.18,4A3.11,3.11,0,0,1,3773.09,1725Zm-9.59-30.63a3.2,3.2,0,0,1-3-2.19q-1.55-4.59-3.11-9.07a3.21,3.21,0,0,1,6.07-2.12q1.57,4.51,3.13,9.15a3.22,3.22,0,0,1-2,4.07A3.35,3.35,0,0,1,3763.5,1694.36Zm-10.85-30.2a3.21,3.21,0,0,1-3-2.05c-1.14-3-2.32-6-3.51-8.92a3.21,3.21,0,0,1,6-2.4c1.2,3,2.39,6,3.55,9a3.21,3.21,0,0,1-1.85,4.15A3,3,0,0,1,3752.65,1664.16Zm-12.27-29.64a3.24,3.24,0,0,1-2.94-1.91c-1.28-2.89-2.61-5.83-4-8.72a3.21,3.21,0,0,1,5.83-2.71c1.36,2.93,2.71,5.9,4,8.82a3.22,3.22,0,0,1-1.64,4.24A3.14,3.14,0,0,1,3740.38,1634.52Zm-13.84-28.94a3.21,3.21,0,0,1-2.86-1.75c-1.46-2.82-3-5.67-4.47-8.46a3.21,3.21,0,0,1,5.66-3c1.52,2.82,3,5.71,4.52,8.57a3.22,3.22,0,0,1-2.85,4.69Zm-15.62-28a3.21,3.21,0,0,1-2.75-1.56c-1.66-2.74-3.35-5.47-5-8.13a3.21,3.21,0,0,1,5.42-3.44c1.71,2.7,3.43,5.47,5.11,8.25a3.22,3.22,0,0,1-1.1,4.41A3.11,3.11,0,0,1,3710.92,1577.56Zm-17.6-26.82a3.24,3.24,0,0,1-2.62-1.34c-1.85-2.59-3.75-5.18-5.65-7.69a3.21,3.21,0,1,1,5.12-3.87c1.93,2.55,3.87,5.18,5.76,7.82a3.21,3.21,0,0,1-.75,4.48A3.15,3.15,0,0,1,3693.32,1550.74Zm-19.82-25.21a3.21,3.21,0,0,1-2.43-1.11c-2.09-2.41-4.23-4.8-6.35-7.1a3.21,3.21,0,1,1,4.72-4.36c2.17,2.35,4.35,4.79,6.48,7.25a3.22,3.22,0,0,1-2.42,5.32Zm-22.29-23.06a3.21,3.21,0,0,1-2.18-.85c-2.35-2.16-4.74-4.28-7.11-6.3a3.21,3.21,0,0,1,4.16-4.9c2.44,2.08,4.89,4.25,7.3,6.47a3.21,3.21,0,0,1-2.17,5.58Zm-25-20.08a3.22,3.22,0,0,1-1.82-.56c-2.64-1.82-5.31-3.55-7.94-5.17a3.21,3.21,0,0,1,3.37-5.47c2.72,1.67,5.48,3.47,8.21,5.34a3.21,3.21,0,0,1-1.82,5.86Zm-28-15.59a3.15,3.15,0,0,1-1.23-.25,65.07,65.07,0,0,0-8.65-3,3.21,3.21,0,0,1,1.47-6.25,68,68,0,0,1,9.64,3.36,3.21,3.21,0,0,1-1.23,6.18Z"/><path class="cls-2" d="M3926.78,2147.37H3734.6a10,10,0,0,0,0,20h192.18a10,10,0,0,0,0-20Z"/><path class="cls-2" d="M3926.78,2182.23H3734.6a10,10,0,0,0,0,20h192.18a10,10,0,0,0,0-20Z"/><path class="cls-2" d="M3926.78,2112.51H3734.6a10,10,0,0,0,0,20h192.18a10,10,0,0,0,0-20Z"/><path class="cls-2" d="M3806.63,2217.09h-72a10,10,0,0,0,0,20h72a10,10,0,0,0,0-20Z"/><path class="cls-27" d="M777.06,1440a103.17,103.17,0,0,0-9.66-22l-19.78,9.33a80.27,80.27,0,0,0-13.71-16.63l13-17.63a103.11,103.11,0,0,0-42.15-22.46l-7.39,20.61a80.34,80.34,0,0,0-21.45-2.1l-3.29-21.62a102.6,102.6,0,0,0-45.69,13.93l9.35,19.77a79.86,79.86,0,0,0-16.64,13.72l-17.63-13a103.1,103.1,0,0,0-22.45,42.15l20.6,7.39a80.45,80.45,0,0,0-2.1,21.46l-21.62,3.28a102.26,102.26,0,0,0,13.93,45.69l19.77-9.34a80.7,80.7,0,0,0,13.72,16.64l-13,17.63A103.19,103.19,0,0,0,653,1569.29l7.38-20.61a80,80,0,0,0,21.46,2.1l3.29,21.62a102.27,102.27,0,0,0,45.68-13.93l-9.34-19.77A80.39,80.39,0,0,0,738.13,1525l17.62,13a103.16,103.16,0,0,0,22.46-42.16l-20.61-7.39a80,80,0,0,0,2.11-21.46l21.61-3.28A103,103,0,0,0,777.06,1440Zm-83.76,77.26a49.47,49.47,0,1,1,32.88-61.74A49.47,49.47,0,0,1,693.3,1517.27Z"/><circle class="cls-6" cx="2537.34" cy="490.34" r="30.53"/><path class="cls-6" d="M1497,521.19a14.38,14.38,0,1,0,11,17.06A14.38,14.38,0,0,0,1497,521.19Z"/></g></svg>