<svg xmlns="http://www.w3.org/2000/svg" xmlns:xlink="http://www.w3.org/1999/xlink" viewBox="0 0 4680 3120"><defs><style>.cls-1{fill:#e3f0fe;}.cls-2{isolation:isolate;}.cls-3,.cls-60,.cls-8{fill:#fff;}.cls-3{opacity:0;}.cls-4{fill:#5ebce0;}.cls-5{fill:#287064;}.cls-6{fill:#39a08f;}.cls-7{fill:#17574d;}.cls-9{fill:#3784bf;}.cls-10,.cls-14{fill:#b3b3b3;}.cls-10,.cls-13{mix-blend-mode:multiply;}.cls-11{fill:#a5cce3;}.cls-12{fill:#32539b;}.cls-15{fill:#e6e6e6;}.cls-16{fill:#d9ecff;}.cls-17{fill:#e54357;}.cls-18,.cls-27{fill:#757575;}.cls-19{fill:#b7daf7;}.cls-20{fill:#e4e4e4;}.cls-21{fill:#ffa2a1;}.cls-22{fill:#444;}.cls-23{opacity:0.59;}.cls-24{clip-path:url(#clip-path);}.cls-25,.cls-28{fill:#707070;}.cls-26{fill:#c3c3c3;}.cls-27,.cls-28,.cls-50,.cls-51,.cls-60,.cls-61{stroke:#000;}.cls-27,.cls-28,.cls-34,.cls-50,.cls-51,.cls-60,.cls-61{stroke-miterlimit:10;}.cls-29{fill:#ffd4d3;}.cls-30{fill:#ee9b2a;}.cls-31{fill:#784d03;}.cls-32{fill:#67201b;}.cls-33{fill:#54201b;}.cls-34{fill:#f48183;stroke:#f48183;}.cls-35{fill:#935a52;}.cls-36{fill:#101010;}.cls-37{fill:#a3a3a3;}.cls-38{fill:#204184;}.cls-39{fill:#375fa0;}.cls-40{fill:#133770;}.cls-41{fill:#932534;}.cls-42,.cls-51,.cls-61{fill:#e0e0e0;}.cls-43{fill:#dc69a8;}.cls-44{fill:#f7b0db;}.cls-45{fill:#af6812;}.cls-46{fill:#dd902a;}.cls-47{fill:#ef9620;}.cls-48{fill:#63c6b3;}.cls-49{fill:#91eddb;}.cls-50{fill:#8c8c8c;}.cls-52{fill:#fbb954;}.cls-53{fill:#fff3a0;}.cls-54{fill:#d92763;}.cls-55{fill:#92d4f5;}.cls-56{fill:#204083;}.cls-57{fill:#4288d7;}.cls-58{fill:#9dd7f5;}.cls-59{fill:#6abbdb;}.cls-60,.cls-61{stroke-width:1.3px;}.cls-62{clip-path:url(#clip-path-2);}</style><clipPath id="clip-path"><path d="M2192.64,1172.15a236.74,236.74,0,0,1-26.39-1.49,231.36,231.36,0,1,1,26.39,1.49Zm-.9-463.61A231.91,231.91,0,1,0,2218,710,234.76,234.76,0,0,0,2191.74,708.54Z"/></clipPath><clipPath id="clip-path-2"><circle class="cls-1" cx="1808.73" cy="1658.46" r="119.66"/></clipPath></defs><title>08</title><g class="cls-2"><g id="_08" data-name="08"><rect id="_08-2" data-name="08" class="cls-3" width="4680" height="3120"/><path class="cls-1" d="M3260.38,974.25c-69.55-77.35-112.43-169.11-176.2-249.8-157.9-199.8-383.72-142-587-37.76,0,0-417.47,244.75-830,188.87-169.57-23-358.91-33.14-519.91,21.31-92.7,31.36-176.47,93-205.43,177.59-25,73-7.07,152.42-2.52,229.42,15.42,260.9,9.39,409.29-135.35,616.47C758.61,1985.2,710.45,2092.15,719,2169c23.45,209.87,317.65,405,480.49,444.77,458.78,112.11,712.47,7.44,1181.65-58,387.09-54,745.85-36.49,1146.24-27.62,94.95,2.1,201.4-158,260.73-228.75,34-40.53,50.78-90.85,59.9-141.29,56.92-314.75-96.06-699.65-333.28-941.46C3433,1133.26,3338.17,1060.76,3260.38,974.25Z"/><ellipse class="cls-4" cx="2369.56" cy="2596.18" rx="1592.41" ry="145.39"/><path class="cls-5" d="M3835.68,2308.88c-17.33-.81-34.32,4.54-50.58,10.6-127.85,47.72-268,226.95-295.92,268.5l126.51,17.84c80.63-80.68,226.25-107.81,265-226.83,4.91-15,6.27-32.26-1.41-46.09C3870.89,2317.73,3853,2309.68,3835.68,2308.88Z"/><path class="cls-6" d="M3822.53,2059c-71.55-61-164.46,39.35-207.64,89.62-65.29,76-117.69,162.93-161.33,252.85-6.32,13-69.48,170.92-70.27,170.8l27.09,3.83,78.91,11.13s142.87-204.85,270.52-320.88C3820.24,2211.45,3872,2101.21,3822.53,2059Z"/><path class="cls-7" d="M3595.5,2326c-50.53,76.26-100.17,164.12-143.57,254.07l11.47,5.53c54.88-113.73,168.73-325.3,314.63-464.38l-8.79-9.22C3711.66,2166.84,3653.21,2238.84,3595.5,2326Z"/><path class="cls-7" d="M2998.87,1911.33c-68.55-25.62-88.59,54.83-83.39,110.55,6.75,72.21,67.94,126.85,101.77,184.7,62.26,106.44,85,174,119.27,330.79l103.31,14.69s34.9-341.27-93.16-519.38C3112.07,1984.55,3051.76,1931.1,2998.87,1911.33Z"/><path class="cls-6" d="M3319.51,1867.36c-28.89-55-120.76-180.34-190.28-144.49-40.21,20.73,2,121.79,12.67,151.85,34.57,97.46,58.43,199.81,73.7,303.78,17.66,120.27,26.22,245.26,18.27,368-.1,1.56-.22,3.11-.33,4.66l66.55,9.39c51-68.47,81.49-387.7,75.18-489.93C3370.87,1999.57,3351.38,1928.1,3319.51,1867.36Z"/><path class="cls-7" d="M3468,1968c-101.79,142.68-148.79,414.07-160.48,593.58l95.17,13.42c65.22-55.22,340-557.85,318.05-762.26C3713.15,1742.3,3583.42,1806.23,3468,1968Z"/><path class="cls-6" d="M2974.75,1961.21l-7.43,8C3108,2100,3192.9,2325.88,3183.59,2544.66l10.91.47c4.58-107.6-13.15-218.89-51.26-321.84C3104.29,2118.1,3046,2027.47,2974.75,1961.21Z"/><path class="cls-7" d="M3260.48,1930c-17.65-58.68-43-107.9-75.49-146.29l-9.73,8.23c57,67.44,90.34,167.53,101.91,306,11.83,141.6,9,291.55-8.62,458.42l12.67,1.33c17.71-167.67,20.54-318.4,8.65-460.81C3284.49,2032.47,3274.87,1977.89,3260.48,1930Z"/><path class="cls-6" d="M3476.5,2208.94c-56.2,125.63-94.72,243.25-117.74,359.59l10.71,2.12c41.46-209.49,135-428,294.37-687.51l-9.3-5.71C3580.84,1997.45,3522.6,2105.89,3476.5,2208.94Z"/><path class="cls-7" d="M3731,2405.36c-50.27,36.58-123.9,98.65-189.17,186.66l8.77,6.5c64.37-86.79,137-148.05,186.58-184.16,53.77-39.16,92.82-58,93.21-58.2l-4.72-9.85C3824,2347.08,3785.49,2365.67,3731,2405.36Z"/><path class="cls-8" d="M1609.29,1452.61a112.23,112.23,0,0,0,112.19,112.28H3378.33a112.24,112.24,0,0,0,112.19-112.28V596.92H1609.29Z"/><path class="cls-9" d="M3326.65,360H1773.15c-90.5,0-163.86,73.43-163.86,164v72.91H3490.52V524C3490.52,433.43,3417.15,360,3326.65,360Z"/><path class="cls-10" d="M1786.79,469.14A43.27,43.27,0,1,0,1830,512.4,43.24,43.24,0,0,0,1786.79,469.14Z"/><ellipse class="cls-11" cx="1786.79" cy="685.25" rx="43.23" ry="43.26"/><path class="cls-12" d="M1787,486.66h-.48a23.88,23.88,0,0,0-23.87,23.89V683.29a23.88,23.88,0,0,0,23.87,23.88h.48a23.88,23.88,0,0,0,23.87-23.88V510.55A23.88,23.88,0,0,0,1787,486.66Z"/><path class="cls-10" d="M1956.27,469.14a43.27,43.27,0,1,0,43.22,43.26A43.24,43.24,0,0,0,1956.27,469.14Z"/><ellipse class="cls-11" cx="1956.27" cy="685.25" rx="43.26" ry="43.23" transform="matrix(0, -1, 1, 0, 1268.38, 2640.58)"/><path class="cls-12" d="M1956.51,486.66H1956a23.88,23.88,0,0,0-23.86,23.89V683.29A23.87,23.87,0,0,0,1956,707.17h.49a23.88,23.88,0,0,0,23.87-23.88V510.55A23.88,23.88,0,0,0,1956.51,486.66Z"/><path class="cls-10" d="M2125.74,469.14A43.27,43.27,0,1,0,2169,512.4,43.25,43.25,0,0,0,2125.74,469.14Z"/><path class="cls-11" d="M2125.74,642A43.27,43.27,0,1,0,2169,685.25,43.25,43.25,0,0,0,2125.74,642Z"/><path class="cls-12" d="M2126,486.66h-.48a23.88,23.88,0,0,0-23.87,23.89V683.29a23.88,23.88,0,0,0,23.87,23.88h.48a23.88,23.88,0,0,0,23.87-23.88V510.55A23.88,23.88,0,0,0,2126,486.66Z"/><path class="cls-10" d="M2295.22,469.14a43.27,43.27,0,1,0,43.23,43.26A43.24,43.24,0,0,0,2295.22,469.14Z"/><path class="cls-11" d="M2295.22,642a43.27,43.27,0,1,0,43.23,43.27A43.25,43.25,0,0,0,2295.22,642Z"/><path class="cls-12" d="M2295.46,486.66H2295a23.88,23.88,0,0,0-23.87,23.89V683.29A23.88,23.88,0,0,0,2295,707.17h.48a23.88,23.88,0,0,0,23.87-23.88V510.55A23.88,23.88,0,0,0,2295.46,486.66Z"/><path class="cls-10" d="M2464.7,469.14a43.27,43.27,0,1,0,43.23,43.26A43.24,43.24,0,0,0,2464.7,469.14Z"/><ellipse class="cls-11" cx="2464.7" cy="685.25" rx="43.23" ry="43.26" transform="translate(-1.23 4.45) rotate(-0.1)"/><path class="cls-12" d="M2464.93,486.66h-.48a23.88,23.88,0,0,0-23.87,23.89V683.29a23.88,23.88,0,0,0,23.87,23.88h.48a23.88,23.88,0,0,0,23.87-23.88V510.55A23.88,23.88,0,0,0,2464.93,486.66Z"/><path class="cls-10" d="M2634.17,469.14a43.27,43.27,0,1,0,43.23,43.26A43.25,43.25,0,0,0,2634.17,469.14Z"/><ellipse class="cls-11" cx="2634.17" cy="685.25" rx="43.23" ry="43.26"/><path class="cls-12" d="M2634.41,486.66h-.48a23.88,23.88,0,0,0-23.87,23.89V683.29a23.88,23.88,0,0,0,23.87,23.88h.48a23.88,23.88,0,0,0,23.87-23.88V510.55A23.88,23.88,0,0,0,2634.41,486.66Z"/><path class="cls-10" d="M2803.65,469.14a43.27,43.27,0,1,0,43.23,43.26A43.24,43.24,0,0,0,2803.65,469.14Z"/><ellipse class="cls-11" cx="2803.65" cy="685.25" rx="43.23" ry="43.26"/><path class="cls-12" d="M2803.89,486.66h-.48a23.88,23.88,0,0,0-23.87,23.89V683.29a23.88,23.88,0,0,0,23.87,23.88h.48a23.88,23.88,0,0,0,23.87-23.88V510.55A23.88,23.88,0,0,0,2803.89,486.66Z"/><path class="cls-10" d="M2973.12,469.14a43.27,43.27,0,1,0,43.23,43.26A43.24,43.24,0,0,0,2973.12,469.14Z"/><path class="cls-11" d="M2973.12,642a43.27,43.27,0,1,0,43.23,43.27A43.24,43.24,0,0,0,2973.12,642Z"/><path class="cls-12" d="M2973.37,486.66h-.48A23.89,23.89,0,0,0,2949,510.55V683.29a23.88,23.88,0,0,0,23.88,23.88h.48a23.88,23.88,0,0,0,23.87-23.88V510.55A23.88,23.88,0,0,0,2973.37,486.66Z"/><path class="cls-10" d="M3142.6,469.14a43.27,43.27,0,1,0,43.23,43.26A43.24,43.24,0,0,0,3142.6,469.14Z"/><path class="cls-11" d="M3142.6,642a43.27,43.27,0,1,0,43.23,43.27A43.24,43.24,0,0,0,3142.6,642Z"/><path class="cls-12" d="M3142.85,486.66h-.49a23.88,23.88,0,0,0-23.87,23.89V683.29a23.88,23.88,0,0,0,23.87,23.88h.49a23.87,23.87,0,0,0,23.86-23.88V510.55A23.88,23.88,0,0,0,3142.85,486.66Z"/><g class="cls-13"><path class="cls-14" d="M3312.08,469.14a43.27,43.27,0,1,0,43.22,43.26A43.25,43.25,0,0,0,3312.08,469.14Z"/><path d="M3312.08,468.64a43.77,43.77,0,1,0,43.72,43.76A43.8,43.8,0,0,0,3312.08,468.64Zm0,86.53a42.77,42.77,0,1,1,42.72-42.77A42.8,42.8,0,0,1,3312.08,555.17Z"/></g><g class="cls-13"><path class="cls-15" d="M3312.08,642a43.27,43.27,0,1,0,43.22,43.27A43.25,43.25,0,0,0,3312.08,642Z"/><path d="M3312.08,641.48a43.77,43.77,0,1,0,43.72,43.77A43.8,43.8,0,0,0,3312.08,641.48Zm0,86.53a42.77,42.77,0,1,1,42.72-42.76A42.79,42.79,0,0,1,3312.08,728Z"/></g><path class="cls-12" d="M3312.32,486.66h-.48A23.88,23.88,0,0,0,3288,510.55V683.29a23.88,23.88,0,0,0,23.87,23.88h.48a23.88,23.88,0,0,0,23.87-23.88V510.55A23.88,23.88,0,0,0,3312.32,486.66Z"/><rect class="cls-16" x="1768.2" y="801.7" width="168.36" height="168.49"/><rect class="cls-16" x="2001.06" y="801.7" width="168.36" height="168.49"/><rect class="cls-16" x="2233.91" y="801.7" width="168.35" height="168.49"/><rect class="cls-16" x="2466.77" y="801.7" width="168.35" height="168.49"/><rect class="cls-16" x="2699.62" y="801.7" width="168.35" height="168.49"/><rect class="cls-16" x="2932.48" y="801.7" width="168.35" height="168.49"/><rect class="cls-16" x="3165.33" y="801.7" width="168.35" height="168.49"/><polygon class="cls-16" points="1767.16 1198.68 1936.56 1199.72 1936.56 1031.23 1767.16 1030.18 1767.16 1198.68"/><rect class="cls-16" x="2001.06" y="1031.23" width="168.36" height="168.49"/><polygon class="cls-16" points="2232.87 1198.68 2402.27 1199.72 2402.27 1031.23 2232.87 1030.18 2232.87 1198.68"/><rect class="cls-16" x="2466.77" y="1031.23" width="168.35" height="168.49"/><rect class="cls-16" x="2699.62" y="1031.23" width="168.35" height="168.49"/><rect class="cls-16" x="2932.48" y="1031.23" width="168.35" height="168.49"/><rect class="cls-16" x="3165.33" y="1031.23" width="168.35" height="168.49"/><polygon class="cls-16" points="1767.16 1428.2 1936.56 1429.25 1936.56 1260.76 1767.16 1259.71 1767.16 1428.2"/><rect class="cls-16" x="2001.06" y="1260.76" width="168.36" height="168.49"/><rect class="cls-16" x="2233.91" y="1260.76" width="168.35" height="168.49"/><rect class="cls-16" x="2466.77" y="1260.76" width="168.35" height="168.49"/><rect class="cls-16" x="2699.62" y="1260.76" width="168.35" height="168.49"/><rect class="cls-16" x="2932.48" y="1258.67" width="168.35" height="168.49"/><rect class="cls-16" x="3164.29" y="1259.71" width="168.35" height="168.49"/><path class="cls-17" d="M1865.35,881.81l20.26-26.66a13.88,13.88,0,0,0,2.81-8.17,9.6,9.6,0,0,0-3.07-6.93,12.2,12.2,0,0,0-7.13-3.27,13.08,13.08,0,0,0-6.27,1.5,19.19,19.19,0,0,0-5.23,5.1l-14.31,20.07-15.29-20.59q-4.06-6.08-10.13-6.08c-3.32.18-5.78,1.11-7.39,2.81a15.69,15.69,0,0,0-3.59,7.91,15,15,0,0,0,3.46,7.91l19.8,26.4-24.64,32.61q-2.42,4.26-2.68,4.84a10.85,10.85,0,0,0-.65,4.18q0,5.16,3.07,7.71a12,12,0,0,0,8.17,2.68q5.16,0,9.35-5.49l20.52-28,20.06,27.45a25.34,25.34,0,0,0,3.73,4.18,10.35,10.35,0,0,0,4.83,1.83,13.38,13.38,0,0,0,8.83-2.81q3.27-2.41,3.46-7.32a13.86,13.86,0,0,0-2.81-8.43Z"/><path class="cls-17" d="M3264.29,881.4l20.26-26.66a13.88,13.88,0,0,0,2.81-8.17,9.55,9.55,0,0,0-3.07-6.93,12.2,12.2,0,0,0-7.12-3.27,13.12,13.12,0,0,0-6.28,1.5,19.19,19.19,0,0,0-5.23,5.1L3251.35,863l-15.29-20.58q-4-6.08-10.13-6.08c-3.31.17-5.78,1.11-7.39,2.81a15.69,15.69,0,0,0-3.59,7.91,15,15,0,0,0,3.46,7.91l19.8,26.4L3213.57,914q-2.42,4.26-2.67,4.84a10.64,10.64,0,0,0-.66,4.18q0,5.16,3.07,7.71a12,12,0,0,0,8.17,2.68q5.16,0,9.35-5.49l20.52-28,20.06,27.45a25.34,25.34,0,0,0,3.73,4.18,10.39,10.39,0,0,0,4.84,1.83,13.37,13.37,0,0,0,8.82-2.81q3.27-2.42,3.46-7.32a13.86,13.86,0,0,0-2.81-8.43Z"/><path class="cls-18" d="M2377.92,817H2252.78a7.82,7.82,0,0,0,0,15.64h125.14a7.82,7.82,0,0,0,0-15.64Z"/><path d="M2377.92,816.46H2252.78a8.32,8.32,0,0,0,0,16.64h125.14a8.32,8.32,0,0,0,0-16.64Zm0,15.64H2252.78a7.32,7.32,0,0,1,0-14.64h125.14a7.32,7.32,0,0,1,0,14.64Z"/><path class="cls-19" d="M3311,1280.61H3185.89a7.82,7.82,0,1,0,0,15.64H3311a7.82,7.82,0,0,0,0-15.64Z"/><rect class="cls-19" x="2713.41" y="1280.61" width="140.78" height="46.93" rx="13.67"/><path class="cls-18" d="M2302.49,851h-49.71a7.83,7.83,0,0,0,0,15.65h49.71a7.83,7.83,0,0,0,0-15.65Z"/><path d="M2302.49,850.52h-49.71a8.33,8.33,0,0,0,0,16.65h49.71a8.33,8.33,0,0,0,0-16.65Zm0,15.65h-49.71a7.33,7.33,0,0,1,0-14.65h49.71a7.33,7.33,0,0,1,0,14.65Z"/><polygon class="cls-20" points="2333.77 1096.7 2319.33 1067.43 2304.88 1096.7 2272.59 1101.39 2295.96 1124.17 2290.44 1156.34 2319.33 1141.15 2348.22 1156.34 2342.7 1124.17 2366.07 1101.39 2333.77 1096.7"/><path d="M2334.1,1096.24l-14.77-29.94-14.78,29.94-33,4.8,23.91,23.31-5.64,32.9,29.55-15.53,29.55,15.53-5.64-32.9,23.9-23.31Zm13.45,59.18-28.22-14.83-28.23,14.83,5.39-31.42-22.83-22.26,31.56-4.59,14.11-28.59,14.11,28.59,31.56,4.59L2342.16,1124Z"/><path class="cls-21" d="M2467,1211.68s11.56-.92,12-7.09-10.36-26.08-39.59-34.77-9.09,19.07-9.09,19.07-25.67-15.09-36-2,10.53,27.3,10.53,27.3-12-5.16-21.17,1.68,8.35,36,8.35,36l5.49,28.93,64.75,42.57s79.5,20.61,69.26-37.22S2467,1211.68,2467,1211.68Z"/><path class="cls-17" d="M2709.81,1354.81l60.27,273.25s68.57-125.75,44.22-161.1S2709.81,1354.81,2709.81,1354.81Z"/><path class="cls-22" d="M2224,657.46c-155.72-17.5-296.67,94.92-314.17,250.65s95,296.63,250.69,314.13a282.87,282.87,0,0,0,193-48.64,277.63,277.63,0,0,0,32.79-26.44,282.45,282.45,0,0,0,88.3-175.56C2492.11,815.87,2379.65,675,2224,657.46Zm198.56,308.27c-14.29,127.2-129,218.73-256.21,204.44s-218.73-129-204.43-256.22,129-218.73,256.21-204.43S2436.81,838.53,2422.51,965.73Z"/><g class="cls-23"><path class="cls-8" d="M2218.08,709.52c-127.2-14.3-241.92,77.23-256.21,204.43s77.23,241.92,204.43,256.22,241.92-77.24,256.21-204.44S2345.28,723.81,2218.08,709.52Z"/><path d="M2218.14,709a232.27,232.27,0,1,0-51.89,461.64,236.74,236.74,0,0,0,26.39,1.49A232.29,232.29,0,0,0,2218.14,709ZM2422,965.67a231.25,231.25,0,1,1-230.28-257.13A234.76,234.76,0,0,1,2218,710a231.27,231.27,0,0,1,204,255.65Z"/></g><path class="cls-22" d="M2386.28,1147.16a274.11,274.11,0,0,1-32.78,26.44l246.55,378.46a21,21,0,1,0,35.12-22.87Z"/><path d="M2192.64,1172.15a236.74,236.74,0,0,1-26.39-1.49,231.36,231.36,0,1,1,26.39,1.49Zm-.9-463.61A231.91,231.91,0,1,0,2218,710,234.76,234.76,0,0,0,2191.74,708.54Z"/><g class="cls-24"><path class="cls-8" d="M769,596.87l6.32,1043.76A136.91,136.91,0,0,0,913,1776.76l2021-12.23a136.9,136.9,0,0,0,136-137.78L3063.66,583Z"/><path d="M3064.16,582.48,769,596.37h-.5l6.32,1044.26c.46,75.52,62,136.63,137.33,136.63H913L2934,1765v0c75.73-.46,137-62.49,136.5-138.29L3064.16,583ZM2934,1764,913,1776.26h-.84c-74.8,0-135.88-60.67-136.33-135.63L769.49,597.37l2293.67-13.88,6.31,1043.26C3069.93,1702,3009.14,1763.57,2934,1764Z"/><path class="cls-25" d="M2862,295.21,967.11,306.68c-110.39.66-199.33,90.77-198.66,201.26l.53,88.93L3063.66,583l-.54-88.94C3062.45,383.57,2972.42,294.54,2862,295.21Z"/><path d="M3004.07,352.59a199,199,0,0,0-140.8-57.88H2862v0L967.11,306.18c-110.49.67-199.83,91.18-199.16,201.76l.54,89.43,2295.17-13.88h.5l-.54-89.43A199.3,199.3,0,0,0,3004.07,352.59ZM769.48,596.37,769,507.93c-.67-110,88.23-200.09,198.17-200.75L2862,295.71h1.24a199.47,199.47,0,0,1,199.35,198.35l.54,88.43Z"/><g class="cls-13"><ellipse class="cls-14" cx="984.87" cy="492.47" rx="52.73" ry="52.77" transform="translate(-4.06 8.2) rotate(-0.48)"/><path d="M984.55,439.2a53.28,53.28,0,0,0,.32,106.55h.32a53.28,53.28,0,0,0-.64-106.55Zm.64,105.55h-.32a52.28,52.28,0,0,1-.32-104.55h.32a52.28,52.28,0,0,1,.32,104.55Z"/></g><g class="cls-13"><ellipse class="cls-15" cx="986.15" cy="703.3" rx="52.73" ry="52.77" transform="translate(-4.07 5.74) rotate(-0.33)"/><path d="M985.82,650a53.28,53.28,0,0,0,.32,106.55h.33A53.27,53.27,0,0,0,985.82,650Zm37.48,90a51.85,51.85,0,0,1-36.84,15.53h-.32A52.28,52.28,0,0,1,985.83,651h.32a52.28,52.28,0,0,1,37.15,89Z"/></g><path class="cls-26" d="M985,461.08h-.6a29.12,29.12,0,0,0-28.93,29.31l1.27,210.7a29.13,29.13,0,0,0,29.29,29h.59a29.12,29.12,0,0,0,28.94-29.31L1014.27,490A29.13,29.13,0,0,0,985,461.08Z"/><path d="M985.15,460.58h-.77A29.65,29.65,0,0,0,955,490.39l1.27,210.7a29.64,29.64,0,0,0,29.61,29.46h.78A29.64,29.64,0,0,0,1016,700.73L1014.77,490A29.66,29.66,0,0,0,985.15,460.58Zm1.45,269h-.77a28.65,28.65,0,0,1-28.61-28.46L956,490.39a28.66,28.66,0,0,1,28.44-28.81h.76A28.67,28.67,0,0,1,1013.77,490l1.27,210.7A28.64,28.64,0,0,1,986.6,729.54Z"/><g class="cls-13"><path class="cls-14" d="M1191.27,438.45a52.78,52.78,0,1,0,53,52.46A52.76,52.76,0,0,0,1191.27,438.45Z"/><path d="M1191.6,438h-.33a53.28,53.28,0,0,0,.32,106.55h.33A53.28,53.28,0,0,0,1191.6,438Zm37.15,90a51.92,51.92,0,0,1-36.84,15.54h-.32a52.28,52.28,0,0,1-.31-104.55h.32a52.28,52.28,0,0,1,37.15,89Z"/></g><g class="cls-13"><path class="cls-15" d="M1192.55,649.28a52.77,52.77,0,1,0,53,52.45A52.76,52.76,0,0,0,1192.55,649.28Z"/><path d="M1192.87,648.78h-.32a53.27,53.27,0,0,0,.31,106.54h.33a53.26,53.26,0,0,0,52.91-53.59A53.32,53.32,0,0,0,1192.87,648.78Zm37.15,90a52.25,52.25,0,1,1-37.47-89h.32a52.28,52.28,0,0,1,37.15,89Z"/></g><path class="cls-26" d="M1191.7,459.83h-.59a29.13,29.13,0,0,0-28.94,29.31l1.28,210.7a29.13,29.13,0,0,0,29.29,29h.59a29.13,29.13,0,0,0,28.94-29.31L1221,488.78A29.12,29.12,0,0,0,1191.7,459.83Z"/><path d="M1212.69,467.88a29.4,29.4,0,0,0-20.81-8.55h-.77a29.66,29.66,0,0,0-29.44,29.81l1.28,210.7a29.66,29.66,0,0,0,29.61,29.46h.77a29.66,29.66,0,0,0,29.44-29.81l-1.28-210.7A29.43,29.43,0,0,0,1212.69,467.88Zm-19.37,260.41h-.59A28.65,28.65,0,0,1,1164,699.84l-1.28-210.7a28.66,28.66,0,0,1,28.44-28.81h.77a28.61,28.61,0,0,1,28.61,28.46l1.28,210.7A28.66,28.66,0,0,1,1193.32,728.29Z"/><g class="cls-13"><path class="cls-14" d="M1398,437.2a52.77,52.77,0,1,0,53,52.45A52.76,52.76,0,0,0,1398,437.2Z"/><path d="M1398.32,436.7H1398a53.28,53.28,0,0,0,.31,106.55h.33a53.26,53.26,0,0,0,52.91-53.59A53.32,53.32,0,0,0,1398.32,436.7Zm37.15,90a52.25,52.25,0,1,1-37.47-89h.32a52.28,52.28,0,0,1,37.15,89Z"/></g><g class="cls-13"><path class="cls-15" d="M1399.27,648a52.77,52.77,0,1,0,53,52.45A52.76,52.76,0,0,0,1399.27,648Z"/><path d="M1399.6,647.53h-.33a53.27,53.27,0,0,0,.32,106.54h.33a53.27,53.27,0,0,0-.32-106.54Zm.31,105.54h-.32a52.27,52.27,0,0,1-.31-104.54h.32a52.27,52.27,0,0,1,.31,104.54Z"/></g><path class="cls-26" d="M1398.42,458.58h-.59a29.12,29.12,0,0,0-28.93,29.31l1.27,210.7a29.13,29.13,0,0,0,29.29,29h.58A29.11,29.11,0,0,0,1429,698.23l-1.27-210.7A29.11,29.11,0,0,0,1398.42,458.58Z"/><path d="M1419.41,466.63a29.41,29.41,0,0,0-20.81-8.56h-.77a29.65,29.65,0,0,0-29.43,29.81l1.27,210.7a29.67,29.67,0,0,0,29.61,29.46h.77a29.62,29.62,0,0,0,29.44-29.81l-1.28-210.7A29.43,29.43,0,0,0,1419.41,466.63Zm.82,251.9A28.4,28.4,0,0,1,1400,727h-.76a28.67,28.67,0,0,1-28.61-28.46l-1.27-210.7a28.65,28.65,0,0,1,28.43-28.81h.77a28.63,28.63,0,0,1,28.61,28.47l1.28,210.7A28.49,28.49,0,0,1,1420.23,718.53Z"/><g class="cls-13"><path class="cls-14" d="M1604.72,436a52.77,52.77,0,1,0,53,52.45A52.76,52.76,0,0,0,1604.72,436Z"/><path d="M1605.05,435.45h-.33A53.27,53.27,0,0,0,1605,542h.33a53.27,53.27,0,0,0-.31-106.54Zm37.15,90a52.25,52.25,0,1,1-37.47-89h.32a52.28,52.28,0,0,1,37.15,89Z"/></g><g class="cls-13"><path class="cls-15" d="M1606,646.78a52.77,52.77,0,1,0,53,52.45A52.74,52.74,0,0,0,1606,646.78Z"/><path d="M1606.32,646.28H1606a53.27,53.27,0,0,0,.31,106.54h.33a53.27,53.27,0,0,0-.32-106.54Zm.31,105.54h-.32a52.27,52.27,0,0,1-.31-104.54h.32a52.27,52.27,0,0,1,.31,104.54Z"/></g><path class="cls-26" d="M1605.14,457.32h-.58a29.11,29.11,0,0,0-28.94,29.31l1.27,210.7a29.13,29.13,0,0,0,29.29,29h.59A29.12,29.12,0,0,0,1635.71,697l-1.28-210.7A29.13,29.13,0,0,0,1605.14,457.32Z"/><path d="M1626.13,465.38a29.4,29.4,0,0,0-20.81-8.56h-.77a29.6,29.6,0,0,0-29.43,29.81l1.27,210.7A29.64,29.64,0,0,0,1606,726.8h.77A29.64,29.64,0,0,0,1636.21,697l-1.28-210.7A29.39,29.39,0,0,0,1626.13,465.38Zm.82,251.9a28.39,28.39,0,0,1-20.18,8.51H1606a28.63,28.63,0,0,1-28.61-28.47l-1.27-210.69a28.61,28.61,0,0,1,28.44-28.81h.76a28.63,28.63,0,0,1,28.61,28.47L1635.21,697A28.45,28.45,0,0,1,1627,717.28Z"/><g class="cls-13"><ellipse class="cls-14" cx="1811.77" cy="487.47" rx="52.73" ry="52.77" transform="translate(-3.8 14.35) rotate(-0.45)"/><path d="M1811.77,434.2h-.33a53.27,53.27,0,0,0,.32,106.54h.33a53.27,53.27,0,0,0-.32-106.54Zm.31,105.54h-.32a52.27,52.27,0,0,1-.31-104.54h.32a52.27,52.27,0,0,1,.31,104.54Z"/></g><g class="cls-13"><path class="cls-15" d="M1812.72,645.53a52.77,52.77,0,1,0,53,52.45A52.76,52.76,0,0,0,1812.72,645.53Z"/><path d="M1812.72,645a53.27,53.27,0,0,0,.32,106.54h.32a53.27,53.27,0,0,0-.64-106.54Zm37.47,90a51.83,51.83,0,0,1-36.83,15.53H1813a52.27,52.27,0,0,1-.32-104.54h.33a52.28,52.28,0,0,1,37.14,89Z"/></g><path class="cls-26" d="M1811.86,456.07h-.58a29.11,29.11,0,0,0-28.94,29.31l1.27,210.7a29.15,29.15,0,0,0,29.3,29h.58a29.13,29.13,0,0,0,28.94-29.31L1841.16,485A29.13,29.13,0,0,0,1811.86,456.07Z"/><path d="M1812,455.57h-.76a29.66,29.66,0,0,0-29.44,29.81l1.27,210.7a29.65,29.65,0,0,0,29.62,29.46h.76a29.65,29.65,0,0,0,29.44-29.81L1841.66,485A29.67,29.67,0,0,0,1812,455.57Zm1.45,269h-.59a28.63,28.63,0,0,1-28.79-28.46l-1.27-210.7a28.65,28.65,0,0,1,28.44-28.8h.76A28.67,28.67,0,0,1,1840.66,485l1.27,210.69A28.65,28.65,0,0,1,1813.49,724.54Z"/><g class="cls-13"><ellipse class="cls-14" cx="2018.49" cy="486.22" rx="52.73" ry="52.77" transform="translate(-3.61 15.23) rotate(-0.43)"/><path d="M2018.5,433h-.33a53.27,53.27,0,0,0,.32,106.54h.32A53.27,53.27,0,0,0,2018.5,433Zm.31,105.54a52.27,52.27,0,0,1-.64-104.54h.33a52.27,52.27,0,0,1,.31,104.54Z"/></g><g class="cls-13"><ellipse class="cls-15" cx="2019.76" cy="697.05" rx="52.73" ry="52.77" transform="translate(-3.63 10.6) rotate(-0.3)"/><path d="M2019.44,643.78a53.27,53.27,0,0,0,.32,106.54h.33a53.27,53.27,0,0,0-.65-106.54Zm37.48,90a52.25,52.25,0,1,1-37.47-89h.32a52.28,52.28,0,0,1,37.15,89Z"/></g><path class="cls-26" d="M2018.59,454.82H2018a29.12,29.12,0,0,0-28.94,29.31l1.28,210.7a29.12,29.12,0,0,0,29.29,28.95h.59a29.13,29.13,0,0,0,28.94-29.31l-1.28-210.7A29.13,29.13,0,0,0,2018.59,454.82Z"/><path d="M2039.58,462.88a29.41,29.41,0,0,0-20.81-8.56H2018a29.66,29.66,0,0,0-29.44,29.81l1.28,210.7a29.66,29.66,0,0,0,29.61,29.46h.77a29.66,29.66,0,0,0,29.44-29.81l-1.28-210.7A29.43,29.43,0,0,0,2039.58,462.88Zm-19.37,260.41h-.76a28.66,28.66,0,0,1-28.61-28.47l-1.28-210.7a28.66,28.66,0,0,1,28.45-28.8h.76a28.63,28.63,0,0,1,28.61,28.46l1.28,210.7A28.67,28.67,0,0,1,2020.21,723.29Z"/><g class="cls-13"><ellipse class="cls-14" cx="2225.21" cy="484.97" rx="52.73" ry="52.77" transform="translate(-3.44 16.05) rotate(-0.41)"/><path d="M2224.89,431.7a53.27,53.27,0,0,0,.31,106.54h.34a53.27,53.27,0,0,0-.65-106.54Zm37.48,90a51.87,51.87,0,0,1-36.84,15.53h-.33a52.27,52.27,0,0,1-.3-104.54h.32a52.28,52.28,0,0,1,37.15,89Z"/></g><path class="cls-11" d="M2226.17,643a52.77,52.77,0,1,0,53,52.45A52.74,52.74,0,0,0,2226.17,643Z"/><path class="cls-12" d="M2225.32,453.57h-.59a29.11,29.11,0,0,0-28.94,29.31l1.27,210.7a29.13,29.13,0,0,0,29.3,28.95h.59a29.12,29.12,0,0,0,28.93-29.31l-1.27-210.7A29.13,29.13,0,0,0,2225.32,453.57Z"/><g class="cls-13"><path class="cls-14" d="M2431.61,431a52.77,52.77,0,1,0,53,52.45A52.75,52.75,0,0,0,2431.61,431Z"/><path d="M2431.61,430.45a53.27,53.27,0,0,0,.31,106.54h.33a53.27,53.27,0,0,0-.64-106.54Zm37.48,90a52.25,52.25,0,1,1-37.48-89h.33a52.28,52.28,0,0,1,37.15,89Z"/></g><g class="cls-13"><path class="cls-15" d="M2432.89,641.78a52.77,52.77,0,1,0,53.05,52.45A52.75,52.75,0,0,0,2432.89,641.78Z"/><path d="M2433.21,641.28h-.33a53.27,53.27,0,0,0,.32,106.54h.33a53.27,53.27,0,0,0-.32-106.54Zm.31,105.54h-.32a52.27,52.27,0,0,1-.31-104.54h.32a52.27,52.27,0,0,1,.31,104.54Z"/></g><path class="cls-26" d="M2432,452.32h-.59a29.11,29.11,0,0,0-28.94,29.31l1.28,210.69a29.12,29.12,0,0,0,29.29,29h.59A29.12,29.12,0,0,0,2462.6,692l-1.27-210.7A29.13,29.13,0,0,0,2432,452.32Z"/><path d="M2453,460.37a29.39,29.39,0,0,0-20.81-8.55h-.77A29.62,29.62,0,0,0,2402,481.64l1.28,210.7a29.62,29.62,0,0,0,29.61,29.45h.77A29.65,29.65,0,0,0,2463.1,692l-1.27-210.7A29.47,29.47,0,0,0,2453,460.37Zm-19.36,260.42h-.77a28.61,28.61,0,0,1-28.61-28.46L2403,481.63a28.61,28.61,0,0,1,28.44-28.8h.77a28.61,28.61,0,0,1,28.61,28.46L2462.1,692A28.65,28.65,0,0,1,2433.67,720.79Z"/><g class="cls-13"><path class="cls-14" d="M2638.34,429.7a52.77,52.77,0,1,0,53,52.45A52.75,52.75,0,0,0,2638.34,429.7Z"/><path d="M2638.33,429.2a53.27,53.27,0,0,0,.32,106.54h.33a53.27,53.27,0,0,0-.65-106.54Zm.64,105.54a52.27,52.27,0,0,1-.63-104.54h.32a52.27,52.27,0,0,1,.31,104.54Z"/></g><g class="cls-13"><path class="cls-15" d="M2639.61,640.53a52.77,52.77,0,1,0,53,52.45A52.73,52.73,0,0,0,2639.61,640.53Z"/><path d="M2639.61,640a53.27,53.27,0,0,0,.32,106.54h.32a53.27,53.27,0,0,0-.64-106.54Zm37.48,90a51.91,51.91,0,0,1-36.84,15.53h-.32a52.27,52.27,0,0,1-.32-104.54h.33a52.28,52.28,0,0,1,37.15,89Z"/></g><path class="cls-26" d="M2638.77,451.07h-.59a29.12,29.12,0,0,0-28.94,29.32l1.27,210.69a29.13,29.13,0,0,0,29.29,29h.59a29.13,29.13,0,0,0,28.94-29.31L2668.05,480A29.12,29.12,0,0,0,2638.77,451.07Z"/><path d="M2638.94,450.57h-.77a29.66,29.66,0,0,0-29.43,29.82l1.27,210.7a29.62,29.62,0,0,0,29.61,29.45h.78a29.66,29.66,0,0,0,29.43-29.82L2668.55,480A29.65,29.65,0,0,0,2638.94,450.57Zm1.45,269h-.77A28.61,28.61,0,0,1,2611,691.08l-1.27-210.7a28.66,28.66,0,0,1,28.44-28.81h.76A28.65,28.65,0,0,1,2667.55,480l1.28,210.7A28.66,28.66,0,0,1,2640.39,719.54Z"/><g class="cls-13"><path class="cls-14" d="M2845.06,428.45a52.77,52.77,0,1,0,53.05,52.45A52.73,52.73,0,0,0,2845.06,428.45Z"/><path d="M2845.06,428a53.27,53.27,0,0,0,.31,106.54h.33a53.27,53.27,0,0,0-.64-106.54Zm.63,105.54h-.32a52.27,52.27,0,0,1-.31-104.54h.33a52.27,52.27,0,0,1,.3,104.54Z"/></g><g class="cls-13"><path class="cls-15" d="M2846.33,639.28a52.77,52.77,0,1,0,53.05,52.45A52.74,52.74,0,0,0,2846.33,639.28Z"/><path d="M2846.66,638.78h-.33a53.27,53.27,0,0,0,.31,106.54h.34a53.27,53.27,0,0,0-.32-106.54Zm.31,105.54a52.27,52.27,0,0,1-.63-104.54h.32a52.27,52.27,0,0,1,.31,104.54Z"/></g><path class="cls-26" d="M2845.49,449.82h-.59A29.13,29.13,0,0,0,2816,479.13l1.27,210.7a29.13,29.13,0,0,0,29.3,29h.59a29.12,29.12,0,0,0,28.93-29.31l-1.27-210.7A29.12,29.12,0,0,0,2845.49,449.82Z"/><path d="M2866.48,457.87a29.42,29.42,0,0,0-20.81-8.55h-.77a29.67,29.67,0,0,0-29.44,29.82l1.27,210.7a29.66,29.66,0,0,0,29.62,29.45h.77a29.66,29.66,0,0,0,29.43-29.82l-1.27-210.69A29.49,29.49,0,0,0,2866.48,457.87Zm-19.37,260.42h-.76a28.67,28.67,0,0,1-28.62-28.46l-1.27-210.7a28.66,28.66,0,0,1,28.44-28.81h.77a28.63,28.63,0,0,1,28.61,28.46l1.27,210.7A28.66,28.66,0,0,1,2847.11,718.29Z"/><path d="M963.86,845l1.25,206.46,206.3-1.25-1.25-206.46ZM966,1050.54,964.81,846l204.42-1.24,1.24,204.59Z"/><path d="M1247.89,843.3l1.25,206.46,206.3-1.25-1.25-206.46Zm2.18,205.52-1.24-204.59L1453.26,843l1.24,204.59Z"/><path d="M1531.93,841.58l1.25,206.46,206.29-1.24-1.25-206.46Zm2.18,205.52-1.24-204.59,204.42-1.23,1.23,204.59Z"/><rect class="cls-16" x="1817.05" y="839.71" width="205.36" height="205.53" transform="matrix(1, -0.01, 0.01, 1, -5.67, 11.63)"/><rect class="cls-16" x="2101.08" y="837.99" width="205.36" height="205.53" transform="translate(-5.65 13.35) rotate(-0.35)"/><rect class="cls-16" x="2385.11" y="836.27" width="205.36" height="205.53" transform="translate(-5.64 15.07) rotate(-0.35)"/><path d="M2668.05,834.71l1.25,206.46,206.28-1.25-1.24-206.46Zm2.17,205.52L2669,835.64l204.42-1.24,1.23,204.59Z"/><path d="M1171.85,1123.75l-207.57,0,1.24,206v.47l207.57,0-1.24-206Zm-205.39,205.5-1.24-204.59,205.7,0,1.24,204.59Z"/><path d="M1249.59,1123.28l1.25,206.46,206.29-1.25L1455.88,1122Zm2.18,205.52-1.24-204.59L1455,1123l1.24,204.59Z"/><path d="M1739.91,1120.32l-207.57,0,1.25,206v.46l207.57,0-1.25-206Zm-205.39,205.5-1.24-204.59,205.7,0,1.24,204.59Z"/><path d="M1817.65,1119.84l1.25,206.46,206.29-1.25-1.25-206.46Zm2.18,205.52-1.23-204.59,204.41-1.23,1.24,204.59Z"/><rect class="cls-16" x="2102.77" y="1117.97" width="205.36" height="205.53" transform="translate(-7.34 13.36) rotate(-0.35)"/><path d="M2385.71,1116.41l1.25,206.46,206.29-1.25L2592,1115.16Zm2.18,205.51-1.24-204.58,204.42-1.24,1.24,204.59Z"/><path d="M2669.74,1114.69l1.25,206.46,206.29-1.25L2876,1113.44Zm2.18,205.52-1.24-204.59,204.42-1.24,1.24,204.59Z"/><path d="M1173.55,1403.72l-207.58,0,1.25,206v.47l207.58,0-1.25-206Zm-205.4,205.5-1.24-204.59,205.71,0,1.24,204.59Z"/><path d="M1251.28,1403.25l1.25,206.46,206.29-1.25L1457.58,1402Zm2.18,205.52-1.24-204.59,204.43-1.24,1.23,204.59Z"/><path d="M1535.31,1401.53l1.25,206.46,206.29-1.25-1.25-206.46Zm2.18,205.52-1.23-204.59,204.41-1.24,1.24,204.59Z"/><path d="M1819.35,1399.81l1.25,206.46,206.29-1.25-1.25-206.46Zm2.18,205.52-1.24-204.59,204.42-1.23,1.24,204.58Z"/><path d="M2103.38,1398.09l1.25,206.46,206.29-1.24-1.25-206.46Zm2.18,205.52L2104.32,1399l204.42-1.23,1.23,204.59Z"/><path d="M2387.39,1393.83l1.25,206.46,206.29-1.25-1.25-206.46Zm2.18,205.52-1.24-204.59,204.42-1.24,1.24,204.59Z"/><path d="M2670.15,1393.39l1.25,206.46,206.29-1.25-1.25-206.46Zm2.18,205.52-1.24-204.59,204.42-1.24,1.24,204.59Z"/><path class="cls-27" d="M1083.42,942.49l24.52-32.68a16.83,16.83,0,0,0,3.36-10,11.63,11.63,0,0,0-3.79-8.43,14.88,14.88,0,0,0-8.72-3.94,16.09,16.09,0,0,0-7.64,1.88,23.32,23.32,0,0,0-6.34,6.26l-17.31,24.58-18.8-25q-5-7.38-12.41-7.34-6,.36-9,3.49-3.18,3.43-4.33,9.67a18.35,18.35,0,0,0,4.28,9.62l24.35,32.06-29.81,40c-1.95,3.47-3,5.44-3.23,5.92a13.1,13.1,0,0,0-.77,5.11q0,6.3,3.8,9.38c2.52,2.17,5.84,3.23,10,3.21s8-2.28,11.36-6.77l24.82-34.27,24.68,33.34a31,31,0,0,0,4.57,5.07,12.82,12.82,0,0,0,5.92,2.2q6.61,0,10.74-3.5,4-3,4.17-9a16.87,16.87,0,0,0-3.49-10.26Z"/><path class="cls-28" d="M2789.81,931.66,2814.33,899a16.94,16.94,0,0,0,3.37-10,11.71,11.71,0,0,0-3.8-8.43,14.78,14.78,0,0,0-8.71-3.93,16,16,0,0,0-7.65,1.88,23.18,23.18,0,0,0-6.34,6.26l-17.31,24.58-18.8-25q-5-7.4-12.4-7.34-6.06.36-9,3.48a19.16,19.16,0,0,0-4.33,9.67,18.26,18.26,0,0,0,4.29,9.62L2758,931.85l-29.82,40q-2.91,5.19-3.23,5.91a13.1,13.1,0,0,0-.77,5.11q0,6.3,3.81,9.38,3.77,3.25,10,3.21t11.36-6.76l24.83-34.27,24.67,33.33a30.74,30.74,0,0,0,4.58,5.08,12.62,12.62,0,0,0,5.91,2.19q6.61,0,10.74-3.49,4-3,4.17-9a16.81,16.81,0,0,0-3.49-10.26Z"/><path class="cls-18" d="M1708.16,859.6l-152.64.92a9.54,9.54,0,0,0,.12,19.08l152.64-.92a9.54,9.54,0,1,0-.12-19.08Z"/><path d="M1708.22,859.1h-.06l-152.64.92a10,10,0,0,0,.06,20.08h.06l152.64-.92a10,10,0,0,0-.06-20.08Zm.06,19.08-152.65.92h-.05a9,9,0,0,1-.06-18.08l152.65-.92h0a9,9,0,0,1,.06,18.08Z"/><path class="cls-18" d="M2849.77,1418.26l-152.64.93a9.54,9.54,0,0,0,.12,19.08l152.64-.93a9.54,9.54,0,0,0-.12-19.08Z"/><path d="M2849.77,1417.76l-152.64.93a10,10,0,0,0-10,10.1,10.06,10.06,0,0,0,10,10h.06l152.64-.93a10,10,0,0,0,7-17.18A10.11,10.11,0,0,0,2849.77,1417.76Zm6.49,16.4a8.93,8.93,0,0,1-6.37,2.68l-152.64.93h-.06a9,9,0,0,1-.05-18.08l152.64-.93h0a9,9,0,0,1,6.43,15.4Z"/><path class="cls-18" d="M2273.91,1421.75l-134.48.81a18.62,18.62,0,0,0-18.51,18.73l.12,20a18.63,18.63,0,0,0,18.74,18.51l134.48-.81a18.62,18.62,0,0,0,18.51-18.73l-.13-20A18.61,18.61,0,0,0,2273.91,1421.75Z"/><path d="M2287.46,1426.77a19.06,19.06,0,0,0-13.55-5.52l-134.48.81a19.12,19.12,0,0,0-19,19.24l.12,20a19.14,19.14,0,0,0,19.12,19h.12l134.48-.81a19.16,19.16,0,0,0,19-19.24l-.13-20A18.94,18.94,0,0,0,2287.46,1426.77Zm-13.2,51.72-134.49.81h-.11a18.13,18.13,0,0,1-18.12-18l-.12-20a18.13,18.13,0,0,1,18-18.23l134.48-.81h.12a18.13,18.13,0,0,1,18.11,18l.13,20A18.14,18.14,0,0,1,2274.26,1478.49Z"/><path class="cls-18" d="M1616.41,901.71l-60.64.37a9.54,9.54,0,0,0,.12,19.08l60.63-.37a9.54,9.54,0,0,0-.11-19.08Z"/><path d="M1616.46,901.21h-.06l-60.63.37a10,10,0,0,0,.06,20.08h.06l60.63-.37a10,10,0,0,0-.06-20.08Zm6.43,16.39a9,9,0,0,1-6.37,2.69l-60.63.37h-.06a9,9,0,0,1,0-18.08l60.63-.37h0a9.05,9.05,0,0,1,9,9A9,9,0,0,1,1622.89,917.6Z"/><polygon class="cls-20" points="1656.38 1201.14 1638.54 1165.55 1621.14 1201.36 1581.78 1207.32 1610.45 1234.94 1603.96 1274.21 1639.09 1255.47 1674.44 1273.79 1667.47 1234.59 1695.81 1206.63 1656.38 1201.14"/><path d="M1656.71,1200.68l-18.17-36.26-17.73,36.48L1580.7,1207l29.22,28.13-6.62,40,35.79-19.09,36,18.66-7.1-39.94,28.87-28.49Zm17.06,72.2L1639.32,1255l-.24-.12-34.46,18.39,6.37-38.54-28.13-27.1,38.36-5.81.26,0,17.07-35.13,17.5,34.92,38.69,5.39-27.81,27.43Z"/><circle class="cls-8" cx="2200.45" cy="946.91" r="57.13" transform="translate(-25.07 1833.3) rotate(-45)"/><path d="M2200.1,889.28a57.63,57.63,0,0,0,.34,115.25h.36a57.63,57.63,0,1,0-.7-115.25Zm40.63,97.43a56.63,56.63,0,1,1-40.62-96.43h.35a56.63,56.63,0,0,1,40.27,96.43Z"/><path class="cls-7" d="M2200.08,885.39A61.52,61.52,0,1,0,2262,946.54,61.59,61.59,0,0,0,2200.08,885.39Zm.69,114.25a52.73,52.73,0,1,1,52.41-53A52.8,52.8,0,0,1,2200.77,999.64Z"/><polygon class="cls-7" points="2196.52 966.82 2165.85 935.85 2158.16 943.47 2198.17 983.88 2268.25 878.77 2259.24 872.76 2196.52 966.82"/></g><path class="cls-16" d="M2321.83,797.16c-38.88-38.24-80.81-57.43-121.25-55.5a8.81,8.81,0,1,0,.84,17.59c86.29-4.13,151.11,103.88,151.75,105a8.82,8.82,0,0,0,12.06,3.11,9.35,9.35,0,0,0,1.46-1.08,8.81,8.81,0,0,0,1.65-11A314.82,314.82,0,0,0,2321.83,797.16Z"/><path class="cls-29" d="M2469.41,1264.72c-26.3-11-66.64-2.54-66.64-2.54s-11.1-33-25.33-33.23-10.4,34.76-11.45,44,15.9,30.06,31.84,39.24,59.48,41.16,59.48,41.16l47.08-25.53S2495.71,1275.69,2469.41,1264.72Z"/><polygon class="cls-29" points="3107.92 2356.93 3094.11 2339.91 3051.32 2287.17 3038.04 2270.81 3014.28 2136.8 3005.27 2085.91 2862.51 2098.76 2872.36 2144.67 2907.13 2306.7 2942.23 2343.37 3019.78 2424.4 3025.53 2430.41 3151.5 2581.86 3206.01 2516.89 3222.12 2497.7 3182.24 2448.55 3107.92 2356.93"/><polygon class="cls-29" points="2688.18 2082.43 2667.77 2246.88 2677.71 2360 2683.63 2427.34 2685.86 2452.62 2702.97 2647.16 2816.35 2592.11 2811.53 2468.53 2809.84 2425.25 2806.87 2349.37 2803.21 2255.99 2824.81 2121.62 2833.01 2070.6 2693.96 2035.84 2688.18 2082.43"/><path class="cls-21" d="M2806.87,2349.37l-89.38-15.48a326.76,326.76,0,0,0-39.78,26.11l5.92,67.34,2.22,25.28c24-5.63,54.3-10.24,72-3.4,17.18,6.68,37.67,14,53.73,19.31l-1.69-43.28Z"/><path class="cls-21" d="M3015.94,2275.47s-63.68-16.23-68.23,22.12c-1.64,13.8-4,29.84-5.48,45.78l77.55,81c8-22.6,29.7-69.67,74.33-84.49l-42.79-52.74C3031.58,2280.27,3015.94,2275.47,3015.94,2275.47Z"/><path class="cls-30" d="M2645.72,2621.33,2593,2663.66a4.3,4.3,0,0,0,2.6,7.65l227.14,4.56,1.81-90.07-131.22-2.63Z"/><path class="cls-8" d="M2783.81,2603.91a30.45,30.45,0,1,0,29.83,31.05A30.44,30.44,0,0,0,2783.81,2603.91Z"/><path class="cls-8" d="M2645.72,2621.33,2593,2663.66a4.3,4.3,0,0,0,2.6,7.65L2680,2673C2674,2643.56,2656.15,2628.09,2645.72,2621.33Z"/><rect class="cls-31" x="2698.92" y="2566.38" width="17.41" height="229.88" transform="translate(-27.54 5334.54) rotate(-88.85)"/><path d="M2661.09,2608l-.62,2.47a34.38,34.38,0,0,1,21.62,21.14l2.38-.89C2677.64,2612.38,2661.77,2608.18,2661.09,2608Z"/><path d="M2676.64,2596.73l-.63,2.47a34.57,34.57,0,0,1,21.62,21.14l2.38-.89C2693.18,2601.1,2677.31,2596.9,2676.64,2596.73Z"/><path class="cls-32" d="M2906.52,1140.91s-44-26-60.45,115c-2.77,23.77,5.24-31.66,27.13-66.48C2895.41,1178,2917.82,1144.45,2906.52,1140.91Z"/><path class="cls-32" d="M3100.69,1348.86c-30.38-15.79-30.4-47.75,14.17-110.13s11-89.44-40.39-100.62-74.79,39.24-74.79,39.24l26.24,29.23s-38.52-3.1-47.14,68.21,53,75.75,49.57,86.33-12.5,10-12.5,10c17.64,13.51,25-1.56,25-1.56,8.24,25.48,47.07,45.27,69.29,27.71s-13.1-35.1-13.1-35.1c39.57,1.32,46.58-35.42,46.58-35.42S3131.06,1364.65,3100.69,1348.86Z"/><path class="cls-33" d="M3012.32,1163.28s1.33,14.36-7.33,17.57l23.08,27.3s-38.86-4.3-49.72,67.56,51.3,78.19,47.54,88.79a16,16,0,0,1-3.56,5.94c3.45-3.39,17.05-18.31-1-27.81-20.5-10.76-4.15-49.27,15.61-103S3012.32,1163.28,3012.32,1163.28Z"/><path class="cls-29" d="M2859.94,1363.89a30.07,30.07,0,0,0,55.79,22.43l23.76-58.53-56.22-22.48Z"/><path class="cls-21" d="M2871.6,1334.57c8.89,4.25,39.71,17.17,63.21,5l4-9.91-56.22-22.48Z"/><path class="cls-29" d="M2984.58,1165.79c-60.88-33.78-92.86-7.1-92.86-7.1s-33,40-41.91,82.73c-6.65,31.89,1.52,66,39.41,82.5,88.64,38.59,121.08-66.13,121.08-66.13S3045.46,1199.56,2984.58,1165.79Z"/><path class="cls-34" d="M2867.71,1233.08l-.92.08-.34.81Z"/><path class="cls-34" d="M2858.16,1243.44c0-.2,0-.41,0-.61l-.71-.32Z"/><path class="cls-34" d="M2872.2,1220.57l-1.5,3.33-1.44,3.34c-.86,2-1.66,3.94-2.47,5.92l.92-.08-1.26.89.34-.81a19.36,19.36,0,0,0-3.38.63,15.16,15.16,0,0,0-4.08,1.78,8.07,8.07,0,0,0-3.16,3.56,8.21,8.21,0,0,0-.43,4.72l.14.72.62.22,4.36,1.54c1.45.52,2.92,1,4.38,1.48s2.94.94,4.41,1.41,3,.88,4.46,1.29c-1.36-.74-2.74-1.44-4.12-2.14s-2.76-1.37-4.17-2-2.78-1.33-4.19-1.95l-3.51-1.57c0,.2,0,.41,0,.61l-.75-.93.71.32a5.15,5.15,0,0,1,.47-2.59,6,6,0,0,1,2.24-2.31,12.29,12.29,0,0,1,3.34-1.38,21.58,21.58,0,0,1,3.66-.63l.93-.07.33-.82c.88-2.27,1.77-4.53,2.6-6.81l1.27-3.42,1.21-3.44c.82-2.29,1.57-4.61,2.32-6.92s1.47-4.65,2.11-7c-1.17,2.15-2.25,4.33-3.32,6.52S2873.18,1218.34,2872.2,1220.57Z"/><path d="M2897.3,1205.64l29,11.6S2916.77,1196.26,2897.3,1205.64Z"/><path d="M2868,1193.36l5.66,2.26S2876.54,1179.63,2868,1193.36Z"/><path class="cls-21" d="M2910.41,1248.59a14.06,14.06,0,1,0,7.84,18.28A14.05,14.05,0,0,0,2910.41,1248.59Z"/><path d="M2900.25,1217.24c-2.94-1.17-7,2-9.05,7.21s-1.36,10.28,1.58,11.46,7-2.05,9.06-7.21S2903.19,1218.42,2900.25,1217.24Z"/><path d="M2866.44,1201.18c-1.26-.51-4,3.26-6,8.41s-2.71,9.75-1.44,10.25,4-3.26,6-8.41S2867.7,1201.68,2866.44,1201.18Z"/><path class="cls-32" d="M2952.77,1300.49s13.53,20.22,30.56,10.43c50.08-62.44,64.59-98.58,48-129.72C3022.41,1164.51,2952.77,1300.49,2952.77,1300.49Z"/><path class="cls-29" d="M2980.87,1258c-2.82.77-6.88,2.36-8.74,4.83,0,0-12.28,16.31-9.8,31.71,7,7.24,16.09,14.13,26.54,14.49,9.59.34,17.91-5.6,22.1-14a27.18,27.18,0,0,0,2.93-11.93,19.74,19.74,0,0,0-.48-4.47C3010.32,1264.73,2994.86,1254.18,2980.87,1258Z"/><path class="cls-21" d="M2985.55,1273.12a17,17,0,0,0-6.72,2.16l-1.52,1c-.48.37-.9.81-1.35,1.21l-.66.63-.55.71-1.08,1.44-2.88,3.83,4.75-.69a21.92,21.92,0,0,1,3.58-.12c1.26,0,2.55.14,3.85.24l3.94.37c1.33.14,2.67.24,4,.34a26.72,26.72,0,0,0-3.6-2,33.17,33.17,0,0,0-3.81-1.51,29.9,29.9,0,0,0-3.83-1,20.32,20.32,0,0,0-2.7,2.78l-1.87-3.15a19.43,19.43,0,0,1,4.38.33l.19,0a11.42,11.42,0,0,1,1.28-.91,18.68,18.68,0,0,1,5.15-2.12,34.09,34.09,0,0,1,5.92-.76,61,61,0,0,1,6.32.09,19.58,19.58,0,0,0-6.09-2.48A21.32,21.32,0,0,0,2985.55,1273.12Z"/><path class="cls-21" d="M2975.14,1279.4l1.87,3.15a20.32,20.32,0,0,1,2.7-2.78l-.19,0A19.43,19.43,0,0,0,2975.14,1279.4Z"/><path class="cls-32" d="M2906.52,1140.91s-25.26,44.2,69.19,88.48c-5.14,14.22-21.88,62.27-28.34,80.55-2.4,6.79,34.7-41.17,43-62.42,1.88-4.83,63.2-37.73,36.39-74.49C3004.94,1151.6,2941.44,1113.7,2906.52,1140.91Z"/><path class="cls-35" d="M3008.94,1195.43a65.4,65.4,0,0,0-9.68-20.24,32.92,32.92,0,0,0-4.07-4.68c-2.86-2.65-6.4-4.43-9.43-1.34-1,1-2.46,4.95-1.62,6.39-1.58-2.7-18.76-23.85-18.72-18s13.22,36.18,18.83,41.52,5.12-9.9,5.12-9.9,28.72,58.82,23.38,23.73A128.59,128.59,0,0,0,3008.94,1195.43Z"/><path class="cls-35" d="M2953.19,1173s-8.15-17.91-10.82-14.71,10.91,29.75,12.33,27.52-1.16-8.9-1.16-8.9,16,23,16,15.68-9.88-23.19-9.88-23.19C2951.28,1157.55,2953.19,1173,2953.19,1173Z"/><path class="cls-8" d="M2863.85,1256.45c-4.37-.08-8,5.25-8.1,11.88a15.93,15.93,0,0,0,1.57,7.43c1.38,2.81,3.59,4.66,6.14,4.69,4.17.07,7.73-4.86,8.05-11.14,0-.24,0-.48,0-.73C2871.66,1262,2868.2,1256.5,2863.85,1256.45Z"/><path class="cls-36" d="M2972.16,1834.71c-3.72,0-113.6,49-113.6,49s123.74,35.18,147.33,37.45a95.2,95.2,0,0,0,42.68-6s-16.82-42-17.44-43.87S2975.89,1834.71,2972.16,1834.71Z"/><path d="M3031.61,1871.18c-.56-1.69-27.39-18.56-28.53-19.28-6.61-4.15-28.35-17.69-30.92-17.69-3.72,0-102.54,44.06-113.8,49.08l-1.26.56,1.33.38c1.24.35,124.05,35.21,147.41,37.47,2.84.27,5.61.39,8.3.39a96.88,96.88,0,0,0,34.63-6.43l.44-.19-.18-.45C3048.86,1914.6,3032.22,1873,3031.61,1871.18Zm-25.67,49.52c-22-2.12-132.49-33.26-145.91-37.06,31.35-14,109-48.35,112.13-48.43,1.47,0,13.51,7,30,17.28,14.78,9.28,27.85,18,28.52,19,.59,1.77,15.33,38.62,17.26,43.44A96.07,96.07,0,0,1,3005.94,1920.7Z"/><path class="cls-37" d="M2862.52,2098.76l9.85,45.91c58.27,34.11,116.62,7.14,141.92-7.88l-9-50.88Z"/><path d="M2861.91,2098.32l10,46.46,0,.21.19.12a118.53,118.53,0,0,0,60.75,16.59c33.67,0,63.32-13.59,81.67-24.48l.3-.17-9.16-51.68Zm10.9,46-9.69-45.14,141.74-12.76,8.88,50.09C2985,2153.55,2928.69,2176.93,2872.81,2144.35Z"/><path class="cls-30" d="M3122.58,2558.9l7,60.59,7.75,67.19a4.3,4.3,0,0,0,7.86,1.87L3270,2498.7l-75.28-49.48Z"/><path class="cls-8" d="M3230.5,2484.59a30.45,30.45,0,1,0,8.72,42.16A30.45,30.45,0,0,0,3230.5,2484.59Z"/><path class="cls-8" d="M3129.57,2619.49l7.75,67.19a4.3,4.3,0,0,0,7.86,1.87l46.38-70.58C3163.43,2607.38,3140.84,2614.26,3129.57,2619.49Z"/><rect class="cls-31" x="3098.37" y="2590.31" width="229.88" height="17.41" transform="translate(-723.46 3856.82) rotate(-56.69)"/><path d="M3126.48,2599.38l1.75,1.84a34.48,34.48,0,0,1,29.41-7l.52-2.49C3139,2587.7,3127,2598.9,3126.48,2599.38Z"/><path d="M3125.2,2580.22l1.76,1.84a34.43,34.43,0,0,1,29.41-7l.51-2.5C3137.72,2568.54,3125.7,2579.74,3125.2,2580.22Z"/><path class="cls-38" d="M3128.47,2145.45a30.93,30.93,0,0,0-20.32-8.16,51.18,51.18,0,0,0-12.81,1.36c-19.62,4.47-37.5,18.43-37.5,18.43,4.63-60.46,2.85-113.08-3-158.62-23.47-183.61-112.69-251.8-112.69-251.8L2756.92,1804c-57.73,147.57-89.46,271-106.84,364.85-24.48,132.2-20.46,205.82-20.46,205.82s-34.63,48.4-3.34,61.22c26.32,10.82,54.5-1.26,83.55-8.37,19.66-4.83,39.73-7.37,59.89,1,11.72,4.88,26.17,11.49,42.23,17.89,1.08.43,2.16.86,3.26,1.28l.14.06,2.05.79.11.05c51.67,19.91,118.13,35.59,164.78-13.44A99.28,99.28,0,0,0,2997,2414.4c19-34.24,27-78.17,84.63-93.33,41.6-11,55.05-34.49,55.07-59,0-16.92-6.35-34.32-14.27-48.39C3103,2179.22,3153.53,2168.77,3128.47,2145.45Z"/><path class="cls-39" d="M2942.19,1746.65,2756.92,1804c-57.73,147.57-89.46,271-106.83,364.85,19.53,2.11,44.74-16.09,74.14-43.14,37.1-34.13,47.49-92,120.95-126.88s91.27,52.68,172.9,24.48c16.78-5.79,28.61-14.54,36.8-24.83C3031.41,1814.85,2942.19,1746.65,2942.19,1746.65Z"/><path class="cls-8" d="M2947,1810.66s2.49,3.32,6.38,9.43l1.45-.92c-3.93-6.17-6.44-9.51-6.46-9.54Z"/><path class="cls-8" d="M3002.68,2139.75l-1.71-.12c-.26,3.93-.47,7.77-.65,11.42l1.71.08C3002.21,2147.49,3002.42,2143.66,3002.68,2139.75Z"/><path class="cls-8" d="M3003.5,2128.37c.29-3.66.61-7.49,1-11.37l-1.71-.16c-.35,3.9-.68,7.73-1,11.39Z"/><path class="cls-8" d="M2979.69,1870.62c1.48,3.47,2.93,7,4.31,10.56l1.6-.62c-1.39-3.55-2.85-7.12-4.33-10.61Z"/><path class="cls-8" d="M2959.34,1829.83c1.87,3.21,3.74,6.56,5.57,10l1.51-.81c-1.84-3.41-3.72-6.77-5.6-10Z"/><path class="cls-8" d="M2970.15,1849.91c1.67,3.36,3.33,6.82,4.92,10.29l1.56-.72c-1.6-3.48-3.27-7-5-10.33Z"/><path class="cls-8" d="M3010.87,2014.57l1.71,0c-.08-3.8-.22-7.64-.41-11.44l-1.71.09C3010.65,2007,3010.79,2010.8,3010.87,2014.57Z"/><path class="cls-8" d="M3012.65,2026h-1.71c0,3.76-.13,7.59-.27,11.39l1.71.06C3012.52,2033.61,3012.62,2029.76,3012.65,2026Z"/><path class="cls-8" d="M3008.88,1968.93c-.53-3.74-1.13-7.54-1.78-11.31l-1.68.29c.64,3.75,1.23,7.54,1.76,11.26Z"/><path class="cls-8" d="M3009.09,2060.09l1.71.17c.37-3.77.69-7.61,1-11.41l-1.71-.12C3009.79,2052.51,3009.46,2056.33,3009.09,2060.09Z"/><path class="cls-8" d="M3009.71,1991.82l1.7-.14c-.31-3.8-.68-7.63-1.1-11.39l-1.7.18C3009,1984.22,3009.4,1988,3009.71,1991.82Z"/><path class="cls-8" d="M2988,1891.86c1.27,3.56,2.52,7.19,3.69,10.78l1.63-.53c-1.18-3.61-2.43-7.25-3.71-10.83Z"/><path class="cls-8" d="M3005,1946.37c-.76-3.73-1.57-7.49-2.44-11.19l-1.66.39c.85,3.68,1.67,7.43,2.42,11.14Z"/><path class="cls-8" d="M3047.57,2229l.92,1.44c3.33-2.13,6.54-4.32,9.51-6.38l-1-1.41C3054.07,2224.7,3050.88,2226.88,3047.57,2229Z"/><path class="cls-8" d="M3036.28,2235.62a33,33,0,0,1-8.8,3.28l.32,1.68a34.07,34.07,0,0,0,9.27-3.45c.52-.27,1-.54,1.55-.83l-.81-1.5Z"/><path class="cls-8" d="M3066.44,2216.17l1,1.43c3.7-2.49,6.75-4.41,9.61-6l-.85-1.48C3073.27,2211.73,3070.18,2213.67,3066.44,2216.17Z"/><path class="cls-8" d="M3009.8,2229.48l-1.51.81a21.37,21.37,0,0,0,7.87,8.69l.85-1.49A19.73,19.73,0,0,1,3009.8,2229.48Z"/><path class="cls-8" d="M2996.73,1913l-1.65.49c1.07,3.62,2.1,7.32,3.07,11l1.66-.44C2998.84,1920.39,2997.8,1916.68,2996.73,1913Z"/><path class="cls-8" d="M3109.08,2202.51a59.67,59.67,0,0,1,9.06.94l.31-1.68a62,62,0,0,0-9.32-1Z"/><path class="cls-8" d="M3086.51,2205l.64,1.59a56.83,56.83,0,0,1,10.76-3.19l-.31-1.68A58.37,58.37,0,0,0,3086.51,2205Z"/><path class="cls-8" d="M3001.62,2185.31l-1.71.06c.14,4,.35,7.87.64,11.44l1.71-.14C3002,2193.13,3001.76,2189.31,3001.62,2185.31Z"/><path class="cls-8" d="M3007.8,2071.41q-.74,5.79-1.4,11.34l1.7.2q.66-5.53,1.4-11.32Z"/><path class="cls-8" d="M3001.61,2162.53l-1.72-.05c-.1,4-.16,7.81-.16,11.44h1.71C3001.45,2170.31,3001.5,2166.47,3001.61,2162.53Z"/><path class="cls-8" d="M3003.87,2105.47l1.7.17q.57-5.54,1.21-11.35l-1.7-.19Q3004.44,2099.92,3003.87,2105.47Z"/><path class="cls-8" d="M3001.84,2208.21a101.29,101.29,0,0,0,2.31,11.27l1.65-.45a99.68,99.68,0,0,1-2.27-11.08Z"/><path class="cls-40" d="M2770.43,2402.4c-10-19.1-9.44-41.65-11.8-62.58-2.2-19.45-4.82-50.26-20-65.07-8.39-8.16-11.26,1.3-9.47,9.27,6.12,27.27,16.7,81.26-3.34,123.55a55.26,55.26,0,0,1-16,19.93c19.66-4.83,39.73-7.37,59.89,1,11.72,4.88,26.17,11.49,42.23,17.89C2793.26,2438.25,2779.65,2420,2770.43,2402.4Z"/><path class="cls-40" d="M3079.74,2299.61c-59,0-124.7-21.65-116.87-94.06,9.09-84,16.14-100.73,4.27-90.33-9.37,8.2-31.55,67.53-23.75,143.76,6.49,63.38,61.56,90.38,61.22,115.76-.15,11.67-4.52,26.74-7.58,39.66,19-34.24,27-78.17,84.63-93.33,41.6-11,55.05-34.49,55.07-59C3129.9,2279,3114.46,2299.61,3079.74,2299.61Z"/><path class="cls-17" d="M3024.37,1455a174.24,174.24,0,0,0-7.32-16.91c-34.33-67.21-66.19-85.22-90-87.62-1.66-.17-3.3-.26-4.88-.28-11.82-.19-23.69.37-35.49,1-7.24.39-14.67-.51-21.93.18a43.37,43.37,0,0,0-5.29.82c-20.21,4.58-35.53,21.32-47.65,37.09a152.2,152.2,0,0,0-9.29,13.54c-8.92,14.62-15.2,30.14-21,46.81-9,25.9-16.61,56.25-22.86,88.44-5.14,26.31-9.35,53.83-12.65,81.2-3.83,32-6.46,63.68-7.82,93-.13,3.15-.26,6.26-.39,9.35-.18,5.1-.35,10.13-.46,15-1.34,56.72-5.64,100.36,3.55,112.45v0c8.12,10.65,21.62,19,38.45,25.36,24.82,9.44,57,14.63,89.9,16.74,6.31.41,12.68.7,19,.89,16.68.5,33.26.26,48.88-.54,52.51-2.7,77.16,2.33,93.86,11.28l.09,0a98.22,98.22,0,0,1,17.41,12.35c56.53-13,41.12-183.56,13.45-319.52C3050.16,1537.38,3036,1485.43,3024.37,1455Z"/><path class="cls-41" d="M2816.21,1383.74s47.18,26.82,98.53,26.62c-48.94-20.7-90-35.45-90-35.45Z"/><path class="cls-41" d="M2735.39,1812.23l-.15-2.08A11.2,11.2,0,0,0,2735.39,1812.23Z"/><path class="cls-41" d="M3028.73,1861.89c-62.07,24.25-184.87,1.94-195.72,0-10.55-1.89-93.68-24.69-97.62-49.66,2.11,29.92-1.54,43.19,44,62.21,46.62,19.45,173.94,20.67,198.53,16.67s71.07,12.42,70.62,24.09c15-8.63,47.3-12.68,32.75-170C3082,1753.78,3087.65,1838.88,3028.73,1861.89Z"/><path class="cls-41" d="M3081.32,1745.21c0-.46-.06-.71-.06-.71Z"/><path class="cls-41" d="M2911.57,1432.38c-3.67-2.23-51.5-13-109-29.6-8.92,14.62-15.2,30.14-21,46.81-9,25.9-24.81,104.32-31.06,136.51,19.19-41.21,29.49-55,38.62-53.11,29.21,6.08,59.17,4.58,77.93.62C2929.53,1520.45,2969.7,1468,2911.57,1432.38Z"/><path class="cls-17" d="M2914.74,1410.36c-8.3-5.1-242.11-53.53-303.43-115.19s-95.56-43.71-95.56-43.71l-70.27,84.34s6.09,68.85,58.86,86,275.61,122.65,359.58,105.54S2972.87,1446,2914.74,1410.36Z"/><path class="cls-42" d="M1186.64,475.26l-121.85-23.81-92.24,62a28.86,28.86,0,0,0-7.84,40L1104.88,762a28.86,28.86,0,0,0,40.07,7.92L1286.15,675a28.86,28.86,0,0,0,7.79-40.1Z"/><path class="cls-43" d="M1190.23,455.61,1068.38,431.8l-92.24,62a28.86,28.86,0,0,0-7.84,40l140.17,208.51a28.86,28.86,0,0,0,40.07,7.92l141.2-94.92a28.86,28.86,0,0,0,7.79-40.1Z"/><polygon class="cls-44" points="1117.33 504.62 1190.23 455.61 1068.38 431.8 1117.33 504.62"/><rect class="cls-8" x="1033.48" y="542.08" width="80.96" height="48.97" transform="translate(-133.42 695.52) rotate(-33.91)"/><rect class="cls-8" x="1054.11" y="575.21" width="169.92" height="16.97" transform="translate(-131.9 734.77) rotate(-33.91)"/><rect class="cls-8" x="1072.07" y="601.92" width="169.92" height="16.97" transform="translate(-143.74 749.34) rotate(-33.91)"/><rect class="cls-8" x="1090.03" y="628.64" width="169.92" height="16.97" transform="translate(-155.6 763.86) rotate(-33.91)"/><rect class="cls-8" x="1107.99" y="655.35" width="169.92" height="16.97" transform="translate(-167.44 778.46) rotate(-33.91)"/><path class="cls-12" d="M1015.78,538.58a7.81,7.81,0,1,0,10.83,2.13A7.8,7.8,0,0,0,1015.78,538.58Z"/><path class="cls-12" d="M1039.74,522.48a7.8,7.8,0,1,0,10.83,2.12A7.79,7.79,0,0,0,1039.74,522.48Z"/><path class="cls-45" d="M1446.1,899.18a36.41,36.41,0,0,0-45.29-27.77l-171.29,47a36.43,36.43,0,0,0-26.09,28l-9.35,47.09-149.45,41A36.43,36.43,0,0,0,1020,1081.9L1086.91,1258a36.42,36.42,0,0,0,43.89,22.78l337.26-92.46a36.41,36.41,0,0,0,26-42.46Z"/><path class="cls-6" d="M1355.05,788.78a15.34,15.34,0,0,0-19-10.63l-316,88.76a15.35,15.35,0,0,0-10.63,18.94l91.79,326.84a15.36,15.36,0,0,0,19,10.63l316-88.76a15.32,15.32,0,0,0,10.64-18.94Z"/><path class="cls-46" d="M1469.67,936.38a39.6,39.6,0,0,0-49.25-30.21l-186.29,51.08a39.6,39.6,0,0,0-28.37,30.47l-10.17,51.21-162.53,44.56a39.59,39.59,0,0,0-26.79,51.6l60.24,159.38,1.26-.22c5.06-.94,8.31.69,9.87,3.56,25.57-8.23,70.52-10.72,103.72-20.89,43.44-13.31,57-16,57.85-3.58.65,10.51-59.61,36.84-79.38,44.38,15.23-4.38,53.75-14.2,64.62-17.37,13.9-4.12,12.49,15.06.7,22.52s-77.42,26.6-77.42,26.6l1.15-.24,345.66-94.77a39.6,39.6,0,0,0,28.32-46.18Z"/><path class="cls-47" d="M1460.8,907.43a36.41,36.41,0,0,0-45.29-27.77l-171.29,47a36.41,36.41,0,0,0-26.09,28l-9.35,47.08-149.45,41a36.4,36.4,0,0,0-24.63,47.44l66.92,176.12a36.4,36.4,0,0,0,43.88,22.79l337.26-92.47a36.4,36.4,0,0,0,26-42.46Z"/><rect class="cls-48" x="1052.98" y="1025" width="271.3" height="68.54" transform="translate(-237.78 351.99) rotate(-15.33)"/><path class="cls-49" d="M1363.34,770.74a15.34,15.34,0,0,0-18.95-10.64l-316,88.76a15.36,15.36,0,0,0-10.63,18.95l91.79,326.83a15.37,15.37,0,0,0,19,10.64l316-88.76a15.33,15.33,0,0,0,10.64-19Z"/><rect class="cls-6" x="1045.11" y="836.56" width="246.48" height="32.01" transform="matrix(0.96, -0.27, 0.27, 0.96, -187.01, 347.68)"/><path class="cls-6" d="M1333.71,794a12.6,12.6,0,1,0,3.36,19.23l9,5,2.47-4.39-9-5.06A12.61,12.61,0,0,0,1333.71,794Zm.43,14.69a7.56,7.56,0,1,1-2.9-10.3A7.58,7.58,0,0,1,1334.14,808.66Z"/><rect class="cls-48" x="1064.61" y="919.81" width="163.54" height="15.83" transform="translate(-208.16 344.56) rotate(-15.69)"/><rect class="cls-48" x="1072.17" y="941.61" width="237.54" height="15.83" transform="matrix(0.96, -0.27, 0.27, 0.96, -212.39, 357.41)"/><rect class="cls-50" x="1112.16" y="1081.75" width="270.36" height="15.83" transform="translate(-248.18 377.87) rotate(-15.69)"/><rect class="cls-50" x="1123.97" y="1133.53" width="128.83" height="15.83" transform="translate(-264.37 363.85) rotate(-15.69)"/><rect class="cls-48" x="1111.61" y="967.42" width="276.94" height="15.83" transform="translate(-217.16 374.35) rotate(-15.69)"/><path class="cls-48" d="M1092.73,1011.88a7.36,7.36,0,1,0,9.07,5.1A7.36,7.36,0,0,0,1092.73,1011.88Z"/><rect class="cls-48" x="1120.78" y="1000.06" width="276.94" height="15.83" transform="translate(-225.64 378.03) rotate(-15.69)"/><path class="cls-48" d="M1101.9,1044.53a7.35,7.35,0,1,0,9.07,5.09A7.37,7.37,0,0,0,1101.9,1044.53Z"/><rect class="cls-51" x="1129.95" y="1032.71" width="276.94" height="15.83" transform="translate(-234.14 381.75) rotate(-15.69)"/><path class="cls-51" d="M1111.07,1077.18a7.35,7.35,0,1,0,9.07,5.09A7.36,7.36,0,0,0,1111.07,1077.18Z"/><path class="cls-52" d="M1491.42,942.65a39.59,39.59,0,0,0-49.25-30.2l-186.29,51.07A39.63,39.63,0,0,0,1227.51,994l-10.17,51.2-162.53,44.57a39.59,39.59,0,0,0-26.79,51.59l73.77,195.16a39.6,39.6,0,0,0,47.73,24.78l366.78-100.56a39.61,39.61,0,0,0,28.31-46.18Z"/><path class="cls-53" d="M1376.71,1089.56a59.25,59.25,0,0,0-8.37,3.11,92.77,92.77,0,0,0-162.77,61.24,51.44,51.44,0,0,0-46.79,65.37A27.57,27.57,0,0,0,1142,1259.1l38.13-10.71,13.67-3.84,52-14.59,9.15-2.57,105.18-29.54,22.89-6.43,64.28-18.05a60.13,60.13,0,0,0-70.56-83.81Z"/><polygon class="cls-54" points="1283.73 1110.45 1251.01 1179.47 1276.24 1172.38 1294.35 1236.87 1340.49 1223.91 1322.38 1159.43 1347.6 1152.34 1283.73 1110.45"/><polygon class="cls-55" points="779.17 1760.93 875.15 1993.88 835.3 2003.85 910.96 2175.72 947.49 2169.45 1190.81 2760 1638.65 2705.7 1066.85 1692.33 779.17 1760.93"/><polygon class="cls-56" points="2310.01 1714.3 2127.47 1307.06 2084.37 1325.09 2059.38 1268.25 1170.17 1665.3 1638.65 2705.7 2517.53 2310.34 2264.42 1734.63 2310.01 1714.3"/><polygon class="cls-57" points="862.61 1382.28 1035.58 1782.96 988.61 1764.77 1069.74 1967.73 1137 2017.89 1308.74 2415.72 1638.65 2705.7 1170.17 1665.3 862.61 1382.28"/><rect class="cls-58" x="1547.38" y="1424.25" width="724.77" height="959.52" transform="translate(-363.02 452.5) rotate(-12.35)"/><circle class="cls-59" cx="2007.07" cy="1593.59" r="119.66" transform="translate(-538.98 1885.96) rotate(-45)"/><rect class="cls-60" x="1536.28" y="1571.65" width="291.73" height="20.51" transform="translate(-299.4 396.37) rotate(-12.35)"/><rect class="cls-60" x="1547.49" y="1622.86" width="291.73" height="20.51" transform="translate(-310.1 399.96) rotate(-12.35)"/><rect class="cls-60" x="1558.7" y="1674.06" width="291.73" height="20.51" transform="translate(-320.79 403.53) rotate(-12.35)"/><rect class="cls-60" x="1569.91" y="1725.27" width="291.73" height="20.51" transform="translate(-331.49 407.12) rotate(-12.35)"/><circle class="cls-61" cx="2000.14" cy="1561.95" r="43.96" transform="translate(-121.33 2954.66) rotate(-71.27)"/><ellipse class="cls-61" cx="2024.75" cy="1674.36" rx="80.21" ry="91.8" transform="translate(-311.24 471.76) rotate(-12.35)"/><rect class="cls-60" x="1601.35" y="1870.01" width="291.73" height="18.23" transform="translate(-361.47 417.16) rotate(-12.35)"/><rect class="cls-56" x="1901.18" y="1804.37" width="291.73" height="18.23" transform="translate(-340.49 479.77) rotate(-12.35)"/><rect class="cls-60" x="1608.42" y="1902.3" width="291.73" height="18.23" transform="translate(-368.21 419.42) rotate(-12.35)"/><rect class="cls-56" x="1908.25" y="1836.66" width="291.73" height="18.23" transform="translate(-347.24 482.04) rotate(-12.35)"/><rect class="cls-60" x="1615.49" y="1934.58" width="291.73" height="18.23" transform="translate(-374.95 421.68) rotate(-12.35)"/><rect class="cls-56" x="1915.31" y="1868.94" width="291.73" height="18.23" transform="translate(-353.97 484.29) rotate(-12.35)"/><rect class="cls-60" x="1622.56" y="1966.86" width="291.73" height="18.23" transform="translate(-381.68 423.93) rotate(-12.35)"/><rect class="cls-60" x="1688.55" y="2223.95" width="598.66" height="73.69" transform="translate(-437.52 477.45) rotate(-12.35)"/><rect class="cls-56" x="1922.38" y="1901.22" width="291.73" height="18.23" transform="translate(-360.71 486.53) rotate(-12.35)"/><rect class="cls-60" x="1656.16" y="2120.36" width="291.73" height="18.23" transform="translate(-413.72 434.65) rotate(-12.35)"/><rect class="cls-60" x="1955.99" y="2054.72" width="291.73" height="18.23" transform="translate(-392.77 497.29) rotate(-12.35)"/><rect class="cls-60" x="1663.23" y="2152.65" width="291.73" height="18.23" transform="translate(-420.48 436.94) rotate(-12.35)"/><rect class="cls-60" x="1963.06" y="2087" width="291.73" height="18.23" transform="translate(-399.5 499.53) rotate(-12.35)"/><rect class="cls-60" x="1670.3" y="2184.93" width="291.73" height="18.23" transform="translate(-427.22 439.2) rotate(-12.35)"/><rect class="cls-60" x="1970.12" y="2119.29" width="291.73" height="18.23" transform="translate(-406.24 501.79) rotate(-12.35)"/><rect class="cls-60" x="1677.37" y="2217.21" width="291.73" height="18.23" transform="translate(-433.96 441.44) rotate(-12.35)"/><rect class="cls-60" x="1977.19" y="2151.57" width="291.73" height="18.23" transform="translate(-412.98 504.04) rotate(-12.35)"/><rect class="cls-1" x="1491.95" y="1503.03" width="724.77" height="959.52" transform="translate(-499.81 630.74) rotate(-17.05)"/><circle class="cls-58" cx="1925.88" cy="1665.45" r="119.66" transform="translate(-92.48 3217.53) rotate(-78.41)"/><rect class="cls-60" x="1455.23" y="1670.15" width="291.73" height="20.51" transform="translate(-422.29 543.23) rotate(-17.05)"/><rect class="cls-60" x="1470.6" y="1720.27" width="291.73" height="20.51" transform="matrix(0.96, -0.29, 0.29, 0.96, -436.31, 549.94)"/><rect class="cls-60" x="1485.97" y="1770.39" width="291.73" height="20.51" transform="translate(-450.32 556.63) rotate(-17.05)"/><rect class="cls-60" x="1501.33" y="1820.51" width="291.73" height="20.51" transform="translate(-464.35 563.37) rotate(-17.05)"/><path class="cls-61" d="M1903.5,1592.45a44,44,0,1,0,54.92,29.14A44,44,0,0,0,1903.5,1592.45Z"/><ellipse class="cls-61" cx="1950.12" cy="1744.5" rx="80.21" ry="91.8" transform="translate(-425.74 648.37) rotate(-17.05)"/><rect class="cls-60" x="1544.43" y="1962.19" width="291.73" height="18.23" transform="translate(-503.65 582.15) rotate(-17.05)"/><rect class="cls-60" x="1837.87" y="1872.21" width="291.73" height="18.23" transform="translate(-464.38 664.22) rotate(-17.05)"/><rect class="cls-60" x="1554.12" y="1993.79" width="291.73" height="18.23" transform="translate(-512.49 586.38) rotate(-17.05)"/><rect class="cls-60" x="1847.56" y="1903.81" width="291.73" height="18.23" transform="translate(-473.21 668.43) rotate(-17.05)"/><rect class="cls-60" x="1563.81" y="2025.38" width="291.73" height="18.23" transform="translate(-521.31 590.59) rotate(-17.05)"/><rect class="cls-60" x="1857.25" y="1935.4" width="291.73" height="18.23" transform="translate(-482.05 672.68) rotate(-17.05)"/><rect class="cls-60" x="1573.5" y="2056.98" width="291.73" height="18.23" transform="translate(-530.17 594.85) rotate(-17.05)"/><rect class="cls-60" x="1662.08" y="2295.13" width="598.66" height="73.69" transform="translate(-597.47 677.47) rotate(-17.05)"/><rect class="cls-60" x="1866.94" y="1967" width="291.73" height="18.23" transform="translate(-490.88 676.89) rotate(-17.05)"/><rect class="cls-60" x="1619.56" y="2207.21" width="291.73" height="18.23" transform="translate(-572.18 614.94) rotate(-17.05)"/><rect class="cls-60" x="1913" y="2117.23" width="291.73" height="18.23" transform="translate(-532.9 697) rotate(-17.05)"/><rect class="cls-60" x="1629.25" y="2238.81" width="291.73" height="18.23" transform="translate(-581.03 619.18) rotate(-17.05)"/><rect class="cls-60" x="1922.69" y="2148.83" width="291.73" height="18.23" transform="translate(-541.75 701.26) rotate(-17.05)"/><rect class="cls-60" x="1638.94" y="2270.4" width="291.73" height="18.23" transform="translate(-589.87 623.42) rotate(-17.05)"/><rect class="cls-60" x="1932.38" y="2180.42" width="291.73" height="18.23" transform="translate(-550.59 705.49) rotate(-17.05)"/><rect class="cls-60" x="1648.63" y="2302" width="291.73" height="18.23" transform="translate(-598.69 627.63) rotate(-17.05)"/><rect class="cls-60" x="1942.07" y="2212.02" width="291.73" height="18.23" transform="translate(-559.42 709.7) rotate(-17.05)"/><rect class="cls-8" x="1448.24" y="1504.01" width="724.77" height="959.52" transform="translate(-750.53 1174.95) rotate(-30.09)"/><circle class="cls-1" cx="1808.73" cy="1658.46" r="119.66"/><g class="cls-62"><path class="cls-58" d="M1770.46,1592.4a44,44,0,1,0,60.07,16A43.95,43.95,0,0,0,1770.46,1592.4Z"/><ellipse class="cls-58" cx="1850.18" cy="1730.01" rx="80.21" ry="91.8" transform="translate(-617.99 1160.59) rotate(-30.09)"/></g><rect class="cls-57" x="1349.83" y="1736.06" width="291.73" height="20.51" transform="translate(-673.92 985.08) rotate(-30.09)"/><rect class="cls-57" x="1376.11" y="1781.42" width="291.73" height="20.51" transform="translate(-693.12 1004.36) rotate(-30.09)"/><rect class="cls-57" x="1402.39" y="1826.78" width="291.73" height="20.51" transform="translate(-712.33 1023.67) rotate(-30.09)"/><rect class="cls-57" x="1428.66" y="1872.14" width="291.73" height="20.51" transform="translate(-731.52 1042.95) rotate(-30.09)"/><rect class="cls-1" x="1502.36" y="2000.47" width="291.73" height="18.23" transform="translate(-785.36 1097.03) rotate(-30.09)"/><rect class="cls-1" x="1767.93" y="1846.61" width="291.73" height="18.23" transform="translate(-672.45 1209.45) rotate(-30.09)"/><rect class="cls-1" x="1518.93" y="2029.07" width="291.73" height="18.23" transform="translate(-797.45 1109.16) rotate(-30.09)"/><rect class="cls-1" x="1784.5" y="1875.21" width="291.73" height="18.23" transform="translate(-684.55 1221.61) rotate(-30.09)"/><rect class="cls-1" x="1535.49" y="2057.66" width="291.73" height="18.23" transform="translate(-809.55 1121.31) rotate(-30.09)"/><rect class="cls-1" x="1801.07" y="1903.8" width="291.73" height="18.23" transform="translate(-696.65 1233.75) rotate(-30.09)"/><rect class="cls-1" x="1552.06" y="2086.26" width="291.73" height="18.23" transform="translate(-821.66 1133.47) rotate(-30.09)"/><rect class="cls-1" x="1694.39" y="2262.95" width="598.66" height="73.69" transform="translate(-884.29 1309.32) rotate(-30.09)"/><rect class="cls-1" x="1817.63" y="1932.4" width="291.73" height="18.23" transform="translate(-708.74 1245.87) rotate(-30.09)"/><rect class="cls-57" x="1630.83" y="2222.22" width="291.73" height="18.23" transform="translate(-879.23 1191.35) rotate(-30.09)"/><rect class="cls-57" x="1896.41" y="2068.36" width="291.73" height="18.23" transform="translate(-766.29 1303.7) rotate(-30.09)"/><rect class="cls-57" x="1647.4" y="2250.82" width="291.73" height="18.23" transform="translate(-891.32 1203.47) rotate(-30.09)"/><rect class="cls-57" x="1912.97" y="2096.95" width="291.73" height="18.23" transform="translate(-778.41 1315.89) rotate(-30.09)"/><rect class="cls-57" x="1663.97" y="2279.41" width="291.73" height="18.23" transform="translate(-903.41 1215.59) rotate(-30.09)"/><rect class="cls-57" x="1929.54" y="2125.55" width="291.73" height="18.23" transform="translate(-790.5 1328.01) rotate(-30.09)"/><rect class="cls-57" x="1680.53" y="2308.01" width="291.73" height="18.23" transform="translate(-915.54 1227.82) rotate(-30.09)"/><rect class="cls-57" x="1946.11" y="2154.15" width="291.73" height="18.23" transform="translate(-802.61 1340.19) rotate(-30.09)"/></g></g></svg>