<svg xmlns="http://www.w3.org/2000/svg" xmlns:xlink="http://www.w3.org/1999/xlink" viewBox="0 0 4680 3120"><defs><style>.cls-1{fill:none;}.cls-2{isolation:isolate;}.cls-3,.cls-9{fill:#fff;}.cls-3{opacity:0;}.cls-4{fill:#7a8db0;}.cls-5{fill:#34509c;}.cls-6{fill:#b2c4d0;}.cls-7{fill:#d1dbed;}.cls-8{opacity:0.6;}.cls-10{opacity:0.54;}.cls-10,.cls-28,.cls-44,.cls-52{mix-blend-mode:multiply;}.cls-11{fill:#2f4171;}.cls-12,.cls-39{fill:#f5f5f7;}.cls-13{fill:#99b1da;}.cls-14{fill:#3c5eaa;}.cls-15{fill:#1d2f59;}.cls-16,.cls-44{opacity:0.5;}.cls-17{clip-path:url(#clip-path);}.cls-18{opacity:0.55;}.cls-19{fill:#7b7b7b;}.cls-20{fill:#333;}.cls-21{opacity:0.7;}.cls-22{fill:#e9b18e;}.cls-23{fill:#ef7c59;}.cls-24{fill:#c8674d;}.cls-25{fill:#a35140;}.cls-26{fill:#2e2e2e;}.cls-27{fill:#f19a6d;}.cls-28{opacity:0.21;}.cls-29{fill:#282828;}.cls-30{fill:#1e274d;}.cls-31{fill:#f3ce90;}.cls-32{fill:#2b2b2b;}.cls-33{fill:#545454;}.cls-34{fill:#a9bbce;}.cls-35{fill:#e8e8e8;}.cls-36{fill:#d4d4d4;}.cls-37{fill:#5d5d5d;}.cls-38{fill:#525252;}.cls-39,.cls-40,.cls-41{fill-rule:evenodd;}.cls-40{fill:#3a603c;}.cls-41,.cls-43{fill:#57935e;}.cls-42{fill:#6eb77a;}.cls-45{fill:#4d4d4d;}.cls-46{fill:#2f2f2f;}.cls-47{fill:#424242;}.cls-48{fill:#38261f;}.cls-49{fill:#292929;}.cls-50{fill:#603813;}.cls-51{fill:#f0f0f0;}.cls-52{opacity:0.35;}.cls-53{fill:#bbb;}.cls-54{fill:#d8d8d8;}.cls-55{fill:#b5b5b5;}</style><clipPath id="clip-path"><path class="cls-1" d="M1415.17,1586.75H1109.06l-83.14,288.46,350.2-98.25s35.89-29.6,37.79-65.5S1415.17,1586.75,1415.17,1586.75Z"/></clipPath></defs><title>07</title><g class="cls-2"><g id="_07" data-name="07"><rect id="_07-2" data-name="07" class="cls-3" width="4680" height="3120"/><path class="cls-4" d="M1648.66,1369.94c-10.47-35.76-4.79-74.9,10.08-109.07,18.63-42.8,48.62-80.61,84.94-109.78,38-30.52,83.68-47.22,126.65-69.25,52.87-27.11,101.68-63,140.09-108.38,52.49-62,74-132.46,82-211.84,3.53-35,5-70.27,5.25-105.46,0-7.7,4.84-40.1-.55-46.35-19.56,21-54.24,28.06-80.79,34.83-55.63,14.19-109,26.79-161.19,51.54-52.55,24.91-101.76,57.36-143.58,97.91C1587.92,914,1552.2,1098.7,1598.47,1261.74,1608.78,1298.07,1622.58,1341.33,1648.66,1369.94Z"/><path class="cls-5" d="M2089.69,627.15A733.69,733.69,0,0,1,2025.51,722q-18,22.43-37.74,43.35l-4.94,5.22-5,5.15-5,5.12-5.15,5c-6.87,6.7-13.74,13.37-20.73,19.92-27.84,26.33-57,51-84.82,76.69q-10.44,9.63-20.59,19.5c-6.79,6.61-13.57,13.27-20.25,20-13.41,13.41-26.57,27-39.28,41-6.39,6.95-12.62,14-18.76,21.16s-12.08,14.43-17.9,21.8-11.51,14.88-16.9,22.47-10.56,15.39-15.48,23.34A561.82,561.82,0,0,0,1664,1153q-4.87,13.24-9.08,26.72c-2.81,9-5.42,18-7.75,27.14a440.54,440.54,0,0,0-10.81,55.39c-2.3,18.66-3.48,37.54-2,56.31a157.36,157.36,0,0,0,4.4,27.86,98.87,98.87,0,0,0,10.63,26.25c-5.88-7.55-10.18-16.31-13.52-25.35a161.51,161.51,0,0,1-7-28.11,232.64,232.64,0,0,1-2.6-28.88q-.46-14.49.5-29c2.6-38.59,10.83-76.63,22.87-113.34a531.79,531.79,0,0,1,21-54,493.85,493.85,0,0,1,27-51.51c5-8.31,10.26-16.52,15.88-24.48s11.41-15.67,17.37-23.31c11.91-15.25,24.62-29.79,37.68-44q9.84-10.56,20-20.81c6.75-6.84,13.56-13.61,20.48-20.23s13.87-13.22,20.88-19.76,14.26-12.92,21.49-19.24c29-25.15,59-48.67,88.22-73C1998.07,749.25,2047.9,691,2089.69,627.15Z"/><path class="cls-6" d="M1237.69,1252.67c-22.16-10.71-33.91-37.12-14.62-56.27,19.55-19.39,50.72-26.07,77.32-25.35,37.15,1,78.43,12.94,113.73,27.28a1446.12,1446.12,0,0,0-116.65-118.88c-16.12,9.91-33.11,17.75-49.93,26.42-20.22,10.42-41.16,20-63.61,24.45-22.09,4.37-46.24,3.25-66.75-6.66-22.16-10.71-33.91-37.12-14.62-56.26,19.55-19.4,50.72-26.08,77.31-25.36,32.63.88,68.41,10.22,100.58,22.18a1418,1418,0,0,0-125-98.1c-17.7,11.63-36.65,20.14-55.36,29.78-20.22,10.42-41.16,20-63.61,24.45-22.1,4.36-46.24,3.25-66.76-6.66-22.15-10.71-33.9-37.12-14.61-56.27,19.55-19.4,50.72-26.07,77.31-25.35,36.88,1,77.83,12.76,113,26.95a1353.36,1353.36,0,0,0-234.55-128.7c-16.85.61-33.56-.35-50.47-.6-22.75-.34-45.74-1.74-67.63-8.41C771.19,814.74,750.42,802.38,737,784c-14.5-19.89-12.41-48.71,13.63-56.51,26.38-7.89,57,.92,80.13,14.08,32.16,18.32,62.82,48.12,87.15,77.28a1341.29,1341.29,0,0,1,120.59,58.82c-2.56-1.9-5.1-3.8-7.69-5.67-18.45-13.31-36.49-27.63-50.6-45.64-13.9-17.72-23.84-39.75-24.29-62.53-.48-24.61,17.74-47,43.55-38.51,26.15,8.64,46.21,33.41,57.61,57.45,17,35.88,25.06,81.61,27.78,121.49a1405.72,1405.72,0,0,1,122.64,83.26c-6.16-8.76-12.07-17.7-18.27-26.52-13.09-18.61-25.46-38-32.92-59.67-7.34-21.3-9.53-45.36-2.52-67,7.59-23.42,32.14-38.67,53.74-22.17,21.89,16.71,32.76,46.68,35.68,73.12,4.23,38.24-2.54,82.44-12.48,120.24a1448.16,1448.16,0,0,1,126.09,112.19c-6.94-15.4-12.38-31.26-18.55-47-8.27-21.19-15.66-43-17.75-65.8-2-22.42,1.55-46.32,13.53-65.71,13-20.93,40.42-29.89,57.47-8.72,17.28,21.45,20.7,53.14,17.23,79.52-5.17,39.37-23.22,82.15-42.58,117.12,29,29.48,148.41,166.73,174.76,198.57q-4.2,5.33-8.24,10.79c-6.46-7.89-104.85-122.16-111.5-129.88-17.06,10.9-35.2,19.16-53.14,28.4-20.22,10.43-41.16,20-63.61,24.46C1282.35,1263.69,1258.2,1262.59,1237.69,1252.67Z"/><path class="cls-7" d="M1732.39,1442.05c-9-11.06-16.34-23.88-23-39.52S1697,1368.7,1692,1348.79a711.72,711.72,0,0,1-14.47-77.35c-3.6-26.49-6-53.56-6.94-80.55-2.21-56.37,5.43-109.62,5.09-166.06-.4-69.38-15-143.66-45.32-214a505.85,505.85,0,0,0-78.26-126c-30.81-36.54-65.77-68.07-103.78-96.48a1128.85,1128.85,0,0,0-102.42-67.9c-7.53-4.53-38.6-27.49-45.61-25.7,17.4,30.83,18.31,68.6,19.93,98.2,3.39,62,4.61,120.46,15,184.45a1286.74,1286.74,0,0,0,46.16,192,1019.9,1019.9,0,0,0,117.64,244c11.73,17.5,23.43,34.41,35.87,50.54,12.09,16.22,24.9,31.68,37.67,46.57,3.21,3.72,6.52,7.38,9.81,11s6.46,7.24,9.78,10.8c6.77,7.09,13.21,14.1,20.09,20.89,13.42,13.54,27.71,27,41.31,38.17,12.27,10.12,25,20.29,38,29.07S1717.87,1436.75,1732.39,1442.05Z"/><g class="cls-8"><path class="cls-9" d="M1316.07,511.74c58.21,73.13,106.18,154.4,139.83,238.48,17.28,41.9,31.34,84.25,45.13,126.18,13.48,41.9,27.35,83.71,39.75,125.22q4.74,15.48,9.51,31c3.08,10.37,6.34,20.59,9.57,30.82,6.3,20.51,12.68,40.85,19.49,60.86,13.84,40,28.81,79.42,44.62,117.93,15.55,38.63,31.55,76.55,49.11,113.31,9.07,18.34,17.53,35.44,26.87,50.35a171.59,171.59,0,0,0,14.9,20.79,83.33,83.33,0,0,0,18.89,17.06,86.78,86.78,0,0,1-21-15.54,173.39,173.39,0,0,1-16.8-19.81,439.4,439.4,0,0,1-30.46-48.78c-19.77-36.19-37.09-73.89-54.11-112.39-16.73-38.6-33-78.08-47.21-118.91s-26.73-82.27-39.26-124c-12.86-42.49-25.53-84.36-38.1-125.92-12.59-42.23-25.47-84.44-40.49-126.36a876.42,876.42,0,0,0-55.84-123.36A1110,1110,0,0,0,1316.07,511.74Z"/></g><ellipse class="cls-7" cx="2340" cy="2577.25" rx="1878.3" ry="182.75"/><ellipse class="cls-4" cx="2533.84" cy="2619.01" rx="285.72" ry="39.42"/><rect class="cls-6" x="3003.39" y="409.78" width="1135.91" height="2137.78"/><g class="cls-10"><polygon class="cls-11" points="4139.31 2547.55 3939.74 557.38 3749.33 2547.55 4139.31 2547.55"/></g><path class="cls-12" d="M3903.35,1174.83c0-113,17.5-479.84-261-305.3-267.54,167.65-179.94-494.09-716.73-509.34-199.67-5.67-403.21,114.18-512.4,311.1-170.79,308-397.64,474.63-579.49,445.29-175.34-28.29-451.39-244-741.13-67.1-461.48,281.75-387.8,865.55-366,1180.65C735.62,2361,820.83,2467.7,943.1,2467.7H3682c122.28,0,221.4-106.36,221.4-237.57Z"/><path class="cls-7" d="M1207.13,2358.68c-28.47,1.49-59.06-11.21-85.43-30.6-33-24.27-61.77-57-83.49-93.37-22.74-38-34.35-79.62-50.24-120-19.56-49.76-46.18-97.89-80.55-139.25-47-56.51-101.7-88.82-163.85-111.64-27.43-10.07-55.09-18.49-82.76-25.82-6-1.6-31.37-12.19-36.46-9,15.83,20.63,20.26,51.08,24.7,74.68,9.31,49.42,17.44,96.62,35.16,145.35,17.84,49,41.72,96.8,72.21,140,90.15,127.82,234.21,195.24,364,189.64C1149.28,2377.45,1183.77,2374.69,1207.13,2358.68Z"/><path class="cls-13" d="M498.76,2214c12.34,26,35.75,45.71,61.9,57.8,32.77,15.13,69.53,21.54,105.5,19.71,37.65-1.92,72.61-15.76,108.74-25.13,44.48-11.53,91.13-15.88,136.63-9.45,62.17,8.78,110.85,38.44,156.27,80.17,20.06,18.41,39,38,57.27,58.21,4,4.41,23.41,20.66,23.51,27-22.07-2-45.75,11.69-64.56,21.43-39.42,20.41-76.71,40.56-119.58,53.12-43.16,12.64-88.25,19.2-133.26,17.29-133-5.66-248.65-94-305.77-211.9C512.69,2276.05,498.41,2244,498.76,2214Z"/><path class="cls-14" d="M1135.39,2416.19c-57-15.36-115.7-23.39-174.35-21.29-29.35,1-58.77,2.85-88.46,3.24-7.42.07-14.85.1-22.3-.07s-14.8-.37-22.21-.67-14.82-.67-22.23-1.15-14.83-1.05-22.24-1.74c-14.82-1.46-29.64-3.33-44.36-6-7.37-1.34-14.67-2.81-22-4.53s-14.58-3.75-21.76-6a378.72,378.72,0,0,1-42.06-15.87,414.29,414.29,0,0,1-39.94-20.39c-25.82-15-50.14-32.75-71.48-53.7a223.51,223.51,0,0,1-15.2-16.48,179.69,179.69,0,0,1-13.35-18A125.28,125.28,0,0,1,503,2233.7a72.86,72.86,0,0,1-5.23-21.59,76.21,76.21,0,0,0,7.37,20.62A121.31,121.31,0,0,0,517,2251.08c8.79,11.6,19.19,21.89,30.11,31.49A340,340,0,0,0,581.79,2309q9.06,6.11,18.44,11.69t19,10.76a433.62,433.62,0,0,0,80.27,33.33c6.93,2.07,13.92,3.89,20.94,5.52s14.17,3,21.31,4.29,14.34,2.35,21.55,3.38,14.45,1.85,21.71,2.58c14.51,1.52,29.1,2.59,43.74,3.45,7.31.44,14.65.8,22,1.12s14.6.55,21.92.68c29.28.55,58.8-.22,88.41.67,7.4.19,14.8.51,22.21.85l5.56.25,5.56.36,5.55.38,5.54.47q22.15,2,44.08,5.63A568.11,568.11,0,0,1,1135.39,2416.19Z"/><path class="cls-14" d="M1494.44,1381.16l-1.17,116.36H1130.55c-8.1,0-10.27-11.16-2.77-14.2l356.53-109A7.37,7.37,0,0,1,1494.44,1381.16Z"/><path class="cls-15" d="M877.28,2125.89l-20.16,1.27V2179A63.05,63.05,0,0,0,916,2241.87l229.56,15,400.56-10.07-3.78-151.17-104.54-134.79-312.4,86.93Z"/><rect class="cls-15" x="1537.78" y="2130.93" width="1008.59" height="139.41" transform="translate(4084.15 4401.27) rotate(180)"/><rect class="cls-15" x="2526.22" y="2107" width="608.42" height="130.59" transform="translate(5660.85 4344.58) rotate(180)"/><rect class="cls-15" x="1537.78" y="2050.32" width="1626.68" height="85.65" transform="translate(4702.23 4186.29) rotate(180)"/><rect class="cls-13" x="1541.13" y="1024.44" width="1748.45" height="1030.54" rx="35.76" transform="translate(4830.72 3079.41) rotate(180)"/><path class="cls-7" d="M1617.84,2001.2h1595c18.72,0,33.89-16.88,33.89-37.73V1105.66c0-20.84-15.17-37.73-33.89-37.73h-1595c-18.71,0-33.89,16.89-33.89,37.73v857.81C1584,1984.32,1599.13,2001.2,1617.84,2001.2Z"/><g class="cls-16"><path class="cls-12" d="M3246.76,1153.35H1582.84v-8.63H3246.76Zm0,61.1H1582.84v8.63H3246.76Zm0,69.73H1582.84v8.63H3246.76Zm0,69.73H1582.84v8.63H3246.76Zm0,69.73H1582.84v8.63H3246.76Zm0,69.73H1582.84V1502H3246.76Zm0,69.73H1582.84v8.63H3246.76Zm0,69.74H1582.84v8.63H3246.76Zm0,69.73H1582.84v8.63H3246.76Zm0,69.73H1582.84v8.63H3246.76Zm0,69.73H1582.84v8.63H3246.76Zm0,69.73H1582.84v8.63H3246.76Z"/></g><path class="cls-4" d="M1489.8,1494.79H1065.36a21.62,21.62,0,0,0-19.86,13.08L885.21,1881.48a21.6,21.6,0,0,0-1.74,8l-5.61,214.28a21.61,21.61,0,0,0,21.6,22.17h244.08a21.6,21.6,0,0,0,12.81-4.21l126.77-93.35a21.6,21.6,0,0,1,13.62-4.18l147.21,5.57a21.6,21.6,0,0,1,17.58,10.26l46.41,75.36a21.6,21.6,0,0,0,17.77,10.26l13,.38a21.61,21.61,0,0,0,19.72-31.71l-32.52-61.38a21.67,21.67,0,0,1-2.51-9.61l-12-507.39A21.61,21.61,0,0,0,1489.8,1494.79Z"/><path class="cls-5" d="M1380.89,1786.08l1.64-1.35c1.6-1.32,39.34-32.87,41.44-72.74,1.88-35.79,1.3-121.68,1.27-125.32l-.07-10H1101.48l-90.25,313.14Z"/><path class="cls-7" d="M1415.17,1586.75H1109.06l-83.14,288.46,350.2-98.25s35.89-29.6,37.79-65.5S1415.17,1586.75,1415.17,1586.75Z"/><g class="cls-17"><g class="cls-18"><polygon class="cls-9" points="1166.44 1886.7 1131.91 1886.66 1228.9 1537.17 1263.42 1537.21 1166.44 1886.7"/></g><g class="cls-18"><polygon class="cls-9" points="1265.45 1883.68 1194.17 1883.64 1291.15 1534.16 1362.43 1534.2 1265.45 1883.68"/></g></g><path class="cls-11" d="M1174.14,2230a162.93,162.93,0,1,0,162.93-162.92A162.93,162.93,0,0,0,1174.14,2230Z"/><path class="cls-13" d="M1223.27,2230a113.8,113.8,0,1,0,113.8-113.79A113.8,113.8,0,0,0,1223.27,2230Z"/><path class="cls-15" d="M1244.27,2230a92.8,92.8,0,1,0,92.8-92.8A92.8,92.8,0,0,0,1244.27,2230Z"/><path class="cls-13" d="M1309.35,2230a27.72,27.72,0,1,0,27.72-27.72A27.72,27.72,0,0,0,1309.35,2230Z"/><path class="cls-11" d="M2576.59,2230a162.92,162.92,0,1,0,162.93-162.92A162.93,162.93,0,0,0,2576.59,2230Z"/><path class="cls-13" d="M2625.72,2230a113.8,113.8,0,1,0,113.8-113.79A113.8,113.8,0,0,0,2625.72,2230Z"/><circle class="cls-15" cx="2739.52" cy="2230.03" r="92.8" transform="translate(-441.43 693.95) rotate(-13.37)"/><path class="cls-13" d="M2711.81,2230a27.71,27.71,0,1,0,27.71-27.72A27.71,27.71,0,0,0,2711.81,2230Z"/><path class="cls-13" d="M2960.81,2262.57h-32.76s-3.14-212.89-190.84-208.48-188.95,216.66-188.95,216.66h-29s-15.11-240,217.3-244.37S2960.81,2262.57,2960.81,2262.57Z"/><rect class="cls-5" x="3111.97" y="2116.45" width="93.22" height="81.88" transform="translate(6317.15 4314.77) rotate(180)"/><rect class="cls-13" x="2981.38" y="2036.04" width="92.38" height="109.28" transform="translate(6055.14 4181.36) rotate(180)"/><rect class="cls-13" x="2334.74" y="2036.04" width="92.38" height="104.24" transform="translate(4761.86 4176.32) rotate(180)"/><rect class="cls-13" x="2007.22" y="2036.04" width="92.38" height="104.24" transform="translate(4106.81 4176.32) rotate(180)"/><rect class="cls-13" x="1679.7" y="2036.04" width="92.38" height="104.24" transform="translate(3451.78 4176.32) rotate(180)"/><polygon class="cls-9" points="1034.32 1535.1 1051.96 1541.39 912.13 1877.73 884.41 1879 1034.32 1535.1"/><rect class="cls-19" x="3184.18" y="2114.04" width="34.01" height="86.08" transform="translate(6402.37 4314.15) rotate(180)"/><path class="cls-4" d="M880.42,2012.42h0c38.59-12.7,78.3,16.11,78.19,56.74l-.09,32.7v24.77H876.64Z"/><rect class="cls-5" x="1385.76" y="1856.43" width="19.32" height="96.58" transform="translate(2790.84 3809.44) rotate(180)"/><rect class="cls-5" x="1370.86" y="1856.43" width="21.63" height="14.07" rx="4.27" transform="translate(2763.34 3726.93) rotate(180)"/><path class="cls-5" d="M1375.13,1938.73h13.09a4.26,4.26,0,0,1,4.26,4.26v5.53a4.27,4.27,0,0,1-4.27,4.27h-13.1a4.26,4.26,0,0,1-4.26-4.26V1943A4.27,4.27,0,0,1,1375.13,1938.73Z" transform="translate(2763.34 3891.53) rotate(180)"/><path class="cls-12" d="M2800.28,1638.24c-14.36,30.66-14.7,66.6-6.08,99.35,10.79,41,32.48,79.13,61.05,110.37,29.9,32.69,68.6,54,104.12,79.76,43.73,31.69,82.57,70.72,110.78,116.78,38.54,62.91,48.07,129.22,44.23,201.62-1.69,32-5.22,63.8-9.92,95.44-1,6.91-1.22,36.68-6.92,41.54-14.66-21.53-44.83-32.72-67.73-42.49-48-20.45-94.15-39.18-137.6-68.65-43.74-29.66-83.42-65.63-115.35-107.84-94.4-124.83-100.85-295.68-36.67-435.68C2754.49,1697.26,2772.89,1660.31,2800.28,1638.24Z"/><path class="cls-9" d="M3093.28,2366.51c-28.68-63.11-65.34-122.37-111.12-174-22.86-25.87-46.55-51.15-69.11-77.77-5.61-6.67-11.2-13.39-16.62-20.26s-10.73-13.69-16-20.63-10.48-13.94-15.59-21-10.14-14.23-15.06-21.47c-9.76-14.52-19.15-29.35-27.73-44.7-4.3-7.68-8.43-15.4-12.37-23.34s-7.51-16-10.87-24.19a449.05,449.05,0,0,1-17.08-50,485.09,485.09,0,0,1-11.38-51.46c-5.72-34.63-7.83-69.94-4.81-105q1.14-13.12,3.57-26.1a211,211,0,0,1,6.35-25.58,146.38,146.38,0,0,1,10.21-24.26,85.91,85.91,0,0,1,15.66-20.9,89.64,89.64,0,0,0-13.18,22.11,142.47,142.47,0,0,0-7.82,24.41c-3.93,16.64-5.49,33.77-6,50.84a400.32,400.32,0,0,0,2,51.24q1.26,12.78,3.2,25.46t4.45,25.25a509.94,509.94,0,0,0,29.83,97.69c3.31,7.83,6.89,15.52,10.67,23.11s7.86,15.1,12.05,22.52,8.6,14.77,13.05,22.06,9.14,14.48,13.91,21.61c9.47,14.3,19.41,28.32,29.59,42.23,5.07,6.95,10.24,13.88,15.42,20.76s10.42,13.64,15.78,20.37c21.41,27,44.19,53.13,65.53,80.64,5.37,6.85,10.61,13.79,15.85,20.77l3.93,5.22,3.83,5.31,3.8,5.31,3.72,5.38q14.82,21.54,27.88,44.17A666.9,666.9,0,0,1,3093.28,2366.51Z"/><path class="cls-14" d="M3923.39,2292.51c-12.09-25.83-11.81-59-3.76-90.67,10.08-39.73,29.65-78.69,55.14-112.47,26.67-35.35,60.87-61.75,92.35-91.68,38.76-36.83,73.36-79.59,98.76-127,34.71-64.76,44.08-127.62,41.86-193.79-1-29.2-3.57-58-7.18-86.39-.79-6.21-.49-33.66-5.41-37.16-13.16,22.43-39.72,38-59.92,51-42.3,27.2-83,52.47-121.47,87.22-38.73,35-74,75-102.61,119.54-84.56,131.59-92.88,290.42-38.92,408.55C3884.26,2246,3899.77,2276.87,3923.39,2292.51Z"/><path class="cls-7" d="M4191.17,1569.43q-8.23,23.8-18,47.09t-21,45.92q-11.31,22.59-24,44.5c-4.26,7.28-8.58,14.52-13.07,21.67s-9,14.27-13.6,21.33c-18.24,28.36-37.77,55.75-56.42,83.49-9.38,13.87-18.37,27.81-27.27,42s-17.64,28.39-26.08,42.77-16.63,28.85-24.23,43.61-14.95,29.66-21.34,44.82a574,574,0,0,0-30.19,94.46q-5.6,24.22-9,48.91c-.58,4.11-1.08,8.22-1.55,12.34s-.92,8.25-1.3,12.38c-.73,8.26-1.23,16.54-1.45,24.83-.3,16.55.08,33.21,2.91,49.52a125.51,125.51,0,0,0,6.21,24c2.91,7.73,6.84,15.19,12.57,21.38a51.29,51.29,0,0,1-8.59-9.3,74.38,74.38,0,0,1-6.59-10.94,129.71,129.71,0,0,1-8.74-24,214.87,214.87,0,0,1-4.71-25.12c-1.12-8.45-1.79-17-2.1-25.45-1.25-34,2.16-68.06,8.53-101.44,3.24-16.69,7.2-33.25,12-49.58a493.44,493.44,0,0,1,16.85-48.27c13.11-31.6,29.27-61.46,46.66-90.49q13.13-21.71,27-42.82c4.63-7,9.28-14.06,14.08-21s9.68-13.86,14.6-20.7c19.76-27.34,40.34-53.84,60.19-80.79a779.66,779.66,0,0,0,53.88-84.55q12.19-21.95,23.1-44.62T4191.17,1569.43Z"/><path class="cls-12" d="M4103,1110.66c-.38,12.91-2.83,26-7.25,40.53a349.88,349.88,0,0,1-18.59,46.86,654.75,654.75,0,0,1-33.47,61.06c-12.33,20.11-25.76,39.86-40,58.73-29.67,39.5-63.86,71-94.76,109.43-38,47.24-69.73,106.27-89.28,172.13a489,489,0,0,0-19.89,132.23c-.63,43.22,4.13,85.53,12.53,127.55a1090.78,1090.78,0,0,0,27.4,107.39c2.28,7.57,9.28,41.75,14.71,44.74,6-31.32,26.23-57.45,41.52-78.47,32-44,63.48-84.36,92.2-133.9a1187.39,1187.39,0,0,0,76.6-157.71,973.12,973.12,0,0,0,60-235.76c2.23-18.88,4.14-37.36,5.16-55.74,1.29-18.23,1.69-36.38,1.82-54.12,0-4.44-.06-8.91-.14-13.34s-.09-8.78-.23-13.18c-.38-8.86-.6-17.47-1.21-26.19-1-17.21-2.65-34.91-5.11-50.62-2.19-14.2-4.64-28.72-8.06-42.48S4109.29,1123,4103,1110.66Z"/><g class="cls-8"><path class="cls-13" d="M3853.77,1990.35c3.45-84.42,17.88-168.22,42.93-245.34,12.16-38.74,26.6-75.86,41-112.53,14.56-36.46,28.82-73.09,43.86-108.64q5.52-13.33,11.07-26.71c3.77-8.87,7.34-17.75,10.93-26.61,7.32-17.68,14.49-35.28,21.22-52.91,13.3-35.41,25.54-71.06,36.75-106.63,11.46-35.48,22.22-70.76,31.37-106.19,4.37-17.86,8.45-34.51,10.75-50.21a166.32,166.32,0,0,0,2-23,81.07,81.07,0,0,0-2.55-22.88,84.34,84.34,0,0,1,4.75,23.13,168.08,168.08,0,0,1-.28,23.5,422.67,422.67,0,0,1-7.61,51.28c-7.43,36.38-17.25,72.3-27.7,108.58-10.68,36.17-22.12,72.68-35.65,108.84s-28.44,71.75-43.53,107.55l-45.28,108.14c-15.32,36.14-30.42,72.46-44,109.85a833.21,833.21,0,0,0-32.64,117A1071.57,1071.57,0,0,0,3853.77,1990.35Z"/></g><path class="cls-14" d="M4043,1344c8.62-11.73,7.45-28.78-7.93-33.45-15.59-4.73-33.73.41-47.43,8.14-19.14,10.81-37.42,28.47-51.91,45.73a857.82,857.82,0,0,1,28.08-94.42c11.18.72,22.22.12,33.42,0,13.45-.15,27.05-.93,40-4.83,12.76-3.83,25.07-11.09,33-22,8.62-11.73,7.46-28.79-7.93-33.46-15.59-4.73-33.73.41-47.43,8.15-16.81,9.48-32.93,24.27-46.43,39.42a837.71,837.71,0,0,1,38.19-85.87c12.47,1.18,24.73.39,37.18.25,13.45-.15,27.06-.93,40-4.82,12.75-3.84,25.06-11.1,33.05-22,8.61-11.73,7.45-28.78-7.94-33.45-15.58-4.73-33.72.4-47.42,8.14-19,10.72-37.16,28.2-51.59,45.35a800,800,0,0,1,87-132.18c9-4.35,17.44-9.47,26.22-14.29,11.79-6.47,23.42-13.56,33-23.11,9.44-9.39,16.88-21.6,18.8-34.94,2.07-14.41-7-28.9-22.77-25.77-16,3.18-29.55,16.26-38,29.54-11.74,18.47-19.52,42.53-24.17,64.51q-25,30.87-46.76,64.11c.82-1.69,1.62-3.39,2.46-5.09,6-12.06,11.42-24.54,13.82-37.86,2.36-13.11,1.46-27.37-4.61-39.4-6.56-13-22.29-19.69-33.42-8.08-11.28,11.75-14.91,30.25-14.22,46,1,23.46,9.49,49.6,19.1,71.19a831.71,831.71,0,0,0-41.07,77.46c.8-6.29,1.41-12.59,2.22-18.92,1.69-13.35,2.78-26.93.69-40.3-2.06-13.16-7.57-26.35-17.24-35.74-10.44-10.14-27.49-11.32-34.22,3.28-6.82,14.8-4.21,33.47,1.58,48.1,8.38,21.16,24.15,42.38,39.8,59.39a855.31,855.31,0,0,0-34.86,93.54c-.64-10-2.18-19.77-3.33-29.72-1.53-13.37-3.71-26.82-8.93-39.3-5.13-12.3-13.62-23.79-25.25-30.61-12.56-7.36-29.4-4.44-32.46,11.35-3.09,16,3.89,33.5,13,46.33,13.6,19.15,34.88,36.51,54.67,49.44-7,23.42-31.44,128.22-36.4,152.15,2.45,1.08,4.88,2.21,7.29,3.36,1.2-5.91,21-92.87,22.34-98.74,11.94,1,23.71.27,35.64.14,13.46-.15,27.06-.92,40-4.82C4022.65,1362.09,4035,1354.83,4043,1344Z"/><path class="cls-5" d="M2925,1927.15c-6.83-12.12-3.77-28.18,11.37-30.85,15.34-2.7,32,4.26,44.09,13.17,16.93,12.46,32.26,31.32,44,49.37A817,817,0,0,0,3008.7,1866c-10.69-.6-21.11-2.43-31.72-3.83-12.75-1.69-25.58-4-37.43-9.17-11.67-5.1-22.53-13.41-28.86-24.64-6.83-12.12-3.77-28.18,11.37-30.84,15.34-2.71,32,4.25,44.09,13.16,14.87,10.94,28.48,26.82,39.56,42.75a800.47,800.47,0,0,0-26.41-85.89c-12-.31-23.52-2.47-35.32-4-12.76-1.68-25.58-4-37.44-9.17-11.67-5.1-22.52-13.41-28.85-24.63-6.84-12.13-3.78-28.18,11.36-30.85,15.34-2.7,32,4.25,44.09,13.17,16.81,12.36,32,31,43.77,49a764.72,764.72,0,0,0-67.42-135.46c-8-5.15-15.47-11-23.24-16.56-10.46-7.5-20.69-15.57-28.7-25.73-7.89-10-13.55-22.44-13.84-35.33-.32-13.91,9.95-26.63,24.56-21.85,14.81,4.85,26.2,18.83,32.68,32.4,9,18.88,13.66,42.62,15.55,64q20.16,32.17,37,66.23c-.57-1.7-1.14-3.41-1.74-5.11-4.28-12.14-8-24.61-8.78-37.53-.73-12.71,1.76-26.16,8.9-36.88,7.71-11.59,23.41-16.13,32.65-3.84,9.36,12.45,10.68,30.44,8.22,45.28-3.67,22.15-14.69,46-26.3,65.39a796,796,0,0,1,30.11,78.24c0-6,.1-12.11.07-18.21-.08-12.87.45-25.88,4-38.34,3.46-12.25,10.21-24.14,20.46-32,11.08-8.43,27.4-7.59,32.12,7,4.77,14.83.15,32.26-7,45.48-10.37,19.12-27.78,37.47-44.59,51.82a819.61,819.61,0,0,1,22.37,92.79c1.74-9.39,4.34-18.51,6.56-27.83,3-12.51,6.61-25,13-36.29,6.28-11.08,15.66-21,27.48-26.15,12.77-5.55,28.42-.84,29.51,14.49,1.11,15.54-7.53,31.36-17.65,42.49-15.11,16.62-37.3,30.67-57.57,40.67,3.94,23,15.14,125.33,17.11,148.62-2.45.74-4.89,1.53-7.31,2.35-.46-5.75-9.29-90.57-9.89-96.31-11.44-.44-22.53-2.45-33.85-4-12.75-1.68-25.58-4-37.43-9.16C2942.23,1946.68,2931.37,1938.38,2925,1927.15Z"/><rect class="cls-7" x="3006.9" y="557.38" width="932.84" height="1849.4"/><rect class="cls-4" x="2882.7" y="2361.71" width="1163.95" height="96.31"/><rect class="cls-4" x="2789.81" y="2454.01" width="1256.8" height="94.01"/><rect class="cls-4" x="3129.24" y="1017.72" width="706.5" height="1344.37"/><rect class="cls-15" x="3167.58" y="1054.75" width="631.89" height="1307.89"/><rect class="cls-11" x="3167.58" y="1065.18" width="506.69" height="1297.45"/><path class="cls-11" d="M3706.88,1648.29a19.56,19.56,0,1,0,19.56-19.56A19.57,19.57,0,0,0,3706.88,1648.29Z"/><path class="cls-20" d="M3387.22,1519.22l-10.89,23.53S3374.56,1554.27,3387.22,1519.22Z"/><g class="cls-21"><path class="cls-15" d="M3599.67,2062.88c4.67-34.94,6.13-96.71-6.74-202.71l4.64-1.38s-18.37-126.11-27.13-165.23c-6.41-28.61-29.12-58.78-44.45-72.93h0c-1.75-1.62-3.41-3-4.93-4.2l-.08-.06-.79-.59-.17-.12-.67-.48-.22-.15-.59-.39-.24-.16-.53-.33-.26-.16-.48-.27-.26-.15-.44-.22-.26-.13a3.52,3.52,0,0,0-.4-.18l-.25-.11-.37-.15-.24-.08-.35-.11-.21-.06-.35-.07a.86.86,0,0,1-.17,0l-.29,0,0,0c-11.69-12.48-51.57-18.29-51.57-18.29s.08.84.22,2.39c-4.24-7-7.38-16.62-5.66-29.09l61.87,3.77a126.91,126.91,0,0,0,9.11-26.51l2,25.4s7.85-21.37,2.79-60c-.09-.69-.19-1.36-.28-2,.7-33.44-7.82-68.86-31.1-90.87-15-20.71-39.91-26.21-60.93-26-30.11-2.59-63.75,8.89-78.54,60A439.75,439.75,0,0,0,3339,1504c-2,5.7-3.73,10.61-5.27,14.85l22.95-49.47c-15.15,60.31-20.47,90.69-20.47,90.69l50.84,3.1.23.3a8.71,8.71,0,0,0,2.32,2,55,55,0,0,0,0,9.87c-1.08,12.68-2.11,24.61-2.65,30.8a28.6,28.6,0,0,1-1.56-3.29c.86-4.84,1.36-7.55,1.36-7.55l-5.85-1.67h0s-17.75-.12-30.89,10.82c-26.39,22-39.46,88.34-44.42,120.9h0c-1.48,9.76-2.24,16.48-2.41,18v.1c0,.16,0,.26,0,.26-.55,2.31-91.5-68.43-91.5-68.43l-2.84-3.71c-2.73-7.28-9.38-24-12.56-23.35a29.64,29.64,0,0,0-4.49,1.52c-13.67-17.15-29.68-36.27-31.56-34.23-4.86,5.25,13.77,33.52,13.77,33.52a9.53,9.53,0,0,1-4.86,4.85c-3.64,1.61-5.67,4-6.89,8.88s-6.07,7.68-6.88,10.5,20.87,32.77,31.14,40.18c0,0,94,143.34,130.48,146l-.21.14-.11.07a4.32,4.32,0,0,1-.73.33,3.69,3.69,0,0,1-2.21,0,15.06,15.06,0,0,0,1.71,3.46h0a19.09,19.09,0,0,0,2.06,2.56l.13.14c.21.22.43.43.65.64l.24.23.66.57.29.25.18.15c-7.71,51.49-18,104.36-18,104.36a120.66,120.66,0,0,0,23.4,7.45c-7.29,116.28,6.74,238.86,21.23,381.85h272.66C3601.59,2227.2,3604.16,2121.73,3599.67,2062.88Z"/><path class="cls-15" d="M3625.5,2453.68a206.68,206.68,0,0,1-32.66-91.32H3327.56c.13,5.25.24,10.58.3,16,.29,25.93,5.35,42.88-17.4,76.11C3312.8,2454.58,3622.12,2454,3625.5,2453.68Z"/><polygon class="cls-15" points="3629.48 2549.76 3629.16 2549.34 3620.38 2508.49 3609.79 2451.94 3539.02 2451.94 3586.13 2549.76 3629.48 2549.76"/><polygon class="cls-15" points="3427.89 2549.76 3433.22 2451.94 3354.95 2451.94 3366.8 2549.76 3427.89 2549.76"/><path class="cls-15" d="M3586.26,2548.06h43.54l-27.29,50.47c-2.41,5-11.41,11-21.88,14.6-17,5.75-38.8,17.24-45.44,17.4-12,.31-16.5-11.27-22-15.61-3.65-2.91-4.19-7.18,3.24-12.77l66.68-50.17ZM3203,2612.89l84,.65a21.88,21.88,0,0,0,8.16-2.19l26.8-12.43c7.74-3.59,11.91-3.88,5.33-.07l-16.54,12c-3.27,1.89,17.92,1.37,20.92-.35,18.62-10.67,73.5-45.56,87.41-55.28,1.68-1.17,2.15-2.14,1.33-2.58l7.92-4.58h-61l-22.41,14.23c-1.13-.29-3.41,0-6.12.88l-130,44.14C3202.45,2609.37,3198.84,2612.86,3203,2612.89Z"/></g><path class="cls-4" d="M3266.48,676.63c0-123.5-103.95-222.73-229.13-214.95-110.69,6.88-199.28,99.5-201.58,210.38a214.46,214.46,0,0,0,53.67,146.81c43.36,49.22,85,99.93,121.28,154.59l40.38,60.87L3079.89,991c39-58.84,80.86-116,129-167.74A214.45,214.45,0,0,0,3266.48,676.63Z"/><circle class="cls-12" cx="3051.1" cy="676.63" r="115.88"/><path class="cls-22" d="M2981.22,1476.19s108.09,165.35,137.44,144.64c0,0,47.26-24.11,30.33-121.16,0-9.42-.08-16,.25-17.43,0,0,7.28-95.82,23-115.66,1.73-2.18,6.95-6.23,6.25-6.4-48.1-12-67.37,90.43-80.63,146.38-.55,2.31-91.5-68.64-91.5-68.64s-48.1-63.59-51.45-60c-4.86,5.27,13.77,33.63,13.77,33.63a9.53,9.53,0,0,1-4.86,4.86c-3.64,1.62-5.67,4-6.89,8.91s-6.07,7.7-6.88,10.53S2971,1468.76,2981.22,1476.19Z"/><path class="cls-22" d="M3004.77,1437.51s-10.23-28.21-14.28-27.4-20.73,11.6-22.9,16.09c1.24,4.79,16.82,2.9,16.82,2.9s-2.12,18.75,4.53,19.37C2996.87,1449.21,3004.77,1437.51,3004.77,1437.51Z"/><path class="cls-23" d="M2984.58,1412.9l-1.17,1-1.19.95-2.37,1.93-4.79,3.73c-.79.63-1.59,1.25-2.4,1.85a20,20,0,0,0-2.15,1.8,3.64,3.64,0,0,0-1.06,1.69,1.14,1.14,0,0,0,.58,1.11,7,7,0,0,0,2.18,1.06,15,15,0,0,0,2.65.56,33.62,33.62,0,0,0,5.78.07l1.55-.1a3.32,3.32,0,0,1,2.22.56,2.15,2.15,0,0,1,.78,1.27,3.45,3.45,0,0,1,0,1.07l-.25,1.51-.57,3-.29,1.5-.35,1.5h-.18l.43-6.07.11-1.52a1.3,1.3,0,0,0-.4-1.26,2.15,2.15,0,0,0-1.38-.23l-1.51.19a29.59,29.59,0,0,1-6.1.22,14.9,14.9,0,0,1-3-.57,8.84,8.84,0,0,1-2.79-1.33,3.47,3.47,0,0,1-1-1.24,2.78,2.78,0,0,1-.19-1.59,5,5,0,0,1,1.62-2.63,18.63,18.63,0,0,1,2.42-1.87l2.5-1.73q5-3.43,10.25-6.58Z"/><path class="cls-24" d="M3175.65,1356s-17.75-.12-30.89,10.85c-35.48,29.64-46.87,139.75-46.87,139.75s13.89,13.46,18.07,23.06,7.93,98.1-7.52,93.51c4.18,12.52,26.3,18.79,35.07,12.11C3147.27,1601,3151.44,1418.16,3175.65,1356Z"/><path class="cls-25" d="M3113.45,1494.55c-1.92,6.7-10.47-4.88-13.11-6.47-1.7,11.24-2.45,18.48-2.45,18.48s13.89,13.46,18.07,23.06a36,36,0,0,1,1.63,7.89l.06.43c0,.35.09.71.13,1.08,0,.18,0,.35.07.54.05.48.11,1,.16,1.49,0,.14,0,.3,0,.44.05.42.09.85.13,1.28l.06.56c.05.55.1,1.12.15,1.69,0,.16,0,.32,0,.48,0,.49.09,1,.13,1.49,0,.17,0,.33,0,.5,0,.62.09,1.26.14,1.9l0,.47.12,1.72c0,.14,0,.28,0,.42,0,.7.09,1.4.13,2.11,0,.14,0,.28,0,.42,0,.64.07,1.29.1,2,0,.11,0,.22,0,.33,0,.75.07,1.5.1,2.25,0,.14,0,.29,0,.43,0,.7.05,1.4.08,2.11,0,.09,0,.17,0,.26,0,.78,0,1.57.07,2.37,0,.13,0,.27,0,.41,0,.76,0,1.53.06,2.3v.13c0,.81,0,1.63.05,2.46v.4c0,1.64,0,3.29,0,5,0,.14,0,.29,0,.43,0,1.65,0,3.29,0,4.93,0,.15,0,.31,0,.47,0,1.62-.07,3.24-.12,4.85,0,.16,0,.32,0,.48,0,.8-.06,1.59-.09,2.38v.1c0,.75-.08,1.49-.11,2.22l0,.53c0,.75-.09,1.5-.14,2.24,0,.11,0,.21,0,.31,0,.65-.09,1.3-.14,1.94,0,.18,0,.37,0,.56l-.18,2.09c-1.21,13.15-3.68,23.29-8,24.71-.16,1.16-.32,2.32-.49,3.49,6.66,10.14,25.45,14.66,33.36,8.63,3.76-34.23,7.93-217.08,32.14-279.28C3175.65,1356,3143.93,1388.52,3113.45,1494.55Z"/><path class="cls-22" d="M3181.31,1373c-.81,44.41,89.3.11,89.3.11s-27-15.73-18.09-50.14c2.36-9.12,4.22-17.16,6.38-23.43h-71.44C3185.87,1320.65,3181.31,1373,3181.31,1373Z"/><path class="cls-23" d="M3185.56,1318.43s45.74-1.28,58.73-2.12S3172.23,1396.36,3185.56,1318.43Z"/><path class="cls-22" d="M3269.9,2331.77l-18.18,218.33s-16,46.89-30.81,28.74-29.51-27.75-29.51-27.75L3177.59,2329Z"/><path class="cls-22" d="M3219.91,2326.19l.38,251.9.11.13a74.9,74.9,0,0,0,15.94.4c6.14-6.32,11.27-17.92,13.76-24.2-.11-.19-.2-.38-.31-.58l3.94-67.21,16.17-154.86Z"/><path class="cls-22" d="M3348.43,2346.93l73.87,204.75s16.74,14.69,22.79,14.31c11-.69,16.76-19.67,16.76-19.67l-29.68-211.94Z"/><path class="cls-22" d="M3384.25,2311.11,3447.38,2579s31.55,8.33,14.11-23.09l-27.64-236.53Z"/><path class="cls-26" d="M3186.51,2550.72l-59.22,48c-3,2.25-.87,6,3.46,6.07l87.43.71a5.1,5.1,0,0,0,4.69-2.38l6.6-13.52c1.9-3.9,5.7-4.22,5.35-.08l3.23,13c-.18,2.06,20.72,1.49,20.91-.38,1.15-11.6-1.27-49.55-3.35-60.12-.3-1.51-1.85-2.73-3.92-3h0a5.94,5.94,0,0,0-4.89,1.35c-5.9,5.71-24.77,22.89-34.82,19.41-6.74-2.33-15.47-6.51-18.19-8.91A6.23,6.23,0,0,0,3186.51,2550.72Z"/><path class="cls-26" d="M3459.91,2532.86l33.63,56.33c3.59,5.48,1.6,12-4.89,15.87-10.52,6.26-19.11,18.75-25.73,18.93-12,.33-30.54-12.26-41.37-17-7.27-3.17-13-7.81-12.06-13.89l8.36-56.5c.1-.7,1.33-1,1.94-.41l12.88,11.68c4.22,3.82,15.66,3.31,18.51-1.27,2-3.27,6.79-13.81,6.79-13.81A1.31,1.31,0,0,1,3459.91,2532.86Z"/><path class="cls-27" d="M3327.07,1606.07c25.52,45.12,48,129.65,62.69,187,17,66.52-11,304.47,82.66,604.81-21,5-311.06,11.24-323.76,9.64,13.78-103.32,5-150.81-2.75-231.45-21.51-222.55-47.34-395.33-6.89-566.24C3190.78,1607.75,3275.77,1604.54,3327.07,1606.07Z"/><g class="cls-28"><path class="cls-29" d="M3255.12,2407.8c.58-41.84,2.63-200.34,1.34-255.56-1.48-63.85,53.46,212.34,72.76,236.1a27.18,27.18,0,0,1,5.82,17.4C3308.74,2406.52,3281.12,2407.22,3255.12,2407.8Zm134.64-614.71c-7.82-30.61-17.88-68.94-29.43-104.9,11.09,42.23,21.47,103.1,12.37,164.22-16.46,110.59,8.83,289,14.93,342.32,5.21,45.6,46,170.22,57.82,205.56,14.07-.8,23.73-1.61,27-2.39C3378.74,2097.56,3406.77,1859.61,3389.76,1793.09Z"/></g><g class="cls-28"><path class="cls-30" d="M3150.63,1668.51l210,214.13s1.16-137.16-35.85-224.14Z"/></g><path class="cls-31" d="M3178.52,1360.18c1.48,4.47-55.63,141.57-53.87,185.43,1.77,44.18,1,107.38-.88,114,0,0,52.25,38.19,203.3,8.41,46.43-50.86,5.64-223.74-10-278.48,0,0-44.33-26.17-57.13-27.35C3260,1362.21,3189.79,1406.17,3178.52,1360.18Z"/><g class="cls-8"><path class="cls-25" d="M3361.53,1695.38s31.46,14.6,7.15,103.8c-1.29,4.72-2.4,10.1-1.44,14.9l5.46,38.33c.82,4.11,1.37,9.62-2.11,11.94-4.36,2.9-29.2,25.72-32.22,26.73-6.14,2.05.56-28.26-.44-44.22-.18-2.84-.86,10.11-1.24,15.77l-.75,12.46c-7.43-3.39-7.28-17.71-8.44-22.53-1.55-6.46-.29-10.6.46-12.17,3.39-7.06,9.86-21.1,10.86-33.7.6-7.42-4.6-35-8.9-86.25Z"/></g><path class="cls-22" d="M3365.54,1478.29c58.33,325.78,20.44,387.65,16.62,390.19-4.78,3.18-32,28.2-35.32,29.3-6.72,2.24.62-31-.48-48.47-.2-3.11-.94,11.08-1.35,17.29l-.83,13.66c-8.14-3.73-8-19.41-9.25-24.7-1.7-7.08-.31-11.62.51-13.34,3.72-7.74,10.8-23.13,11.9-36.93.65-8.14-54.63-272.71-64.35-311.59-13.2-52.83,3.42-113.51,22-115.56C3328.08,1375.59,3360.71,1451.31,3365.54,1478.29Z"/><polygon class="cls-11" points="3344 1792.3 3398.66 1787.39 3398.45 1810.66 3346.14 1809.6 3344 1792.3"/><path class="cls-5" d="M3382.46,1814l-22.51-1.65a5.74,5.74,0,0,1-5.27-5.66v-13.58a5.74,5.74,0,0,1,5.27-5.66l22.51-1.65c3.93-.28,7.24,2.34,7.24,5.87v16.47C3389.7,1811.65,3386.39,1814.27,3382.46,1814Z"/><path class="cls-24" d="M3308,1374.74s-16.7,30.48-14.2,96.44,18.79,174.49,18.79,174.49l79.73-23.79s-18.37-126.49-27.13-165.73S3317.17,1374.74,3308,1374.74Z"/><path class="cls-25" d="M3318.42,1512.92c-2.67-66.19.81-113.64,2.3-129.92-5.63-5.21-10.27-8.26-12.73-8.26,0,0-16.7,30.48-14.2,96.44s18.79,174.49,18.79,174.49l11.41-3.4C3322.92,1619.08,3320.78,1571.19,3318.42,1512.92Z"/><path class="cls-20" d="M3131,1322.25s6.13-35.08,23.94-104.69c25-97.6,114.71-60.69,133.64-44.54,47.33,35.08,44.55,119.16,24.5,160.36Z"/><path class="cls-20" d="M3275.71,1236.58l.27-2.32c-23.85-2.77-44.39-15.8-53.59-34-10.81-21.38-1.6-40.52,1.48-45.88l-2-1.17c-3.23,5.62-12.88,25.68-1.54,48.1C3229.85,1220.21,3251.08,1233.73,3275.71,1236.58Z"/><path class="cls-22" d="M3258,1157.23c-43.49-12-73.25,11.13-84.25,51,0,0-4.07,28-4.55,30.12-.06.27-21.1,43.48,12.88,87.3,1.91,2.47,5,3.5,8.13,4.33,65.12,17.27,74.47-47.65,74.47-47.65,1.4-3.14,32-32.69,32.95-36.09C3308.6,1206.37,3301.46,1169.22,3258,1157.23Z"/><path class="cls-20" d="M3199.5,1182.21l-3.19,40s53.83,10.22,76.4,19.21c0,0-16.76,28.08-5.5,33.38,0,0,45.73,2.11,41.46-56s-48.92-67.77-80.4-65.65-66,34.37-69.08,65.51l25.49,3.65S3191.43,1190.55,3199.5,1182.21Z"/><path class="cls-32" d="M3201.46,1291.41a24.26,24.26,0,0,1-8.45-2.22l1.11-2.11c.56.29,13.91,7,31.35-5.32l1.37,2C3216.6,1291,3207.6,1292,3201.46,1291.41Z"/><path class="cls-20" d="M3225.56,1224.35c3.38-2.78,17.81,5.51,18.39,6,4.4,3.31,2.37,6.32,1.56,7.3-.48.57-2.12-.58-6.35-2.18-9-3.4-13.15-2.55-14.55-5.62A5,5,0,0,1,3225.56,1224.35Z"/><path class="cls-20" d="M3194.18,1220.43c-1.71-3.17-14.45-.91-15-.75-4.39,1.16-4.6,3.68-4.28,4.68.18.58,1.79.21,5.51.3,7.93.2,10.82,2.12,12.84.21A4,4,0,0,0,3194.18,1220.43Z"/><path class="cls-32" d="M3194.75,1270.42c-.23-.1-5.72-2.72-6.26-7.85-.41-3.92,2.19-8,7.75-12.25l1.44,1.9c-4.77,3.61-7.12,7.1-6.82,10.09.4,3.78,4.86,5.93,4.9,6Z"/><path class="cls-22" d="M3297.87,1283c-4.11,12.82-16.83,20.2-28.41,16.48s-17.63-17.11-13.51-29.93,16.83-20.2,28.4-16.48S3302,1270.17,3297.87,1283Z"/><path class="cls-32" d="M3278.59,1283.67c-1.23-3.43-7.45-5.11-9.74-5.47l-1.51-.24.6-1.41c2.32-5.48,5.48-8.9,9.39-10.15a12.11,12.11,0,0,1,9.37,1.06l-1.25,2a9.92,9.92,0,0,0-7.42-.81c-2.89.94-5.34,3.45-7.29,7.47,2.8.67,8.6,2.54,10.1,6.71Z"/><path class="cls-23" d="M3265.09,1282.45a123.76,123.76,0,0,0,2-21.39,27.64,27.64,0,0,0-15.21,52.13C3262.69,1299,3265.09,1282.45,3265.09,1282.45Z"/><path class="cls-23" d="M3166,1247.21a86.36,86.36,0,0,0-.64,45.08,27.62,27.62,0,0,0,.64-45.08Z"/><path class="cls-32" d="M3233.87,1250.62c-.84,2.84-2.87,4.75-4.53,4.26s-2.31-3.2-1.47-6,2.87-4.76,4.53-4.27S3234.72,1247.77,3233.87,1250.62Z"/><path class="cls-32" d="M3185,1242.43c-.77,2.59-2.62,4.33-4.13,3.88s-2.11-2.91-1.34-5.5,2.62-4.33,4.13-3.89S3185.74,1239.84,3185,1242.43Z"/><path class="cls-33" d="M3236.68,1159.07c-1.58-.5,18.26.4,35.5,9.44,22.06,11.57,33.2,33.11,31.64,34.6-1.19,1.14-11.29-8.28-13.37-6.34-1.43,1.33,2.27,6.79,1.2,7.59-1.92,1.43-15.6-15.12-18.25-13.32-1.17.8.89,4.42-.26,5.28-2.18,1.64-11.06-10-24.94-19-12.7-8.27-23.33-10.34-23-11.36.56-1.87,35.82,7.72,36.29,6.12C3261.88,1170.68,3252,1163.91,3236.68,1159.07Z"/><path class="cls-20" d="M3118,1308a2.51,2.51,0,0,1-.61-.1c-1.89-.47-1.52-2.9-1.39-3.7l1.3.21c1.11-1.82,4.59-9.18,14.92-38.92,18.24-52.51,42.28-88,42.52-88.38l2.77,1.9c-.24.35-24,35.52-42.12,87.58C3122.24,1304.32,3119.74,1308,3118,1308Z"/><path class="cls-20" d="M3325.78,1332.85l-3.16-1.15c.08-.22,7.64-21.59,2.7-59.35-4.4-33.65-11.52-51.76-11.59-51.94l3.12-1.24c.3.74,7.34,18.62,11.8,52.75C3333.71,1310.58,3326.11,1332,3325.78,1332.85Z"/><path class="cls-24" d="M3181.5,1357.63s-12.53,68.46-21.29,133.17-3.76,241.7-7.1,250c-20.45,11.69-56.77-5-56.77-5s26.3-135.25,26.3-184.09.41-58,11.27-92.68S3175.65,1356,3175.65,1356Z"/><path class="cls-24" d="M3256.64,1356.38s39.88,5.82,51.57,18.35c-10.44,5.84,19.4,346.5,19.4,346.5s-18.37,25-61.79,17.54c-.41-38.41,2.09-158.64-.41-245.47C3263.66,1432.77,3256.64,1356.38,3256.64,1356.38Z"/><rect class="cls-4" x="1664.77" y="1878.06" width="270.83" height="389.98"/><rect class="cls-34" x="1856.87" y="1878.06" width="268.44" height="389.98"/><rect class="cls-35" x="1956.32" y="1878.06" width="69.55" height="217.08"/><rect class="cls-11" x="1830.47" y="2247.75" width="270.83" height="264.64"/><rect class="cls-5" x="1907.85" y="2247.75" width="268.45" height="264.64"/><rect class="cls-11" x="2079.21" y="2456.13" width="84.9" height="37.9"/><rect class="cls-36" x="1920.71" y="2458.13" width="69.64" height="42.08"/><rect class="cls-4" x="1299.33" y="2100.65" width="421.37" height="411.74"/><rect class="cls-13" x="1419.72" y="2100.65" width="417.66" height="411.74"/><path class="cls-9" d="M1684.58,2206.59H1572.52V2100.65h112.06Zm0,199.85H1572.52v105.95h112.06Z"/><rect class="cls-11" x="1035.29" y="2294.74" width="270.83" height="264.64"/><rect class="cls-14" x="1112.67" y="2294.74" width="268.45" height="264.64"/><rect class="cls-13" x="1210.88" y="2294.74" width="72.03" height="68.09"/><rect class="cls-13" x="1210.88" y="2491.29" width="72.03" height="68.1"/><rect class="cls-9" x="1125.53" y="2505.12" width="69.64" height="42.08"/><rect class="cls-11" x="1746.4" y="2358.64" width="196.56" height="192.07"/><rect class="cls-4" x="1802.56" y="2358.64" width="194.83" height="192.07"/><rect class="cls-13" x="1873.83" y="2358.64" width="52.28" height="49.42"/><rect class="cls-13" x="1873.83" y="2501.28" width="52.28" height="49.42"/><rect class="cls-7" x="1811.89" y="2511.32" width="50.54" height="30.54"/><path class="cls-27" d="M2385.14,1557.34s77,158.52,151.23,143.53c60.94-12.31,102.62-218.16,102.62-218.16l-38.16-10.77-63.9,113.55-97.35-173.67S2382.77,1516.31,2385.14,1557.34Z"/><path class="cls-37" d="M2526,1540.33s-16,28.9-35.52,58.81c-13.68,21-29.08,42.41-41.92,54.78v-5.41S2419.6,1543.86,2427,1459c1.74-20,5.51-39,12.16-55.17Z"/><path class="cls-23" d="M2536.45,1586.8a304.59,304.59,0,0,1-2.63,40.71c-.2,1.57,2.27,1.56,2.48,0a306.25,306.25,0,0,0,2.62-40.71,1.24,1.24,0,0,0-2.47,0Z"/><path class="cls-23" d="M2536.38,1600.27l-10.19,14.92c-.9,1.32,1.25,2.56,2.14,1.25l10.19-14.92c.89-1.32-1.25-2.55-2.14-1.25Z"/><path class="cls-38" d="M2490.46,1599.14c-13.68,21-29.08,42.41-41.92,54.78v-5.41S2419.6,1543.86,2427,1459c6.19-12.74,10.38-20.89,10.38-20.89s27.76,27.76,30.44,75.21C2469.82,1549.18,2472.87,1572.77,2490.46,1599.14Z"/><polygon class="cls-27" points="2182.53 2486.14 2182.53 2602.65 2227.79 2606.25 2249.94 2496.88 2182.53 2486.14"/><polygon class="cls-27" points="2384.19 2486.14 2384.19 2598.17 2429.44 2601.78 2451.6 2496.88 2384.19 2486.14"/><path class="cls-39" d="M2377.86,2566.83s-5.36-39.44-4.44-43.13,31.7,6.17,47.91,5.82,24.77-6.65,24.77-6.65,3.71-.25,4.89,1.83-1.25,22.28-1.25,22.28l-18.45,37.1Z"/><path class="cls-40" d="M2545.09,2636.08s-180.24-1.75-181.09-1.48c-1,9.4.64,21.46,1.95,28.94.28,3.56.76,6.07,1.38,7a1.23,1.23,0,0,0,.18.22.35.35,0,0,0,.1.08l1.17.09.3,0,.51,0h0c28.09,6.38,142.33,5.19,142.76,5.13,26.88-3.47,33.16-13.17,33.57-13.84h0v0a5.67,5.67,0,0,0,.84-3C2547.64,2656.19,2545.09,2636.08,2545.09,2636.08Z"/><path class="cls-41" d="M2544.82,2632.59l0,.47a2.29,2.29,0,0,1,0,.25l0,.31v.13l0,.19c0,.06,0,.1,0,.15v.31c0,.07,0,.14,0,.2v.83a.37.37,0,0,1,0,.11l0,.2v.07l0,.15v.12a5.53,5.53,0,0,1-.83,3v0h0c-.41.67-6.69,10.38-33.57,13.85-.43.05-.88.11-1.34.15l-.14,0-.2,0-.6.06-.52,0-.72.07h0l-.4,0-2.65.18h-.35l-.7,0h-.07l-4.25.16h-.92l-1.2,0h-.4l-1.17,0h-2.75c-38.79.26-111.27-5-124.33-6h0l-.51,0-.3,0-1.17-.09a.23.23,0,0,1-.1-.07,1.31,1.31,0,0,1-.18-.23c-.92-1.38-1.54-6.19-1.62-12.8,0-1.73,0-3.57.05-5.52a157.64,157.64,0,0,1,2-20.52c2.71-16.18,10.36-56.36,10.36-56.36,43.28,14.61,73.34-5.22,73.34-5.22s21.16,46.43,54.37,55.07c.46.13.93.24,1.4.35s.93.22,1.4.32c.94.21,1.89.4,2.84.57.5.09,1,.17,1.45.27s.85.16,1.27.26h.08l1.29.28c1,.22,1.9.46,2.8.7l.94.26c1.2.34,2.34.7,3.43,1.08.26.08.52.18.78.27l.5.19,1,.36.87.36.76.33c1.37.59,2.64,1.21,3.82,1.86l.65.37c.5.29,1,.57,1.43.86l.59.38c.39.26.77.52,1.13.78l.54.39.59.44.45.36.49.4a29.27,29.27,0,0,1,3,2.91l.38.42c.25.28.49.57.72.85l0,0,.63.82a27.37,27.37,0,0,1,2.91,4.86c.11.22.21.45.3.67l.18.41c.34.83.63,1.64.87,2.42l.07.2.06.2,0,.09,0,.11.05.2,0,.2.06.2.05.19.05.19,0,.2,0,.19h0l.09.36,0,.19c0,.13.05.24.07.36h0l0,.18,0,.14a.09.09,0,0,0,0,0h0l0,.17,0,.18,0,.17,0,.17.07.43v.08l0,.16,0,.33,0,.16,0,.31,0,.16Z"/><path class="cls-42" d="M2402.51,2603.45c-15.77-9.92-28.42-10.91-33.66-10.8-1.12,6.15-2.12,11.8-2.81,15.91a157.64,157.64,0,0,0-2,20.52c-.06,2-.08,3.79-.05,5.52.08,6.61.7,11.42,1.62,12.8a1.31,1.31,0,0,0,.18.23.23.23,0,0,0,.1.07l1.17.09.3,0,.51,0h0c6.86.52,30.13,2.22,56.29,3.68C2425.46,2640.3,2424.8,2617.48,2402.51,2603.45Z"/><path class="cls-9" d="M2442.21,2597.87a2.3,2.3,0,0,1-2.05-3.33c8.8-17.36,29.88-20.93,30.78-21.08a2.29,2.29,0,0,1,.73,4.53c-.21,0-19.69,3.38-27.42,18.62A2.28,2.28,0,0,1,2442.21,2597.87Z"/><path class="cls-9" d="M2457.27,2603a2.37,2.37,0,0,1-.9-.18,2.29,2.29,0,0,1-1.21-3c6.34-14.92,25.7-15.06,26.54-15a2.3,2.3,0,0,1,0,4.59h0c-.18,0-17.16.13-22.3,12.23A2.29,2.29,0,0,1,2457.27,2603Z"/><path class="cls-9" d="M2472.88,2607.55a2.27,2.27,0,0,1-.94-.2,2.3,2.3,0,0,1-1.15-3c4.6-10.27,15.61-11.65,20.79-11a2.3,2.3,0,0,1-.61,4.55h0c-.47-.07-11.66-1.4-16,8.28A2.28,2.28,0,0,1,2472.88,2607.55Z"/><path class="cls-43" d="M2257.05,1830.16s60.64,246.4,111.52,348.89c13.28,26.76-22,234.25-13.37,332.62,37.38,13,92.07,10.39,124.73-4.46,23.76-31.18,35.64-283.61,40.1-377.16-19.31-109.88-45.4-311.37-66.82-332.61S2257.05,1830.16,2257.05,1830.16Z"/><g class="cls-44"><path class="cls-43" d="M2484,2499.57l-45.61-1.27c-53.46-1.48-57.91-23.75-53.46-53.45s29.7-270.25,29.7-302.92-56.43-286.58-56.43-286.58l-36.08,203.28c15.11,46.06,31.23,89.71,46.48,120.42,13.28,26.76-22,234.25-13.37,332.62,37.38,13,92.07,10.39,124.73-4.46A33.23,33.23,0,0,0,2484,2499.57Z"/></g><path class="cls-42" d="M2148.08,1823.52s11.84,248.55,5.25,333.21-4.52,343.06-4.52,343.06,56.42,31.18,118.79,14.85c20.64-33.72,48.88-251,60.88-337.07,15.59-111.89,65.35-311,35.63-356.37S2148.08,1823.52,2148.08,1823.52Z"/><path class="cls-45" d="M2340.64,1331.23l0-.06s0,0,.05.06Z"/><path class="cls-23" d="M2103.16,1825.35c6.33,4.77,18,5.53,35.7,5.32,1,0,2.09,0,3.15-.05,20.33-.36,48-1.7,84.45.06l3.16.16c19.22,1,40.9,2.9,65.3,6.25,11.34,1.56,23.11,2.58,35,3.14l3.29.14a518.28,518.28,0,0,0,71.66-2.4q5.87-.6,11.61-1.31l3.15-.4a423.46,423.46,0,0,0,62.7-12.65c1-.29,2-.6,3-.89,32.48-9.85,51.93-22.37,47.32-34.12-30.4-77.53-52.17-151.62-67.65-208.75l.26-.16s-.6-1.77-1.64-4.92a1.46,1.46,0,0,0,0-.2c-6.53-24.25-12-45.66-16.65-63.28h0c-2.86-15-4.65-30-3.94-42.15,2.14-36.73-4.81-79.92-19.4-89.36-10-6.45-49.78-23-72.46-32.16l-5.53-2.23-1.79-.72-1.39-.55-7.84-3.13-52-10h0c-4.87,1.36-10.09,2.92-15.51,4.64l-1.53.5-2.77.88c-32.08,10.47-70.07,26-84.41,38-6.47,5.44-12.61,27.93-18.12,56.26-6.18,31.77-11.7,71.7-15.49,101.77l-.37,0S2074.84,1804.1,2103.16,1825.35Z"/><path class="cls-24" d="M2259.48,1338.29c6.4,11.68,19,32.82,53.42,42.88,21,6.12,45.7-18.75,45.71-24.19l-6.37-3.42-2.08-1.11c-.09.63-1.09-.58-1.6-.85-5.65-3-9.12-4.84-9.12-4.84L2277.7,1331C2272,1333.12,2265.82,1335.58,2259.48,1338.29Z"/><path class="cls-27" d="M2270.32,1729.61,2255.45,1784S1971,1669.6,1986.76,1619.44c4.48-14.27,15.3-47.29,48.87-94.67,17.52-24.74,38.87-49.36,63.89-69l68.36,93.89s-23.67,17.5-41.58,35.45c-8.89,8.9-16.37,17.92-18.83,25C2101.65,1626.7,2270.32,1729.61,2270.32,1729.61Z"/><path class="cls-23" d="M2167.88,1549.64s-23.67,17.5-41.58,35.45c-31.1-17.84-78.12-51.9-90.67-60.32,17.52-24.74,38.87-49.36,63.89-69Z"/><path class="cls-24" d="M2189.61,1371.08c-60.92,20-112.67,77.26-139.54,116.78l103,97.63s40.66-24.35,54.26-85.89C2222.27,1431.88,2189.61,1371.08,2189.61,1371.08Z"/><path class="cls-39" d="M2185.41,2569.74l-11.13-20.22s-3.72-30.62-1.08-28.55c19.33,15.16,68.57,7.19,70.12,7.87s-2,22.5-2,22.5-4.14,18.75-7.35,21.47S2185.41,2569.74,2185.41,2569.74Z"/><path class="cls-40" d="M2262.67,2648.74c-.63-4.09-2.4-11.71-4.65-20.59,1.63,15,1.16,37.63-8.57,43.13-10.46,5.91-63.17,6.59-72.95,4.09s-19.2-12.84-19.09-29.88c0-6.34,1.71-19.45,4.13-34.25-5,23.09-7.72,47.39-6.14,56.89,2.4,14.38,7.72,28,18.48,30.46s67.15,6.4,76.32-2.73S2264.92,2663.52,2262.67,2648.74Z"/><path class="cls-41" d="M2157.41,2645.49c-.11,17,9.32,27.38,19.09,29.88s62.49,1.82,72.95-4.09,10.22-31.59,8.18-46.36-17.73-75.55-17.73-75.55-6.14,9.1-9.32,10-48-1.12-49.13-1.57-5.71-10.26-5.71-10.26C2168.8,2565.45,2157.52,2628.85,2157.41,2645.49Z"/><path class="cls-9" d="M2233.66,2614.56a2.33,2.33,0,0,1-1-.24c-23.11-11.28-45.5-.59-45.72-.48a2.39,2.39,0,0,1-2.11-4.3c1-.49,24.66-11.86,49.93.47a2.39,2.39,0,0,1-1.05,4.55Z"/><path class="cls-9" d="M2178,2628.43a2.39,2.39,0,0,1-.72-4.68,137.7,137.7,0,0,1,22.56-4.58c17.18-2,31.26-.45,41.84,4.71a2.4,2.4,0,1,1-2.1,4.31c-23.38-11.4-60.49,0-60.86.13A2.25,2.25,0,0,1,2178,2628.43Z"/><path class="cls-9" d="M2231.51,2602.25a2.42,2.42,0,0,1-1.16-.3c-21.24-11.79-38.32-1.14-39-.68a2.4,2.4,0,0,1-2.6-4c.81-.52,20.13-12.7,44,.52a2.4,2.4,0,0,1-1.16,4.49Z"/><path class="cls-27" d="M2608.91,1482.08a6,6,0,0,1,5.17-1.38,10,10,0,0,1,4.06,2.83,46.35,46.35,0,0,1,13.17,32.06c0,5.09-1.34,10.91-5.86,13.22l-5.13-3c-1.6-2-6.35-5.49-7-8-2.66-10.62,1.15-10.18-5.51-28.6C2607.18,1487.43,2606.46,1484.4,2608.91,1482.08Z"/><path class="cls-27" d="M2610.12,1497.13a25.18,25.18,0,0,0-5.09-6.7c-2-1.74-4.55-2.72-6.76-2-3.55,1.11-5.27,6.22-4.87,11s2.43,9.22,4.41,13.5q6.32,13.7,12.64,27.39l2.44-1.8c1.75,1.71,4.29.83,5.46-1.2s1.29-4.82,1.2-7.46A71.47,71.47,0,0,0,2610.12,1497.13Z"/><path class="cls-27" d="M2603.92,1524.45c-2.91-6.43-7.76-11.79-12.65-17-1.7-1.8-3.51-3.64-5.87-4.46s-5.43-.23-6.6,1.94-.12,4.59.9,6.72a313.82,313.82,0,0,0,21.74,38.18l7.56-7.61C2612.42,1536.1,2606.83,1530.87,2603.92,1524.45Z"/><path class="cls-27" d="M2597,1537.54c-2.91-6.43-7.76-11.8-12.65-17-1.7-1.8-3.51-3.65-5.87-4.46s-5.44-.23-6.6,1.94-.13,4.59.89,6.71a314.59,314.59,0,0,0,21.75,38.19l7.55-7.61C2605.46,1549.18,2599.86,1544,2597,1537.54Z"/><path class="cls-46" d="M2369.08,1223c52.71-6.4,46.48-84.93,12.34-96.85-16.76-5.86-25.51.62-30,7.52s-12.5,10.11-20.55,9.38c-19.16-1.72-50.85-2.6-69.35,7.55-27.81,15.27-17.1,40.56-17.1,40.56s-20.61,6.34-20.84,24.83c-.49,38,50.12,69.46,50.12,69.46Z"/><path class="cls-27" d="M2263.82,1335.44c14.43,16.68,35.14,31.42,47.9,32.84,23.67,2.65,36-17,36-17l.56-37s23.54,10.2,30.59-8.39-8.29-91.09-10.27-102.2c0,0-34.08,7.75-73.11-15.31.2.32,6.75,10.52,7.87,22.08a25.06,25.06,0,0,1-12.51,23.88l-.12.06c-2.64-8-9.79-13.57-17.83-13.07-9.75.61-17.1,9.87-16.42,20.69.64,10.32,8.36,18.3,17.52,18.49Z"/><path class="cls-23" d="M2369.38,1207.88c-.34-1.77-.61-3.19-.78-4.14,0,0-34.09,7.74-73.12-15.31,0,0,6.14,9.43,7.69,20.52C2322.2,1212.3,2348.88,1214.76,2369.38,1207.88Z"/><path class="cls-23" d="M2348.28,1314.33s-23.69,0-55.9-42.06c0,0,11.64,39.24,55.87,56.81Z"/><path class="cls-47" d="M2282.93,1177.33a1.3,1.3,0,0,1-1.11-.62c-2.69-4.37-9.94-9-10-9.09a1.3,1.3,0,0,1,1.4-2.18c.32.2,7.82,5,10.83,9.91a1.3,1.3,0,0,1-.43,1.78A1.27,1.27,0,0,1,2282.93,1177.33Z"/><path class="cls-47" d="M2368.6,1205a1.29,1.29,0,0,1-.27-2.56c.12,0,12.72-2.79,19.5-12.1a1.29,1.29,0,1,1,2.09,1.52c-7.37,10.13-20.5,13-21.06,13.11Z"/><path class="cls-23" d="M2266.82,1246.14a1,1,0,0,1-1-.84,1.05,1.05,0,0,1,.82-1.23l9.55-1.92-5.85-12a1,1,0,0,1,1.88-.91l7,14.42-12.21,2.46Z"/><path class="cls-23" d="M2351.57,1261.8a1,1,0,0,1-1-1,1,1,0,0,1,1-1.1s4.35-.29,12.27-3.25a3.07,3.07,0,0,0,2.14-2c.9-3.3-4.12-9.53-7.44-13.65a44.41,44.41,0,0,1-3.22-4.26c-2.89-4.82-2.12-11.84-2.08-12.14a1,1,0,0,1,2.07.24c0,.07-.72,6.63,1.8,10.83a45.52,45.52,0,0,0,3,4c4,5,9,11.18,7.83,15.51a5.07,5.07,0,0,1-3.42,3.38c-8.26,3.08-12.7,3.36-12.88,3.37Z"/><path class="cls-23" d="M2326.3,1246.79c-.39,3.84-7.41,6.28-15.68,5.43s-14.65-4.64-14.25-8.49,7.41-6.27,15.68-5.43S2326.69,1243,2326.3,1246.79Z"/><path class="cls-48" d="M2336.27,1228.44c.13,2.08-1.06,3.85-2.67,4s-3-1.5-3.14-3.58,1.07-3.85,2.67-4S2336.14,1226.36,2336.27,1228.44Z"/><path class="cls-48" d="M2365.51,1229.15c-.18,2.08-1.62,3.65-3.22,3.51s-2.76-1.92-2.58-4,1.62-3.65,3.22-3.52S2365.69,1227.07,2365.51,1229.15Z"/><path class="cls-48" d="M2326.65,1216.88a2.58,2.58,0,0,1-1.53-4.67c.33-.25,8.26-5.89,16.84-1a2.59,2.59,0,0,1-2.55,4.5c-5.64-3.19-11,.57-11.26.73A2.62,2.62,0,0,1,2326.65,1216.88Z"/><path class="cls-48" d="M2370,1219.53a2.57,2.57,0,0,1-1.83-.76,7.44,7.44,0,0,0-9.5-1.07,2.59,2.59,0,0,1-2.89-4.29,12.6,12.6,0,0,1,16,1.7,2.59,2.59,0,0,1-1.82,4.42Z"/><path class="cls-49" d="M2360.52,1270.8s-.71,7.68-4.92,12.85a12.18,12.18,0,0,1-6.1,4.25c-5.32,1.58-8-2.56-9.34-6.68a28.86,28.86,0,0,1-1.29-6.76A35.17,35.17,0,0,0,2360.52,1270.8Z"/><path class="cls-50" d="M2355.6,1283.65a12.18,12.18,0,0,1-6.1,4.25c-5.32,1.58-8-2.56-9.34-6.68C2345.39,1278.74,2352.28,1279.12,2355.6,1283.65Z"/><path class="cls-47" d="M2371,1149s12,1.67,12.54,12.82-9.76,19.78-27.58,14.76c0,0-18.67,20.62-42.35,1.12,0,0,20.06,12.81,37.89-11.15,0,0,15,9.2,22.56-1.67S2371,1149,2371,1149Z"/><rect class="cls-31" x="2274.87" y="1449.82" width="418.79" height="325.84" transform="translate(-122.61 206.79) rotate(-4.65)"/><rect class="cls-51" x="2288.38" y="1502.94" width="146.22" height="61.65" transform="translate(-116.61 196.58) rotate(-4.65)"/><g class="cls-52"><path class="cls-23" d="M2437,1536.36c90.89-49.43,205.37-46.57,247.56-43.45l-4.84-59.54-417.41,34,26.43,324.77,54.94-4.47C2342.59,1723.44,2350.54,1583.41,2437,1536.36Z"/></g><rect class="cls-31" x="2252.84" y="1395.99" width="433.63" height="74.3" transform="translate(-108.1 205.02) rotate(-4.65)"/><path class="cls-24" d="M2513.79,1445.91l-99.18,7.13a17.16,17.16,0,0,1-18.31-15.85h0a17.18,17.18,0,0,1,15.85-18.31l99.18-7.13a17.18,17.18,0,0,1,18.31,15.85h0A17.17,17.17,0,0,1,2513.79,1445.91Z"/><rect class="cls-9" x="2600.78" y="1385.3" width="12.87" height="380.27" transform="translate(-119.18 216.64) rotate(-4.65)"/><rect class="cls-9" x="2350.47" y="1405.67" width="12.87" height="380.27" transform="translate(-121.66 196.41) rotate(-4.65)"/><path class="cls-27" d="M2706.5,1416.39s6.6-31.92-6.7-40.64-55.83-16.42-75.86-2.68,17.83,13.19,17.83,13.19-13.41,10.75-4,22c0,0-11.74,10.81,1.46,20.39,0,0-4.83,13.84,7.55,15.6,31.62,4.48,37.24,20.33,48.25,12.34S2706.5,1416.39,2706.5,1416.39Z"/><path class="cls-53" d="M2707.93,1396.2a1.82,1.82,0,0,1-.68-.13c-.28-.12-28.67-11.83-41.94-11.93a64.92,64.92,0,0,0-22.88,3.75,1.76,1.76,0,0,1-1.33-3.26,68.72,68.72,0,0,1,24.23-4c14,.1,42.08,11.7,43.27,12.19a1.76,1.76,0,0,1-.67,3.39Z"/><path class="cls-53" d="M2706.5,1418.15a1.81,1.81,0,0,1-.75-.16c-.24-.12-24.58-11.49-37.23-13.08-12.5-1.57-29.92,4.93-30.1,5a1.76,1.76,0,0,1-1.24-3.3c.75-.28,18.42-6.87,31.78-5.19,13.21,1.65,37.27,12.9,38.29,13.38a1.76,1.76,0,0,1-.75,3.35Z"/><path class="cls-53" d="M2703.87,1440.63a1.78,1.78,0,0,1-1-.31c-.32-.23-32.87-22.27-62.94-10a1.76,1.76,0,1,1-1.33-3.26c31.86-13,64.88,9.44,66.27,10.4a1.76,1.76,0,0,1-1,3.21Z"/><path class="cls-54" d="M2618.4,1372.58c-5.27,7.29-5.57,15.59,14.48,16.15-5.57,7.23-2.23,17.81-2.23,17.81s-9.47,14.48,1.67,21.72c-.56,8.91-3.9,19.49,12.25,21.16s33.41,8.35,41.76,14.48,17.26-13.92,22.28-23.39,7.79-49-1.12-63.48-56.79-14.48-56.79-14.48S2625.64,1362.55,2618.4,1372.58Z"/><path class="cls-4" d="M2692.35,1388.5c-30.67-8.83-59.47.23-59.47.23C2650.77,1377.59,2690.27,1381.23,2692.35,1388.5Zm-4.68,22.87-17.67-4.16c-17.67-4.16-39.35-.67-39.35-.67C2650.55,1404.84,2687.67,1411.37,2687.67,1411.37Zm2.6,27.54c-13.51-11.43-57.95-10.65-57.95-10.65C2667.92,1430.08,2690.27,1438.91,2690.27,1438.91Z"/><path class="cls-27" d="M2239.14,1719.23l7.41,2.31,51.24-10.06,27.91-5.27a13.31,13.31,0,0,1,7,.56l20.53,7.41s-1.65,9.82-12.85,9.72l-13.28-.46-15.66,5.84-.15,3.08s56.3,44.22,57.51,51.09-5.05,9-7.24,8.88-5-2.22-5-2.22-1.09,9-13.44,9.9c0,0,1.8,12.83-12.58,10.38,0,0-7.27,4.92-15.32,3.21s-47.23-18.1-51.08-20.26-44.26-24.79-44.26-24.79l-8.93-7.13Z"/><path class="cls-23" d="M2358,1791c-.23.53-8.47-2.71-17.57-8.67s-15.78-11.52-15.47-12,7.75,4.2,16.68,10.12S2358.24,1790.42,2358,1791Z"/><path class="cls-23" d="M2343.16,1800c-.16.27-1.88-.41-4.64-1.51s-6.59-2.62-10.74-4.63a98.13,98.13,0,0,1-10.11-6c-2.49-1.62-4.07-2.46-4-2.74s2,.06,4.75,1.36,6.29,3.42,10.33,5.35,7.84,3.71,10.45,5.21S2343.31,1799.75,2343.16,1800Z"/><path class="cls-23" d="M2332,1810.8c-.26.56-8.27-2.62-17.89-7.11-4.78-2.31-9.06-4.23-12.37-4.63s-5.35.26-5.47-.09,1.88-1.59,5.6-1.48,8.44,1.9,13.18,4.19C2324.63,1806.16,2332.22,1810.25,2332,1810.8Z"/><path class="cls-54" d="M2240.31,1701.66s-31.74,66.82-32.85,72.39c10.58,4.46,23.77,8.64,23.77,8.64s19.66,19.2,34.7,26.44,38.23,21.28,50.64,14.39a47.77,47.77,0,0,1,14.79-5.11,17.89,17.89,0,0,0,8.9-4.16,15.12,15.12,0,0,0,4-5.5,12.63,12.63,0,0,1,6.78-7.11,13.92,13.92,0,0,0,2.3-1.21,40.59,40.59,0,0,1,14.17-5.5c4.17-.83,8.07-3.62,7-11.41-2.23-15.59-57.36-50.67-57.36-50.67s8.91-5,15-2.79,27.28-6.68,23.39-15.59c-8.91-7.79-24.51-13.92-29.52-13.92s-28.4,7.24-39,10S2240.31,1701.66,2240.31,1701.66Z"/><path class="cls-55" d="M2359.09,1797.32s-41.45-28.39-55-40.86c30.15,17.67,58.73,37.94,58.73,37.94Zm-14.79,11.43L2301,1780.88S2333.55,1808,2344.3,1808.75Zm-16.79,12.67s-27-16.63-43.13-25c10.91,9.88,36.37,25,36.37,25Zm-60.88-111-6.15-2.7-32.32,73.62,6.15,2.71Z"/></g></g></svg>