<svg xmlns="http://www.w3.org/2000/svg" viewBox="0 0 4680 3120"><defs><style>.cls-1{isolation:isolate;}.cls-12,.cls-2{fill:#fff;}.cls-2{opacity:0;}.cls-3{fill:#caebff;}.cls-4{fill:#1fa47c;}.cls-5{fill:#3ecaa1;}.cls-6{fill:#04684b;}.cls-7{fill:#a53e7f;}.cls-8{fill:#0077b4;}.cls-9{fill:#299fce;}.cls-10{fill:#ace7fc;}.cls-11{opacity:0.5;}.cls-13{fill:#447697;}.cls-14{fill:#ffd648;}.cls-15{fill:#ff8c48;}.cls-16{fill:#ffc248;}.cls-17{fill:#e33f40;}.cls-18{fill:#5560a5;}.cls-19{fill:#f68b00;}.cls-20{fill:#ffe500;}.cls-21{fill:#f9394a;}.cls-22{fill:#febb2c;}.cls-23{opacity:0.1;}.cls-23,.cls-41{mix-blend-mode:multiply;}.cls-24{fill:#292d96;}.cls-25{fill:#ffffe9;}.cls-26{fill:#dca41b;}.cls-27{fill:#e43864;}.cls-28{fill:#291629;}.cls-29{fill:#686868;}.cls-30{fill:#ff4c4c;}.cls-31{fill:#ab1c1c;}.cls-32{fill:#d72d2d;}.cls-33{fill:#841c1c;}.cls-34{fill:#322b29;}.cls-35{fill:#473933;}.cls-36{fill:#fbc5a9;}.cls-37{fill:#fdffaf;}.cls-37,.cls-38,.cls-39{fill-rule:evenodd;}.cls-38,.cls-51{fill:#fdd305;}.cls-39{fill:#f68737;}.cls-40{fill:#262626;}.cls-42{fill:#b92357;}.cls-43{fill:#fc488c;}.cls-44{fill:#f7a18a;}.cls-45{fill:#9b1e4e;}.cls-46{fill:#232163;}.cls-47{fill:#171448;}.cls-48{fill:#ff9843;}.cls-49{fill:#f8b10f;}.cls-50{fill:#ffcf0d;}.cls-52{fill:#fe9;}.cls-53{fill:#ff8222;}.cls-54{fill:#5b1e13;}.cls-55{fill:#524e53;}.cls-56{fill:#3e2312;}.cls-57{fill:#ef4623;}.cls-58{fill:#eef6f9;}</style></defs><title>07</title><g class="cls-1"><g id="_07" data-name="07"><rect id="_07-2" data-name="07" class="cls-2" width="4680" height="3120"/><path class="cls-3" d="M3835.78,1251.37c-46.61-48.26-98.82-90.8-153-128.24-195.9-135.39-417.69-204.39-495-237.24,91.1-62.15,266.88-189.46,180.06-324-77.26-119.79-268-154.94-393.61-171.2-294.08-38.1-894.61-56.26-1222.37,40.86C1024.25,647.09,543.24,1186.18,511.61,1675.79c-31.73,491.23,81.55,921.41,827,921.41,160,0,854.07,27.1,996.51-12.08,539.73,58.18,926.2,104.82,926.2,104.82s21.58-9.39,30.4-12q71.1-20.58,140.84-46.38c86.82-32.13,479.74-187.4,599.17-599.34C4117.11,1737.88,3985.59,1406.41,3835.78,1251.37Z"/><path class="cls-4" d="M1149.94,2027.24c-56.57,53.47-113.86,196.52-150.7,311.92-19.6,61.34-33.42,114.89-38.28,143l-67.19.89c-.19.29-.39.57-.57.84,0-.26-.07-.55-.11-.83-7.7-62.7-40.9-356.35-2.89-477.89a137,137,0,0,1,11.52-27.41c61.71-107.33,169.42-196.5,280.09-180.74S1244.71,1937.63,1149.94,2027.24Z"/><path class="cls-5" d="M935.78,2321.65c-2.54,0-4.78-1.4-5.19-3.42-.64-3.2-15.5-78.74-1.51-131.3,7.58-28.49,14.37-41.41,20.94-53.9,5.55-10.55,10.79-20.52,16.2-39.62,3.24-11.45,4.24-23.63,5.29-36.53,2.69-32.93,5.74-70.26,50-102.74,29-21.29,49-42.25,65.19-59.09,17.25-18,30.87-32.22,47.87-39.67,30.46-13.34,49.85-31.6,50-31.78a6.21,6.21,0,0,1,7.32-.57,3.5,3.5,0,0,1,.68,5.74c-.83.79-20.85,19.64-53,33.73-15,6.6-28.09,20.2-44.6,37.43s-36.75,38.37-66.4,60.15c-41.17,30.25-44,64.32-46.65,97.27-1.08,13.22-2.1,25.71-5.52,37.78-5.6,19.79-11,30.08-16.74,41-6.38,12.14-13,24.7-20.37,52.45-13.6,51.08,1.45,127.59,1.61,128.36.44,2.22-1.5,4.32-4.33,4.68A6.66,6.66,0,0,1,935.78,2321.65Z"/><path class="cls-6" d="M1243.7,2358.5c-66,3.08-191.63,74.24-265.81,123.44l-84.12,1.11c3.05-4.57,7.12-10.57,12-17.72,20.35-29.69,55.22-79,93.45-126.17,46-56.79,96.84-110.5,133-123.24,83.5-29.37,183.46-27.47,236.08,32.68S1336.85,2354.13,1243.7,2358.5Z"/><path class="cls-4" d="M937.31,2475.54c-1.64-1.19-2.39-3.17-1.68-4.65,1.11-2.35,27.61-57.69,61.58-84.6,18.42-14.59,28.91-19.6,39.06-24.45a142.6,142.6,0,0,0,29.23-17.6c7.52-5.77,14-13.07,20.78-20.81,17.4-19.76,37.14-42.15,80.85-41.84,28.65.2,51.46-3.62,69.79-6.69,19.6-3.29,35.08-5.88,49.48-2.54a152.6,152.6,0,0,0,47.11,3.54,5,5,0,0,1,5,3.12,2.79,2.79,0,0,1-2.3,4c-.91.11-22.68,2.62-49.94-3.71-12.76-3-27.57-.47-46.32,2.67s-41.76,7-71.08,6.79c-40.71-.29-58.72,20.15-76.14,39.91-7,7.94-13.59,15.43-21.52,21.51a147,147,0,0,1-30.21,18.19c-9.87,4.72-20.07,9.6-38,23.8-33,26.16-59.86,82.21-60.13,82.77-.77,1.63-3,2-5,.93A4.45,4.45,0,0,1,937.31,2475.54Z"/><path class="cls-5" d="M905.79,2465.33q-.84,9.66-1.59,17.58l-10.43.14c-.19.29-.39.57-.57.84,0-.26-.07-.55-.11-.83l-90.77,1.2c-1.87-9.47-4.61-23.23-8-40-4-19.77-9.06-43.71-14.71-69.65C757,2271.27,724.23,2136,700.92,2105.35c-38.89-51.19-119.52-29.89-150.23-141.87s-223-203.94-167.84-284.42,291.89-23,435.86,155c34.29,42.39,56.91,103.17,71.49,171.15C925.16,2168.44,913.68,2373.35,905.79,2465.33Z"/><path class="cls-4" d="M853.22,2465.62a6,6,0,0,1-1.18-.12,5.2,5.2,0,0,1-4-6.19c.22-1,21.87-100.59,20.27-148.68-.77-23.23-11.34-66.19-23.58-115.94-13.43-54.58-28.65-116.43-36.14-172.47-8.92-66.67-27.33-80.26-60.74-105-19.39-14.32-43.53-32.15-73.15-65.32-79.35-88.86-224.2-143.9-225.66-144.44a5.2,5.2,0,1,1,3.66-9.74c1.47.55,148.72,56.51,229.76,147.25,28.91,32.37,52.56,49.85,71.57,63.89,34.52,25.5,55.36,40.9,64.86,111.93,7.43,55.48,22.57,117,35.94,171.37,12.38,50.31,23.06,93.76,23.87,118.08,1.65,49.39-19.59,147.1-20.5,151.24A5.2,5.2,0,0,1,853.22,2465.62Z"/><path class="cls-6" d="M820.69,2484l-38.28.5a25.37,25.37,0,0,1-1.72-4.53c-5.45-20-15.08-50.43-26-63-16.9-19.55-44.07-29.58-58.84-45s-44.05-27.49-62-46.32-1.57-40.2-25.59-47.17-60.54-15.84-60.54-15.84-73.31-38.56-60.38-83.67,138.21-8.89,202.35,43c31.23,25.26,64.23,91.45,89.86,152.73C798.55,2420,813.48,2462.66,820.69,2484Z"/><ellipse class="cls-7" cx="2154.33" cy="2570.68" rx="1575.97" ry="189.32"/><path class="cls-8" d="M3446.62,567.61c-.32,337-2.89,1499.34-23.06,1910.82-2.13,43.59-32.8,77.94-70.11,78.54-184.56,3-861,5.91-1162.28-15.58-62.75-4.47-111.39-65.11-111.07-138.68,1.56-353.68,9.75-1348.37,52.7-1803.17,5.15-54.49,42.73-97.15,89.44-101.57,201.34-19.05,881.54-61.47,1141.69-35.92C3410.85,466.66,3446.68,512.51,3446.62,567.61Z"/><path class="cls-9" d="M3394.21,567.61c-.32,337-2.89,1499.34-23.06,1910.82-2.14,43.59-32.8,77.94-70.12,78.54-184.56,3-861,5.91-1162.27-15.58-62.75-4.47-111.39-65.11-111.07-138.68,1.56-353.68,9.75-1348.37,52.7-1803.17,5.15-54.49,42.73-97.15,89.44-101.57,201.34-19.05,881.54-61.47,1141.69-35.92C3358.43,466.66,3394.26,512.51,3394.21,567.61Z"/><path class="cls-10" d="M3309.64,669.13c3.91,272.09,15.19,1177.23-2.15,1511.45-2.53,48.86-36.34,87.65-78.15,89.59-172.11,8-759,20.92-1010.57-8.28-45.29-5.25-80-49-81.23-102.23-6.63-277.65-24.66-1120.63-7.82-1451.11,2.69-52.73,38.57-95,83.62-98.76,186.35-15.41,810.43-48.08,1024.33-29.67C3277.82,583.58,3309,622,3309.64,669.13Z"/><g class="cls-11"><path class="cls-12" d="M3236,931.22c-181.89,59.68-853,277.64-1053.23,342.68-1.47-207.85-.57-405.41,5.58-526,2.38-46.69,34.15-84.16,74.05-87.45,165-13.65,717.66-42.59,907.08-26.28,35.56,3.06,63.14,37.11,63.74,78.83C3233.93,764,3235,840.12,3236,931.22Z"/></g><g class="cls-11"><path class="cls-12" d="M3177.07,1333.49c-207.86,68.09-878,285.74-1052.28,342.32-.74-48.24-1.45-97.85-2.06-147.92l1052.84-387.12C3176.14,1201.92,3176.66,1266.88,3177.07,1333.49Z"/></g><g class="cls-11"><path class="cls-12" d="M3237.55,1833.58c-1.31,86.17-3.32,161.29-6.26,217.91-2.24,43.26-32.18,77.62-69.2,79.33-115.2,5.33-710.51,13.19-958.57,5.55C2427.46,2047.07,3115.49,1880.7,3237.55,1833.58Z"/></g><path class="cls-8" d="M2845.79,522h0c-.23,10.34-7.31,18.71-16.14,19-60.69,2.37-183.54,7.32-221.4,9.05-10.82.49-19.06-11.07-16.73-23.46l.39-2.12c1.59-8.45,7.75-14.71,15.13-15.33,37.15-3.16,149.24-11.7,223.27-7C2839.21,502.77,2846,511.55,2845.79,522Z"/><rect class="cls-8" x="2515.23" y="2367.32" width="391.44" height="104.94" rx="39.98"/><circle class="cls-13" cx="2613.98" cy="2161.92" r="18.42" transform="translate(-90.68 4209.27) rotate(-76.72)"/><circle class="cls-12" cx="2696.1" cy="2161.92" r="18.42" transform="translate(-27.43 4289.19) rotate(-76.72)"/><circle class="cls-12" cx="2778.21" cy="2161.92" r="18.42" transform="translate(-714.99 2597.71) rotate(-45)"/><circle class="cls-12" cx="2860.33" cy="2161.92" r="18.42" transform="translate(-690.94 2655.77) rotate(-45)"/><path class="cls-12" d="M3164.12,2030.75l-873.66,45.3a54.21,54.21,0,0,1-57-54.86c.86-62.81,2-145.76,3.36-173.12,2.23-43.65,31.95-78.7,69.25-81.78,154.31-12.76,671.08-39.81,848.21-24.57,33.25,2.86,59,34.71,59.6,73.71.45,31.21,1,99.51,1.62,160.66A54.18,54.18,0,0,1,3164.12,2030.75Z"/><rect class="cls-14" x="2300.07" y="1873.06" width="203.65" height="130.54" transform="translate(-3 3.73) rotate(-0.09)"/><polygon class="cls-15" points="2299.97 1873.2 2299.98 1881.57 2401.93 1965.18 2503.63 1881.3 2503.62 1872.93 2401.93 1957.1 2299.97 1873.2"/><polygon class="cls-15" points="2421.51 1940.59 2497.92 2003.47 2503.82 2003.46 2503.82 2000.14 2425.89 1936.01 2421.51 1940.59"/><polygon class="cls-15" points="2300.16 2000.85 2300.17 2003.74 2306.6 2003.73 2382.81 1940.64 2378.42 1936.07 2300.16 2000.85"/><polygon class="cls-16" points="2503.62 1872.92 2401.93 1957.1 2299.97 1873.19 2503.62 1872.92"/><ellipse class="cls-17" cx="2497.57" cy="1874.67" rx="42.63" ry="39.56"/><path class="cls-12" d="M2488.84,1893.46h0a4.27,4.27,0,0,1-2.92-1.12l-10.45-9.7a3.64,3.64,0,0,1,0-5.42,4.36,4.36,0,0,1,5.85,0l7.52,7,29.31-27.2a4.36,4.36,0,0,1,5.85,0,3.63,3.63,0,0,1,0,5.42l-32.24,29.92A4.27,4.27,0,0,1,2488.84,1893.46Z"/><rect class="cls-18" x="2575.54" y="1931.74" width="573.67" height="28.19" rx="14.1" transform="translate(-75.21 115.53) rotate(-2.28)"/><rect class="cls-18" x="2573" y="1867.99" width="573.67" height="28.19" rx="14.1" transform="translate(-72.68 115.37) rotate(-2.28)"/><rect class="cls-18" x="2570.18" y="1797.15" width="573.67" height="28.19" rx="14.1" transform="translate(-69.86 115.2) rotate(-2.28)"/><path class="cls-18" d="M2996.59,2010.91,2592.65,2027a14.09,14.09,0,0,1-14.64-13.52h0a14.1,14.1,0,0,1,13.52-14.65l403.93-16.09a14.1,14.1,0,0,1,14.65,13.52h0A14.09,14.09,0,0,1,2996.59,2010.91Z"/><path class="cls-12" d="M3164.12,1635.69,2290.46,1681a54.2,54.2,0,0,1-57-54.86c.86-62.8,2-145.76,3.36-173.11,2.23-43.66,31.95-78.71,69.25-81.79,154.31-12.76,671.08-39.81,848.21-24.57,33.25,2.86,59,34.71,59.6,73.71.45,31.21,1,99.51,1.62,160.66A54.18,54.18,0,0,1,3164.12,1635.69Z"/><rect class="cls-14" x="2275.44" y="1472.96" width="203.65" height="130.54" transform="translate(-2.38 3.69) rotate(-0.09)"/><polygon class="cls-15" points="2275.34 1473.1 2275.35 1481.47 2377.3 1565.08 2479 1481.2 2478.99 1472.83 2377.3 1557 2275.34 1473.1"/><polygon class="cls-15" points="2396.89 1540.49 2473.29 1603.38 2479.19 1603.37 2479.18 1600.04 2401.26 1535.91 2396.89 1540.49"/><polygon class="cls-15" points="2275.53 1600.76 2275.54 1603.64 2281.97 1603.63 2358.18 1540.55 2353.79 1535.98 2275.53 1600.76"/><polygon class="cls-16" points="2478.99 1472.83 2377.3 1557 2275.34 1473.1 2478.99 1472.83"/><ellipse class="cls-17" cx="2472.94" cy="1474.57" rx="42.63" ry="39.56"/><path class="cls-12" d="M2464.21,1493.37h0a4.28,4.28,0,0,1-2.92-1.13l-10.45-9.69a3.66,3.66,0,0,1,0-5.43,4.36,4.36,0,0,1,5.85,0l7.52,7,29.31-27.2a4.36,4.36,0,0,1,5.85,0,3.64,3.64,0,0,1,0,5.43l-32.24,29.91A4.28,4.28,0,0,1,2464.21,1493.37Z"/><rect class="cls-18" x="2550.91" y="1531.65" width="573.67" height="28.19" rx="14.1" transform="translate(-59.3 114.23) rotate(-2.28)"/><rect class="cls-18" x="2548.37" y="1467.89" width="573.67" height="28.19" rx="14.1" transform="translate(-56.76 114.08) rotate(-2.28)"/><rect class="cls-18" x="2545.55" y="1397.05" width="573.67" height="28.19" rx="14.1" transform="translate(-53.95 113.91) rotate(-2.28)"/><path class="cls-18" d="M2972,1610.82,2568,1626.92a14.1,14.1,0,0,1-14.64-13.53h0a14.09,14.09,0,0,1,13.52-14.64l403.93-16.1a14.1,14.1,0,0,1,14.65,13.52h0A14.1,14.1,0,0,1,2972,1610.82Z"/><circle class="cls-19" cx="2749.65" cy="971.86" r="273.53" transform="translate(118.15 2228.94) rotate(-45)"/><path class="cls-20" d="M2728.45,1096.26a43,43,0,1,1-20.16-57.32A43,43,0,0,1,2728.45,1096.26Z"/><path class="cls-20" d="M2828.88,1109.77l-8.81-18.73a60.86,60.86,0,0,1,.16-52.15l26.59-55.68c18.65-39.05,10.23-84.26-17.53-114.35.09-.18.19-.34.28-.51A35.54,35.54,0,0,0,2766,836.64c-42.56-4.95-85.65,17.07-105.08,57.75l-28,58.68a57.86,57.86,0,0,1-34.92,30.27l-21.41,6.71c-11.18,6.08-6.92,18.11,2.68,27.85,47.34,48,160.67,101.93,226.52,108.19C2819.79,1127.43,2832,1122.62,2828.88,1109.77Z"/><circle class="cls-21" cx="2862.42" cy="959.98" r="65.42" transform="translate(1669.62 3733.47) rotate(-85.27)"/><path class="cls-5" d="M1319.11,474.88a136,136,0,0,1,80.06,245.89l7.66,63.07L1357,741.47a136,136,0,1,1-37.91-266.59Z"/><path class="cls-12" d="M1278.22,572.2c13.31-7.31,30-4.39,40.68,6.34l.16.17.16-.17a34.81,34.81,0,0,1,49.23,49.24l-.16.16-37,37a17.3,17.3,0,0,1-24.47,0l-37-37-.12-.16a34.57,34.57,0,0,1-10.2-24.62A35.05,35.05,0,0,1,1278.22,572.2Z"/><path class="cls-4" d="M3262.47,1986.23c70.78,65.16,143.93,241,191.34,383,25.23,75.5,43.18,141.45,49.64,176.12h83.06l.71,1c.05-.33.08-.68.12-1,8.5-77.62,44.73-441.08-4.22-590.66-4.23-12.94-9.11-24.28-14.69-33.69-78-131.63-212.6-240.08-349.11-218.79S3143.88,1877,3262.47,1986.23Z"/><path class="cls-5" d="M3532,2346.59c3.13,0,5.88-1.81,6.35-4.32.74-3.95,17.87-97.56-.28-162.29-9.83-35.09-18.44-50.94-26.76-66.27-7-12.95-13.67-25.18-20.67-48.7-4.19-14.09-5.62-29.13-7.13-45.06-3.87-40.65-8.25-86.73-63.41-126.15-36.16-25.84-61.32-51.42-81.53-72-21.61-22-38.68-39.33-59.81-48.25-37.87-16-62.12-38.24-62.36-38.46a7.7,7.7,0,0,0-9.06-.59c-2.71,1.8-3.05,5-.75,7.11,1,1,26.09,23.93,66.08,40.82,18.71,7.91,35,24.51,55.73,45.53,20.52,20.86,46,46.82,83,73.25,51.38,36.72,55.38,78.78,59.25,119.45,1.55,16.33,3,31.75,7.43,46.6,7.25,24.37,14.11,37,21.36,50.36,8.09,14.91,16.46,30.32,26,64.49,17.63,62.91.29,157.71.11,158.66-.52,2.76,1.91,5.32,5.43,5.72A7.42,7.42,0,0,0,3532,2346.59Z"/><path class="cls-6" d="M3152,2397.16c81.69,2.74,238.05,88.62,330.53,148.22h104c-3.85-5.6-9-13-15.14-21.71-25.64-36.35-69.54-96.71-117.56-154.41-57.77-69.43-121.48-135-166.41-150.13-103.67-34.94-227.18-31-291.23,44.24S3036.81,2393.28,3152,2397.16Z"/><path class="cls-4" d="M3532.57,2536.81c2-1.5,2.9-4,2-5.78-1.42-2.88-35.07-70.84-77.49-103.55-23-17.73-36.05-23.75-48.68-29.58-10.66-4.93-20.73-9.58-36.4-21.27-9.39-7-17.47-15.93-26-25.38-21.84-24.13-46.59-51.49-100.61-50.39-35.41.72-63.66-3.63-86.36-7.13-24.28-3.74-43.45-6.69-61.19-2.32a188.78,188.78,0,0,1-58.17,5.14,6.12,6.12,0,0,0-6.07,3.93,3.46,3.46,0,0,0,2.91,4.9c1.13.12,28.07,2.87,61.66-5.4,15.72-3.86,34.07-1,57.29,2.54,23.05,3.55,51.73,8,88,7.23,50.32-1,72.91,23.94,94.76,48.08,8.76,9.69,17.05,18.85,26.94,26.23,16.25,12.11,26.64,16.91,37.64,22,12.27,5.66,25,11.52,47.36,28.79,41.23,31.79,75.31,100.61,75.65,101.3,1,2,3.76,2.49,6.2,1.07A5.55,5.55,0,0,0,3532.57,2536.81Z"/><path class="cls-5" d="M3571.37,2523.67c.79,7.95,1.55,15.2,2.25,21.71h12.89l.71,1c.05-.33.08-.68.12-1h112.2c2.16-11.74,5.32-28.78,9.28-49.51,4.68-24.5,10.49-54.16,17-86.32,26.17-128.15,64.51-295.82,92.82-334.12,47.22-63.9,147.22-38.89,183.35-177.79S4274.25,1642,4204.81,1543.4s-361.12-23.65-536.14,198.63c-41.69,53-68.65,128.43-85.55,212.69C3542.57,2157.07,3560.12,2410.13,3571.37,2523.67Z"/><path class="cls-4" d="M3636.34,2523.17a6.68,6.68,0,0,0,1.46-.17,6.43,6.43,0,0,0,4.8-7.72c-.29-1.23-28.67-124-27.48-183.4.58-28.74,12.94-82,27.25-143.68,15.7-67.67,33.5-144.37,41.85-213.74,9.93-82.54,32.46-99.65,73.35-130.7,23.73-18,53.26-40.45,89.33-81.92,96.62-111.11,274.74-181.51,276.53-182.2a6.43,6.43,0,1,0-4.68-12c-1.82.71-182.88,72.27-281.55,185.74-35.2,40.48-64.15,62.46-87.41,80.13-42.25,32.08-67.75,51.44-78.33,139.39-8.27,68.69-26,145-41.61,212.37-14.48,62.38-27,116.26-27.58,146.33-1.22,61.06,26.62,181.48,27.81,186.58A6.43,6.43,0,0,0,3636.34,2523.17Z"/><path class="cls-6" d="M3676.85,2545.38h47.31a32.26,32.26,0,0,0,2.05-5.63c6.42-24.8,17.82-62.58,31.09-78.34,20.57-24.43,54-37.28,72-56.57s54-34.7,75.83-58.26,1.29-49.71,30.86-58.72,74.56-20.57,74.56-20.57,90-48.84,73.26-104.38-171-8.73-249.37,56.42c-38.19,31.73-77.89,114.07-108.57,190.22C3703.16,2465.91,3685.4,2518.86,3676.85,2545.38Z"/><path class="cls-22" d="M3421.86,1742.93q4.32,10.86,7.84,21.18c54.69,40.39,102.73,96.19,138.73,156.91,5.58,9.42,10.46,20.76,14.69,33.7,11-54.64,26.15-105.59,46.85-149.09,11.21-23.59,24.05-45,38.7-63.61q10.86-13.79,22.28-26.8c-17.52-72.11-4.12-127.62-12.63-162.13-2.46-10-69.29-69.86-69.29-69.86C3465.37,1376.87,3362.73,1594.12,3421.86,1742.93Z"/><g class="cls-23"><path class="cls-24" d="M3487.47,1467.86c30.73,23.14,61.39,59,85.73,117,21.7,51.68,41.84,141.88,56.77,220.79,11.21-23.59,24.05-45,38.7-63.61q10.86-13.79,22.28-26.8c-17.52-72.11-4.12-127.62-12.63-162.13-2.46-10-69.29-69.86-69.29-69.86-10.48-7.76-35-17.76-64.79-27.72A91.74,91.74,0,0,0,3487.47,1467.86Z"/></g><path class="cls-25" d="M3988.2,1734.89c-22.26-157.39-44-235.7-151.18-269.09-42.14-13.12-75.43-6.71-118.23-9.27L3559.85,1454c-8.58-.16-34.83.23-43,2.68h0c16.63.8,49.46,17.37,82.93,57.21,94.18,112.06,81.48,301.18,140.46,449,38.16,95.67,129.21,48.25,360.55,23.22C4084.25,1968.14,4006.22,1862.31,3988.2,1734.89Z"/><path class="cls-22" d="M4181.3,1924l-286.8,36.62s-2.3,43.48-68.17,59.45c28,.84,107.27-8.79,124.6-11.26l141.19-19.06C4197.73,1981.69,4181.57,1925.18,4181.3,1924Z"/><path class="cls-26" d="M3609,1483.23c81.59-.55,164.2,1.63,245.64,6.54-81.59.58-164.2-1.64-245.64-6.54Z"/><path class="cls-26" d="M3638.94,1503.49c81.59-.55,164.2,1.63,245.64,6.55-81.59.57-164.2-1.65-245.64-6.55Z"/><path class="cls-26" d="M3668.85,1523.75c81.59-.55,164.2,1.63,245.64,6.55-81.59.57-164.2-1.65-245.64-6.55Z"/><path class="cls-26" d="M3678.14,1546.8c81.58-.56,164.19,1.62,245.63,6.54-81.59.58-164.19-1.65-245.63-6.54Z"/><path class="cls-26" d="M3695.6,1572.44c56-1.34,112.73,0,168.58,4.17-56,1.37-112.73-.06-168.58-4.17Z"/><path class="cls-26" d="M3715.25,1643.64c71.88-4.24,144.8-5.81,216.79-4.59-71.88,4.28-144.8,5.8-216.79,4.59Z"/><path class="cls-26" d="M3724.52,1664.8c71.88-4.25,144.8-5.82,216.79-4.59-71.87,4.27-144.79,5.79-216.79,4.59Z"/><path class="cls-26" d="M3733.8,1686c71.88-4.25,144.8-5.81,216.79-4.59-71.88,4.27-144.8,5.79-216.79,4.59Z"/><path class="cls-26" d="M3736.37,1706.47c71.88-4.25,144.8-5.81,216.79-4.59-71.87,4.27-144.79,5.8-216.79,4.59Z"/><path class="cls-26" d="M3741.46,1727.23c71.88-4.25,144.8-5.81,216.79-4.59-71.87,4.27-144.8,5.8-216.79,4.59Z"/><path class="cls-26" d="M3744.87,1747.83c18.44-2.15,37.74-3,56.31-3.69,18.6-.47,37.89-.75,56.44.29-18.44,2.16-37.74,3-56.31,3.7-18.6.46-37.89.74-56.44-.3Z"/><path class="cls-26" d="M3758.15,1823.19c71.62-7.35,144.41-12.06,216.39-13.94-71.63,7.37-144.42,12-216.39,13.94Z"/><path class="cls-26" d="M3768.33,1843.92c71.62-7.34,144.41-12.05,216.39-13.93-71.63,7.36-144.42,12-216.39,13.93Z"/><path class="cls-26" d="M3778.5,1864.66c71.63-7.35,144.42-12.06,216.4-13.94-71.63,7.37-144.42,12-216.4,13.94Z"/><path class="cls-26" d="M3782,1885.05c71.63-7.35,144.41-12.06,216.39-13.94-71.62,7.37-144.41,12-216.39,13.94Z"/><path class="cls-26" d="M3787.94,1905.57c71.63-7.35,144.41-12.06,216.39-13.94-71.63,7.37-144.41,12-216.39,13.94Z"/><path class="cls-26" d="M3792.24,1926c18.32-2.94,37.57-4.65,56.1-6.11,18.55-1.27,37.82-2.39,56.39-2.15-18.32,3-37.57,4.67-56.1,6.12-18.56,1.26-37.82,2.38-56.39,2.14Z"/><path class="cls-27" d="M3800.32,1320.63c-13.35,12.85-24.28,8.2-24.28-10.33v-59.76a33.79,33.79,0,0,0-33.69-33.69H3631.78a33.8,33.8,0,0,1-33.7-33.69V947a33.8,33.8,0,0,1,33.7-33.69h641.55A33.79,33.79,0,0,1,4307,947v236.18a33.79,33.79,0,0,1-33.7,33.69H3941.92c-18.53,0-44.63,10.51-58,23.36Z"/><path class="cls-12" d="M4233.79,1008.93H3671.32a12.15,12.15,0,0,1-12.16-12.16h0a12.15,12.15,0,0,1,12.16-12.16h562.47A12.15,12.15,0,0,1,4246,996.77h0A12.15,12.15,0,0,1,4233.79,1008.93Z"/><path class="cls-12" d="M4233.79,1069.58H3671.32a12.16,12.16,0,0,1-12.16-12.17h0a12.16,12.16,0,0,1,12.16-12.16h562.47a12.16,12.16,0,0,1,12.16,12.16h0A12.16,12.16,0,0,1,4233.79,1069.58Z"/><path class="cls-12" d="M4070.65,1130.22H3673.39a12.15,12.15,0,0,1-12.16-12.16h0a12.15,12.15,0,0,1,12.16-12.16h397.26a12.16,12.16,0,0,1,12.16,12.16h0A12.16,12.16,0,0,1,4070.65,1130.22Z"/><rect class="cls-28" x="1670.39" y="2238.75" width="117.35" height="418.38"/><rect class="cls-29" x="1670.39" y="2238.75" width="75.22" height="418.38"/><path class="cls-30" d="M2358.27,2315.17l198,129.54,61.41,17.4-13.47,52.79-.36,0c-10.46,25.83-61,43-147.09,43h0c-150.54,0-332.42-52.43-400.37-112l-149.31-130.81,13-50.77Z"/><path class="cls-31" d="M1920.07,2264.41l57.94,50.77h380.23l200,130.78c19.88,13,33.35,25.66,40.77,37.5,33.18-20.88,25.53-53.32-27.81-88.27l-200-130.78Z"/><path class="cls-32" d="M1978,2315.18l91.35,80c34,29.79,96.45,57.75,169.2,78.3s155.89,33.66,231.18,33.66c62.26,0,105.94-9,129.28-23.69-7.42-11.84-20.89-24.47-40.77-37.5l-200-130.78Z"/><path class="cls-30" d="M1349.38,1958.44l23.08,280.9,460.79,21.07,86.82,4L2145.66,1693,1578.26,1718c-81.72,0-151,39.84-191.43,99A218.24,218.24,0,0,0,1349.38,1958.44Z"/><path class="cls-32" d="M1349.38,1958.44l23.08,280.9,460.79,21.07c-67.48-15.21-133.68-36-195.43-67.16-83.53-42.09-158.88-104.29-205.35-185.57-32.81-57.43-50-125-45.64-190.65A218.24,218.24,0,0,0,1349.38,1958.44Z"/><path class="cls-31" d="M1894.72,1956.47l25.33,307.93h451.17l25.33-307.93c11.52-140.13-100.37-263.53-250.91-263.53h0c-54.15,0-103.29,16-143.5,42.93C1930.57,1783.88,1887.34,1866.74,1894.72,1956.47Z"/><path class="cls-33" d="M1894.72,1956.47l25.33,307.93h164.52l25.31-307.7c7.39-89.87-36-172.85-107.75-220.83C1930.57,1783.88,1887.34,1866.74,1894.72,1956.47Z"/><path d="M1694.76,603.68c-24.7-2.87-75.44,19-92.49,52.8-13.31,26.34-20.72,55.67-18.12,85.07,1.2,13.65,3.93,27.5,1.15,40.92-5.63,27.2-31.65,44.73-46.14,68.42-18.73,30.61-15.92,72.89,6.68,100.76,12.49,15.39,31.15,28.55,32.6,48.32,1.61,22.08-19.77,43.92-10.65,64.1,7.07,15.65,28.13,18.77,45.07,16,49.63-8.24,91.45-51.24,98.3-101.09,2.44-17.75.83-35.85-2.25-53.5-12.78-73.23-50.76-142.55-48.07-216.83.75-20.71,5.09-42.14,17.81-58.5Z"/><path class="cls-34" d="M1635.64,627.08a79.52,79.52,0,0,0-12.36,13.11c-1.76,2.27-3.44,4.6-5,7s-3.06,5.31-4.8,7.81a66.52,66.52,0,0,0-7.61,16,111.76,111.76,0,0,0-4.63,17.44,110.55,110.55,0,0,0-.7,35.75c2.06,14.18,7.28,27.93,7.34,42.38.1,24.73-15.58,45.69-27,66.41-6.41,11.58-11.65,23.7-14.31,36.72a107.9,107.9,0,0,0-.72,41.34,56.2,56.2,0,0,0,6.42,18A47.1,47.1,0,0,0,1585.41,943c5.11,3.79,10.63,7,15.75,10.76,4.72,3.49,9.48,7.9,12.35,13.07a26.14,26.14,0,0,1,2.85,8.29c.13.76,1.18.49,1.25-.17,1.22-12.33-8.89-22.05-18.06-28.57-5.16-3.67-10.58-7-15.23-11.38a39.75,39.75,0,0,1-10.21-15.1c-4.65-12.29-5-26.22-3.65-39.14a112,112,0,0,1,11.62-38.12c10.66-21.34,26.54-41.36,30.13-65.54,2.06-13.84-1.22-27.15-4.47-40.52a137.35,137.35,0,0,1-3.59-19.48,107.47,107.47,0,0,1-.16-17.76,115.32,115.32,0,0,1,8.23-34.45c1.07-2.66,2.33-5.23,3.29-7.92a45.85,45.85,0,0,1,4.38-8.24,105.54,105.54,0,0,1,10.71-14.52c1.9-2.16,3.86-4.27,5.81-6.39a.54.54,0,0,0-.77-.77Z"/><path class="cls-34" d="M1558.08,838.08a102.11,102.11,0,0,0-7.48,8.88,81.93,81.93,0,0,0-14.13,31.59,71,71,0,0,0-1.13,22.24,66.42,66.42,0,0,0,5.93,21,48,48,0,0,0,13,16.9,19.27,19.27,0,0,0,2.24,1.48c.86.52,1.62-.62,1-1.33s-1.07-1.37-1.67-2-1.19-1.27-1.76-1.92c-1.09-1.26-2.11-2.56-3.07-3.92a76.75,76.75,0,0,1-5.43-8.82c-.38-.74-.75-1.49-1.1-2.25-.18-.37-.35-.75-.52-1.14l-.27-.62-.06-.13-.1-.23c-.66-1.6-1.26-3.24-1.79-4.9a68.17,68.17,0,0,1-2.41-10.18c-.07-.41-.13-.83-.19-1.25,0,.27,0-.2,0-.27l-.09-.78c-.1-.86-.18-1.73-.25-2.61-.13-1.74-.19-3.48-.18-5.23s.09-3.51.23-5.26c.08-.94.17-1.88.29-2.82s.21-1.59.37-2.52a87,87,0,0,1,6.63-21.31c1.55-3.45,3.37-6.71,5.22-10a102.22,102.22,0,0,1,6.06-9.57c.55-.77,1.1-1.52,1.67-2.27.42-.55-.49-1.23-1-.74Z"/><path class="cls-34" d="M1615.71,801.56c-1,2.43-2,4.87-3.22,7.24s-2.26,4.71-3.38,7.07c-2.28,4.81-4.38,9.7-6.37,14.64a211.65,211.65,0,0,0-9.92,29.7,108,108,0,0,0-3.11,29.31,73.7,73.7,0,0,0,6.72,28.74,45.15,45.15,0,0,0,7.36,11.17,32.58,32.58,0,0,0,5,4.43,17.06,17.06,0,0,0,5.9,2.84,4.9,4.9,0,0,0,3.65-.25l-.7.19a7.46,7.46,0,0,0,1.56-.12,1,1,0,0,0,1-.73,1,1,0,0,0-.45-1.12c-.57-.25-1.12-.55-1.7-.76l.83.64a6.3,6.3,0,0,0-2.61-2c-.91-.45-1.8-.89-2.67-1.41s-1.75-1-2.57-1.63l-.56-.42c.41.32-.17-.15-.29-.24q-.62-.51-1.2-1a30.84,30.84,0,0,1-2.19-2.24c-.34-.38-.67-.77-1-1.16l-.45-.56h0l-.3-.41a42.78,42.78,0,0,1-3.36-5.34c-.53-1-1-2-1.48-3-.6-1.29-.78-1.72-1.28-3a68,68,0,0,1-2.17-6.61q-.95-3.42-1.54-6.91l-.27-1.69c0-.3-.09-.6-.13-.91,0,0,0,.32,0,0s0-.38-.07-.57c-.15-1.18-.26-2.36-.36-3.54a95.2,95.2,0,0,1,0-14.33c.09-1.19.2-2.39.33-3.58s.27-2.29.4-3.23c.34-2.34.74-4.66,1.21-7a194.72,194.72,0,0,1,8.79-29.3c1.81-4.84,3.7-9.64,5.51-14.48s3.27-9.69,5-14.5c.44-1.21.87-2.43,1.3-3.65.27-.79-.92-1.07-1.23-.33Z"/><path class="cls-34" d="M1631.86,847.78a64.76,64.76,0,0,0-.73,39,68.68,68.68,0,0,0,5.11,12.32,45,45,0,0,0,4.13,6.12,24.27,24.27,0,0,0,2.41,2.84c.92.86,1.85,1.71,2.85,2.49.45.36,1.19-.09.85-.66-1.09-1.81-2.15-3.64-3.29-5.42s-2.21-3.65-3.18-5.55-2-3.78-2.86-5.73-1.56-3.74-2.23-5.74a70.3,70.3,0,0,1-3.81-25.1,66.26,66.26,0,0,1,2.09-14.21.7.7,0,0,0-1.34-.37Z"/><path class="cls-35" d="M1606.35,680.42A109.15,109.15,0,0,0,1584.73,719a72.4,72.4,0,0,0-3.07,23.37c.12,7.89.92,15.78.67,23.68a51.82,51.82,0,0,1-5.45,22.43,128.71,128.71,0,0,1-11.94,18.69c-9,11.9-19.39,22.63-29.31,33.73a131.13,131.13,0,0,0-13.6,17.29,87.3,87.3,0,0,0-8.81,18.48,82,82,0,0,0-3.15,39.65,86.83,86.83,0,0,0,15.85,37.53c7.54,10,18.41,17.12,27.61,25.42,4.33,3.91,8.51,8,11.39,13.16a44.76,44.76,0,0,1,5.61,20.37c.53,15.06-5.15,29.75-11.94,42.93-1.76,3.4-3.61,6.76-5.44,10.12a2.51,2.51,0,0,0,4.33,2.53c14.4-23.25,27.74-57.77,9.06-82.5-7.55-10-18.38-17.14-27.67-25.37a62,62,0,0,1-11.55-12.92,88.76,88.76,0,0,1-9.36-19.06,78.33,78.33,0,0,1-3.25-39.32,83.48,83.48,0,0,1,17.53-37.52c9.22-11.34,19.67-21.62,29-32.87a186,186,0,0,0,13.39-18c4-6.26,7.91-13,9.86-20.21,4.12-15.27,0-31.12.82-46.62.78-15.3,6.88-30.49,15.08-43.29a105.08,105.08,0,0,1,6.81-9.44c.48-.6-.34-1.45-.86-.86Z"/><path d="M1654.29,621.44c20-19.35,49.79-24,77.59-24.68,41.24-1,80.65,17.42,108.83,47.09,20.19,21.27,32.25,48.78,40.89,76.45,5.68,18.23,8.09,38.41,13.56,57.13,5.93,20.27,18.32,36.11,33.07,50.74,16,15.83,38,23.9,55.62,37.86,31,24.59,55.08,78.53,25.42,113.45-10.83,12.75-29.54,17.21-38.08,32.15-11,19.14,1.89,46.11-10.73,64.19-5.47,7.85-14.82,12.22-24.21,14.11-31.87,6.42-62.23-14.78-82.93-39.84-40.38-48.89-83.88-76.06-96.63-139.29-16.44-59.75-4.17-182.53,13.11-242Z"/><path class="cls-35" d="M1880.73,746.94a116.61,116.61,0,0,0,18.12,42.93,171,171,0,0,0,32.05,34.93,202,202,0,0,0,19.23,14.2c7.9,5.15,16.15,9.73,24.27,14.51,14.77,8.69,28.71,18.45,40.13,31.35,10.4,11.74,18.56,25.83,21.83,41.27,3,14,1.78,29.33-4.06,42.44A57.14,57.14,0,0,1,2020,986.5c-4.92,4.75-10.77,8.37-16.61,11.86-11.39,6.81-24.62,13.75-30.43,26.4-3.77,8.2-3.41,17-3.8,25.84a38.21,38.21,0,0,1-2.26,12.67,24.84,24.84,0,0,1-5.94,8.5A31.2,31.2,0,0,1,1942,1080c-8.36.62-16.25-2-23.51-5.94a60.76,60.76,0,0,1-9.93-6.83c-2.29-1.93-5.49,1.12-3.33,3.33,11.71,12,29.64,19.16,46.19,13.68a35.24,35.24,0,0,0,18.56-14c4.93-7.58,5.16-16.63,5.37-25.37.2-8,1-15.6,5.81-22.28,3.85-5.38,9.45-9.36,15-12.87,6-3.79,12.2-7.15,18.07-11.1a65.74,65.74,0,0,0,16.53-15.42c9-12.17,13-27.72,12.8-42.73-.24-16.07-5.63-31.59-14.3-45-9-13.93-21.13-25.6-34.63-35.12-15.35-10.82-32.52-18.73-48-29.42-26.48-18.33-48.54-43-60.53-73.16-1.47-3.7-2.74-7.47-3.84-11.3a.81.81,0,0,0-1.57.43Z"/><path class="cls-34" d="M1813.38,857.31c12.58,14.72,22.13,32,28.91,50.1,6.88,18.36,12.18,37.28,17,56.27,2.45,9.67,4.8,19.36,7.25,29,2.35,9.27,4.69,18.58,7.71,27.66,6,18,15.45,36.25,32.69,45.8,9,5,19.81,7.37,29.94,4.83a30.24,30.24,0,0,0,12.06-6,28.18,28.18,0,0,0,4.75-5,14.28,14.28,0,0,0,1.37-2.77c.44-1,.94-1.93,1.34-2.93a23.52,23.52,0,0,0,1.5-6c.07-.57-.77-.6-1-.13a24.58,24.58,0,0,1-3,5.7,30.64,30.64,0,0,1-4.41,4.41,33.39,33.39,0,0,1-10.26,6.45c-8.71,3.38-18.48,2.19-26.79-1.75-16.9-8-26.79-25.12-33-42-3.22-8.76-5.65-17.76-8-26.79-2.44-9.43-4.77-18.88-7.17-28.31-4.76-18.67-9.68-37.46-17.07-55.28-7.27-17.55-16-34.51-27.88-49.43q-2.19-2.75-4.5-5.39c-.9-1-2.37.47-1.5,1.5Z"/><path class="cls-34" d="M1818.39,844c3.51,2.39,7.09,4.69,10.44,7.31a105.78,105.78,0,0,1,9.47,8.36,122,122,0,0,1,16,19.76c9.69,14.71,16.87,30.85,23.23,47.22,7.18,18.46,13.27,37.33,20.78,55.66a245.22,245.22,0,0,0,12.24,26.24c4.19,7.53,9.28,14.73,16.18,20a30.79,30.79,0,0,0,21.11,6.64c6.91-.52,14.49-3.41,17.81-9.8a20.12,20.12,0,0,0,1-2.18c.29-.77.39-1.64.69-2.39.46-1.15-1.4-1.65-1.86-.51a10.39,10.39,0,0,1-1.23,1.63,18.5,18.5,0,0,1-1.7,1.73,16.18,16.18,0,0,1-3.58,2.62c-.65.36-1.29.75-2,1.1l-1,.48c-.45.21-.12.05,0,0-.28.12-.56.23-.85.33a29.36,29.36,0,0,1-4.68,1.33l-1.16.19c.55-.08,0,0-.11,0l-.59,0c-.87.08-1.74.12-2.6.12s-1.59,0-2.38-.11l-.71-.07c-.53,0-.1,0,0,0-.47-.06-.94-.14-1.4-.23a28.17,28.17,0,0,1-4.76-1.38c-.72-.28.5.24-.2-.09l-.54-.24c-.43-.2-.85-.41-1.28-.63-.94-.49-1.85-1-2.74-1.59a40.39,40.39,0,0,1-8.8-7.87,69.85,69.85,0,0,1-6.85-9.79,214.12,214.12,0,0,1-12.36-25.17c-7.66-17.87-13.8-36.34-21-54.37-6.55-16.31-14.13-32.23-24.09-46.77a168,168,0,0,0-15.74-19.64,113.75,113.75,0,0,0-18.55-16.16,49.3,49.3,0,0,0-5.3-3.23.82.82,0,0,0-.82,1.41Z"/><path class="cls-34" d="M1832.18,656.35A124.63,124.63,0,0,1,1855.81,688c6.43,12,10.64,25.11,13.88,38.31a217.12,217.12,0,0,1,6.43,44.35c.49,13.72.86,27.64,3.24,41.19,2.29,13.1,7.1,25.43,15.42,35.89,7.84,9.85,18.06,17.73,29,23.94,5.69,3.24,11.6,6.06,17.55,8.77,6.73,3.07,13.58,5.94,19.94,9.73a82.94,82.94,0,0,1,28.56,28.46,62.75,62.75,0,0,1,8.68,34.84,70.24,70.24,0,0,1-8.65,31.3,21.42,21.42,0,0,1-4.27,5.88c-.78.65.34,1.75,1.11,1.11a43.46,43.46,0,0,0,5.51-4.91,32.45,32.45,0,0,0,4.43-6.54,58.59,58.59,0,0,0,5-16.53,89.78,89.78,0,0,0,1.5-16.44,59.54,59.54,0,0,0-3.39-18.49,79.32,79.32,0,0,0-22.89-33.39,98.79,98.79,0,0,0-17.57-12.16c-6.63-3.59-13.6-6.41-20.44-9.55-11.37-5.21-22.77-11.82-32.07-20.26A70.33,70.33,0,0,1,1886.09,821c-3.92-13.37-4.54-27.4-5.26-41.23a272.81,272.81,0,0,0-5.64-44.29,189.77,189.77,0,0,0-13.49-39.89,185.39,185.39,0,0,0-9.21-17.83,116.23,116.23,0,0,0-11.66-15.89c-2.18-2.52-4.49-4.93-6.9-7.24-1.15-1.1-2.91.65-1.75,1.75Z"/><path class="cls-34" d="M1873.17,789.5c-.28,2.35-.61,4.72-.81,7.09a57.79,57.79,0,0,0,.05,6.71q.24,6.88,1,13.75t2.14,13.53a106.76,106.76,0,0,0,3.24,13.08,40.84,40.84,0,0,0,5.08,10.38,64.67,64.67,0,0,0,7.71,9.06,123.42,123.42,0,0,0,19.73,15.62c7.21,4.69,14.73,8.88,22.14,13.22a242.15,242.15,0,0,1,20.6,12.88,83.26,83.26,0,0,1,17,16.13,61.78,61.78,0,0,1,9.31,18,85,85,0,0,1,3.6,41.57,27.53,27.53,0,0,1-.92,4.42c-.17.52.64.74.82.23.51-1.51,1.19-3,1.64-4.49a42.8,42.8,0,0,0,1-4.62,67.35,67.35,0,0,0,.91-10.42,92,92,0,0,0-2.24-21.76,67.61,67.61,0,0,0-7.19-19.09,72.5,72.5,0,0,0-14.95-17.66,140.67,140.67,0,0,0-19.7-14.23c-7.28-4.47-14.87-8.37-22.3-12.59a147.82,147.82,0,0,1-21.29-14.18c-6-5-11.73-10.48-15.79-17.19a32.62,32.62,0,0,1-2.76-5.27c-.73-2-1.26-4-1.8-6q-1.82-6.75-3-13.64t-1.84-13.79c-.21-2.3-.37-4.59-.48-6.89s0-4.75-.26-7.09-.38-4.46-.46-6.71a.13.13,0,0,0-.25,0Z"/><path class="cls-34" d="M1891.56,908.74c1.29,2.11,2.49,4.27,3.62,6.48.56,1.09,1,2.22,1.51,3.34s1,2.29,1.57,3.43q3,6.69,5.44,13.63c3.2,9.28,6.34,18.55,10.2,27.58a119.45,119.45,0,0,0,5.77,11.75,80.9,80.9,0,0,0,7.48,11,57,57,0,0,0,19.88,16.16,33.77,33.77,0,0,0,5.94,2.17,28.55,28.55,0,0,0,2.87.57,17.92,17.92,0,0,0,3.43.29,17.47,17.47,0,0,0,5.85-1.18,14.42,14.42,0,0,0,5-3.2,13.12,13.12,0,0,0,1.74-2.25c.55-.89-.69-1.78-1.43-1.09a10.76,10.76,0,0,1-4.35,2.48,12,12,0,0,1-1.18.3c-.21.05-.43.08-.65.12-.06,0-.41.06-.15,0s-.18,0-.23,0a25.2,25.2,0,0,1-2.75.14c-1,0-1.9-.1-2.85-.16-.44,0-.87-.07-1.31-.12-.62-.07.37.06-.24,0l-.79-.13a29.23,29.23,0,0,1-5.58-1.62l-.25-.09c-.31-.12.39.17.09,0l-.66-.29c-.5-.22-1-.46-1.47-.7-.92-.46-1.81-.94-2.69-1.45a50.64,50.64,0,0,1-5.2-3.48c-.08-.06-.34-.27,0,0l-.3-.23-.59-.48c-.39-.32-.78-.64-1.16-1-.8-.68-1.57-1.38-2.33-2.1-1.5-1.43-2.92-2.94-4.27-4.51-.69-.8-1.37-1.61-2-2.44l-.24-.31s-.29-.36-.13-.15-.08-.11-.12-.16l-.23-.31-1-1.32c-1.24-1.71-2.38-3.48-3.52-5.25a110.86,110.86,0,0,1-6.27-11.15c-4.14-8.34-7.18-17.15-10.74-25.76-1.86-4.52-3.71-9.06-5.69-13.52a70.23,70.23,0,0,0-3.13-6.48c-1.22-2.1-2.42-4.22-3.69-6.3-.62-1-1.26-2-1.91-3-.51-.78-1.75-.08-1.25.73Z"/><path class="cls-36" d="M1344.63,2288.58l93.61-52.78-26.74-64.66L1300.9,2184S1335.52,2250.11,1344.63,2288.58Z"/><path class="cls-37" d="M1454.62,2285.36l-4.29-21.35s-5.76-29.54-9-34.57-11-3-11-3-27.85,15-52.17,22.69-35.69,6.3-35.69,6.3-9.48,3-10.16,6.69,13.17,32.54,13.17,32.54l39.94,46.11Z"/><path class="cls-38" d="M1247.3,2443.15l.24.65a2.19,2.19,0,0,0,.12.33l.15.42.07.18.1.26c0,.08.06.14.08.21l0,.05,0,.08,0,.08.07.16,0,0c0,.1.07.19.1.27l.06.15.07.15,0,.14.06.14.06.13.05.14,0,.11c0,.06,0,.1.06.15s0,.11.06.15l.1.28,0,.09.08.2,0,.09,0,.08a8.65,8.65,0,0,0,3.05,3.53l0,0h0c1,.66,15.54,9.95,54,.87.61-.15,1.25-.29,1.89-.47l.21-.05.28-.07.82-.23.73-.19,1-.28.07,0c.18,0,.36-.1.55-.16,1.17-.33,2.39-.7,3.66-1.09l.48-.15.95-.3.1,0c1.82-.59,3.75-1.22,5.77-1.91l.17-.06.53-.18.54-.18,1.61-.57.55-.18,1.57-.56c.4-.14.8-.28,1.2-.44s.75-.26,1.13-.41l.1,0,1-.39.19-.06c51.34-18.65,142.66-60.08,158.89-67.47,0,0,0,0,0,0l.63-.28a4.07,4.07,0,0,1,.38-.17l1.45-.66a1,1,0,0,0,.09-.15,3.35,3.35,0,0,0,.16-.38c.69-2.25-.12-8.92-2.24-17.85-.56-2.35-1.22-4.86-2-7.48A229.65,229.65,0,0,0,1479,2322c-9.62-22.32-28.63-58-28.63-58-55,44.55-104.87,30.64-104.87,30.64s-17.08,56.54-59.37,85.8c-.58.42-1.18.82-1.79,1.21s-1.19.8-1.81,1.18c-1.21.77-2.46,1.53-3.71,2.25-.66.38-1.29.75-1.91,1.13s-1.11.66-1.66,1l-.11.05-1.66,1.06c-1.25.81-2.44,1.62-3.59,2.42-.4.29-.8.56-1.18.85q-2.25,1.63-4.24,3.28c-.32.25-.64.52-.94.78l-.61.52-1.15,1-1,1c-.31.28-.6.57-.9.85-1.58,1.53-3,3.06-4.28,4.57-.24.29-.48.57-.7.85-.53.65-1,1.28-1.49,1.93-.21.27-.42.56-.6.83-.4.56-.78,1.11-1.13,1.66-.18.27-.35.54-.52.82s-.38.61-.56.92-.28.48-.41.72-.31.54-.45.81a38.92,38.92,0,0,0-2.48,5.57c-.1.25-.19.51-.27.77-.17.51-.33,1-.48,1.53a.08.08,0,0,1,0,.05c-.13.49-.26,1-.37,1.46a35.46,35.46,0,0,0-1,8.08q0,.54,0,1c0,.22,0,.44,0,.66a33,33,0,0,0,.3,3.69l0,.3,0,.3,0,.13,0,.17,0,.29.06.29.05.29,0,.29,0,.28.06.28.06.28h0l.11.54.07.27c0,.18.07.34.11.51h0l.06.27,0,.19a.19.19,0,0,1,0,.07h0l.06.23.07.26.07.24.07.24.17.6,0,.12.08.23.14.45.07.22.14.44.08.21Z"/><path class="cls-12" d="M1370.06,2346.58a4.31,4.31,0,0,1-3-1.23c-18.53-18.07-37.47-9.73-37.66-9.65a4.33,4.33,0,0,1-3.59-7.87c1-.45,24.56-10.84,47.29,11.33a4.33,4.33,0,0,1-3,7.42Z"/><path class="cls-12" d="M1343.34,2362.78a4.34,4.34,0,0,1-3.17-1.38c-11-11.8-26.53-4.37-27.19-4.05a4.32,4.32,0,0,1-3.85-7.74c7.52-3.76,25-7.37,37.37,5.89a4.32,4.32,0,0,1-3.16,7.28Z"/><path class="cls-39" d="M1247.3,2443.15l.3.85.06.13.15.42.07.18.1.26,0,.09.06.17,0,.08,0,.08.07.16.08.23,0,.08.06.15.07.15,0,.14.06.14.06.13.05.14,0,.11,0,.13,0,0,0,.1,0,0,.1.28,0,.09.08.2,0,.09,0,.08a8.65,8.65,0,0,0,3.05,3.53l0,0h0c1,.66,15.54,9.95,54,.87.61-.15,1.25-.29,1.89-.47h.05l.16-.05.28-.07.82-.23,1.8-.5c.18,0,.36-.1.55-.16a4.27,4.27,0,0,0,.48-.13h0l.12,0,.31-.09.9-.27.45-.13.46-.14.46-.15.46-.14.48-.15.47-.14.48-.16.1,0,.13,0,.25-.08.12,0,.86-.27.49-.17.5-.15.28-.09.22-.08.51-.17.51-.17.51-.18.52-.17.52-.17.52-.19.53-.18.54-.18,1.61-.57.55-.18,1.57-.56.08,0,1.12-.4.56-.2.67-.24.43-.17.81-.28,1-.36.59-.22,1.17-.44.59-.22.59-.22.6-.23.6-.22.07,0,.53-.21.61-.23.61-.23c48.31-18.42,136-57.73,152-64.87,0,0,0,0,0,0l.63-.28a4.07,4.07,0,0,1,.38-.17l1.45-.66a1,1,0,0,0,.09-.15,3.35,3.35,0,0,0,.16-.38c.69-2.25-.12-8.92-2.24-17.85-.56-2.35-1.22-4.86-2-7.48-34.28,26.08-117.48,59.06-156.29,74A84.1,84.1,0,0,0,1320.3,2403a69.31,69.31,0,0,0-34.21-22.57c-.59.41-1.19.82-1.79,1.21l-1.81,1.18c-1.21.77-2.46,1.53-3.71,2.25-.66.38-1.29.75-1.91,1.13s-1.11.66-1.66,1l-.11.05-1.66,1.06c-1.25.81-2.44,1.62-3.59,2.42-.4.29-.8.56-1.18.85q-2.25,1.63-4.24,3.28c-.32.25-.64.52-.94.78l-.61.52-1.15,1-1,1c-.31.28-.6.57-.9.85-1.58,1.53-3,3.06-4.28,4.57-.24.29-.48.57-.7.85-.53.65-1,1.28-1.49,1.93-.21.27-.42.56-.6.83-.4.56-.78,1.11-1.13,1.66-.18.27-.35.54-.52.82s-.38.61-.56.92-.28.48-.41.72-.31.54-.45.81a38.92,38.92,0,0,0-2.48,5.57c-.1.25-.19.51-.27.77-.17.51-.33,1-.48,1.53a.08.08,0,0,1,0,.05c-.13.49-.26,1-.37,1.46a35.46,35.46,0,0,0-1,8.08q0,.54,0,1c0,.22,0,.44,0,.66a33,33,0,0,0,.3,3.69l0,.3,0,.3,0,.13,0,.17,0,.29.06.29.05.29,0,.29,0,.28.06.28.06.28h0l.11.54.07.27.06.26.05.25h0l.06.27,0,.19,0,.06h0l.06.23.07.26.07.24.07.24.17.6,0,.12.08.23.14.45.07.22.14.44.08.21Z"/><polygon points="1276.55 2237.07 1452.67 2172.09 1331.66 1964.75 1276.55 2237.07"/><path class="cls-36" d="M1148,2320.87h107.46l8.47-69.46-102.63-43.16S1158.92,2282.88,1148,2320.87Z"/><path class="cls-40" d="M1100.67,2042.51l.1,2.54,8.77,228.31H1281.8l103-474.13S1810,1821.78,1881,1701.42c57.08-96.73-16.75-216.5-16.75-216.5L1635.18,1339.3l-42.06,62.62L1558,1452.83l-23.2,33.6C1344.16,1514.25,987,1540,971,1646.51S1100.67,2042.51,1100.67,2042.51Z"/><g class="cls-41"><path d="M1381.63,1798c-5,0-18.39-8-24.09-11.61a2.27,2.27,0,0,1,2.41-3.85c7.7,4.81,17,9.84,20.56,10.78,0-3-2-10.75-3.5-16.6-2.24-8.83-4.55-18-4.55-23.62a2.27,2.27,0,0,1,4.54,0c0,5.1,2.34,14.35,4.41,22.5,3.38,13.31,4.5,18.57,2.86,21a3,3,0,0,1-2.12,1.35A4.07,4.07,0,0,1,1381.63,1798Z"/></g><g class="cls-41"><path d="M1760.37,1605.27a2.57,2.57,0,0,1-.72-.11c-9-3-19.72-15.24-26-29.73-5.43-12.56-12.44-38.15,1.56-68.38a2.26,2.26,0,1,1,4.11,1.9c-13.25,28.63-6.63,52.82-1.51,64.68,6.45,14.93,16.58,25,23.26,27.22a2.27,2.27,0,0,1-.72,4.42Z"/></g><g class="cls-41"><path d="M1232.08,2268.53h-.22a2.28,2.28,0,0,1-2-2.48c4.74-49.48,47-483.76,72.34-495.51,7-3.26,10.84-6.43,11.68-9.7,1.09-4.22-2.63-9.32-7.35-15.76-2.26-3.08-4.81-6.57-7.1-10.38a3.86,3.86,0,0,1-.16-3.78c5.76-11.87,102.64-25.11,249.79-44,61.7-7.91,115-14.73,139-19.59,66.89-13.55,111.83-68.32,111.83-136.29a2.27,2.27,0,0,1,4.54,0c0,69.1-47.48,127-115.47,140.74-24.16,4.89-77.52,11.72-139.31,19.64-95.29,12.2-238.92,30.6-246.14,41.18,2.13,3.52,4.45,6.68,6.69,9.75,5.21,7.12,9.71,13.27,8.09,19.58-1.22,4.73-5.72,8.76-14.17,12.68-17.37,8.06-51.22,298.54-69.73,491.82A2.27,2.27,0,0,1,1232.08,2268.53Z"/></g><path class="cls-36" d="M1005.14,1093.27q.92.82,2.31,2c2.86,2.32,7.18,5.57,12.73,9.54C1058.1,1131.9,1153,1192.6,1225,1217.37l30.29-116.61s-135.38-30.57-214.08-81.79L1020,1062.52l-13.1,27Z"/><path class="cls-12" d="M1287.1,1096c-6.95-25-41.07-37.37-63.1,1.3s-33.5,125.35-8.93,148.71c23,21.9,49-.57,53.9-11.3S1287.1,1096,1287.1,1096Z"/><path class="cls-42" d="M1558.4,958.82c-83.79,40.73-161.76,142-297.93,137.33-48.87,62.84-30.25,124.52-8.14,147.8,72.15,33.75,230.79,3.87,302.58-45.39C1614.26,1157.83,1637.54,1070.54,1558.4,958.82Z"/><path class="cls-43" d="M1534.41,1488.23H1866c86.09-284.82,31.62-514.59,31.62-514.59-41.61-31.46-92.41-37.22-92.41-37.22l-138.48-3.78c-53.55,2.43-108.36,26-108.36,26-33.39,101-85.28,184.87-83.28,238.75S1553.8,1375.88,1534.41,1488.23Z"/><path class="cls-36" d="M1815.58,937.71c0-2.05-29.71-8.71-40.46-27.66-2.68-4.73-5-11.3-6.95-19.48h-83c1.59,20.07-4.32,36-33.7,43.54C1584.41,1270.38,1816.09,954.1,1815.58,937.71Z"/><path class="cls-42" d="M1866.53,1219.78c9,22.39,20.35,39.56,32,48.6a102.62,102.62,0,0,1,26.39,30.34C1941.67,1327.88,1940,1357,1940,1357c49.56,45.42,169.61,10.4,172.55,2.43-19.47-153.1-107.1-343.08-220.22-387.84C1834.56,1052.21,1841.19,1156.7,1866.53,1219.78Z"/><path class="cls-44" d="M993.12,1058.2s.33,8.54,1.53,22.74q.23,2.7.51,5.67c2.86,2.32,7.18,5.57,12.73,9.54,31.1-21,40-54,40-54l-40.15,11.78Z"/><path class="cls-36" d="M996.78,1085.08c-9.47-.17-20.11-4.21-33.82-15.27-28.78-23.28-57-59.13-57-59.13-13.05-16.49-3-26.47,4.78-22-26.07-18.1-12-38.84,1.39-29.72C896,944.74,914.51,928.44,925,942l.76-.22c-9.44-9.47,5.28-22.44,22.21-8.7l69,53.62c-1.67-4.44-10.07-48.38,16.26-50.6,0,0,12.5,50,15.7,68.47a84,84,0,0,1,2.47,25.57C1044.28,1063.68,1009.63,1084,996.78,1085.08Z"/><path class="cls-44" d="M951.72,1042.56l-3.57-1.36c23.72-62.52,44.68-65.81,45.58-65.94l.5,3.79C994,979.06,974.37,982.85,951.72,1042.56Z"/><rect class="cls-44" x="936.47" y="947.42" width="3.82" height="71.33" transform="translate(-420.44 1007.69) rotate(-47.37)"/><rect class="cls-44" x="928.25" y="973.9" width="3.82" height="66.92" transform="translate(-440.94 1000.38) rotate(-46.99)"/><rect class="cls-44" x="949.97" y="928.59" width="3.82" height="71.92" transform="translate(-401.74 1028.77) rotate(-48.09)"/><path class="cls-44" d="M1012.64,1032.87c-17.58-33.2,1.8-48.8,2-48.95l2.34,3-1.17-1.51,1.18,1.51c-.7.55-17,13.91-1,44.15Z"/><path class="cls-45" d="M1866.53,1219.78c9,22.39,20.35,39.56,32,48.6a102.62,102.62,0,0,1,26.39,30.34c71.22,36.73,172.92,74.45,143.47,16.93C2030.51,1241.66,1898.4,1223.19,1866.53,1219.78Z"/><path d="M1100.67,2042.51l.1,2.54c9.65-102.68,36.56-379,50.39-422.82,17-54,398.08-93.72,398.08-93.72l37-40.28h-51.85c.11-.6.21-1.2.3-1.79C1344.1,1514.25,987,1540,971,1646.51S1100.67,2042.51,1100.67,2042.51Z"/><path class="cls-36" d="M1921.21,1289.64s-69.22-11.91-282-20.3l-5.6,82s238.66,92.88,317.18,76c55.48-12,78.41-40.16,70.37-70.36C2011.29,1319.69,1982.5,1302.11,1921.21,1289.64Z"/><path class="cls-44" d="M1530.4,1294a1.93,1.93,0,0,1-.92-3.62c7.57-4.08,19.47-12.6,19.18-18.11a1.93,1.93,0,1,1,3.85-.19c.22,4.31-3.38,9.31-10.69,14.87a89.13,89.13,0,0,1-10.51,6.81A1.91,1.91,0,0,1,1530.4,1294Z"/><path class="cls-46" d="M1565.08,1041.47l-6,13.65a17.17,17.17,0,0,0,3.3,18.72l8.81,9.24a7.93,7.93,0,0,1,2.13,4.59l2.53,23.68a7.87,7.87,0,0,1-8.14,8.7l-85.34-3.47a19,19,0,0,1-14.34-7.45h0a19,19,0,0,1-3.8-13.77l3-26.3Z"/><path class="cls-46" d="M1502.13,1315.72l35.57,2.31a23.14,23.14,0,0,0,24.64-23c.07-14.65.05-29.4.14-31.77l5.26-143.21-85.34-3.47,4.28,26.69a131.94,131.94,0,0,1,1.29,31l-1.14,14.86c-.86,11.31-1.31,39-3.11,66.28-.66,10-1.75,22.86-3.07,34.57A23.14,23.14,0,0,0,1502.13,1315.72Z"/><polygon class="cls-47" points="1482.4 1116.58 1567.74 1120.05 1566.84 1144.61 1482.4 1116.58"/><path class="cls-12" d="M1332.31,1139.43c26-19.21,44.45-72,44.14-134-.32-61.85-19.23-114.34-45.28-133.42a44.58,44.58,0,0,0-5.61-3.52,34,34,0,0,0-16.24-4.18l32.43-.17c36.67-.18,66.72,63,67.12,141.13s-29,141.59-65.68,141.78l-32.42.17a34.28,34.28,0,0,0,16.19-4.33A45.37,45.37,0,0,0,1332.31,1139.43Z"/><path class="cls-48" d="M1243.64,1006.07c.22,41.79,8.92,79.31,22.57,105.13,11.89,22.46,27.5,36.06,44.56,36,25.06-.13,46.73-29.81,57.81-73.54a275.29,275.29,0,0,0,7.87-68.25c-.14-26.26-3.63-50.85-9.59-71.9-11.77-41.55-33.2-69.34-57.54-69.22-17.81.09-33.92,15.14-45.72,39.55C1251.12,929.63,1243.44,965.91,1243.64,1006.07Z"/><path class="cls-49" d="M1285.89,1037.94l88.12,7a297,297,0,0,0-.41-79.1l-88,7.9c8.31,0,15.13,14.29,15.22,32a66.76,66.76,0,0,1-.71,10.11C1298.16,1028.67,1292.55,1037.9,1285.89,1037.94Z"/><path class="cls-50" d="M1270.66,1005.93c.09,17.72,6.91,32.06,15.23,32s15-14.44,14.9-32.17-6.91-32.06-15.23-32S1270.57,988.2,1270.66,1005.93Z"/><path class="cls-46" d="M1630.26,1077.26a24.07,24.07,0,0,1-3.48,2.17l44.38-20.58v0c12.41-4.33,21.81-27.35,21.67-55-.07-13.86-2.52-26.53-6.49-36.25s-9.52-16.51-15.74-18.6L1626,928.78c.55.27,1.09.56,1.63.88.27.18.57.36.84.55a28.79,28.79,0,0,1,4.17,3.34,9.92,9.92,0,0,1,.8.79,39.8,39.8,0,0,1,3.34,3.85q.76,1,1.5,2.07c.74,1.07,1.46,2.18,2.15,3.36l.68,1.2c.23.4.46.81.67,1.21s.46.87.69,1.31.43.82.62,1.25c.64,1.31,1.26,2.66,1.86,4.07.29.7.59,1.41.87,2.14s.6,1.6.92,2.41c.14.43.29.87.44,1.29.54,1.52,1,3.09,1.52,4.7a155.2,155.2,0,0,1,.43,81.57v0c-.24.84-.5,1.67-.75,2.48s-.48,1.5-.72,2.23l-.09.29-.44,1.22c-.25.74-.54,1.49-.81,2.22s-.56,1.43-.85,2.13c-.38,1-.78,1.89-1.2,2.8s-.8,1.75-1.24,2.6a64.71,64.71,0,0,1-4.09,7.07l-.73,1.06c-.24.34-.5.68-.74,1a37.49,37.49,0,0,1-6.38,6.72C1630.82,1076.85,1630.53,1077.06,1630.26,1077.26Z"/><path class="cls-12" d="M1609.7,1074.09c12.19-12.5,20.52-39.16,20.36-70-.15-28.91-7.72-54.06-18.81-67.3a34,34,0,0,0-5.72-5.52,20,20,0,0,0-12.18-4.38l24.32-.12c20-.1,36.49,34.46,36.71,77.19s-15.87,77.45-35.92,77.55l-24.32.12a20,20,0,0,0,12.14-4.5A30.82,30.82,0,0,0,1609.7,1074.09Z"/><path class="cls-51" d="M1377.07,1127l41.14-13.57,18.22-6q10-3.29,20-6.13,9.06-2.6,18.16-4.81,17.42-4.31,35.05-7.33a513,513,0,0,1,84.42-7.47h.05a20.05,20.05,0,0,0,12.14-4.5,30.82,30.82,0,0,0,3.42-3.05c12.19-12.5,20.52-39.16,20.36-70,0-4.69-.25-9.29-.64-13.75-2.06-23-8.88-42.46-18.17-53.55a33.51,33.51,0,0,0-5.72-5.51,20,20,0,0,0-12.18-4.39A512.35,512.35,0,0,1,1513.4,921c-1.53-.23-3.07-.47-4.6-.72q-17.65-2.87-35.11-7-9.15-2.15-18.22-4.62-10.1-2.78-20.13-6L1417.09,897l-41.26-13.15v0c19.55,24.59,32.78,69.72,33,121.38q.06,11.25-.69,22c-2.89,42.34-14.61,78.48-31.11,99.68Z"/><path class="cls-48" d="M1377.07,1127l41.14-13.57,18.22-6q10-3.29,20-6.13,9.06-2.6,18.16-4.81,17.42-4.31,35.05-7.33a513,513,0,0,1,84.42-7.47h.05a20.05,20.05,0,0,0,12.14-4.5,30.82,30.82,0,0,0,3.42-3.05c12.19-12.5,20.52-39.16,20.36-70,0-4.69-.25-9.29-.64-13.75A128.7,128.7,0,0,1,1564,1038.4c-34.16,11.21-107.79-1-155.78-11.15-2.89,42.34-14.61,78.48-31.11,99.68Z"/><path class="cls-52" d="M1581.92,960.62s-2.57,17.6-31.94,20.35c-36.29,3.41-123.81-23.75-129.75-50.69s46.86,9.7,99.21,12.28C1563.29,944.71,1584.07,942.8,1581.92,960.62Z"/><path class="cls-53" d="M1263.6,903.82a97.11,97.11,0,0,1,71.86,4.79,95.27,95.27,0,0,1,31.4,24.88c-11.77-41.55-33.2-69.34-57.54-69.22C1291.51,864.36,1275.4,879.41,1263.6,903.82Z"/><path class="cls-36" d="M1468.91,1227c2.9,9.1,14.17,13.4,14.17,13.4l1.9,59.72a32.45,32.45,0,0,0,16.4,27.12c13.1,7.5,21.45,18.47,66.73,22.32,24.85,2.12,60.8-.33,65.55,1.77h0l5.58-81.84,0-.11-36.45-6.52s-7.51-34.78-32-51.68c-17.37-12-29-30.58-33.85-44.29a5.91,5.91,0,0,0-10.89-.76c-5.82,11.86-10.08,30.67,4.92,50.73,0,0-56.13-13.3-61.3-1.09A15.79,15.79,0,0,0,1468.91,1227Z"/><path class="cls-44" d="M1554.18,1223.48a3.42,3.42,0,0,1-.44,0l-23.14-4.15a2.52,2.52,0,1,1,.89-5l23.14,4.14a2.52,2.52,0,0,1-.45,5Z"/><path class="cls-44" d="M1531.26,1251.51a2.28,2.28,0,0,1-.45,0l-48.18-8.62a2.52,2.52,0,1,1,.89-5l48.18,8.62a2.52,2.52,0,0,1-.44,5Z"/><path class="cls-44" d="M1523.32,1279.18a2.44,2.44,0,0,1-.8-.13l-38.28-12.82a2.52,2.52,0,1,1,1.6-4.78l38.28,12.82a2.52,2.52,0,0,1-.8,4.91Z"/><path class="cls-44" d="M1521.34,1306.89a2.69,2.69,0,0,1-.78-.12L1484,1294.84a2.53,2.53,0,0,1,1.57-4.8l36.61,11.93a2.52,2.52,0,0,1-.79,4.92Z"/><path class="cls-36" d="M1797.25,752.66c-18.31-6.43-39,4.48-46.08,24.37-.14.36-.22.73-.34,1.1-27.73-10.22-78.82-38.44-102.24-111.78,0,0-46.22,29.38-47.32,104.46s-.83,119.7,63.23,105.58l-2.83,61.79h134.74L1786,829.8c16.26-7,25-11.34,31.5-29.49C1824.63,780.42,1815.57,759.09,1797.25,752.66Z"/><path class="cls-44" d="M1664.5,876.39s44.78-30.86,86.71-30c0,0-34.35,81.51-88.66,73.26Z"/><path class="cls-44" d="M1795.69,763.87c.32-.12.5.32.25.51-12.77,9.43-16.81,24.48-18.46,39.42,2.86-6.33,7.88-10.7,16.3-7.55.44.17.24.84-.19.86-6.18.28-10.14,2.39-12.86,8-1.93,4-2.74,8.65-3.74,13-.33,1.44-2.82,1.37-2.72-.21l0-.36C1769.15,799.64,1776.61,770.77,1795.69,763.87Z"/><path class="cls-36" d="M1642,628.46s-98.77,198.14-16.58,248.32c55.09,33.63,149.88-50.38,149.88-50.38l-14.42-45.21C1765.74,773.17,1852,619.9,1642,628.46Z"/><path d="M1642,625.56a119.43,119.43,0,0,0-4.44,13.94,28.61,28.61,0,0,0-1.41,4.25c-.8,3-1.49,6.12-2,9.22a111.49,111.49,0,0,0-1.43,18.33A100.61,100.61,0,0,0,1634.4,690c1.09,5.8,2.47,12.22,5.17,17.51.31.61,1.36.42,1.23-.33-.5-2.91-1.42-5.79-2-8.7s-1.16-5.88-1.59-8.84c-.5-3.46-.82-6.94-1-10.43,15,73.69,128.24,110.94,128.24,110.94s-3.55-28.44,9.53-37.48C1787.64,743.22,1818,607.85,1642,625.56Z"/><path d="M1632.67,676.76s-24.32,39.93-30,57.59c-5.54,17.19-7.84-34.3,3.85-60.12s26-41.43,33.69-41.43S1632.67,676.76,1632.67,676.76Z"/><path class="cls-44" d="M1632.13,825.77a2.43,2.43,0,0,1-.38,0c-.27,0-6.66-1.2-18-7-3.42-1.74-4.45-4.17-4.71-5.9-1-6.7,7.32-14.77,14-21.25a63.37,63.37,0,0,0,5-5.11c4.15-5.31,4.24-14.46,4.24-14.55a2.23,2.23,0,0,1,2.22-2.21h0a2.21,2.21,0,0,1,2.21,2.22c0,.44-.08,10.75-5.18,17.27a64.27,64.27,0,0,1-5.38,5.57c-5,4.85-13.39,13-12.72,17.4.1.66.45,1.64,2.34,2.6,10.7,5.44,16.73,6.56,16.79,6.57a2.22,2.22,0,0,1-.38,4.41Z"/><path class="cls-54" d="M1659.44,780.41c-.54,2.92.88,5.62,3.15,6s4.56-1.63,5.1-4.55-.88-5.61-3.16-6S1660,777.49,1659.44,780.41Z"/><path class="cls-54" d="M1617.52,776.54c-.1,3,1.7,5.43,4,5.5s4.27-2.26,4.37-5.23-1.7-5.43-4-5.5S1617.62,773.57,1617.52,776.54Z"/><path class="cls-54" d="M1675.59,766.46a4.39,4.39,0,0,1-3-1.15c-.34-.3-7.1-6.15-15.25-2.77a4.44,4.44,0,0,1-3.41-8.2c13.48-5.6,24.18,4,24.63,4.4a4.44,4.44,0,0,1-3,7.72Z"/><path class="cls-54" d="M1631.72,763.14a4.43,4.43,0,0,1-2.86-1,10.16,10.16,0,0,0-12.9-.05,4.44,4.44,0,0,1-5.45-7c9.85-7.65,20.07-3.15,24.1.3a4.44,4.44,0,0,1-2.89,7.81Z"/><path class="cls-44" d="M1665.75,804c0,5.5,9.67,10,21.63,10s21.67-4.39,21.69-9.89-9.67-10-21.63-10S1665.77,798.48,1665.75,804Z"/><path class="cls-55" d="M1679.56,657.89s-5.5,54.28,65.09,84.8c0,0-33.72-41.29-29.46-69.7,0,0,28.4,45.14,99,67.59,0,0-112.1-83.48-110.68-125.93,0,0-8.1,40.09-2.78,69.2C1700.72,683.85,1679.91,669.12,1679.56,657.89Z"/><path class="cls-56" d="M1630.16,836.3s2.46,10,9.06,16a16.33,16.33,0,0,0,8.91,4.41c7.36,1,10.07-5,11-10.69a39,39,0,0,0,.37-9.2A47,47,0,0,1,1630.16,836.3Z"/><path class="cls-57" d="M1639.22,852.32a16.33,16.33,0,0,0,8.91,4.41c7.36,1,10.07-5,11-10.69C1651.76,843.8,1642.71,845.67,1639.22,852.32Z"/><path class="cls-58" d="M1667,809.74c-.31,0-.62,0-.93,0-13.9-.55-24.71-13.5-24.09-28.85l1.51.06-1.51-.06a29.22,29.22,0,0,1,8.11-19.35,23.57,23.57,0,0,1,35.75,1.43,30,30,0,0,1-1.57,39.27A24,24,0,0,1,1667,809.74Zm.36-52.7a21,21,0,0,0-15.1,6.6A26.21,26.21,0,0,0,1645,781c-.55,13.68,9,25.22,21.18,25.7a20.91,20.91,0,0,0,15.91-6.58,27,27,0,0,0,1.41-35.22,21,21,0,0,0-15.34-7.84Z"/><path class="cls-58" d="M1604.26,807.24l-.93,0c-13.9-.55-24.71-13.5-24.09-28.86a29.18,29.18,0,0,1,8.11-19.34,23.87,23.87,0,0,1,18.2-7.5c13.9.55,24.71,13.5,24.1,28.86a29.28,29.28,0,0,1-8.12,19.34A24,24,0,0,1,1604.26,807.24Zm.36-52.71a21,21,0,0,0-15.1,6.61,26.21,26.21,0,0,0-7.25,17.34h0c-.55,13.69,9,25.22,21.18,25.71a20.92,20.92,0,0,0,15.91-6.59,26.21,26.21,0,0,0,7.25-17.35c.55-13.68-8.95-25.21-21.18-25.7Zm-23.87,23.89h0Z"/><path class="cls-58" d="M1644.43,779.42a1.51,1.51,0,0,1-.74-.19c-.11-.06-10.29-5.68-14.45-.89a1.52,1.52,0,1,1-2.29-2c5.78-6.66,17.72-.05,18.22.23a1.52,1.52,0,0,1-.74,2.84Z"/><path class="cls-58" d="M1690.49,778.48a1.51,1.51,0,0,1-.41-3l82.7-23.34a1.52,1.52,0,0,1,.83,2.92l-82.71,23.34A1.92,1.92,0,0,1,1690.49,778.48Z"/><path class="cls-12" d="M1881.45,1273.4c-15.11-3.78-42.81-17.63-51.63,7.55s-8.81,129.7,16.37,141,47.85,7.56,47.85,0S1881.45,1273.4,1881.45,1273.4Z"/><path class="cls-42" d="M1946,1262.3s-73.86-7.39-83.36,14.77-4.22,144.57,27.44,156.17,150.89,34.83,201.54-3.16,9.5-117.13-22.16-142.46S1946,1262.3,1946,1262.3Z"/><path class="cls-37" d="M1253.08,2364.53l4.08-22.55s5.81-31.14,4.59-37.31-9.62-7.22-9.62-7.22-33.06,3.86-59.84,2-37.35-7.67-37.35-7.67-10.44-.74-12.55,2.61.29,37,.29,37l21.2,60.58Z"/><path class="cls-38" d="M989.09,2438.56l0,.73c0,.13,0,.25,0,.37l0,.48v.49a1,1,0,0,1,0,.24v.46c0,.11,0,.21,0,.31v1.09a1,1,0,0,1,0,.17,1,1,0,0,0,0,.17v.83a9,9,0,0,0,1.61,4.63l0,0v0c.7,1,11.35,15.76,52.5,21.79.65.09,1.34.19,2,.27l.21,0,.3,0,.9.1.79.08,1.09.12h.07c.2,0,.4,0,.61.06,1.27.12,2.6.24,4,.34l.52,0,1.06.08h.1c2,.13,4.15.26,6.39.37h.19l.58,0,.6,0,1.8.06.61,0,1.76.06,1.34,0,1.26,0h.12l1.17,0h.21c57.46,1.65,162.86-3.49,181.61-4.44h.06l.72,0,.44,0,1.67-.08a.72.72,0,0,0,.15-.11,2.26,2.26,0,0,0,.3-.31c1.55-1.93,3.34-8.78,4.73-18.34.36-2.51.69-5.22,1-8.07a241.32,241.32,0,0,0,1.14-31c-.77-25.57-5.55-67.82-5.55-67.82-71.08,22.27-114.47-10.66-114.47-10.66s-38.63,48.7-91.35,60.93c-.73.19-1.46.35-2.21.49s-1.48.32-2.23.45c-1.49.29-3,.55-4.51.77-.78.11-1.55.23-2.3.36s-1.35.22-2,.35h-.12l-2,.39c-1.54.31-3,.63-4.45,1l-1.49.37q-2.84.73-5.41,1.56l-1.23.4-.79.28-1.52.54-1.37.53c-.41.16-.81.32-1.2.49a63.85,63.85,0,0,0-6,2.81l-1,.56c-.77.43-1.5.86-2.21,1.31-.31.19-.62.38-.91.58-.6.39-1.19.79-1.74,1.18-.29.2-.56.4-.83.61s-.61.45-.9.68l-.69.54c-.25.2-.51.41-.75.62a42.48,42.48,0,0,0-4.58,4.49,8.39,8.39,0,0,0-.56.65c-.37.44-.73.88-1.07,1.31a.1.1,0,0,1,0,.05c-.32.42-.63.85-.93,1.28a37.71,37.71,0,0,0-4.13,7.51c-.14.35-.28.69-.41,1s-.15.43-.23.65a38,38,0,0,0-1.13,3.72l-.08.32-.08.31,0,.13,0,.18-.06.3-.06.31-.07.3-.06.3-.06.29,0,.31,0,.29h0l-.1.57,0,.29c0,.19-.06.37-.09.55h0l0,.28,0,.21s0,0,0,.07h0l0,.26,0,.27,0,.27,0,.26-.06.65,0,.13v.25l0,.5,0,.24,0,.49v.4Z"/><path class="cls-12" d="M1148.29,2392a4.54,4.54,0,0,1-4.15-2.7c-11.13-24.86-32.89-24-33.11-24a4.55,4.55,0,0,1-.46-9.09c1.15-.06,28.23-1.09,41.88,29.4a4.56,4.56,0,0,1-2.3,6A4.51,4.51,0,0,1,1148.29,2392Z"/><path class="cls-12" d="M1115.87,2397.47a4.55,4.55,0,0,1-4.24-2.9c-6.19-15.8-24.26-14.55-25-14.49a4.56,4.56,0,0,1-.77-9.08c8.81-.75,27.32,2.49,34.28,20.25a4.55,4.55,0,0,1-2.58,5.9A4.45,4.45,0,0,1,1115.87,2397.47Z"/><path class="cls-39" d="M989.09,2438.56l0,1v.15l0,.48v3.76a9,9,0,0,0,1.61,4.63l0,0v0c.7,1,11.35,15.76,52.5,21.79.65.09,1.34.19,2,.27h0l.17,0,.3,0,.9.1,1.95.2c.2,0,.4,0,.61.06l.51.06h.16l.34,0,1,.09.5,0,.5,0,.5,0,.51,0,.52,0,.52.05.54,0h.1l.14,0,.29,0h.13l1,.07.54,0,.55,0,.31,0h.24l.56,0,.57,0,.57,0,.57,0,.58,0,.58,0,.58,0,.6,0,1.8.06.61,0,1.76.06h.09l1.25.05h.63l.75,0h.48l.9,0,1.08,0,.67,0,1.32,0h1.33l.67,0,.67,0h.68l.68,0h.69c54.4.7,155.49-3.76,173.82-4.58h.06l.72,0,.44,0,1.67-.08a.72.72,0,0,0,.15-.11,2.26,2.26,0,0,0,.3-.31c1.55-1.93,3.34-8.78,4.73-18.34.36-2.51.69-5.22,1-8.07-43.64,12.23-137.83,12.25-181.6,11.84a88.38,88.38,0,0,0-3.9-25.09,72.87,72.87,0,0,0-24.73-35.34c-.74.18-1.47.34-2.21.49s-1.48.31-2.23.45c-1.49.29-3,.55-4.51.77-.78.11-1.55.23-2.3.36s-1.35.22-2,.35h-.12l-2,.39c-1.54.31-3,.63-4.45,1l-1.49.37q-2.84.73-5.41,1.56l-1.23.4-.79.28-1.52.54-1.37.53c-.41.16-.81.32-1.2.49a63.85,63.85,0,0,0-6,2.81l-1,.56c-.77.43-1.5.86-2.21,1.31-.31.19-.62.38-.91.58-.6.39-1.19.79-1.74,1.18-.29.2-.56.4-.83.61s-.61.45-.9.68l-.69.54c-.25.2-.51.41-.75.62a42.48,42.48,0,0,0-4.58,4.49,8.39,8.39,0,0,0-.56.65c-.37.44-.73.88-1.07,1.31a.1.1,0,0,1,0,.05c-.32.42-.63.85-.93,1.28a37.71,37.71,0,0,0-4.13,7.51c-.14.35-.28.69-.41,1s-.15.43-.23.65a38,38,0,0,0-1.13,3.72l-.08.32-.08.31,0,.13,0,.18-.06.3-.06.31-.07.3-.06.3-.06.29,0,.31,0,.29h0l-.1.57,0,.29,0,.28,0,.27h0l0,.28,0,.21v.06h0l0,.26,0,.27,0,.27,0,.26-.06.65,0,.13v.25l0,.5,0,.24,0,.49v.4Z"/><path class="cls-19" d="M520.48,1140.1v231.29A83.16,83.16,0,0,0,604,1454.47H885.3c46.11,0,82.64-37,82.64-83.08V1140.1a83.48,83.48,0,0,0-34.22-68,82,82,0,0,0-48.42-16H604C557.89,1056.14,520.48,1094,520.48,1140.1Z"/><path class="cls-12" d="M610.53,1251c0,77.87,63.35,141.22,141.22,141.22S893,1328.82,893,1251s-63.35-141.21-141.21-141.21c-.71,0-1.39.1-2.09.11a5.84,5.84,0,0,0-1.56.08,140.73,140.73,0,0,0-101.94,47.57,6.54,6.54,0,0,0-1.81,2A140.5,140.5,0,0,0,610.53,1251Zm13.37,6.52h42.43a132.48,132.48,0,0,0,.56,13.37,137,137,0,0,0,12.26,44,150.19,150.19,0,0,0-28.45,14.65A127.43,127.43,0,0,1,623.9,1257.47Zm227.88,73.41a266.66,266.66,0,0,0-36.21-15.81q15.16-29,18.16-57.6h45.86A127.42,127.42,0,0,1,851.78,1330.88Zm27.81-86.45H834.43a132.84,132.84,0,0,0-.56-13.67,137,137,0,0,0-12.45-44.47,149.86,149.86,0,0,0,30.16-15.53A127.47,127.47,0,0,1,879.59,1244.43Zm-134.36,0H680.12q3-27.08,18.19-54.8a213.91,213.91,0,0,0,46.92,8.27ZM705,1178.2q15.47-24.4,40.22-49.13v56A196.91,196.91,0,0,1,705,1178.2Zm53.26-49.13c11.41,9,30.28,26.16,44.48,50a167,167,0,0,1-44.48,6.38Zm50.62,61.48a123.45,123.45,0,0,1,12,41.59,117.12,117.12,0,0,1,.48,12.29H758.27v-46.26a182.76,182.76,0,0,0,39.41-4.58C801.63,1192.68,805.31,1191.63,808.89,1190.55Zm-5.95,120.5a214,214,0,0,0-44.67-8v-45.56h62.35Q817.58,1284,802.94,1311.05Zm-6.68,11.5q-14.71,23.46-38,47.22v-53.88A196.74,196.74,0,0,1,796.26,1322.55Zm-51,52.08c-11-8.3-32.07-26.47-47.5-52.59a167.4,167.4,0,0,1,47.5-6.68Zm-53.6-64.1a123.39,123.39,0,0,1-11.77-41.07,119.81,119.81,0,0,1-.49-12h65.86v45.16a183.25,183.25,0,0,0-41.41,4.59C699.53,1308.21,695.48,1309.34,691.63,1310.53Zm-67.73-66.1a127.45,127.45,0,0,1,27.89-73.5,265.61,265.61,0,0,0,33.9,14.66Q670,1215.17,667,1244.43Zm107.5-119.87q-24,24.84-39.22,49.64a254.23,254.23,0,0,1-31.5-13.31A127.87,127.87,0,0,1,731.4,1124.56ZM842.87,1161a138.17,138.17,0,0,1-27.34,13.87c-12.66-22.25-29.14-39.18-41.74-50A128,128,0,0,1,842.87,1161Zm-74.33,217q25-25.71,40.56-51.37A256,256,0,0,1,842.87,1341,127.86,127.86,0,0,1,768.54,1377.9Zm-109.28-38.45A138.19,138.19,0,0,1,685,1326.37c12.64,22.37,29.17,39.39,41.84,50.29A127.93,127.93,0,0,1,659.26,1339.45Z"/></g></g></svg>