<?xml version="1.0" encoding="utf-8"?>
<!-- Generator: Adobe Illustrator 24.0.0, SVG Export Plug-In . SVG Version: 6.00 Build 0)  -->
<svg version="1.1" id="Layer_1" xmlns="http://www.w3.org/2000/svg" xmlns:xlink="http://www.w3.org/1999/xlink" x="0px" y="0px"
	 viewBox="0 0 4680 3120" style="enable-background:new 0 0 4680 3120;" xml:space="preserve">
<style type="text/css">
	.st0{fill:#FFFFFF;}
	.st1{fill:url(#SVGID_1_);}
	.st2{fill:url(#SVGID_2_);}
	.st3{fill:url(#SVGID_3_);}
	.st4{fill:url(#SVGID_4_);}
	.st5{fill-rule:evenodd;clip-rule:evenodd;fill:url(#SVGID_5_);}
	.st6{fill-rule:evenodd;clip-rule:evenodd;fill:#0E2D34;}
	.st7{fill-rule:evenodd;clip-rule:evenodd;fill:url(#SVGID_6_);}
	.st8{fill-rule:evenodd;clip-rule:evenodd;fill:#5F9850;}
	.st9{fill-rule:evenodd;clip-rule:evenodd;fill:url(#SVGID_7_);}
	.st10{fill:#3030B5;}
	.st11{fill:#0E5B9B;}
	.st12{fill:#1869C9;}
	.st13{fill:#2D71D3;}
	.st14{fill:#B6D4FF;}
	.st15{fill:#1A6BE2;}
	.st16{fill:#FF5D98;}
	.st17{fill:#2D1F7C;}
	.st18{fill:#2064D1;}
	.st19{fill:#62D3BD;}
	.st20{fill:#FF7BAD;}
	.st21{fill:#443096;}
	.st22{fill:#5193F4;}
	.st23{fill:#DCECFF;}
	.st24{fill:#4D388A;}
	.st25{fill:#F7622A;}
	.st26{fill:#22A851;}
	.st27{fill:#FCD740;}
	.st28{fill:#4A9CFF;}
	.st29{fill:#3FC9EE;}
	.st30{fill:#4A4AC6;}
	.st31{fill:#00CCFF;}
	.st32{fill:#FF56A9;}
	.st33{fill:#E3EAFF;}
	.st34{fill:#FFC359;}
	.st35{opacity:0.55;fill:#C9C9C9;enable-background:new    ;}
	.st36{fill:#4A22C6;}
	.st37{fill:#FFB0D0;}
	.st38{fill:#09089F;}
	.st39{fill:#5240A0;}
	.st40{fill:#4C7BED;}
	.st41{fill:#336BDD;}
	.st42{opacity:0.73;fill:#C4C4C4;enable-background:new    ;}
	.st43{fill:#5B4CED;}
	.st44{fill:#2F36AD;}
	.st45{enable-background:new    ;}
	.st46{fill:#E7F2F2;}
	.st47{fill:#FF6B6E;}
	.st48{fill:#FFC54F;}
	.st49{fill:#C1CC8C;}
	.st50{opacity:0.62;fill:#8DC1FF;enable-background:new    ;}
	.st51{fill:#FFBA94;}
	.st52{fill:#F24959;}
	.st53{fill:#E3E9EA;}
	.st54{fill-rule:evenodd;clip-rule:evenodd;fill:#1B2A6B;}
	.st55{opacity:0.6;fill:url(#SVGID_8_);enable-background:new    ;}
	.st56{fill:#253984;}
	.st57{fill:#5A1103;}
	.st58{fill:none;stroke:#1B2A6B;stroke-width:2.9931;stroke-miterlimit:10.0439;}
	.st59{fill:#FCA286;}
	.st60{opacity:0.6;fill:url(#SVGID_9_);enable-background:new    ;}
	.st61{fill:#EA426E;}
	.st62{fill:#4638A8;}
	.st63{fill:#6553BC;}
	.st64{fill:#ABABFF;}
	.st65{fill:#F94B70;}
	.st66{fill:none;stroke:#1B2A6B;stroke-width:2.49;stroke-miterlimit:10;}
	.st67{fill-rule:evenodd;clip-rule:evenodd;fill:#21367F;}
	.st68{opacity:0.6;fill-rule:evenodd;clip-rule:evenodd;fill:url(#SVGID_10_);enable-background:new    ;}
	.st69{fill:#F29A30;}
	.st70{fill:#FABF44;}
	.st71{fill:#F4AD2F;}
	.st72{fill:#FFD07D;}
	.st73{fill:#352D29;}
	.st74{opacity:0.6;fill:url(#SVGID_11_);enable-background:new    ;}
	.st75{fill:#443A36;}
	.st76{opacity:0.6;fill:url(#SVGID_12_);enable-background:new    ;}
</style>
<title>05</title>
<g>
	<g id="_05">
		<rect class="st0" width="4680" height="3120"/>
		
			<linearGradient id="SVGID_1_" gradientUnits="userSpaceOnUse" x1="2135.229" y1="2640.2505" x2="2254.6589" y2="615.1404" gradientTransform="matrix(1 0 0 -1 0 3120)">
			<stop  offset="0" style="stop-color:#FFFFFF"/>
			<stop  offset="1" style="stop-color:#87C5F5"/>
		</linearGradient>
		<path class="st1" d="M3650.8,1191.6c-139.1-229.1-387.7-382.1-672.2-382.1c-77,0-151.1,12.3-221.9,32.5
			c-168.8-273.2-467.7-455.7-809.6-455.7c-464.5,0-852,336.9-937.8,783c-13.9-0.9-27.5-2.6-41.8-2.6
			c-394.4,0-714.2,324.8-714.2,724.7c0,400.4,319.9,725.1,714.2,725.1h2501.8c394.7,0,714.6-324.7,714.6-725.1
			C4183.8,1555,3957.7,1272.7,3650.8,1191.6z"/>
		
			<linearGradient id="SVGID_2_" gradientUnits="userSpaceOnUse" x1="1976.1011" y1="1131.2783" x2="1976.1011" y2="1451.9784" gradientTransform="matrix(0.89 0 0 -0.76 645.41 3648.26)">
			<stop  offset="0" style="stop-color:#FFFFFF"/>
			<stop  offset="1" style="stop-color:#94A3F5"/>
		</linearGradient>
		<polygon class="st2" points="562.6,2616.7 369.8,2815.5 4438.5,2817.3 4178.4,2618.2 		"/>
		
			<linearGradient id="SVGID_3_" gradientUnits="userSpaceOnUse" x1="1308.636" y1="994.634" x2="1838.2059" y2="223.734" gradientTransform="matrix(1 0 0 -1 0 3120)">
			<stop  offset="0" style="stop-color:#00B488"/>
			<stop  offset="0.92" style="stop-color:#007BC0"/>
		</linearGradient>
		<path class="st3" d="M2472.2,2432.9c0,0-289.1-482.5-667.1-275.2c0,0-98.2-250.8-400.3-177.8c-268.4,64.9-436,235.1-436,235.1
			s-298.6-189-407.6,72.1C466.8,2513.2,860,2614.8,860,2614.8h1612.2V2432.9z"/>
		
			<linearGradient id="SVGID_4_" gradientUnits="userSpaceOnUse" x1="3746.73" y1="1233.77" x2="2891.8" y2="-38.6898" gradientTransform="matrix(1 0 0 -1 0 3120)">
			<stop  offset="0" style="stop-color:#00B488"/>
			<stop  offset="0.92" style="stop-color:#007BC0"/>
		</linearGradient>
		<path class="st4" d="M2678.5,2231.1c101.1-119.3,254.8-227.1,431.7-101.9c0,0,148.9-368.5,335-191.9s148.9,368.6,148.9,368.6
			s344.6-396.6,567.6-130c273.6,327-260.6,446.7-260.6,446.7H2551.9C2551.9,2470.3,2598.2,2325.8,2678.5,2231.1z"/>
		
			<linearGradient id="SVGID_5_" gradientUnits="userSpaceOnUse" x1="2620.4683" y1="751.7545" x2="3759.1836" y2="751.7545" gradientTransform="matrix(0.9878 0.1556 0.1556 -0.9878 531.0819 2445.0173)">
			<stop  offset="0" style="stop-color:#00B488"/>
			<stop  offset="0.92" style="stop-color:#007BC0"/>
		</linearGradient>
		<path class="st5" d="M4164.3,2312.4c-40.6,28.2-101.4,64.5-175.7,106.9l0,0c-56.5,32.2-120.8,67.7-189.8,105.8
			c-63.3,34.9-130.6,72-199.6,110.5l-269.9-42.5l-8.9,8.1l-8-10.7l-130.5-20.5l-5.9-75.5c11.8-12.9,23.7-25.7,35.8-38.4l0,0
			c2.1-2.1,4-4.1,6-6.3c4.4-4.7,8.8-9.3,13.2-13.9c2.6-2.7,5.3-5.5,7.9-8.2v-0.1c6.6-6.9,13.3-13.7,19.9-20.6
			c0.9-0.9,1.7-1.7,2.6-2.6l0,0c14.8-15.1,29.6-30.1,44.5-44.9c103.6-103.4,211.4-200.7,317.6-284.6c0,0,0-0.1,0.1-0.1
			c14.3-11.3,28.7-22.4,42.9-33.3c21.4-16.3,0.1-0.1,0.1-0.1c93.5-71,184.9-130.8,270.4-174.5c37.9-19.4,73.9-34.8,108-46.6
			c2-0.7,3.9-1.4,5.9-2C4441.7,1686.2,4563.4,2033.9,4164.3,2312.4z"/>
		<path class="st6" d="M4260.7,1970.6c-1.3,0.7-187.9,90.5-427.2,243.7c-3.2,2.1-6.4,4.1-9.6,6.2c-84.2,54.1-174.5,116-265.5,184.6
			c-29.3,22.1-58.7,44.9-88,68.3c-30,24-59.8,48.7-89.4,74.2c-13.2,11.3-26.4,22.8-39.4,34.5c-0.5,0.4-1.1,0.9-1.6,1.4
			c-3.6,3.2-7.2,6.4-10.8,9.6l-8.9,8.1l-8-10.7l-8.7-1.4c1.5-1.4,3-2.8,4.5-4.1h0.1c6.9-6.3,13.9-12.6,20.9-18.8h0.1
			c0.6-0.5,1.1-1,1.6-1.5c10.6-9.4,21.3-18.7,32-27.9c3.5-3.1,7.1-6.1,10.6-9.1l0.1-0.1c23.2-19.8,46.5-39.2,70-58.3
			c26.5-21.5,53.1-42.4,79.7-62.8c112.8-86.5,225.5-162.9,327.4-227.2c3.1-2,6.2-3.9,9.2-5.8c223-140.1,391.9-221.4,393.2-222
			c4.7-2.4,10.5-0.5,12.9,4.2c0.2,0.3,0.3,0.6,0.4,0.9C4268.4,1961.9,4266,1968,4260.7,1970.6z"/>
		
			<linearGradient id="SVGID_6_" gradientUnits="userSpaceOnUse" x1="3091.0696" y1="1246.7368" x2="3989.8044" y2="1246.7368" gradientTransform="matrix(1 0 0 -1 0 3120)">
			<stop  offset="0" style="stop-color:#8CCC6D"/>
			<stop  offset="0.19" style="stop-color:#81C768"/>
			<stop  offset="0.54" style="stop-color:#62B85B"/>
			<stop  offset="0.92" style="stop-color:#39A54A"/>
		</linearGradient>
		<path class="st7" d="M3967.6,1624.1c-4.7,22.8-10.2,46.1-16.2,69.9c-30.4,118.8-76.4,248-133.6,380.7
			c-6.3,14.8-12.9,29.7-19.6,44.7c-30.6,68.5-64,137.8-99.5,206.8c-10.7,20.8-21.5,41.5-32.6,62.2c-7.7,14.5-15.6,29-23.5,43.4
			c-8.4,15.4-32,64.9-60.9,126.3c-2.2,4.6-4.4,9.2-6.6,13.9c-5.5,11.6-11.1,23.6-16.8,35.8c-7.3,15.5-14.7,31.3-22.2,47.2h-440
			c-1.8-5-3.4-10.1-5.1-15.2c6.4-25.8,13.5-53.1,21.1-81.7c99.6-374.3,290.8-963.7,339.1-1102.7
			C3649.4,885.8,4093.7,1018,3967.6,1624.1z"/>
		<path class="st8" d="M3794.1,1274c-0.3,1.7-90.2,340.6-223.7,738.6c-47.3,140.8-100,289.1-156.2,432.4
			c-7.3,18.7-14.7,37.2-22.1,55.6c-3.7,9.3-7.5,18.5-11.2,27.7c-4.1,10-8.1,19.9-12.2,29.7c-0.6,1.5-1.2,2.9-1.8,4.3
			c-1.3,3.2-2.7,6.4-4,9.6c-11.7,28.1-23.5,55.7-35.4,83H3303c11.9-27.2,23.8-54.9,35.6-83c1.9-4.6,3.9-9.2,5.8-13.9c0,0,0,0,0-0.1
			c6.4-15.5,12.8-31,19.1-46.7c8-19.6,15.9-39.4,23.7-59.3c51.7-131,100.6-266.7,145.1-397.4c142-417,239.5-783.7,239.8-785.4
			c1.2-6.5,7.1-10.7,13.2-9.4S3795.4,1267.5,3794.1,1274z"/>
		
			<linearGradient id="SVGID_7_" gradientUnits="userSpaceOnUse" x1="7428.7998" y1="1194.3228" x2="8190.2593" y2="1194.3228" gradientTransform="matrix(-1 0 0 -1 8722.9004 3120)">
			<stop  offset="0" style="stop-color:#8CCC6D"/>
			<stop  offset="0.19" style="stop-color:#81C768"/>
			<stop  offset="0.54" style="stop-color:#62B85B"/>
			<stop  offset="0.92" style="stop-color:#39A54A"/>
		</linearGradient>
		<path class="st9" d="M551.4,1714.5c4,19.3,8.6,39.1,13.8,59.2c25.7,100.7,64.8,210.2,113.2,322.5c5.4,12.6,10.9,25.2,16.6,37.8
			c25.9,58.1,54.2,116.7,84.3,175.2c9,17.6,18.2,35.1,27.6,52.7c6.6,12.3,13.2,24.6,19.9,36.8c7.1,13.1,27.1,55,51.6,107
			c1.8,3.9,3.7,7.8,5.6,11.8c4.6,9.9,9.4,20,14.3,30.3c6.2,13.1,12.5,26.6,18.8,40h372.8c1.5-4.3,2.9-8.6,4.3-12.9
			c-5.4-21.8-11.4-45-17.9-69.2c-84.4-317.1-246.4-816.6-287.3-934.3C821.1,1089,444.6,1201,551.4,1714.5z"/>
		<path class="st8" d="M698.4,1418c0.3,1.4,76.4,288.5,189.5,625.8c40,119.2,84.8,244.9,132.4,366.2c6.2,15.8,12.4,31.5,18.7,47.1
			c3.2,7.8,6.3,15.6,9.5,23.4c3.4,8.4,6.9,16.8,10.3,25.2c0.5,1.2,1,2.5,1.5,3.7c1.1,2.7,2.2,5.4,3.4,8.1
			c9.9,23.8,19.9,47.2,30,70.3h20.7c-10.1-23.1-20.2-46.5-30.1-70.3c-1.7-3.9-3.3-7.8-4.9-11.8l0,0c-5.4-13.1-10.8-26.3-16.2-39.6
			c-6.7-16.6-13.4-33.4-20.1-50.2c-43.8-111-85.2-226-123-336.7c-120.3-353.3-202.9-664-203.2-665.4c-1-5.5-6-9.1-11.2-7.9
			S697.4,1412.4,698.4,1418z"/>
		<path class="st10" d="M4289.1,2606.4c-0.1,26.7-21.7,48.4-48.5,48.5H515.2c-26.8,0-48.4-21.8-48.4-48.5
			c0-26.7,21.7-48.4,48.4-48.4h3725.4C4267.4,2558,4289,2579.7,4289.1,2606.4z"/>
		<rect x="1873.8" y="2095.3" class="st11" width="691.8" height="378.2"/>
		<rect x="1985.3" y="2101.5" class="st12" width="691.8" height="371.9"/>
		<path class="st11" d="M928.4,492.7h2543.4c78.5,0,142.2,63.7,142.2,142.2v1502.5c0,78.5-63.7,142.2-142.2,142.2H928.4
			c-78.5,0-142.2-63.7-142.2-142.2V634.9C786.2,556.4,849.9,492.7,928.4,492.7z"/>
		<path class="st13" d="M1025.9,492.7h2543.4c78.5,0,142.2,63.7,142.2,142.2v1502.5c0,78.5-63.7,142.2-142.2,142.2H1025.9
			c-78.5,0-142.2-63.7-142.2-142.2V634.9C883.7,556.4,947.4,492.7,1025.9,492.7z"/>
		<path class="st14" d="M1051.3,552.3H3545c48.8,0,88.4,39.6,88.4,88.4v1485.8c0,48.8-39.6,88.4-88.4,88.4H1051.3
			c-48.8,0-88.4-39.6-88.4-88.4V640.7C962.9,591.9,1002.4,552.3,1051.3,552.3z"/>
		<path class="st11" d="M3056.4,2513.2c-0.1,24.7-20.1,44.6-44.7,44.7H1570.2c-24.7-0.4-44.4-20.7-44.1-45.4
			c0.4-24.2,19.9-43.7,44.1-44.1h1441.5C3036.3,2468.6,3056.3,2488.5,3056.4,2513.2z"/>
		<path class="st15" d="M3056.4,2513.2c-0.1,24.7-20.1,44.6-44.7,44.7H1749.1c-24.7-0.4-44.4-20.7-44.1-45.4
			c0.4-24.2,19.9-43.7,44.1-44.1h1262.5C3036.3,2468.6,3056.3,2488.5,3056.4,2513.2z"/>
		<path class="st16" d="M1307.3,1130.9c0.7-8.8,0.7-17.7,0-26.6c0,0-7.7-6.9-7.7-15.5c0-56.3,39.7-104.8,94.8-116v-219
			c-174.5,12.1-312.3,157.5-312.3,335c-0.1,52.6,12.3,104.4,36,151.4L1307.3,1130.9z"/>
		<path class="st17" d="M1441.5,972.8c26.3,5.3,50,19.4,67.2,40L1698,903.4c1.8-7.1,0-26.6,0-26.6s-169.3-117-256.5-123.1
			L1441.5,972.8z"/>
		<path class="st18" d="M1529.1,1059.8c3.3,11,7.2,17,7.2,29c0,65.4-53,118.4-118.3,118.4c-32.3,0-63.1-13.2-85.5-36.5l-190.3,83.3
			v26.6c60.7,87.1,161.5,144.1,275.7,144.1c185.5,0,335.9-150.4,335.9-335.9c0.1-49.9-11-99.3-32.5-144.4l-190.1,83.2L1529.1,1059.8
			z"/>
		<path class="st19" d="M1307.3,1104.3c-23.3-61.1,7.4-129.5,68.6-152.8c6-2.3,12.2-4.1,18.5-5.4v-219
			c-174.5,12.1-312.3,157.5-312.3,335c-0.1,52.6,12.3,104.4,36,151.4L1307.3,1104.3z"/>
		<path class="st19" d="M1441.5,946.2c26.3,5.3,50,19.4,67.2,40L1698,876.9c-57.6-87.1-152.4-142.4-256.5-149.7L1441.5,946.2z"/>
		<path class="st19" d="M1531.2,1027.6c19.1,62.5-16,128.7-78.5,147.8c-42.7,13.1-89.2,1-120.1-31.3L1142.2,1254
			c60.7,87.1,161.5,144,275.7,144c185.5,0,335.9-150.4,335.9-335.9c0.1-49.9-11-99.3-32.5-144.4L1531.2,1027.6z"/>
		<path class="st20" d="M1307.3,1104.3c-23.3-61.1,7.4-129.5,68.6-152.8c6-2.3,12.2-4.1,18.5-5.4v-219
			c-174.5,12.1-312.3,157.5-312.3,335c-0.1,52.6,12.3,104.4,36,151.4L1307.3,1104.3z"/>
		<path class="st21" d="M1441.5,946.2c26.3,5.3,50,19.4,67.2,40L1698,876.9c-57.6-87.1-152.4-142.4-256.5-149.7L1441.5,946.2z"/>
		<path class="st22" d="M1531.2,1027.6c19.1,62.5-16,128.7-78.5,147.8c-42.7,13.1-89.2,1-120.1-31.3L1142.2,1254
			c60.7,87.1,161.5,144,275.7,144c185.5,0,335.9-150.4,335.9-335.9c0.1-49.9-11-99.3-32.5-144.4L1531.2,1027.6z"/>
		<path class="st23" d="M2717.2,1034.5h824.7c9,0,16.2,7.3,16.2,16.2v417.6c0,9-7.3,16.2-16.2,16.2h-824.7c-9,0-16.2-7.3-16.2-16.2
			v-417.6C2701,1041.7,2708.3,1034.5,2717.2,1034.5z"/>
		<path class="st24" d="M2713.4,1029.5h832.4c6.8,0,12.4,5.5,12.4,12.4v0v56.9l0,0H2701l0,0v-56.9
			C2701,1035,2706.5,1029.5,2713.4,1029.5L2713.4,1029.5z"/>
		<path class="st25" d="M3440.7,1064.2c0-5.5-4.4-9.9-9.9-9.9c-5.5,0-9.9,4.4-9.9,9.9c0,5.5,4.4,9.9,9.9,9.9c0,0,0,0,0,0
			C3436.3,1074.1,3440.7,1069.6,3440.7,1064.2z"/>
		<path class="st26" d="M3478.2,1064.2c0-5.5-4.4-9.9-9.9-9.9c-5.5,0-9.9,4.4-9.9,9.9c0,5.5,4.4,9.9,9.9,9.9c0,0,0,0,0,0
			C3473.8,1074.1,3478.2,1069.6,3478.2,1064.2z"/>
		<path class="st27" d="M3515.7,1064.2c0-5.5-4.4-9.9-9.9-9.9c-5.5,0-9.9,4.4-9.9,9.9c0,5.5,4.4,9.9,9.9,9.9c0,0,0,0,0,0
			C3511.3,1074.1,3515.7,1069.6,3515.7,1064.2z"/>
		<rect x="2754.9" y="1146.6" class="st25" width="47.6" height="17.4"/>
		<rect x="2828.8" y="1146.6" class="st27" width="85.9" height="17.4"/>
		<rect x="2787.6" y="1183.7" class="st28" width="178.4" height="17.4"/>
		<rect x="2992.4" y="1183.7" class="st29" width="47.6" height="17.4"/>
		<rect x="2787.6" y="1220.7" class="st28" width="178.4" height="17.4"/>
		<rect x="2992.4" y="1220.7" class="st29" width="47.6" height="17.4"/>
		<rect x="2787.6" y="1257.7" class="st28" width="178.4" height="17.4"/>
		<rect x="2992.4" y="1257.7" class="st29" width="47.6" height="17.4"/>
		<rect x="2754.9" y="1294.8" class="st25" width="47.6" height="17.4"/>
		<rect x="2828.8" y="1294.8" class="st27" width="85.9" height="17.4"/>
		<rect x="2787.6" y="1331.8" class="st29" width="89.2" height="17.4"/>
		<rect x="2903.1" y="1331.8" class="st28" width="136.8" height="17.4"/>
		<rect x="2787.6" y="1368.8" class="st29" width="89.2" height="17.4"/>
		<rect x="2903.1" y="1368.8" class="st28" width="136.8" height="17.4"/>
		<rect x="2787.6" y="1405.9" class="st29" width="89.2" height="17.4"/>
		<rect x="2903.1" y="1405.9" class="st28" width="136.8" height="17.4"/>
		<path class="st23" d="M1930.7,2008.7h621.1c17.9,0,32.4,14.5,32.4,32.4v56.9c0,17.9-14.5,32.4-32.4,32.4h-621.1
			c-17.9,0-32.4-14.5-32.4-32.4v-56.9C1898.3,2023.2,1912.8,2008.7,1930.7,2008.7z"/>
		<path class="st30" d="M1922.7,1052.4h636.2c14,0,25.3,11.3,25.3,25.3v837.6c0,14-11.3,25.3-25.3,25.3h-636.2
			c-14,0-25.3-11.3-25.3-25.3v-837.6C1897.4,1063.7,1908.7,1052.4,1922.7,1052.4z"/>
		<path class="st31" d="M2050.8,1171.4h-45.8c-2.4,0-4.4-4-4.4-8.8l0,0c0-4.9,2-8.8,4.4-8.8h45.8c2.4,0,4.4,4,4.4,8.8l0,0
			C2055.2,1167.5,2053.2,1171.4,2050.8,1171.4z"/>
		<path class="st31" d="M2334.1,1171.4h-261.8c-2.4,0-4.4-4-4.4-8.8l0,0c0-4.9,2-8.8,4.4-8.8h261.8c2.4,0,4.4,4,4.4,8.8l0,0
			C2338.5,1167.5,2336.6,1171.4,2334.1,1171.4z"/>
		<path class="st32" d="M2155.9,1208h-83.5c-2.4,0-4.4-4-4.4-8.8l0,0c0-4.9,2-8.8,4.4-8.8h83.5c2.4,0,4.4,4,4.4,8.8l0,0
			C2160.3,1204.1,2158.3,1208,2155.9,1208z"/>
		<path class="st33" d="M2293.2,1208h-120.3c-2.4,0-4.4-4-4.4-8.8l0,0c0-4.9,2-8.8,4.4-8.8h120.3c2.4,0,4.4,4,4.4,8.8l0,0
			C2297.6,1204.1,2295.6,1208,2293.2,1208z"/>
		<path class="st33" d="M2334.1,1386.1h-261.8c-2.4,0-4.4-4-4.4-8.8l0,0c0-4.9,2-8.8,4.4-8.8h261.8c2.4,0,4.4,4,4.4,8.8l0,0
			C2338.5,1382.1,2336.6,1386.1,2334.1,1386.1z"/>
		<path class="st31" d="M2050.8,1422.7h-45.8c-2.4,0-4.4-4-4.4-8.8l0,0c0-4.9,2-8.8,4.4-8.8h45.8c2.4,0,4.4,4,4.4,8.8l0,0
			C2055.2,1418.7,2053.2,1422.7,2050.8,1422.7z"/>
		<path class="st33" d="M2155.9,1422.7h-83.5c-2.4,0-4.4-4-4.4-8.8l0,0c0-4.9,2-8.8,4.4-8.8h83.5c2.4,0,4.4,4,4.4,8.8l0,0
			C2160.3,1418.7,2158.3,1422.7,2155.9,1422.7z"/>
		<path class="st32" d="M2293.2,1422.7h-120.3c-2.4,0-4.4-4-4.4-8.8l0,0c0-4.9,2-8.8,4.4-8.8h120.3c2.4,0,4.4,4,4.4,8.8l0,0
			C2297.6,1418.7,2295.6,1422.7,2293.2,1422.7z"/>
		<path class="st32" d="M2399,1244.6h-326.6c-2.4,0-4.4-4-4.4-8.8l0,0c0-4.9,2-8.8,4.4-8.8H2399c2.4,0,4.4,4,4.4,8.8l0,0
			C2403.4,1240.6,2401.5,1244.6,2399,1244.6z"/>
		<path class="st31" d="M2250.6,1263.5h84c0.4,0,0.7,0.3,0.7,0.7v16.3c0,0.4-0.3,0.7-0.7,0.7h-84c-0.4,0-0.7-0.3-0.7-0.7v-16.3
			C2249.9,1263.8,2250.2,1263.5,2250.6,1263.5z"/>
		<path class="st33" d="M2180.9,1281.2h-108.5c-2.4,0-4.4-4-4.4-8.8l0,0c0-4.9,2-8.8,4.4-8.8h108.5c2.4,0,4.4,4,4.4,8.8l0,0
			C2185.3,1277.2,2183.3,1281.2,2180.9,1281.2z"/>
		<path class="st31" d="M2238.6,1281.2h-43c-2.4,0-4.4-4-4.4-8.8l0,0c0-4.9,2-8.8,4.4-8.8h43c2.4,0,4.4,4,4.4,8.8l0,0
			C2243,1277.2,2241.1,1281.2,2238.6,1281.2z"/>
		<path class="st33" d="M2050.8,1316.5h-45.8c-2.4,0-4.4-4-4.4-8.8l0,0c0-4.9,2-8.8,4.4-8.8h45.8c2.4,0,4.4,4,4.4,8.8l0,0
			C2055.2,1312.6,2053.2,1316.5,2050.8,1316.5z"/>
		<path class="st33" d="M2399,1316.5h-326.6c-2.4,0-4.4-4-4.4-8.8l0,0c0-4.9,2-8.8,4.4-8.8H2399c2.4,0,4.4,4,4.4,8.8l0,0
			C2403.4,1312.6,2401.5,1316.5,2399,1316.5z"/>
		<path class="st33" d="M2050.8,1456.5h-45.8c-2.4,0-4.4-4-4.4-8.8l0,0c0-4.9,2-8.8,4.4-8.8h45.8c2.4,0,4.4,4,4.4,8.8l0,0
			C2055.2,1452.6,2053.2,1456.5,2050.8,1456.5z"/>
		<path class="st33" d="M2250.7,1438.8h116.5c0.4,0,0.8,0.4,0.8,0.8v16.1c0,0.4-0.4,0.8-0.8,0.8h-116.5c-0.4,0-0.8-0.4-0.8-0.8
			v-16.1C2249.9,1439.2,2250.2,1438.8,2250.7,1438.8z"/>
		<path class="st33" d="M2180.9,1456.5h-108.5c-2.4,0-4.4-4-4.4-8.8l0,0c0-4.9,2-8.8,4.4-8.8h108.5c2.4,0,4.4,4,4.4,8.8l0,0
			C2185.3,1452.6,2183.3,1456.5,2180.9,1456.5z"/>
		<path class="st33" d="M2238.6,1456.5h-43c-2.4,0-4.4-4-4.4-8.8l0,0c0-4.9,2-8.8,4.4-8.8h43c2.4,0,4.4,4,4.4,8.8l0,0
			C2243,1452.6,2241.1,1456.5,2238.6,1456.5z"/>
		<path class="st34" d="M2050.8,1491.9h-45.8c-2.4,0-4.4-4-4.4-8.8l0,0c0-4.9,2-8.8,4.4-8.8h45.8c2.4,0,4.4,4,4.4,8.8l0,0
			C2055.2,1487.9,2053.2,1491.9,2050.8,1491.9z"/>
		<path class="st31" d="M2128.9,1491.9h-56.6c-2.4,0-4.4-4-4.4-8.8l0,0c0-4.9,2-8.8,4.4-8.8h56.6c2.4,0,4.4,4,4.4,8.8l0,0
			C2133.3,1487.9,2131.4,1491.9,2128.9,1491.9z"/>
		<path class="st31" d="M2005.1,1353.1c-2.4,0-4.4-4-4.4-8.8l0,0c0-4.9,2-8.8,4.4-8.8h45.8c2.4,0,4.4,4,4.4,8.8l0,0
			c0,4.9-2,8.8-4.4,8.8"/>
		<path class="st33" d="M2250.7,1335.4h131.7c0.5,0,0.9,0.4,0.9,0.9v16c0,0.5-0.4,0.9-0.9,0.9h-131.7c-0.5,0-0.9-0.4-0.9-0.9v-16
			C2249.9,1335.8,2250.2,1335.4,2250.7,1335.4z"/>
		<path class="st34" d="M2180.9,1353.1h-108.5c-2.4,0-4.4-4-4.4-8.8l0,0c0-4.9,2-8.8,4.4-8.8h108.5c2.4,0,4.4,4,4.4,8.8l0,0
			C2185.3,1349.1,2183.3,1353.1,2180.9,1353.1z"/>
		<path class="st34" d="M2238.6,1353.1h-43c-2.4,0-4.4-4-4.4-8.8l0,0c0-4.9,2-8.8,4.4-8.8h43c2.4,0,4.4,4,4.4,8.8l0,0
			C2243,1349.1,2241.1,1353.1,2238.6,1353.1z"/>
		<path class="st33" d="M2334.1,1529.5h-261.8c-2.4,0-4.4-4-4.4-8.8l0,0c0-4.9,2-8.8,4.4-8.8h261.8c2.4,0,4.4,4,4.4,8.8l0,0
			C2338.5,1525.5,2336.6,1529.5,2334.1,1529.5z"/>
		<path class="st33" d="M2155.9,1566.1h-83.5c-2.4,0-4.4-4-4.4-8.8l0,0c0-4.9,2-8.8,4.4-8.8h83.5c2.4,0,4.4,4,4.4,8.8l0,0
			C2160.3,1562.1,2158.3,1566.1,2155.9,1566.1z"/>
		<path class="st33" d="M2293.2,1566.1h-120.3c-2.4,0-4.4-4-4.4-8.8l0,0c0-4.9,2-8.8,4.4-8.8h120.3c2.4,0,4.4,4,4.4,8.8l0,0
			C2297.6,1562.1,2295.6,1566.1,2293.2,1566.1z"/>
		<path class="st33" d="M2334.1,1744.1h-261.8c-2.4,0-4.4-4-4.4-8.8l0,0c0-4.9,2-8.8,4.4-8.8h261.8c2.4,0,4.4,4,4.4,8.8l0,0
			C2338.5,1740.2,2336.6,1744.1,2334.1,1744.1z"/>
		<path class="st32" d="M2050.8,1780.7h-45.8c-2.4,0-4.4-4-4.4-8.8l0,0c0-4.9,2-8.8,4.4-8.8h45.8c2.4,0,4.4,4,4.4,8.8l0,0
			C2055.2,1776.7,2053.2,1780.7,2050.8,1780.7z"/>
		<path class="st31" d="M2155.9,1780.7h-83.5c-2.4,0-4.4-4-4.4-8.8l0,0c0-4.9,2-8.8,4.4-8.8h83.5c2.4,0,4.4,4,4.4,8.8l0,0
			C2160.3,1776.7,2158.3,1780.7,2155.9,1780.7z"/>
		<path class="st33" d="M2293.2,1780.7h-120.3c-2.4,0-4.4-4-4.4-8.8l0,0c0-4.9,2-8.8,4.4-8.8h120.3c2.4,0,4.4,4,4.4,8.8l0,0
			C2297.6,1776.7,2295.6,1780.7,2293.2,1780.7z"/>
		<path class="st32" d="M2050.8,1602.6h-45.8c-2.4,0-4.4-4-4.4-8.8l0,0c0-4.9,2-8.8,4.4-8.8h45.8c2.4,0,4.4,4,4.4,8.8l0,0
			C2055.2,1598.7,2053.2,1602.6,2050.8,1602.6z"/>
		<path class="st32" d="M2068.7,1584.9h241.8c0.4,0,0.8,0.4,0.8,0.8v16.1c0,0.4-0.4,0.8-0.8,0.8h-241.8c-0.4,0-0.8-0.4-0.8-0.8
			v-16.1C2067.9,1585.3,2068.3,1584.9,2068.7,1584.9z"/>
		<path class="st33" d="M2050.8,1639.2h-45.8c-2.4,0-4.4-4-4.4-8.8l0,0c0-4.9,2-8.8,4.4-8.8h45.8c2.4,0,4.4,4,4.4,8.8l0,0
			C2055.2,1635.2,2053.2,1639.2,2050.8,1639.2z"/>
		<path class="st33" d="M2180.9,1639.2h-108.5c-2.4,0-4.4-4-4.4-8.8l0,0c0-4.9,2-8.8,4.4-8.8h108.5c2.4,0,4.4,4,4.4,8.8l0,0
			C2185.3,1635.2,2183.3,1639.2,2180.9,1639.2z"/>
		<path class="st33" d="M2238.6,1639.2h-43c-2.4,0-4.4-4-4.4-8.8l0,0c0-4.9,2-8.8,4.4-8.8h43c2.4,0,4.4,4,4.4,8.8l0,0
			C2243,1635.2,2241.1,1639.2,2238.6,1639.2z"/>
		<path class="st33" d="M2050.8,1674.6h-45.8c-2.4,0-4.4-4-4.4-8.8l0,0c0-4.9,2-8.8,4.4-8.8h45.8c2.4,0,4.4,4,4.4,8.8l0,0
			C2055.2,1670.6,2053.2,1674.6,2050.8,1674.6z"/>
		<path class="st33" d="M2068.8,1656.8h304.7c0.5,0,0.9,0.4,0.9,0.9v15.9c0,0.5-0.4,0.9-0.9,0.9h-304.7c-0.5,0-0.9-0.4-0.9-0.9
			v-15.9C2067.9,1657.2,2068.3,1656.8,2068.8,1656.8z"/>
		<path class="st33" d="M2050.8,1814.6h-45.8c-2.4,0-4.4-4-4.4-8.8l0,0c0-4.9,2-8.8,4.4-8.8h45.8c2.4,0,4.4,4,4.4,8.8l0,0
			C2055.2,1810.6,2053.2,1814.6,2050.8,1814.6z"/>
		<path class="st33" d="M2398.7,1814.6h-144.4c-2.4,0-4.4-4-4.4-8.8l0,0c0-4.9,2-8.8,4.4-8.8h144.4c2.4,0,4.4,4,4.4,8.8l0,0
			C2403.1,1810.6,2401.1,1814.6,2398.7,1814.6z"/>
		<path class="st33" d="M2180.9,1814.6h-108.5c-2.4,0-4.4-4-4.4-8.8l0,0c0-4.9,2-8.8,4.4-8.8h108.5c2.4,0,4.4,4,4.4,8.8l0,0
			C2185.3,1810.6,2183.3,1814.6,2180.9,1814.6z"/>
		<path class="st33" d="M2238.6,1814.6h-43c-2.4,0-4.4-4-4.4-8.8l0,0c0-4.9,2-8.8,4.4-8.8h43c2.4,0,4.4,4,4.4,8.8l0,0
			C2243,1810.6,2241.1,1814.6,2238.6,1814.6z"/>
		<path class="st34" d="M2068.7,1832.2h201c0.4,0,0.7,0.3,0.7,0.7v16.3c0,0.4-0.3,0.7-0.7,0.7h-201c-0.4,0-0.7-0.3-0.7-0.7v-16.3
			C2067.9,1832.5,2068.3,1832.2,2068.7,1832.2z"/>
		<path class="st32" d="M2250.8,1693.4h139.5c0.5,0,0.9,0.4,0.9,0.9v15.9c0,0.5-0.4,0.9-0.9,0.9h-139.5c-0.5,0-0.9-0.4-0.9-0.9
			v-15.9C2249.9,1693.8,2250.3,1693.4,2250.8,1693.4z"/>
		<path class="st34" d="M2180.9,1711.1h-108.5c-2.4,0-4.4-4-4.4-8.8l0,0c0-4.9,2-8.8,4.4-8.8h108.5c2.4,0,4.4,4,4.4,8.8l0,0
			C2185.3,1707.2,2183.3,1711.1,2180.9,1711.1z"/>
		<path class="st34" d="M2238.6,1711.1h-43c-2.4,0-4.4-4-4.4-8.8l0,0c0-4.9,2-8.8,4.4-8.8h43c2.4,0,4.4,4,4.4,8.8l0,0
			C2243,1707.2,2241.1,1711.1,2238.6,1711.1z"/>
		<path class="st35" d="M2399,791.9h-512.3c-41.6,0.5-74.9,34.6-74.5,76.2c0.5,40.9,33.5,74,74.5,74.5h37.7l36.4,36.4l36.4-36.4
			H2399c41.6-0.5,74.9-34.6,74.5-76.2C2473,825.4,2439.9,792.3,2399,791.9z"/>
		<path class="st36" d="M2407,779.9h-512.2c-41.6,0.5-74.9,34.6-74.5,76.2c0.5,40.9,33.5,74,74.5,74.5h37.7l36.4,36.4l36.4-36.4
			H2407c41.6-0.5,74.9-34.6,74.5-76.2C2481,813.4,2447.9,780.3,2407,779.9z"/>
		<path class="st0" d="M2260.4,879.2h-337c-4.7,0-8.4-3.8-8.4-8.4l0,0c0-4.7,3.8-8.4,8.4-8.4l0,0h337c4.7,0,8.4,3.8,8.4,8.4
			c0,0,0,0,0,0l0,0C2268.8,875.4,2265.1,879.2,2260.4,879.2C2260.4,879.2,2260.4,879.2,2260.4,879.2z"/>
		<path class="st0" d="M2155.1,832.8h-231.7c-4.7,0-8.4-3.8-8.4-8.4v0l0,0c0-4.7,3.8-8.4,8.4-8.4h231.7c4.7,0,8.4,3.8,8.4,8.4
			c0,0,0,0,0,0l0,0C2163.5,829.1,2159.7,832.8,2155.1,832.8C2155.1,832.8,2155.1,832.8,2155.1,832.8z"/>
		<path class="st37" d="M2749.5,1814.4c-0.2,1.8-0.4,3.6-0.6,5.3C2749.1,1818,2749.3,1816.2,2749.5,1814.4z"/>
		<path class="st20" d="M2930.9,1611.2c-132.4,0-239.8,107.4-239.8,239.8s107.4,239.8,239.8,239.8s239.8-107.4,239.8-239.8
			S3063.3,1611.2,2930.9,1611.2z M2930.9,2028.1c-97.8,0-177.1-79.3-177.1-177.1s79.3-177.1,177.1-177.1
			c97.8,0,177.1,79.3,177.1,177.1C3108,1948.7,3028.7,2028,2930.9,2028.1C2930.9,2028.1,2930.9,2028.1,2930.9,2028.1z"/>
		<path class="st37" d="M3169.2,1825.5c-10.6-97.4-79.5-178.5-173.9-204.8c-127.5-35.6-259.8,38.9-295.4,166.4
			c-2.6,9.3-4.6,18.8-6.1,28.4c-0.3,1.7-0.5,3.3-0.7,5c-0.3,2.6-0.6,5.2-0.8,7.8c-11.3,113.7,60.3,222.5,174.1,254.3
			c8.2,2.3,16.5,4.1,24.9,5.6l0.1-0.7l11-61c-6.4-1-12.8-2.4-19.1-4.2c-84.8-23.7-139.4-106.2-127.9-193.5c0-0.4,0.1-0.9,0.2-1.3
			c13.4-96.9,102.8-164.6,199.7-151.2c91.2,12.6,157.5,92.9,152.7,184.8c-0.1,2.7-0.3,5.3-0.6,7.9c0,0.7-0.1,1.3-0.2,2
			c-0.1,1.2-0.3,2.4-0.4,3.6c-0.1,0.9-0.2,1.8-0.4,2.6c-0.1,0.5-0.1,1.1-0.2,1.6c-0.2,1.2-0.4,2.4-0.6,3.6c-0.2,1.4-0.5,2.9-0.8,4.3
			c-0.8,4.2-1.9,8.5-3,12.7c-7.3,26.3-20.7,50.6-39,70.9l45.9,41.9l0.4,0.3c25-27.5,43.1-60.5,53.1-96.3c1-3.7,2-7.4,2.8-11.1
			c0.4-1.9,0.9-3.9,1.2-5.8s0.8-3.9,1.1-5.8s0.6-3.7,0.9-5.5c0-0.1,0-0.3,0.1-0.4c0.3-1.9,0.5-3.8,0.8-5.7c0-0.2,0-0.3,0-0.5
			c0.2-1.8,0.5-3.7,0.7-5.6c0-0.2,0-0.5,0-0.7c0.2-1.9,0.4-3.8,0.5-5.6c0.1-1.6,0.2-3.3,0.3-4.9c0.1-1.9,0.2-3.7,0.2-5.6
			c0-1,0.1-1.9,0.1-2.8c0-0.5,0-1,0-1.5C3170.7,1844.8,3170.2,1835.1,3169.2,1825.5z"/>
		<path class="st20" d="M2695,1808.1c-0.5,2.5-0.9,4.9-1.3,7.4c-0.3,1.7-0.5,3.3-0.7,5c-1.3,10.1-1.9,20.2-1.9,30.4
			c0,118.9,86.6,217.6,200.1,236.5l11-61c-6.4-1-12.8-2.4-19.1-4.2c-84.8-23.7-139.4-106.2-127.9-193.5c0-0.4,0.1-0.9,0.2-1.3
			c13-97,102.2-165,199.2-152c19.2,2.6,37.8,8.3,55.2,16.9l28-55.3l0.3-0.6c-33.2-16.6-69.9-25.3-107.1-25.2
			C2813.1,1611.2,2715.1,1696.1,2695,1808.1z"/>
		<path class="st37" d="M3108.3,2012.2c-54.9,60.3-136.6,88.7-217.1,75.3l11-61c-6.4-1-12.8-2.4-19.1-4.2
			c-84-23.5-136.8-103.8-128.6-187.7c-0.5,5.4-0.7,10.9-0.8,16.4c0,97.8,79.3,177.1,177.2,177.1c84,0,156.5-59.1,173.5-141.4
			c-0.8,4.2-1.9,8.5-3,12.7c-7.3,26.3-20.7,50.6-39,70.9L3108.3,2012.2z"/>
		<path class="st38" d="M3169.3,1825.5l-62.4,5.9c-6.6-59.9-43.2-112.3-97.2-139.2l28.3-55.9
			C3111.1,1672.9,3160.6,1744.2,3169.3,1825.5z"/>
		<path class="st20" d="M3355.9,1780.1c-85.8,0-155.3,69.5-155.3,155.3c0,85.8,69.5,155.3,155.3,155.3
			c85.8,0,155.3-69.5,155.3-155.3c0,0,0,0,0,0C3511.2,1849.6,3441.7,1780.1,3355.9,1780.1L3355.9,1780.1z M3355.9,2050.1
			c-63.4,0-114.7-51.4-114.7-114.7c0-63.4,51.4-114.7,114.7-114.7c63.4,0,114.7,51.4,114.7,114.7c0,0,0,0,0,0
			C3470.6,1998.8,3419.2,2050.1,3355.9,2050.1L3355.9,2050.1L3355.9,2050.1z"/>
		<path class="st37" d="M3510.2,1918.9c-9.4-85.3-86.1-146.8-171.4-137.4c-63.1,6.9-115.6,51.5-132.6,112.6c-1.7,6-3,12.2-4,18.4
			c-0.2,1.1-0.3,2.2-0.5,3.2c-0.2,1.7-0.4,3.3-0.6,5c-7.4,75,40.2,144.5,112.8,164.8c5.3,1.5,10.7,2.7,16.1,3.6l0.1-0.5l7.1-39.5
			c-4.2-0.7-8.3-1.6-12.4-2.7c-54.9-15.4-90.3-68.8-82.9-125.4c0-0.3,0.1-0.6,0.1-0.8c8.7-62.8,66.7-106.6,129.5-97.9
			c5.1,0.7,10.1,1.7,15,3.1c51.7,14.5,86.5,62.9,83.7,116.5c-0.1,1.7-0.2,3.4-0.4,5.1c0,0.4-0.1,0.9-0.1,1.3
			c-0.1,0.8-0.2,1.6-0.3,2.3c-0.1,0.6-0.1,1.2-0.2,1.7c0,0.3-0.1,0.7-0.2,1c-0.1,0.8-0.2,1.6-0.4,2.3c-0.2,0.9-0.3,1.9-0.5,2.8
			c-0.5,2.7-1.2,5.5-2,8.2c-4.7,17.1-13.4,32.8-25.3,45.9l29.8,27.2l0.2,0.2c16.2-17.8,27.9-39.2,34.4-62.4c0.7-2.4,1.3-4.8,1.8-7.2
			c0.3-1.2,0.6-2.5,0.8-3.8s0.5-2.5,0.8-3.8s0.4-2.4,0.6-3.6c0-0.1,0-0.2,0-0.3c0.2-1.2,0.4-2.4,0.5-3.7c0-0.1,0-0.2,0-0.3
			c0.2-1.2,0.3-2.4,0.4-3.6c0-0.1,0-0.3,0-0.4c0.1-1.2,0.2-2.4,0.3-3.7c0.1-1.1,0.2-2.1,0.2-3.2s0.1-2.4,0.2-3.6c0-0.6,0-1.2,0-1.8
			c0-0.3,0-0.7,0-1C3511.1,1931.4,3510.9,1925.2,3510.2,1918.9z"/>
		<path class="st20" d="M3203.1,1907.7c-0.3,1.6-0.6,3.2-0.8,4.8c-0.2,1.1-0.3,2.2-0.5,3.2c-0.8,6.5-1.2,13.1-1.2,19.7
			c0,75.9,54.8,140.6,129.6,153.2l7.1-39.5c-4.2-0.7-8.3-1.6-12.4-2.7c-55-15.4-90.3-68.8-82.9-125.4c0-0.3,0.1-0.6,0.1-0.8
			c8.4-62.8,66.2-106.9,129-98.5c12.4,1.7,24.5,5.4,35.8,11l18.1-35.8l0.2-0.4c-76.8-38.3-170-7.1-208.3,69.7
			C3210.3,1879.2,3205.7,1893.2,3203.1,1907.7L3203.1,1907.7z"/>
		<path class="st37" d="M3470.8,2039.8c-35.5,39.1-88.5,57.4-140.6,48.8l7.1-39.5c-4.2-0.7-8.3-1.6-12.4-2.7
			c-53.6-15-88.7-66.2-83.3-121.6c-0.3,3.5-0.5,7-0.5,10.6c0,63.4,51.3,114.7,114.7,114.7c54.5,0,101.4-38.3,112.4-91.6
			c-0.5,2.7-1.2,5.5-2,8.2c-4.7,17.1-13.4,32.8-25.3,45.9L3470.8,2039.8z"/>
		<path class="st38" d="M3510.3,1918.9l-40.4,3.8c-4.3-38.8-28-72.8-63-90.1l18.3-36.2C3472.6,1820.1,3504.7,1866.2,3510.3,1918.9z"
			/>
		<rect x="2700.1" y="743.7" class="st24" width="788.7" height="130.8"/>
		<rect x="2700.1" y="897.5" class="st39" width="788.7" height="65.4"/>
		<rect x="1047.4" y="1541.1" class="st14" width="788.7" height="65.4"/>
		<rect x="1047.4" y="1629.5" class="st28" width="788.7" height="65.4"/>
		<rect x="1047.4" y="1783.3" class="st40" width="788.7" height="65.4"/>
		<rect x="1047.4" y="1872.9" class="st41" width="788.7" height="65.4"/>
		<rect x="1047.4" y="1962.3" class="st18" width="788.7" height="125.9"/>
		<path class="st42" d="M491,1173.3h602.7c13.8,0,24.9,11.2,24.9,24.9v820.9c0,13.8-11.2,24.9-24.9,24.9H491
			c-13.8,0-25-11.2-25-24.9v-820.9C466,1184.5,477.2,1173.3,491,1173.3z"/>
		<path class="st0" d="M478,1158.7h602.7c13.8,0,24.9,11.2,24.9,24.9v820.9c0,13.8-11.2,24.9-24.9,24.9H478c-13.8,0-25-11.2-25-24.9
			v-820.9C453,1169.9,464.2,1158.7,478,1158.7z"/>
		<path class="st43" d="M1070.4,1619.1v335.5c0,5.4-4.3,9.7-9.7,9.7c0,0,0,0,0,0H511.9c-5.4,0-9.7-4.4-9.7-9.7v-335.5
			c0-5.4,4.4-9.7,9.7-9.7h548.7C1066,1609.4,1070.4,1613.7,1070.4,1619.1C1070.4,1619.1,1070.4,1619.1,1070.4,1619.1z"/>
		<path class="st44" d="M1070.4,1619.1v26.5H502.2v-26.5c0-5.4,4.4-9.7,9.7-9.7h548.7C1066,1609.4,1070.4,1613.7,1070.4,1619.1
			C1070.4,1619.1,1070.4,1619.1,1070.4,1619.1z"/>
		<path class="st0" d="M1004.9,1628.7c0,4-3.2,7.2-7.2,7.2c-4,0-7.2-3.2-7.2-7.2c0-4,3.2-7.2,7.2-7.2l0,0
			C1001.6,1621.4,1004.9,1624.7,1004.9,1628.7C1004.9,1628.6,1004.9,1628.6,1004.9,1628.7z"/>
		<path class="st0" d="M1030.2,1628.7c0,4-3.2,7.2-7.2,7.2c-4,0-7.2-3.2-7.2-7.2c0-4,3.2-7.2,7.2-7.2l0,0
			C1027,1621.4,1030.2,1624.7,1030.2,1628.7C1030.2,1628.6,1030.2,1628.6,1030.2,1628.7z"/>
		<path class="st0" d="M1055.5,1628.7c0,4-3.2,7.2-7.2,7.2c-4,0-7.2-3.2-7.2-7.2c0-4,3.2-7.2,7.2-7.2c0,0,0,0,0,0
			C1052.3,1621.4,1055.5,1624.7,1055.5,1628.7C1055.5,1628.6,1055.5,1628.6,1055.5,1628.7z"/>
		<rect x="546.8" y="1659.6" class="st0" width="3.1" height="24.3"/>
		<g class="st45">
			<path class="st46" d="M724.5,1758.5c1.1,1.1,1.6,2.6,1.6,4.4v55.8c0,1.8-0.6,3.3-1.7,4.5c-1.1,1.1-2.6,1.7-4.3,1.7
				c-1.8,0-3.3-0.6-4.4-1.7c-1.1-1.1-1.6-2.6-1.6-4.5v-23.5h-34.3v23.5c0,1.8-0.6,3.3-1.7,4.5c-1.1,1.1-2.6,1.7-4.4,1.7
				c-1.8,0-3.2-0.6-4.3-1.7c-1.1-1.1-1.7-2.6-1.7-4.5v-55.8c0-1.8,0.5-3.3,1.6-4.4c1.1-1.1,2.5-1.7,4.4-1.7c1.8,0,3.3,0.6,4.4,1.7
				c1.1,1.1,1.7,2.6,1.7,4.4v22.4h34.3v-22.4c0-1.8,0.5-3.3,1.6-4.4c1.1-1.1,2.5-1.7,4.4-1.7
				C721.9,1756.8,723.4,1757.4,724.5,1758.5z"/>
			<path class="st46" d="M758,1823.2c-1.1-1.1-1.7-2.6-1.7-4.4v-51.3H739c-3.8,0-5.7-1.7-5.7-5s1.9-5,5.7-5h46.9
				c3.8,0,5.7,1.7,5.7,5s-1.9,5-5.7,5h-17.3v51.3c0,1.8-0.6,3.3-1.7,4.4c-1.1,1.1-2.6,1.7-4.4,1.7
				C760.6,1824.8,759.1,1824.3,758,1823.2z"/>
			<path class="st46" d="M862.6,1758.5c1.1,1.1,1.6,2.6,1.6,4.4v56.3c0,1.8-0.5,3.2-1.5,4.2c-1,1-2.3,1.5-4,1.5
				c-1.6,0-2.9-0.5-3.9-1.5c-1-1-1.4-2.4-1.4-4.2V1780l-16.2,30.6c-0.8,1.4-1.6,2.4-2.5,3.1c-0.9,0.7-1.9,1-3.1,1
				c-1.2,0-2.3-0.3-3.1-1c-0.9-0.6-1.7-1.7-2.5-3.1l-16.3-30.1v38.7c0,1.7-0.5,3.1-1.5,4.1c-1,1-2.3,1.6-3.9,1.6
				c-1.6,0-2.9-0.5-3.9-1.5c-1-1-1.4-2.4-1.4-4.2v-56.3c0-1.8,0.5-3.3,1.6-4.4c1-1.1,2.5-1.7,4.2-1.7c2.5,0,4.4,1.4,5.8,4.1
				l21.1,40.2l21-40.2c1.4-2.7,3.3-4.1,5.6-4.1C860.1,1756.8,861.5,1757.4,862.6,1758.5z"/>
			<path class="st46" d="M880.3,1822.8c-1-1-1.5-2.4-1.5-4.2v-55.7c0-1.8,0.6-3.3,1.7-4.4c1.1-1.1,2.6-1.7,4.4-1.7
				c1.9,0,3.4,0.6,4.5,1.7c1.1,1.1,1.7,2.6,1.7,4.4v51.3h26.7c3.8,0,5.7,1.7,5.7,5c0,3.4-1.9,5-5.7,5h-33.2
				C882.7,1824.3,881.3,1823.8,880.3,1822.8z"/>
		</g>
		<path class="st47" d="M561.8,1682.1h272.6c0.8,0,1.5,0.7,1.5,1.5v3.6c0,0.8-0.7,1.5-1.5,1.5H561.8c-0.8,0-1.5-0.7-1.5-1.5v-3.6
			C560.4,1682.7,561,1682.1,561.8,1682.1z"/>
		<path class="st48" d="M561.8,1883.5h304.6c0.8,0,1.5,0.7,1.5,1.5v3.5c0,0.8-0.7,1.5-1.5,1.5H561.8c-0.8,0-1.5-0.7-1.5-1.5v-3.5
			C560.4,1884.2,561,1883.5,561.8,1883.5z"/>
		<path class="st0" d="M909,1700.4H563.2c-1.5,0-2.8,1.3-2.8,2.8l0,0c0,1.6,1.3,2.8,2.8,2.8h0H909c1.5,0,2.8-1.3,2.8-2.8
			c0,0,0,0,0,0l0,0C911.8,1701.7,910.5,1700.4,909,1700.4C909,1700.4,909,1700.4,909,1700.4z"/>
		<path class="st49" d="M561.8,1901.5h294.4c0.8,0,1.5,0.7,1.5,1.5v3.4c0,0.8-0.7,1.5-1.5,1.5H561.8c-0.8,0-1.5-0.7-1.5-1.5v-3.4
			C560.4,1902.1,561,1901.5,561.8,1901.5z"/>
		<path class="st47" d="M562,1867.2h348.5c0.9,0,1.6,0.7,1.6,1.6v3.4c0,0.9-0.7,1.6-1.6,1.6H562c-0.9,0-1.6-0.7-1.6-1.6v-3.4
			C560.4,1867.9,561.1,1867.2,562,1867.2z"/>
		<path class="st49" d="M927.6,1700.1h83.9c0.8,0,1.5,0.7,1.5,1.5v3c0,0.8-0.7,1.5-1.5,1.5h-83.9c-0.8,0-1.5-0.7-1.5-1.5v-3
			C926.2,1700.8,926.8,1700.1,927.6,1700.1z"/>
		<path class="st0" d="M561,1664.2h97.9c0.8,0,1.5,0.7,1.5,1.5v3.5c0,0.8-0.7,1.5-1.5,1.5H561c-0.8,0-1.5-0.7-1.5-1.5v-3.5
			C559.5,1664.9,560.2,1664.2,561,1664.2z"/>
		<path class="st31" d="M568.2,1263h-39.8c-2.1,0-3.8-3.4-3.8-7.7l0,0c0-4.2,1.7-7.7,3.8-7.7h39.8c2.1,0,3.8,3.4,3.8,7.7l0,0
			C572,1259.6,570.3,1263,568.2,1263z"/>
		<path class="st31" d="M814.5,1263H587c-2.1,0-3.8-3.4-3.8-7.7l0,0c0-4.2,1.7-7.7,3.8-7.7h227.5c2.1,0,3.8,3.4,3.8,7.7l0,0
			C818.4,1259.6,816.7,1263,814.5,1263z"/>
		<path class="st32" d="M659.5,1294.8H587c-2.1,0-3.8-3.4-3.8-7.7l0,0c0-4.2,1.7-7.7,3.8-7.7h72.6c2.1,0,3.8,3.4,3.8,7.7l0,0
			C663.4,1291.4,661.7,1294.8,659.5,1294.8z"/>
		<path class="st33" d="M779,1294.8H674.3c-2.1,0-3.8-3.4-3.8-7.7l0,0c0-4.2,1.7-7.7,3.8-7.7H779c2.1,0,3.8,3.4,3.8,7.7l0,0
			C782.8,1291.4,781.1,1294.8,779,1294.8z"/>
		<path class="st33" d="M814.5,1449.6H587c-2.1,0-3.8-3.4-3.8-7.7l0,0c0-4.2,1.7-7.7,3.8-7.7h227.5c2.1,0,3.8,3.4,3.8,7.7l0,0
			C818.4,1446.2,816.7,1449.6,814.5,1449.6z"/>
		<path class="st31" d="M568.2,1481.4h-39.8c-2.1,0-3.8-3.4-3.8-7.7l0,0c0-4.2,1.7-7.7,3.8-7.7h39.8c2.1,0,3.8,3.4,3.8,7.7l0,0
			C572,1478,570.3,1481.4,568.2,1481.4z"/>
		<path class="st33" d="M659.5,1481.4H587c-2.1,0-3.8-3.4-3.8-7.7l0,0c0-4.2,1.7-7.7,3.8-7.7h72.6c2.1,0,3.8,3.4,3.8,7.7l0,0
			C663.4,1478,661.7,1481.4,659.5,1481.4z"/>
		<path class="st32" d="M779,1481.4H674.3c-2.1,0-3.8-3.4-3.8-7.7l0,0c0-4.2,1.7-7.7,3.8-7.7H779c2.1,0,3.8,3.4,3.8,7.7l0,0
			C782.8,1478,781.1,1481.4,779,1481.4z"/>
		<path class="st32" d="M871,1326.6H587c-2.1,0-3.8-3.4-3.8-7.7l0,0c0-4.2,1.7-7.7,3.8-7.7h284c2.1,0,3.8,3.4,3.8,7.7l0,0
			C874.8,1323.2,873.1,1326.6,871,1326.6z"/>
		<path class="st31" d="M741.7,1343h73.4c0.2,0,0.4,0.2,0.4,0.4v14.6c0,0.2-0.2,0.4-0.4,0.4h-73.4c-0.2,0-0.4-0.2-0.4-0.4v-14.6
			C741.3,1343.2,741.5,1343,741.7,1343z"/>
		<path class="st33" d="M681.3,1358.4H587c-2.1,0-3.8-3.4-3.8-7.7l0,0c0-4.2,1.7-7.7,3.8-7.7h94.3c2.1,0,3.8,3.4,3.8,7.7l0,0
			C685.1,1355,683.4,1358.4,681.3,1358.4z"/>
		<path class="st31" d="M731.5,1358.4h-37.4c-2.1,0-3.8-3.4-3.8-7.7l0,0c0-4.2,1.7-7.7,3.8-7.7h37.4c2.1,0,3.8,3.4,3.8,7.7l0,0
			C735.3,1355,733.6,1358.4,731.5,1358.4z"/>
		<path class="st33" d="M568.2,1389.2h-39.8c-2.1,0-3.8-3.4-3.8-7.7l0,0c0-4.2,1.7-7.7,3.8-7.7h39.8c2.1,0,3.8,3.4,3.8,7.7l0,0
			C572,1385.7,570.3,1389.2,568.2,1389.2z"/>
		<path class="st33" d="M871,1389.2H587c-2.1,0-3.8-3.4-3.8-7.7l0,0c0-4.2,1.7-7.7,3.8-7.7h284c2.1,0,3.8,3.4,3.8,7.7l0,0
			C874.8,1385.7,873.1,1389.2,871,1389.2z"/>
		<path class="st33" d="M568.2,1510.9h-39.8c-2.1,0-3.8-3.4-3.8-7.7l0,0c0-4.2,1.7-7.7,3.8-7.7h39.8c2.1,0,3.8,3.4,3.8,7.7l0,0
			C572,1507.4,570.3,1510.9,568.2,1510.9z"/>
		<path class="st33" d="M741.8,1495.5h101.7c0.3,0,0.5,0.2,0.5,0.5v14.4c0,0.3-0.2,0.5-0.5,0.5H741.8c-0.3,0-0.5-0.2-0.5-0.5V1496
			C741.3,1495.7,741.5,1495.5,741.8,1495.5z"/>
		<path class="st33" d="M681.3,1510.9H587c-2.1,0-3.8-3.4-3.8-7.7l0,0c0-4.2,1.7-7.7,3.8-7.7h94.3c2.1,0,3.8,3.4,3.8,7.7l0,0
			C685.1,1507.4,683.4,1510.9,681.3,1510.9z"/>
		<path class="st33" d="M731.5,1510.9h-37.4c-2.1,0-3.8-3.4-3.8-7.7l0,0c0-4.2,1.7-7.7,3.8-7.7h37.4c2.1,0,3.8,3.4,3.8,7.7l0,0
			C735.3,1507.4,733.6,1510.9,731.5,1510.9z"/>
		<path class="st34" d="M568.2,1541.6h-39.8c-2.1,0-3.8-3.4-3.8-7.7l0,0c0-4.2,1.7-7.7,3.8-7.7h39.8c2.1,0,3.8,3.4,3.8,7.7l0,0
			C572,1538.2,570.3,1541.6,568.2,1541.6z"/>
		<path class="st31" d="M636.1,1541.6H587c-2.1,0-3.8-3.4-3.8-7.7l0,0c0-4.2,1.7-7.7,3.8-7.7h49.2c2.1,0,3.8,3.4,3.8,7.7l0,0
			C640,1538.2,638.2,1541.6,636.1,1541.6z"/>
		<path class="st31" d="M528.4,1421c-2.1,0-3.8-3.4-3.8-7.7l0,0c0-4.2,1.7-7.7,3.8-7.7h39.8c2.1,0,3.8,3.4,3.8,7.7l0,0
			c0,4.2-1.7,7.7-3.8,7.7"/>
		<path class="st33" d="M741.8,1405.6h115c0.3,0,0.5,0.2,0.5,0.5v14.4c0,0.3-0.2,0.5-0.5,0.5h-115c-0.3,0-0.5-0.2-0.5-0.5v-14.4
			C741.3,1405.8,741.5,1405.6,741.8,1405.6z"/>
		<path class="st34" d="M681.3,1421H587c-2.1,0-3.8-3.4-3.8-7.7l0,0c0-4.2,1.7-7.7,3.8-7.7h94.3c2.1,0,3.8,3.4,3.8,7.7l0,0
			C685.1,1417.5,683.4,1421,681.3,1421z"/>
		<path class="st34" d="M731.5,1421h-37.4c-2.1,0-3.8-3.4-3.8-7.7l0,0c0-4.2,1.7-7.7,3.8-7.7h37.4c2.1,0,3.8,3.4,3.8,7.7l0,0
			C735.3,1417.5,733.6,1421,731.5,1421z"/>
		<ellipse class="st50" cx="3462" cy="2694.4" rx="446.6" ry="28.6"/>
		<polygon class="st51" points="3100.8,1370.6 3127.7,1374.3 3145.3,1354.3 3107.7,1326.7 		"/>
		<polygon class="st51" points="3348.6,2407.9 3340.6,2570 3272.9,2571.1 3256.7,2413.3 		"/>
		<path class="st52" d="M3351.4,2561.1l7.5,118.7l-60.8,2.2l-2.4-11.4l-18.6,14.3l-122.8-0.4c0,0-3.1-21.5,7.8-26.7
			s37.8-15.7,37.8-15.7l56.7-41.5l3.8-50.7L3351.4,2561.1z"/>
		
			<ellipse transform="matrix(0.1264 -0.992 0.992 0.1264 305.586 5557.5156)" class="st53" cx="3308" cy="2605.3" rx="20.9" ry="23.7"/>
		<polygon class="st51" points="3641.9,2351.8 3719.5,2494.3 3662.2,2530.5 3566.2,2404.3 		"/>
		<path class="st52" d="M3718.8,2467.5l79.9,88.2l-46.2,39.6l-9-7.4l-5.6,22.8l-96.2,76.2c0,0-15.8-14.9-10.5-25.7
			s19.8-35.9,19.8-35.9l18.5-67.8l-28.6-42L3718.8,2467.5z"/>
		<path class="st54" d="M3704.2,2419.6l-57,30l-38.2,20.1c0,0-210.6-183-223.1-401.1s-15-235.6-15-235.6l73.9,7.4l101.5,10.2
			l35.1,280.7c0,0,20.1,12.5,12.5,25.1L3704.2,2419.6z"/>
		
			<linearGradient id="SVGID_8_" gradientUnits="userSpaceOnUse" x1="3689.2615" y1="619.6688" x2="3505.3315" y2="1091.4789" gradientTransform="matrix(1 0 0 -1 0 3120)">
			<stop  offset="0" style="stop-color:#172652;stop-opacity:0.6"/>
			<stop  offset="1" style="stop-color:#17263F"/>
		</linearGradient>
		<path class="st55" d="M3704.2,2419.6l-57,30c-118.5-109.5-166.1-258.1-166.1-258.1h-22.6l10-20.1
			c-32.6-45.1-50.5-281.2-50.5-281.2s18.2-30.6,26.6-49.9l101.5,10.2l35.1,280.7c0,0,20.1,12.5,12.5,25.1L3704.2,2419.6z"/>
		<path class="st56" d="M3601.4,2460.4l93.7-59.2c4.4-2.8,10.3-1.5,13.1,2.9l11.1,17.6c2.8,4.4,1.5,10.3-2.9,13.1l-93.7,59.2
			c-4.4,2.8-10.3,1.5-13.1-2.9l-11.1-17.6C3595.7,2469,3597,2463.2,3601.4,2460.4z"/>
		<polygon class="st57" points="3301.1,1222.3 3292.9,1268.9 3317.7,1241.2 		"/>
		<path class="st57" d="M3431.2,1241.1c0,0,25.6-5.9,27.2,19.3s-35.4,50.7-35.4,50.7l-7.8-7.7L3431.2,1241.1z"/>
		
			<ellipse transform="matrix(0.219 -0.9757 0.9757 0.219 1342.2439 4201.4414)" class="st58" cx="3295.7" cy="1262.2" rx="25.5" ry="6.3"/>
		<path class="st51" d="M3284.4,1352c13.6,37.4,86.4,52.1,120.7-28.3c30-70.4,4.4-116.8-35.2-115.2s-63.6,18.5-63.6,18.5
			s-7.4,19.5-13.7,43c-3.2,12-8.6,30.2-10,42.2C3281,1326.2,3278.6,1336.3,3284.4,1352z"/>
		<path class="st57" d="M3415.2,1303.4c0,0,7.1-40.9,1.7-40.1s-110.6-7.5-106.9-41.3s39.2-25.9,39.2-25.9
			S3477.7,1205.5,3415.2,1303.4z"/>
		<path class="st57" d="M3439.8,1246.6c0,0,14-38.6-25.3-50.3s-31.1-8.5-47.4-28.2s-51.6-12.1-57.3,8.7s9.1,38.4,9.1,38.4
			L3439.8,1246.6z"/>
		<path class="st57" d="M3327.2,1197c0,0-32.9-17.7-36.7,6c-5.1,31.7,44.4,45.1,44.4,45.1L3327.2,1197z"/>
		<path class="st59" d="M3282.6,1312.2c9.6-3.7,18.3-18.7,16.7-29.3c-0.7-4.9-3.1-9.4-6.7-12.8
			C3289.4,1282.1,3284,1300.2,3282.6,1312.2z"/>
		<polygon class="st51" points="3318.2,1374.3 3320.7,1429.5 3395.9,1429.5 3387,1359.9 		"/>
		<path class="st57" d="M3345.8,1226.4c0,0-17.6,25.1-20.1,60.2c0,0,5-2.5,5,5s-10,57.7-2.5,72.7s57.6,10,65.2,5
			s55.1-57.7,55.1-70.2s-10-22.6-10-22.6s-17.5-72.7-52.6-87.7S3345.8,1226.4,3345.8,1226.4z"/>
		<path class="st54" d="M3448.6,1888.2c-10,120.3-92.7,606.6-92.7,606.6h-105.3c-45.1-366-20.1-591.6-20.1-591.6l29.8-2
			L3448.6,1888.2z"/>
		
			<linearGradient id="SVGID_9_" gradientUnits="userSpaceOnUse" x1="3498.9321" y1="619.4408" x2="3330.2922" y2="1052.0409" gradientTransform="matrix(1 0 0 -1 0 3120)">
			<stop  offset="0" style="stop-color:#172652;stop-opacity:0.6"/>
			<stop  offset="1" style="stop-color:#17263F"/>
		</linearGradient>
		<path class="st60" d="M3448.6,1888.2c-10,120.3-92.7,606.6-92.7,606.6h-47.5c-64.2-413.4-54.4-554.4-48.1-593.6L3448.6,1888.2z"/>
		<path class="st56" d="M3253.2,2469.7h97.5c7,0,12.7,5.7,12.7,12.7v12.2c0,7-5.7,12.7-12.7,12.7h-97.5c-7,0-12.7-5.7-12.7-12.7
			v-12.2C3240.5,2475.4,3246.2,2469.7,3253.2,2469.7z"/>
		<path class="st61" d="M3441,1434.5h30c0,0,74.8,35,122.2,169.6s-24.9,145.3-47.4,131.9S3441,1434.5,3441,1434.5z"/>
		<polygon class="st51" points="3125.2,1411.9 3127.7,1374.3 3090.1,1366.8 3080.1,1401.9 		"/>
		<polygon class="st62" points="3105.1,1246.5 3100.1,1251.5 3117.7,1369.3 3122.7,1366.8 		"/>
		<polygon class="st63" points="3105.1,1246.5 3122.7,1366.8 3187.9,1359.3 3172.8,1241.5 		"/>
		<path class="st64" d="M3110,1254.8l15.8,103.8c0.3,1.6,1.7,2.7,3.3,2.5l51.5-6.4c1.6-0.2,2.8-1.7,2.6-3.3c0,0,0,0,0,0l-13.6-101.7
			c-0.2-1.5-1.6-2.6-3.1-2.6l-53.7,4.3c-1.6,0.2-2.9,1.6-2.7,3.3C3110,1254.7,3110,1254.7,3110,1254.8z"/>
		<polygon class="st63" points="3116,1248.2 3121,1253.2 3160.8,1250.7 3163.3,1245.7 		"/>
		<path class="st51" d="M3100.1,1379.3l-10-12.5l-2.5-60.2c0,0,32.6-50.1,37.6-47.6s5,20-10,42.6c0,0,10,55.2-1.3,72.7
			S3100.1,1379.3,3100.1,1379.3z"/>
		<path class="st65" d="M3558.4,1886.9c-136.7,77-327.9,16.3-327.9,16.3c10-130.3-7.5-300.8-5-303.3c0.3-0.3-2.1-0.1-6.7,0.4
			c-31.3,3.4-162.5,21.1-180.7-16.4c-0.2-0.5-0.4-1-0.6-1.5c-17.6-45.1,37.6-195.5,37.6-195.5l60.1,15l2.5,60.2l82.7-10
			c15-12.5,80.2-30.1,80.2-30.1c40.1-52.6,95.3-40.1,95.3-40.1l15,30.1c17.4,4.3,42.5,14.6,60.5,22.5c15.4,6.7,27.7,18.8,34.7,34
			C3567.7,1603.7,3558.4,1886.9,3558.4,1886.9z"/>
		<path class="st61" d="M3411,1411.9c0,0-45.1-5-97.8,12.5c0,0,77.5-9.3,129-2.1C3442.2,1422.3,3418.5,1411.9,3411,1411.9z"/>
		<polygon class="st62" points="3117.7,1369.3 3185.4,1361.8 3187.9,1359.3 3122.7,1366.8 		"/>
		<line class="st66" x1="3283.8" y1="1271.8" x2="3336" y2="1284.2"/>
		<path class="st59" d="M3327.1,1277.9l2.4,0.8c0.8,0.2,1.3,0.9,1.5,1.7c1.4,6.8,6.2,39-22,46.2c-0.5,0.1-1.1,0.1-1.6-0.2l-0.6-0.3
			c-1.1-0.5-1.6-1.9-1-3c0.2-0.3,0.4-0.6,0.8-0.9c7.2-4.8,22.9-18.4,17.7-41.7c-0.3-1.2,0.5-2.4,1.7-2.7
			C3326.3,1277.7,3326.7,1277.7,3327.1,1277.9z"/>
		<path class="st61" d="M3222.9,1536.5v62.1l-4.1,1.7c-31.3,3.4-162.5,21.1-180.7-16.4c0.3-0.9,0.6-1.7,0.9-2.6
			C3039,1581.2,3068.8,1621,3222.9,1536.5z"/>
		<ellipse class="st50" cx="1525.2" cy="2694.4" rx="446.6" ry="28.6"/>
		<path class="st67" d="M1719.3,1950.2v343l-7.5,320.6h-74.6l-24.9-318.1c0,0-19-131.4-41.2-201c-4.4-13.8-9-25.2-13.5-32.6
			c-27.3-44.7-12.4-111.8-12.4-111.8L1719.3,1950.2z"/>
		<path class="st67" d="M1594.3,1950.2l-9.2,121.8l-13.9,22.7l-13.5,22.1l-109.3,178.9L1267,2516.8l-26.5-17.3l-30.6-20
			c0,0,144.2-223.7,144.2-228.6V2236l17.4-12.4l69.6-188.9l29.8-109.4L1594.3,1950.2z"/>
		
			<linearGradient id="SVGID_10_" gradientUnits="userSpaceOnUse" x1="1209.9401" y1="850.48" x2="1691.8545" y2="850.48" gradientTransform="matrix(1 0 0 -1 0 3120)">
			<stop  offset="0" style="stop-color:#172652;stop-opacity:0.6"/>
			<stop  offset="1" style="stop-color:#17263F"/>
		</linearGradient>
		<path class="st68" d="M1681.9,2613.7h-44.6l-24.9-318.1c0,0-19-131.4-41.2-201l-1-0.3l0,0c-3-7.9-11.9-11.8-19.8-8.8
			c-3.5,1.4-6.4,3.9-8.1,7.3c-29.8,57.9-96,180.8-141,220.2c-47.3,41.4-128.9,145.2-160.8,186.5l-30.6-20
			c0,0,144.1-223.7,144.1-228.6V2236l17.4-12.4l69.6-188.9l29.8-109.4l123.6,24.9h57.8l29.8,25.8
			C1682,1976,1704.2,2124.1,1681.9,2613.7z"/>
		<path class="st69" d="M1475.8,1895.5l-3.7,6.4c-4.3,7.5-3.4,17,2.2,23.6c12.5,14.9,41.2,38.7,100.9,47c66.1,9.2,113.2-2,133.3-8.4
			c6.5-2.1,10.9-8.1,10.9-14.9v-13.9L1475.8,1895.5z"/>
		<path class="st70" d="M1774,1786.1c-14.9,29.8-29.8,27.3-22.4,82s-14.9,64.6-19.9,67.1c-1.3,0.7-12.4,4.2-29.8,7.5
			c-6,1.2-12.8,2.3-20.2,3.2c0,0-0.1,0-0.1,0c-10.1,1.3-21.3,2.3-33.4,2.7c-51.4,1.7-117.8-7.7-172.5-53.3c0,0-22.4-29.8,24.9-69.6
			s39.1-149.7,49.7-178.9c6.2-17,19-48.2,43.3-69.6c14.9-13.1,34-22.4,58.6-22.4c0,0,28.7-1.8,61.7,20.6c6.3,4.3,12.3,9,17.8,14.2
			c0,0,34.8,9.9,49.7,24.9S1788.9,1756.3,1774,1786.1z"/>
		<path class="st71" d="M1723.3,1655.8c-1.2,5.2-1.7,10.6-1.5,16c0.6,17.7-2.6,65.6,24.8,124.3c0,0-27.2-24.3-33.3-32.3
			c-11.5-14.9,1,9.9,1,9.9s19.9,64.6,19.9,109.3c0,28.6-7.1,51.1-32.3,59.7c-5.3,1.8-11.8,2.9-20,3.2h-0.2c0,0-0.1,0-0.1,0
			c-8.9,0.3-20.3,1.6-33.4,2.7c-51.4,1.7-117.8-7.7-172.5-53.3c0,0-22.4-29.8,24.9-69.6s39.1-149.7,49.7-178.9
			c6.2-17,19-48.2,43.3-69.6c40.8-2.1,85.6-3.4,120.3-1.8c6.3,4.3,12.3,9,17.8,14.2c0,0,34.8,9.9,49.7,24.9
			C1781.4,1614.7,1735.2,1605.7,1723.3,1655.8z"/>
		<path class="st69" d="M1552.8,1594.8c0,0-9.9,52.2,22.4,67.1s129.2-52.2,129.2-52.2s24.5-19.3,45.8-13.4c0,0-6-9-18.4-6.5
			c0,0-2.5-14.9-19.9-14.9C1711.9,1574.9,1552.8,1617.1,1552.8,1594.8z"/>
		<path class="st72" d="M1712.5,1574.6c0,0-166.1,84.5-159.7,20.2c2.5-24.8,79.5-39.8,79.5-39.8S1678.3,1542,1712.5,1574.6z"/>
		<path class="st0" d="M1846.1,1624.6c0,0,14.9-24.9,12.4-99.4c0,0,47.2,24.8,72.1,29.8s84.5,5,84.5,5l-24.9,47.2l-42.2,64.6
			l-62.1,82l-37.6,2.5l-58.7-87.3C1789.6,1669,1826.2,1654.4,1846.1,1624.6z"/>
		<polygon class="st51" points="1873.4,1748.9 1913.2,1689.2 1938,1696.7 1920.6,1776.2 		"/>
		<path class="st70" d="M1851,1751.3c0,0,14.9-22.4,29.8-19.9c0,0,12.4,19.9,49.7,17.4c0,0,12.4,2.5,2.5,37.3s-69.6,87-109.3,74.6
			S1851,1751.3,1851,1751.3z"/>
		<path class="st70" d="M1716.8,1681.8c0,0,12.4-87,64.6-67.1s89.5,159,89.5,159s24.8,54.7-2.5,77s-50.5,22.1-104.4-49.7
			C1719.3,1741.4,1716.8,1681.8,1716.8,1681.8z"/>
		<path class="st71" d="M1880.9,1731.5l7.5-9.9c0,0,12.4,12.4,42.2,14.9v12.4C1930.6,1748.9,1893.3,1753.8,1880.9,1731.5z"/>
		<path class="st52" d="M1625.6,2571.4l-2.8,123.1l61.7-0.2l2-14.1l19.4,13.8l124.3-0.2c0,0,2.3-27-8.9-31.8s-38.9-14.4-38.9-14.4
			l-59.1-39.8l-5.8-51.2L1625.6,2571.4z"/>
		
			<ellipse transform="matrix(0.9863 -0.1652 0.1652 0.9863 -408.9446 312.1218)" class="st53" cx="1671.7" cy="2614.2" rx="24" ry="21.2"/>
		<path class="st52" d="M1215.2,2452.7l-91.9,81.9l42.2,44.9l11.7-8.2l3.2,23.6l85,90.8c0,0,21.3-16.8,17.2-28.2s-16-38.3-16-38.3
			l-11.2-70.3l33.4-39.2L1215.2,2452.7z"/>
		<path class="st51" d="M1913.2,1714.1l22.4-7.5l33-31.8c4.3-3.5,7.4-8.4,8.6-13.9l8.1-46.2l-37.2,57.2l-34.8,17.4l-7.5,18.2
			L1913.2,1714.1z"/>
		<path class="st51" d="M1938,1689.2l9.6-12.8c3.5-4.6,5.5-10.2,5.9-15.9l1.9-28.4c0,0-9.9-5-14.9,14.9s-27.3,7.5-34.8,59.7
			L1938,1689.2z"/>
		<path class="st51" d="M1736.4,1421.4c3.9,10.7,7.2,21.7,9.9,32.8c2.2,8.7,3.8,17.5,5,26.3c2.5,20,0.2,37.6-9.7,49.3
			c-2.7,3.2-3.7,3.1-7.3,5.3c-52.2,7.4-48.6,9.8-70.4-11.9c-28.2-28.1-52.1-70.5-52.1-70.5l58.8-54.9l37.4,2.8L1736.4,1421.4z"/>
		<path class="st73" d="M1696.1,1407.9c-2.1,0.7-4.4,1.3-6.6,1.6c0,0-15.4-2.1-16.4,6.7s7.9,54.8-35.6,78.9l0.2,1l4.3,28.4
			c0,0-52.7-7.5-59.2-64.2s38.3-69.7,38.3-69.7s16.8-40.1,62.4-13.3C1716.4,1396.6,1705.1,1404.8,1696.1,1407.9z"/>
		<path class="st73" d="M1746.6,1402.2c3.2,5.5,1.7,13.3-3.6,19c-6,6.4-12.6,12.3-19.7,17.6c-1.8,1.3-3.4,2.5-4.8,3.5
			c-3.6,2.5-8,1.8-9.4-1.5c-1.2-2.6-2.5-5-4-7.4c-6.6-10.6-15.4-19.6-25.7-26.6l-17.1-11.7l-2.2-1.5c0,0,0.9-1.3,2.5-3.3
			c1-1.2,2.2-2.6,3.7-4.2c8.3-8.6,24.3-20.9,44.1-14.7C1729.2,1377.3,1740.8,1392.4,1746.6,1402.2z"/>
		<path class="st73" d="M1727.8,1436.6c1.2-0.1,2.3-0.3,3.4-0.6c1.2-0.3,2.4-0.6,3.5-0.8s2.3-0.5,3.5-0.7c1.2-0.2,2.3-0.5,3.4-0.9
			c0.8-0.4,1.1-1.2-0.2-1.8s-4.1-0.8-7.6-0.1s-5.9,2.2-6.7,3.2S1726.8,1436.5,1727.8,1436.6z"/>
		<path class="st59" d="M1747,1457.7c2.1,8.3,3.7,16.7,4.8,25.2c-2.3-3.3-3.9-7.1-4.7-11C1745.9,1467.2,1745.9,1462.3,1747,1457.7z"
			/>
		
			<linearGradient id="SVGID_11_" gradientUnits="userSpaceOnUse" x1="4806.7446" y1="3289.3418" x2="4793.5146" y2="3211.8618" gradientTransform="matrix(0.8746 -0.4848 -0.4848 -0.8746 -957.8551 6618.54)">
			<stop  offset="0" style="stop-color:#FFFFFF;stop-opacity:0.5"/>
			<stop  offset="1" style="stop-color:#000000"/>
		</linearGradient>
		<path class="st74" d="M1696.1,1407.9c-2.1,0.7-4.4,1.3-6.6,1.6c0,0-15.4-2.1-16.4,6.7s7.9,54.8-35.6,78.9l0.2,1
			c-4,0.4-3.6-1.2,5.2-6.3c31.2-18.5,19.9-66.6,25.2-82.6s21.3-8,21.3-8L1696.1,1407.9z"/>
		<path class="st73" d="M1679.6,1403.4c0,0,24.9,19.9,22.4,52.2s-19.9-22.4-29.8,0s64.6,62.1,47.2,109.3s-62.1,27.3-82,62.1
			s-14.9,101.9-64.6,104.4s-49.7-32.3-32.3-62.1s-27.3-57.2,7.5-94.4s11.9-109.6,35.8-140.5
			C1583.6,1434.4,1632.3,1371.1,1679.6,1403.4z"/>
		<path class="st75" d="M1638.3,1478.4c0,0-35.5-23-35.7-55.5C1602.6,1422.9,1609.4,1458.1,1638.3,1478.4z"/>
		<path class="st75" d="M1656.4,1455.8c0,0-40.7-11.7-50.2-42.8C1606.2,1413,1622.9,1444.7,1656.4,1455.8z"/>
		
			<linearGradient id="SVGID_12_" gradientUnits="userSpaceOnUse" x1="5874.9175" y1="3235.1345" x2="5862.2373" y2="3160.8745" gradientTransform="matrix(0.73 -0.69 -0.69 -0.73 -382.21 7801.4902)">
			<stop  offset="0" style="stop-color:#FFFFFF;stop-opacity:0.5"/>
			<stop  offset="1" style="stop-color:#000000"/>
		</linearGradient>
		<path class="st76" d="M1722.4,1435.4c0.4,1.2,0.7,2.3,0.9,3.4c-1.8,1.3-3.4,2.5-4.8,3.5c-3.6,2.5-8,1.8-9.4-1.5
			c-1.2-2.6-2.5-5-4-7.4c-6.6-10.6-15.4-19.6-25.7-26.6l-19.5-13.4c0-1.8,2.4-1.8,2.6-3.1c0.5-3,1.6-4.6,3.6-4.2h0.1
			C1668.5,1386.4,1709.4,1392.3,1722.4,1435.4z"/>
		<path class="st73" d="M1637.5,1388.2c0,0-18.9-54.1-56.2-11.8s-1.6,70,20,64.2C1637.3,1430.8,1637.5,1388.2,1637.5,1388.2z"/>
		<path class="st70" d="M1632.6,1377.9c0,0,12.2,23-7.7,47.8C1624.9,1425.8,1657.6,1397.2,1632.6,1377.9z"/>
		<path class="st59" d="M1678.7,1450.7l-1.9,0.6c-0.6,0.2-1,0.7-1.2,1.3c-1.1,5.4-4.9,30.8,17.4,36.5c0.4,0.1,0.9,0.1,1.2-0.1
			l0.5-0.2c0.9-0.4,1.2-1.5,0.7-2.4c-0.1-0.2-0.3-0.5-0.5-0.6c-5.7-3.8-18.1-14.5-14-33c0.2-0.9-0.4-1.9-1.3-2.1
			C1679.3,1450.6,1679,1450.6,1678.7,1450.7z"/>
	</g>
</g>
</svg>
