<svg id="_01" data-name="01" xmlns="http://www.w3.org/2000/svg" xmlns:xlink="http://www.w3.org/1999/xlink" viewBox="0 0 4680 3120"><defs><style>.cls-1,.cls-16,.cls-24{fill:none;}.cls-2{fill:#fff;}.cls-3{fill:#fef1ed;}.cls-4{clip-path:url(#clip-path);}.cls-10,.cls-5{fill:#db9382;}.cls-6{fill:#f9c1b6;}.cls-7{fill:#fad5cd;}.cls-8{fill:#ffd4ca;}.cls-9{clip-path:url(#clip-path-2);}.cls-10,.cls-12,.cls-16,.cls-21{stroke:#000;}.cls-10,.cls-12,.cls-16,.cls-21,.cls-24{stroke-miterlimit:10;stroke-width:4px;}.cls-11,.cls-21{fill:#f5934f;}.cls-13{fill:#ca4947;}.cls-14{clip-path:url(#clip-path-3);}.cls-15{fill:#653e3a;}.cls-16,.cls-21,.cls-24{stroke-linecap:round;}.cls-17{fill:#ff921f;}.cls-18{clip-path:url(#clip-path-4);}.cls-19{fill:#e56d00;}.cls-20{fill:#212866;}.cls-22{fill:#5566ad;}.cls-23{clip-path:url(#clip-path-5);}.cls-24{stroke:#b1c0ef;}.cls-25{fill:#b1c0ef;}.cls-26{fill:#df5f4a;}</style><clipPath id="clip-path"><path class="cls-1" d="M3810.27,1722.57C3737.52,2061,3340.8,2421,2925.8,2615.24c-235.13,110.12-476.15,167-667.4,136.63q-25.82-4.1-52.51-9.24c-528-101.54-1284.43-499.32-1343.22-876.92C801.9,1475.39,1022.21,843,1405.11,539.15c311.11-246.9,912-177.86,1126.45-143.29,50.74,8.18,101.81,13.92,153.06,17.82C3488.62,474.83,3920.84,1208.16,3810.27,1722.57Z"/></clipPath><clipPath id="clip-path-2"><rect class="cls-1" x="2421.11" y="668.47" width="907.69" height="953.05"/></clipPath><clipPath id="clip-path-3"><path class="cls-1" d="M2570.85,1180.5c-11,30.39,26.16,139.27,26.16,139.27l-167.12,55.7s8.21-42.54,7-69.71c0-1.57-.15-3.09-.27-4.55-.54-5.68-1.6-10.41-3.37-13.53-4.53-8-4.51-12-9.17-11.82a23.9,23.9,0,0,0-6.53,1.57h0c-7.9,2.71-22.1,8.86-49.27,18.71-67.53,24.46-124.91-119-131.67-143.49-5.15-18.68-29.46-47.66-40.69-60.35a5,5,0,0,1,2.42-8.13c15.93-4.31,49.84-17.62,51.77-53.06,2.53-46.41,12.66-161.21,12.66-161.21C2598.71,796.47,2554,1097,2554,1097s32.92-43.88,65.84-28.69S2618.13,1164.48,2570.85,1180.5Z"/></clipPath><clipPath id="clip-path-4"><path class="cls-1" d="M2839.28,2066.67l-3.4,30.43s7.47,26.08,17.63,63.78c24,89.16,63.25,243.18,54.94,270.45-11.8,38.82-15.19,11.83-11.8,38.82s-334.23,180.63-639.77,40.51c6.76-60.77,11.82-37.12,6.76-60.77s-15.19-32,3.37-99.58c-8.1-33.3-11.17-62.9-11.29-88.4-.33-63.55,17.57-101.56,20.89-108.09a351.35,351.35,0,0,1-30.29,45.22s0,0,0,0c-32.91,41.8-89.25,93.51-154.86,70.21-104.67-37.14-263.33-270.09-302.17-381.5,62.46-96.22,72.59-103,173.87-111.41,62.47,89.48,74.27,97.91,74.27,97.91l21.72,27.8,49,62.67,1.87,2.38s-6.76-519.93,252.62-516.53c0,0-16.3-35.45,15.78-54s211-123.21,300.48-99.58c15.19,47.27,27,52.33,27,52.33s168.81,13.5,206,52.32,254.88,391.63,254.88,391.63l-155.8,8.81-143,8.08-.84,7.47Z"/></clipPath><clipPath id="clip-path-5"><path class="cls-1" d="M2868,1810.14l420.32-22,151.92,113.1-106.35,641.45-428.76-52.33-9.68-32.07s5.14-1.87,14.16-35.54-73.69-325.7-73.69-325.7Z"/></clipPath></defs><title>01</title><rect id="_01-2" data-name="01" class="cls-2" width="4680" height="3120"/><path class="cls-3" d="M3810.27,1722.57C3737.52,2061,3340.8,2421,2925.8,2615.24c-235.13,110.12-476.15,167-667.4,136.63q-25.82-4.1-52.51-9.24c-528-101.54-1284.43-499.32-1343.22-876.92C801.9,1475.39,1022.21,843,1405.11,539.15c311.11-246.9,912-177.86,1126.45-143.29,50.74,8.18,101.81,13.92,153.06,17.82C3488.62,474.83,3920.84,1208.16,3810.27,1722.57Z"/><path class="cls-1" d="M2684.61,413.69c-51.23-3.9-102.31-9.64-153-17.82-214.41-34.58-815.35-103.63-1126.46,143.27C1022.2,843,801.89,1475.39,862.66,1865.71s867,802.16,1395.74,886.17,1437.9-499.2,1551.86-1029.3C3920.83,1208.17,3488.61,474.84,2684.61,413.69Z"/><g class="cls-4"><polygon class="cls-5" points="3416.1 1708.98 2370.27 1696.98 2370.27 593.01 3416.1 605.01 3416.1 1708.98"/><rect class="cls-5" x="1248.47" y="562.65" width="906.47" height="1811.81"/><rect class="cls-6" x="890.18" y="2375.4" width="3073.9" height="600.01"/><rect class="cls-7" x="1229.48" y="563.6" width="906.47" height="1811.81"/><rect class="cls-7" x="2343.57" y="588.92" width="1053.33" height="1103.97"/><rect class="cls-3" x="1264.92" y="639.56" width="810.25" height="1735.84"/><rect class="cls-8" x="1305.44" y="690.2" width="698.84" height="303.84"/><rect class="cls-8" x="1305.44" y="1044.69" width="698.84" height="1330.72"/><polygon class="cls-5" points="1305.44 690.2 1253.11 788.11 1957.02 788.11 2004.28 690.2 1305.44 690.2"/><rect class="cls-5" x="1380.13" y="1098.98" width="258.27" height="536.79"/><rect class="cls-5" x="1701.7" y="1098.98" width="258.27" height="536.79"/><rect class="cls-5" x="1380.13" y="1721.29" width="258.27" height="536.79"/><rect class="cls-5" x="1701.7" y="1721.29" width="258.27" height="536.79"/><rect class="cls-3" x="2421.11" y="668.47" width="907.69" height="953.05"/><g class="cls-9"><polygon class="cls-2" points="3316.99 597.98 2394.54 1405.69 2421.11 1610.43 3364.24 762.22 3316.99 597.98"/><polygon class="cls-2" points="3364.24 861.37 2471.03 1635.18 2565.53 1653.18 3364.24 939.96 3364.24 861.37"/></g><polygon class="cls-5" points="2343.57 588.92 2272.68 861.37 3326.18 842.12 3396.9 588.92 2343.57 588.92"/><path class="cls-3" d="M2376.67,726.18c-8.53,13.68-10.44,31-4.19,46,5.07,12.17,15,21.55,26.71,27.35,27.82,13.79,58.95,7.67,84.84-7.4,17.38-10.1,32.63-23.4,47.67-36.62l-2.5-.67c9.64,31.95,23.36,68.74,60.25,76.06,38.65,7.66,73.42-16.38,101.78-39.37,8.19-6.64,16.29-13.4,24.74-19.72s17.28-13,27-16.94c5.73-2.34,11.79-3,17.12.74,4,2.78,6.93,7,10,10.67a61.14,61.14,0,0,0,17.82,14.81c28.69,15.59,65.2,8.73,94.92,0,48.2-14.12,95.29-32.69,140.78-53.92l-2.2-.89c6,19.81,14.49,42.85,32.53,54.84,19.52,13,40,3.15,57.13-8.7,9.48-6.56,19-13.83,30.11-17.33,13.74-4.32,27.73-1,40.35,5.08,21.74,10.52,39.87,28.27,64.46,32,18.88,2.88,42.94-1.47,48.2-22.86.46-1.88-2.43-2.68-2.89-.8-5,20.38-28.69,23.58-46.32,20.47-23.19-4.1-40.63-20.95-61.22-31.09-10.28-5.06-21.6-8.74-33.2-7.73-10,.86-19,5.11-27.37,10.37-17.38,10.94-35.87,29.23-58.26,22.5-23.73-7.14-34.19-36.31-40.63-57.58a1.53,1.53,0,0,0-2.21-.9A1054.57,1054.57,0,0,1,2898.75,773c-31.44,10.09-68.17,21.05-100.71,9.34a58.85,58.85,0,0,1-21.13-13.06c-5.6-5.46-9.59-13-16.49-17-7.13-4.15-15.1-2.09-22.05,1.4-8.72,4.37-16.83,10.21-24.61,16.06-31.09,23.41-60,54-100.7,58.91-21.35,2.56-42.06-3.89-56.18-20.54-13-15.28-19.1-35.21-24.79-54.05a1.52,1.52,0,0,0-2.51-.67c-23.46,20.63-48.81,42.93-80.32,49.48-24.65,5.13-55.39-2.12-69.93-24.14-10.17-15.41-9.74-35.52-.07-51,1-1.65-1.57-3.15-2.59-1.52Z"/><rect class="cls-3" x="1361.14" y="1087.73" width="258.27" height="536.79"/><rect class="cls-3" x="1682.71" y="1087.73" width="258.27" height="536.79"/><rect class="cls-3" x="1361.14" y="1710.05" width="258.27" height="536.79"/><rect class="cls-3" x="1682.71" y="1710.05" width="258.27" height="536.79"/></g><path class="cls-10" d="M1314.29,2135.12c-47.69,0-143.25,40.17-127.13,156.45s127.13,232.1,127.13,232.1"/><path class="cls-10" d="M1311.87,2523.67s111-115.83,127.12-232.1-79.43-156.45-127.12-156.45"/><circle class="cls-2" cx="1313.37" cy="2257" r="50.94"/><path class="cls-10" d="M3397,593.05c-39,0-117.1,32.84-103.92,127.89S3397,910.67,3397,910.67"/><path class="cls-10" d="M3395,910.67S3485.77,816,3499,720.94,3434,593.05,3395,593.05"/><circle class="cls-2" cx="3396.25" cy="692.68" r="41.64"/><path class="cls-10" d="M1865.9,983.34c-26.48,0-79.53,22.3-70.58,86.86s70.58,128.87,70.58,128.87"/><path class="cls-10" d="M1864.56,1199.07s61.63-64.31,70.58-128.87-44.1-86.86-70.58-86.86"/><circle class="cls-2" cx="1865.39" cy="1051.01" r="28.28"/><path class="cls-11" d="M1953,1788.19c-15.2,27-138.43,86.09-138.43,86.09a343.56,343.56,0,0,1-25.47-35.85c-20.18-32.26-44.39-81.58-40.36-127.89,6.76-77.64-2.28-189,48.66-194.11s121.84,165.09,121.84,165.09,26.39,42.94,34.39,76.47C1956.58,1770.11,1957.06,1781,1953,1788.19Z"/><path class="cls-12" d="M1953,1788.19c-15.2,27-138.43,86.09-138.43,86.09a343.56,343.56,0,0,1-25.47-35.85c17.42-29.17,49.8-71.23,94.26-76.82,29.83-3.75,53.25-4.26,70.27-3.62C1956.58,1770.11,1957.06,1781,1953,1788.19Z"/><polygon class="cls-13" points="2061.84 1606.06 2061.84 1606.07 2054.54 1636.12 1842.29 1750.69 1616.19 1400.14 1616.19 1357.93 1818.77 1248.13 2060.87 1604.65 2061.84 1606.06"/><polygon points="2061.84 1606.07 2054.54 1636.12 1842.29 1750.69 1616.19 1400.14 1616.19 1359.44 1853.76 1703.05 2061.84 1606.07"/><polygon class="cls-6" points="1646 1375.02 1855.91 1665.15 2016.27 1585.81 1810.33 1280.28 1646 1375.02"/><polygon class="cls-2" points="1710.3 1337.94 1729.74 1381.17 1685.5 1429.62 1707.62 1460.19 1751.68 1410.79 1763.48 1537.4 1800.07 1587.98 1785.44 1419.23 1879.97 1547.52 1831.13 1630.91 1845.04 1650.12 1900.23 1560.18 1918.8 1598.16 1968.36 1609.52 1995.41 1596.14 1932.3 1577.91 1918.8 1544.15 1943.76 1478.24 1908.05 1425.26 1876.6 1485.07 1807.39 1390.54 1849.2 1337.94 1831.13 1311.14 1785.44 1361.42 1756.8 1311.14 1710.3 1337.94"/><path class="cls-11" d="M2570.85,1180.5c-11,30.39,26.16,139.27,26.16,139.27l-167.12,55.7s8.21-42.54,7-69.71c0-1.57-.15-3.09-.27-4.55-.54-5.68-1.6-10.41-3.37-13.53-4.53-8-4.51-12-9.17-11.82a23.9,23.9,0,0,0-6.53,1.57h0c-7.9,2.71-22.1,8.86-49.27,18.71-67.53,24.46-124.91-119-131.67-143.49-5.2-18.86-29.92-48.21-41-60.71a4.69,4.69,0,0,1,2.32-7.65c15.74-4.19,50.24-17.42,52.19-53.18,2.53-46.41,12.66-161.21,12.66-161.21C2598.71,796.47,2554,1097,2554,1097s30-46.85,62.89-31.65S2639.58,1158.05,2570.85,1180.5Z"/><path class="cls-12" d="M2439.93,1304.26c0-1.57-.15-3.09-.27-4.55-.54-5.68-1.6-10.41-3.37-13.53-4.53-8-4.51-12-9.17-11.82l61.91-40.92S2494.68,1277.35,2439.93,1304.26Z"/><g class="cls-14"><path d="M2695.51,1115.53c-3.67,20.41-12.28,37.61-17.55,46.7a3.34,3.34,0,0,1-6.15-.94l-5.78-25s-6.33,79.76-55.7,90.8c-33.5,7.5-23.16,14.31-26.58,10.48-1.72-2.23-16.79-46-12.9-57,86-33.43,74.28-112.22,46-124.45s-56.58,38.09-56.58,38.09-9.44,29.47-32.23,35.5-41.78-76.93-55.71-146.56c-30.38,17.73-34.18-62-34.18-62s-19,43-55.7,36.16S2328,900.79,2328,900.79s-16.46,86.09-58.24,45.58-13.93-91.15-13.93-91.15c336.54-100.73,386.93,110.22,421.06,182.28a109.31,109.31,0,0,0,6.86,12.68C2697.94,1071.93,2699.15,1095.3,2695.51,1115.53Z"/></g><path class="cls-15" d="M2923.47,2615.24c-235.13,110.12-476.15,167-667.4,136.63q-25.82-4.1-52.51-9.24l7.75-26,57.43-205.8,3.34-12,623.34-40.51Z"/><polyline class="cls-12" points="2222.65 2746.17 2375.89 2497.17 2268.74 2510.82 2211.31 2716.62 2203.56 2742.63"/><path class="cls-16" d="M2354.36,981.74s27.83-34.18,53.16-10.13"/><ellipse cx="2377.79" cy="1038.08" rx="15.83" ry="27.22"/><path class="cls-2" d="M2373.26,1195.94c-5.28,6.71-14,13.19-28.28,17.78-24.15,7.75-37.57-3.89-44.8-16.23a67.87,67.87,0,0,1-7.85-21.5l87.75-9.57A34.91,34.91,0,0,1,2373.26,1195.94Z"/><path class="cls-17" d="M2839.28,2066.67l-3.4,30.43s7.47,26.08,17.63,63.78c24,89.16,63.25,243.18,54.94,270.45-11.8,38.82-15.19,11.83-11.8,38.82s-334.23,180.63-639.77,40.51c6.76-60.77,11.82-37.12,6.76-60.77s-15.19-32,3.37-99.58c-8.1-33.3-11.17-62.9-11.29-88.4-.33-63.55,17.57-101.56,20.89-108.09a351.35,351.35,0,0,1-30.29,45.22s0,0,0,0c-32.91,41.8-89.25,93.51-154.86,70.21-104.67-37.14-263.33-270.09-302.17-381.5,62.46-96.22,72.59-103,173.87-111.41,62.47,89.48,74.27,97.91,74.27,97.91l21.72,27.8,49,62.67,1.87,2.38s-6.76-519.93,252.62-516.53c0,0-16.3-35.45,15.78-54s211-123.21,300.48-99.58c15.19,47.27,27,52.33,27,52.33s168.81,13.5,206,52.32,254.88,391.63,254.88,391.63l-155.8,8.81-143,8.08-.84,7.47Z"/><g class="cls-18"><path class="cls-19" d="M2203.56,2308s189.9-203.91,177.38-423.59c306.74,0,527.52-164,527.52-164l24.75,393.47S2763.46,2303.5,2203.56,2308Z"/></g><path class="cls-12" d="M2396.14,1448.9s206.79-87.78,258.27-93.69S2473.37,1345.09,2396.14,1448.9Z"/><path class="cls-12" d="M2332.84,2031.29c22.54-50.08,76-245.1,77.2-249.35-.93,6.66-57.85,406.69-154.32,480-.33-63.55,17.57-101.56,20.89-108.09a351.35,351.35,0,0,1-30.29,45.22C2274.3,2146.78,2317.85,2064.64,2332.84,2031.29Z"/><polygon class="cls-12" points="3010.92 1802.07 2867.94 1810.15 2867.1 1817.62 2867.1 1583.1 3010.92 1802.07"/><path class="cls-12" d="M2853.51,2160.88l-75-13.14,60.8-81.07-3.4,30.43S2843.35,2123.18,2853.51,2160.88Z"/><path class="cls-20" d="M2704.14,1102.79c-3.67,20.41-12.28,37.61-17.55,46.7a3.34,3.34,0,0,1-6.15-.94l-5.77-25s-6.33,79.76-55.71,90.8c-33.5,7.5-44.23,7.78-47.65,4-1.73-2.23-4.35-26.73-.46-37.78,63.3-35.45,77.23-100,49-112.24s-50.9,13.14-50.9,13.14-9.44,29.47-32.23,35.5S2494.89,1040,2481,970.34c-30.39,17.73-34.19-62-34.19-62s-19,43-55.7,36.16-54.44-56.42-54.44-56.42-16.46,86.09-58.24,45.58-13.92-91.15-13.92-91.15C2601,741.75,2651.4,952.7,2685.53,1024.76a109.31,109.31,0,0,0,6.86,12.68C2706.57,1059.19,2707.79,1082.56,2704.14,1102.79Z"/><path class="cls-12" d="M2704.14,1102.79,2527.81,893.12l157.72,131.64a109.31,109.31,0,0,0,6.86,12.68C2706.57,1059.19,2707.79,1082.56,2704.14,1102.79Z"/><path class="cls-19" d="M2279.67,809.56s-212.69,53.17-200,93.68,448.17-10.12,448.17-10.12l171.47,157.27s121-194-76.52-314.26c-17.72-50.64-63.3-24-63.3-24S2393.61,643.71,2279.67,809.56Z"/><path class="cls-12" d="M2299.08,815.72s145.5,24.22,187.12,50.81S2451,759.84,2299.08,815.72Z"/><path class="cls-12" d="M2569.58,1112.87c0-12.69,13.3-21.77,24.66-16.1,15.17,7.57,14.33,28.79-10.83,44.4-35,21.73-13.83-23.61-13.83-23.61Z"/><path class="cls-21" d="M1809.55,1788.19s-21.94-82.71-6.75-131.66,35.45-109.72,49-67.52,0,70.89,0,70.89,66.91,51.13,57.4,87.78"/><path class="cls-22" d="M2868,1810.14l420.32-22,151.92,113.1-106.35,641.45-428.76-52.33-9.68-32.07s5.14-1.87,14.16-35.54-73.69-325.7-73.69-325.7Z"/><g class="cls-23"><polygon class="cls-12" points="2770.45 2377.31 3166.72 2385.76 3408.96 2603.51 2735.95 2568.82 2770.45 2377.31"/></g><polyline class="cls-24" points="3276.5 1838.83 3166.72 2385.76 3300.08 2497.16"/><line class="cls-24" x1="2908.46" y1="2377.31" x2="3166.72" y2="2385.75"/><polygon class="cls-25" points="3010.92 1874.28 2999.61 1931.17 3181.92 1931.17 3197.11 1874.28 3010.92 1874.28"/><ellipse class="cls-26" cx="2435.59" cy="1111.46" rx="51.43" ry="23.93"/><path class="cls-26" d="M2373.26,1195.94c-5.28,6.71-14,13.19-28.28,17.78-24.15,7.75-37.57-3.89-44.8-16.23,9.9-3.81,23.62-6.17,38.79-6.17C2352,1191.32,2363.88,1193.06,2373.26,1195.94Z"/><path d="M2109.82,1973.64a226.36,226.36,0,0,0,11.6,115c.67,1.79,3.58,1,2.89-.8a223.38,223.38,0,0,1-11.6-113.39c.3-1.89-2.59-2.7-2.89-.8Z"/><path d="M2104.88,1971.9c-49.94,13.84-71.24,66.07-75.7,113.23-.18,1.92,2.82,1.91,3,0,4.34-45.81,24.93-96.87,73.49-110.34a1.5,1.5,0,0,0-.79-2.89Z"/><path d="M2621.77,756.05c46,44.18,51.95,111.85,45.63,171.84-2.16,20.42-5.55,40.68-9,60.93-.31,1.88,2.58,2.7,2.9.79,10.85-64.69,21.82-134.8-8.64-196.08a142.87,142.87,0,0,0-28.82-39.6c-1.39-1.34-3.52.78-2.12,2.12Z"/><path d="M2581.26,753.91c-18.46,8.57-33,23.11-44.92,39.38a240.36,240.36,0,0,0-31.66,60.29c-.65,1.82,2.25,2.61,2.9.8a238.89,238.89,0,0,1,30.4-58.27c11.76-16.39,26.3-31,44.79-39.61,1.75-.81.23-3.39-1.51-2.59Z"/><path d="M2291.56,2372a128.87,128.87,0,0,0,111.92,38.29c1.9-.29,1.09-3.18-.8-2.9-39.82,6.06-81.32-8.31-109-37.51-1.33-1.41-3.45.72-2.12,2.12Z"/><path d="M2278.56,2457.26a195.61,195.61,0,0,0,160.56,41.25c1.9-.37,1.09-3.26-.79-2.9-55.31,10.66-114.31-4.48-157.64-40.47-1.48-1.22-3.61.89-2.13,2.12Z"/><path d="M2768.62,2485a302.17,302.17,0,0,0,93.84-39.45c1.63-1,.12-3.63-1.51-2.59a299.67,299.67,0,0,1-93.13,39.14c-1.88.44-1.08,3.33.8,2.9Z"/><path d="M2839.54,1434.55a192.17,192.17,0,0,1,17.18,83.25c0,1.93,3,1.93,3,0a195.64,195.64,0,0,0-17.59-84.76c-.79-1.76-3.38-.23-2.59,1.51Z"/><path d="M2340.22,1514.43c31.16.44,48.7,32.71,56.44,58.94,10.91,37,12.87,77.21,8.64,115.37-.22,1.92,2.79,1.9,3,0a316.24,316.24,0,0,0-4.47-98.5c-4.87-23.63-13.19-48.81-31.54-65.56-8.93-8.15-19.91-13.07-32.07-13.25a1.5,1.5,0,0,0,0,3Z"/><path d="M2442.53,1086q-9.6,15.72-20.14,30.83c-1.1,1.58,1.5,3.08,2.59,1.51q10.55-15.11,20.14-30.82c1-1.66-1.59-3.16-2.59-1.52Z"/><path d="M2453.66,1101.15l-14.37,18.49c-1.17,1.51.94,3.65,2.12,2.12l14.37-18.49c1.17-1.5-.93-3.64-2.12-2.12Z"/></svg>