<svg xmlns="http://www.w3.org/2000/svg" xmlns:xlink="http://www.w3.org/1999/xlink" viewBox="0 0 4680 3120"><defs><style>.cls-1{fill:none;}.cls-2,.cls-5{fill:#fff;}.cls-2{opacity:0;}.cls-3{fill:#cae2ff;}.cls-4{opacity:0.09;}.cls-6{fill:#c8c8c8;}.cls-7{fill:#53a396;}.cls-8{fill:#6cd3c2;}.cls-9{fill:#3a8a7e;}.cls-10{fill:#1e7a6a;}.cls-11{fill:#2b79bf;}.cls-12{fill:#385a65;}.cls-13{fill:#7fceea;}.cls-14{fill:#e6f1ff;}.cls-15{fill:#1177c1;}.cls-16{fill:#cc1f3d;}.cls-17{fill:#81b2f0;}.cls-18{clip-path:url(#clip-path);}.cls-19{fill:#ffd4d3;}.cls-20{fill:#efafa5;}.cls-21{fill:#262019;}.cls-22{fill:#302921;}.cls-23{fill:#cbcbcb;}.cls-24{fill:#ffa2a1;}.cls-25{fill:#fccfc9;}.cls-26{fill:#73432f;}.cls-27{fill:#000103;}.cls-28{fill:#f5aea8;}.cls-29{fill:#522309;}.cls-30{fill:#f34721;}.cls-31{fill:#292177;}.cls-32{fill:#e3f0fe;}.cls-33{clip-path:url(#clip-path-2);}.cls-34{fill:#357fe2;}.cls-35{fill:#ffbc01;}.cls-36{fill:#ffc800;}.cls-37{fill:#0f9ae8;}.cls-38{fill:#0fc6e8;}.cls-39{fill:#0f5ee8;}.cls-40{fill:#0e97e6;}.cls-41{fill:#0f48e8;}.cls-42{fill:#06db49;}.cls-43{fill:#0be1bd;}.cls-44{fill:#f9b9b9;}.cls-45{fill:#3b3b3b;}.cls-46{fill:#1e1913;}.cls-47{fill:#ff9001;}.cls-48{fill:#fcfcfc;}.cls-49{fill:#ededed;}.cls-50{opacity:0.27;}.cls-51{fill:#8fd8e5;}.cls-52{fill:#aaebf2;}.cls-53{opacity:0.15;}.cls-54{fill:#3784bf;}.cls-55{fill:#60bdc6;}.cls-56{fill:#1f1f1f;}.cls-57{fill:#16120d;}.cls-58{fill:#202020;}.cls-59{fill:#414141;}.cls-60{fill:#3a322a;}.cls-61{fill:#0fb2e8;}.cls-62{fill:#485b9e;}.cls-63{fill:#6775b5;}</style><clipPath id="clip-path"><circle class="cls-1" cx="1986.94" cy="781.13" r="213.81" transform="translate(29.62 1633.76) rotate(-45)"/></clipPath><clipPath id="clip-path-2"><circle class="cls-1" cx="961.06" cy="1199.98" r="195.69"/></clipPath></defs><title>06</title><g id="_06" data-name="06"><rect id="_06-2" data-name="06" class="cls-2" width="4680" height="3120"/><path class="cls-3" d="M3578.11,769.88c-134.36-105.2-286.53-184.62-446.35-245.46-83.28-31.71-168.64-58.37-254.62-81-365.53-96.21-758.37-122-1118.91-8.52-468.92,147.59-984.11,627.45-776.58,1161.49a801.72,801.72,0,0,0,182.82,278.29c181.89,179.88,434.8,273.82,688.33,308s510.87,13.34,765.84-7.5l811.65-66.33c117.17-9.58,238.55-20.4,340.9-78.26,102.64-58,176.62-160.19,212.33-272.56s35.21-234.18,11.7-349.72C3943.46,1153.91,3782.48,929.89,3578.11,769.88Z"/><g class="cls-4"><path d="M2356.24,941h389.4c36.56,20.84,130.84,74.46,137.54,77,6.43,2.45-37.49-52-57.86-77h138.75V656.59H2356.24Z"/><path d="M2964.07,655.05H2356.24a1.54,1.54,0,0,0-1.54,1.54V941a1.54,1.54,0,0,0,1.54,1.54h389c39.37,22.44,130.69,74.35,137.4,76.9a2.64,2.64,0,0,0,.91.19,1.82,1.82,0,0,0,1.47-.74c1-1.4,1.87-2.6-21.29-32.36-11.43-14.7-25.07-31.6-35.16-44h135.51a1.54,1.54,0,0,0,1.54-1.54V656.59A1.54,1.54,0,0,0,2964.07,655.05Zm-1.55,284.43h-137.2a1.54,1.54,0,0,0-1.2,2.51c35.79,43.88,52.39,65.92,56.87,73.28-17.68-9-106.21-59.42-134.59-75.59a1.54,1.54,0,0,0-.76-.2H2357.78V658.13h604.74Z"/></g><path class="cls-5" d="M2363.53,925h389.39c36.56,20.84,130.85,74.46,137.55,77,6.42,2.45-37.5-52-57.87-77h138.75V640.58H2363.53Z"/><path d="M2483.53,724.65a12.65,12.65,0,0,1-9.66-3.95,14.46,14.46,0,0,1-3.71-10.32A14.81,14.81,0,0,1,2473.9,700a12.52,12.52,0,0,1,9.63-4.07,14.53,14.53,0,0,1,6.48,1.51,22.29,22.29,0,0,1,6.1,4.6l1.18-11.87a24.67,24.67,0,0,0-14.24-4.38,24.2,24.2,0,0,0-9.37,1.84,23.54,23.54,0,0,0-13,13.26,26.43,26.43,0,0,0-1.76,9.66,25.66,25.66,0,0,0,2.38,11.06,24,24,0,0,0,13.79,12.37,24.34,24.34,0,0,0,7.86,1.28,25.65,25.65,0,0,0,7.34-1.06,23.44,23.44,0,0,0,6.51-3.07l.71-12.32a27.77,27.77,0,0,1-7,4.42A18,18,0,0,1,2483.53,724.65Z"/><path d="M2542.27,692.88a23.44,23.44,0,0,0-25.82-5.27,22.56,22.56,0,0,0-7.58,5.2,24.19,24.19,0,0,0-5.23,8.05,26.94,26.94,0,0,0,0,19.26,24.23,24.23,0,0,0,5.23,8,23.14,23.14,0,0,0,27.12,4.58,23.61,23.61,0,0,0,8.33-7,23,23,0,0,0,3.62-7,27,27,0,0,0,1.21-8.2,26.71,26.71,0,0,0-1.74-9.71A22.76,22.76,0,0,0,2542.27,692.88Zm-8,27.77a11.39,11.39,0,0,1-17.45,0,16.39,16.39,0,0,1,0-20.32,11.39,11.39,0,0,1,17.45,0,16.45,16.45,0,0,1,0,20.34Z"/><polygon points="2586.84 712.87 2557.95 685.8 2556.9 685.8 2556.9 733.7 2567.1 733.7 2567.1 708.39 2596.09 735.46 2597.05 735.46 2597.05 687.31 2586.84 687.31 2586.84 712.87"/><polygon points="2602.36 697 2617.11 697 2617.11 733.7 2628.18 733.7 2628.18 697 2642.87 697 2642.87 687.31 2602.36 687.31 2602.36 697"/><path d="M2659.79,685.87l-23.64,47.83h11.13l3-6.75h18.81l3,6.75h11.58l-23.13-47.83Zm-6.3,33.08,6.17-14.52,6,14.52Z"/><path d="M2708.81,724.65a12.65,12.65,0,0,1-9.66-3.95,14.46,14.46,0,0,1-3.72-10.32,14.77,14.77,0,0,1,3.75-10.43,12.49,12.49,0,0,1,9.63-4.07,14.53,14.53,0,0,1,6.48,1.51,22.11,22.11,0,0,1,6.09,4.6l1.19-11.87a24.73,24.73,0,0,0-14.24-4.38,24.25,24.25,0,0,0-9.38,1.84A23.57,23.57,0,0,0,2686,700.84a26.22,26.22,0,0,0-1.76,9.66,25.66,25.66,0,0,0,2.38,11.06,23.92,23.92,0,0,0,13.79,12.37,24.28,24.28,0,0,0,7.85,1.28,25.72,25.72,0,0,0,7.35-1.06,23.71,23.71,0,0,0,6.51-3.07l.7-12.32a27.55,27.55,0,0,1-7,4.42A18,18,0,0,1,2708.81,724.65Z"/><polygon points="2724.71 697 2739.46 697 2739.46 733.7 2750.53 733.7 2750.53 697 2765.22 697 2765.22 687.31 2724.71 687.31 2724.71 697"/><path d="M2818.1,713.93c0,3.62-.77,6.39-2.32,8.29a8.19,8.19,0,0,1-6.73,2.84q-4.58,0-6.83-3t-2.26-9.2v-25.5H2789V714q0,10.08,5.14,15.65t14.38,5.57q9.15,0,14.3-5.62t5.15-15.66V687.31h-9.89Z"/><path d="M2854.67,705.51l-5.43-3a7.33,7.33,0,0,1-2.4-1.92,3.67,3.67,0,0,1-.8-2.28,3.22,3.22,0,0,1,1.34-2.73,6,6,0,0,1,3.68-1,15,15,0,0,1,5.12,1.15,37.15,37.15,0,0,1,6.37,3.27V688.11a49.23,49.23,0,0,0-6.4-1.79,26.93,26.93,0,0,0-5.35-.58,16.33,16.33,0,0,0-10.91,3.58,11.52,11.52,0,0,0-4.22,9.19,12.91,12.91,0,0,0,2.21,7.39,19.62,19.62,0,0,0,6.78,5.85l3.14,1.76,1.53.9q6.21,3.55,6.21,6.4a3.83,3.83,0,0,1-1.75,3.24,7.64,7.64,0,0,1-4.62,1.27,17.36,17.36,0,0,1-5.84-1.06,40.29,40.29,0,0,1-7.28-3.68L2837,733a54.66,54.66,0,0,0,6.69,1.69,32.32,32.32,0,0,0,5.63.55q7.65,0,12.27-4.18a14.07,14.07,0,0,0,4.62-11,12.43,12.43,0,0,0-2.35-7.58Q2861.48,709.3,2854.67,705.51Z"/><rect class="cls-6" x="2422.99" y="756.3" width="500.11" height="9.94"/><rect class="cls-6" x="2422.99" y="799.91" width="500.11" height="9.94"/><rect class="cls-6" x="2422.99" y="843.52" width="500.11" height="9.94"/><rect class="cls-6" x="2422.99" y="887.12" width="500.11" height="9.94"/><path class="cls-7" d="M3898.21,1946.56c-17.51-.82-34.69,4.59-51.12,10.72-129.24,48.23-270.94,229.41-299.13,271.41l127.88,18c81.5-81.55,228.7-109,267.91-229.29,4.95-15.2,6.33-32.61-1.43-46.59C3933.81,1955.51,3915.73,1947.37,3898.21,1946.56Z"/><path class="cls-8" d="M3884.92,1694c-72.32-61.7-166.24,39.78-209.89,90.59-66,76.84-119,164.69-163.09,255.6-6.39,13.16-70.23,172.77-71,172.65l27.39,3.87,79.76,11.25s144.42-207.07,273.46-324.36C3882.6,1848.07,3934.9,1736.64,3884.92,1694Z"/><path class="cls-9" d="M3655.42,1963.82c-51.07,77.09-101.25,165.9-145.13,256.82l11.6,5.6c55.48-115,170.57-328.83,318.05-469.43l-8.89-9.32C3772.85,1803,3713.76,1875.75,3655.42,1963.82Z"/><path class="cls-10" d="M3052.32,1544.69c-69.29-25.9-89.56,55.43-84.29,111.75,6.82,73,68.67,128.23,102.87,186.7,62.93,107.6,85.89,175.88,120.56,334.39l104.44,14.85s35.28-345-94.17-525C3166.75,1618.71,3105.78,1564.68,3052.32,1544.69Z"/><path class="cls-8" d="M3376.44,1500.24c-29.21-55.63-122.07-182.29-192.34-146-40.65,21,2,123.11,12.81,153.49,34.93,98.53,59.05,202,74.49,307.09,17.85,121.57,26.5,247.92,18.47,372-.1,1.57-.22,3.14-.33,4.71l67.27,9.49c51.57-69.21,82.38-391.91,76-495.25C3428.36,1633.89,3408.66,1561.64,3376.44,1500.24Z"/><path class="cls-10" d="M3526.53,1602c-102.89,144.24-150.41,418.58-162.22,600l96.2,13.57c65.93-55.82,343.74-563.91,321.51-770.53C3774.35,1373.83,3643.21,1438.45,3526.53,1602Z"/><path class="cls-8" d="M3027.94,1595.12l-7.52,8.08c142.23,132.21,228,360.54,218.62,581.7l11,.47c4.63-108.76-13.29-221.26-51.82-325.33C3158.88,1753.71,3100,1662.1,3027.94,1595.12Z"/><path class="cls-9" d="M3316.76,1563.56c-17.83-59.31-43.5-109.07-76.31-147.87l-9.83,8.31c57.63,68.18,91.33,169.36,103,309.31,12,143.14,9.11,294.72-8.71,463.39l12.8,1.36c17.91-169.5,20.77-321.87,8.74-465.82C3341,1667.15,3331.32,1612,3316.76,1563.56Z"/><path class="cls-8" d="M3535.13,1845.54c-56.81,127-95.74,245.89-119,363.49l10.83,2.14c41.9-211.76,136.46-432.6,297.56-695l-9.41-5.78C3640.61,1631.75,3581.74,1741.36,3535.13,1845.54Z"/><path class="cls-9" d="M3792.36,2044.08c-50.82,37-125.24,99.73-191.23,188.69l8.87,6.58c65.07-87.74,138.48-149.66,188.6-186.16,54.36-39.59,93.83-58.65,94.22-58.83l-4.76-10C3886.43,1985.18,3847.48,2004,3792.36,2044.08Z"/><g class="cls-4"><polygon points="3289.03 1064.11 3668.3 1066.73 3668.3 806.13 3289.03 807.2 3289.03 1064.11"/><path d="M3668.3,804.8h0L3289,805.87a1.33,1.33,0,0,0-1.33,1.33v256.91a1.34,1.34,0,0,0,1.32,1.34l379.27,2.62h0a1.33,1.33,0,0,0,1.33-1.34V806.13a1.34,1.34,0,0,0-.39-1A1.37,1.37,0,0,0,3668.3,804.8ZM3667,1065.39l-376.61-2.6V808.53L3667,807.46Z"/></g><polygon class="cls-11" points="3305.87 1051.33 3685.14 1053.95 3685.14 793.35 3305.87 794.42 3305.87 1051.33"/><rect class="cls-5" x="3384.89" y="848.04" width="115.87" height="4.3"/><rect class="cls-5" x="3384.89" y="867.35" width="115.87" height="4.29"/><rect class="cls-5" x="3384.89" y="886.65" width="115.87" height="4.29"/><rect class="cls-5" x="3384.89" y="905.96" width="115.87" height="4.29"/><rect class="cls-5" x="3384.89" y="925.26" width="245.84" height="4.29"/><rect class="cls-5" x="3384.89" y="951" width="245.84" height="4.29"/><g class="cls-4"><polygon points="3378.74 913 3147.1 914.07 3147.1 1170.98 3228.71 1171.91 3228.71 1186.26 3263.12 1224.33 3297.49 1262.87 3593.99 1262.87 3593.99 1002.27 3378.74 1002.9 3378.74 913"/><path d="M3594,1000.94h0l-213.92.63V913a1.31,1.31,0,0,0-.4-1,1.13,1.13,0,0,0-.94-.38l-231.64,1.07a1.33,1.33,0,0,0-1.32,1.33V1171a1.33,1.33,0,0,0,1.31,1.33l80.3.91v13a1.32,1.32,0,0,0,.34.89l34.41,38.07,34.37,38.54a1.33,1.33,0,0,0,1,.44H3594a1.32,1.32,0,0,0,1.33-1.33v-260.6a1.33,1.33,0,0,0-1.33-1.33Zm-1.33,260.6H3298.09l-34-38.11L3230,1185.74v-13.83a1.33,1.33,0,0,0-1.32-1.33l-80.29-.91V915.4l229-1.06v88.56a1.33,1.33,0,0,0,1.33,1.34h0l213.92-.63Z"/></g><polygon class="cls-12" points="3157.44 1159.89 3389.07 1162.52 3389.07 901.91 3157.44 902.98 3157.44 1159.89"/><rect class="cls-5" x="3205.7" y="956.6" width="70.77" height="4.3"/><rect class="cls-5" x="3205.7" y="975.91" width="70.77" height="4.29"/><rect class="cls-5" x="3205.7" y="995.21" width="70.77" height="4.29"/><rect class="cls-5" x="3205.7" y="1014.52" width="70.77" height="4.29"/><rect class="cls-5" x="3205.7" y="1033.82" width="150.15" height="4.29"/><rect class="cls-5" x="3205.7" y="1059.56" width="150.15" height="4.29"/><polygon class="cls-13" points="3239.05 1175.17 3273.46 1213.24 3307.83 1251.78 3604.33 1251.78 3604.33 991.18 3239.05 992.25 3239.05 1175.17"/><polygon class="cls-14" points="3239.29 1175.56 3307.63 1251.65 3304.47 1172.95 3239.29 1175.56"/><rect class="cls-5" x="3287.3" y="1034.65" width="117.54" height="4.29"/><rect class="cls-5" x="3287.3" y="1053.95" width="117.54" height="4.29"/><rect class="cls-5" x="3287.3" y="1073.26" width="117.54" height="4.29"/><rect class="cls-5" x="3287.3" y="1092.56" width="117.54" height="4.29"/><rect class="cls-5" x="3445.35" y="1034.65" width="115.68" height="4.29"/><rect class="cls-5" x="3445.35" y="1053.95" width="115.68" height="4.29"/><rect class="cls-5" x="3445.35" y="1073.26" width="115.68" height="4.29"/><rect class="cls-5" x="3445.35" y="1092.56" width="115.68" height="4.29"/><rect class="cls-5" x="3287.3" y="1123.09" width="279.21" height="4.29"/><rect class="cls-5" x="3287.3" y="1148.83" width="279.21" height="4.29"/><g class="cls-4"><rect x="898.72" y="1620.33" width="386.06" height="266.68" transform="translate(-2.52 1.57) rotate(-0.08)"/><path d="M1286,1618.64a2,2,0,0,0-1.4-.58h0l-386.06.55a2,2,0,0,0-2,2l.38,266.68a2,2,0,0,0,.59,1.4,2,2,0,0,0,1.41.59h0l386.06-.56a2,2,0,0,0,2-2l-.38-266.68A2,2,0,0,0,1286,1618.64ZM900.9,1885.29l-.37-262.7,382.08-.55.38,262.7Z"/></g><rect class="cls-15" x="916.03" y="1601.92" width="386.07" height="266.68" transform="translate(-2.49 1.59) rotate(-0.08)"/><polygon class="cls-5" points="1109.13 1773.59 915.85 1602.2 915.88 1619.3 1109.14 1790.1 1301.93 1618.74 1301.9 1601.65 1109.13 1773.59"/><polygon class="cls-5" points="1154.56 1730.52 1146.26 1739.87 1291.1 1868.33 1302.29 1868.32 1302.28 1861.52 1154.56 1730.52"/><polygon class="cls-5" points="916.21 1862.98 916.22 1868.87 928.42 1868.86 1072.89 1739.98 1064.56 1730.65 916.21 1862.98"/><polygon class="cls-15" points="1109.13 1773.59 1301.91 1601.64 915.85 1602.19 1109.13 1773.59"/><path class="cls-16" d="M1285,1536.59a79.64,79.64,0,1,0,79.64,79.64A79.65,79.65,0,0,0,1285,1536.59Z"/><polygon class="cls-5" points="1249.77 1590.7 1249.77 1599.73 1258.62 1594.3 1258.62 1647 1267.35 1647 1267.35 1584.8 1258.62 1584.8 1249.77 1590.7"/><path class="cls-5" d="M1299.22,1584q-8.68,0-13.22,4.64t-4.53,13V1630q0,8.34,4.51,13t13.24,4.67q8.68,0,13.22-4.64t4.54-13V1601.7q0-8.43-4.52-13T1299.22,1584Zm9,46q0,4.53-2.2,7t-6.83,2.42q-4.62,0-6.82-2.42t-2.21-7V1601.7c0-3,.73-5.34,2.19-7s3.73-2.42,6.84-2.42,5.39.81,6.85,2.42,2.18,3.92,2.18,7Z"/><g class="cls-4"><path d="M1055.66,1109h278.48c-40.89,50.13-129,159.45-116.14,154.55,13.44-5.12,202.67-112.73,276-154.55h781.52V538.17H1055.66Z"/><path d="M2275.56,535.08H1055.66a3.09,3.09,0,0,0-3.09,3.09V1109a3.1,3.1,0,0,0,3.09,3.1h272c-20.24,24.86-47.63,58.79-70.57,88.28-13.7,17.61-24.28,31.66-31.44,41.78-13.19,18.64-12.88,20.94-11.28,23.16a3.62,3.62,0,0,0,2.94,1.48,5.14,5.14,0,0,0,1.83-.36c13.49-5.13,196.75-109.31,275.76-154.34h780.7a3.09,3.09,0,0,0,3.09-3.1V538.17A3.09,3.09,0,0,0,2275.56,535.08Zm-3.1,570.84H1494a3.18,3.18,0,0,0-1.53.4c-56.94,32.46-234.56,133.53-270.12,151.71,9-14.77,42.33-59,114.14-147.06a3.09,3.09,0,0,0-2.39-5H1058.76V541.27h1213.7Z"/></g><path class="cls-17" d="M1041.05,1076.88h278.47c-40.89,50.14-129,159.45-116.14,154.55,13.45-5.11,202.67-112.72,276-154.55h781.52V506H1041.05Z"/><g class="cls-18"><circle class="cls-5" cx="1992.76" cy="715.26" r="271.35"/><path d="M1917.93,634.23c-43.38-1.47-38.64,55.75-30.21,77.91h0v0c.33,2.08-33.29,126.54-32.83,128.55,1.53,12.34,62.84-12.4,117,3.23l124,24.86c16.07-28.14,7-84.26-2.15-120.33C2115.29,632.2,1996.19,538.3,1917.93,634.23Z"/><path class="cls-16" d="M2107.26,846.63l-16.64-12.26,14.12,292.17,49.59-38.36,49.17-38,38.93-21.24L2206.79,964C2179.37,911,2148.67,877.14,2107.26,846.63Z"/><path class="cls-19" d="M2519.77,1275.59a48.22,48.22,0,0,0-30.08-24.55l-71.38-19.76L2234.69,1114l-4.93-17.09-15.83-54.88-109.19,84.47,1,20.53a108,108,0,0,0,65.08,93.93l8.78,3.78,169.51,73.13,84.75,1.88c27.31,9.42,36.72,33,53.67,24.49,6.23-3.12-21.67-38.41-22.33-39.5l46.29,40.35c3.91,4.13,17.13,9.28,19,3.9a7.56,7.56,0,0,0-1.2-7.09c-8-10.19-32.09-41-30.49-39.18,1.31,1.51,20.45,20.3,30.55,30l.11.11c4.27,4,10.93-1,8.46-6.3-1.46-3.11-3.31-7-4-8l-14.93-25.09a204.15,204.15,0,0,0,13.35,17.89c2.14,2.48,9.91,7,11,3.86a9.4,9.4,0,0,0-1.05-7.44Z"/><path class="cls-20" d="M2104.74,1126.54l1,20.53a108,108,0,0,0,40.69,79.33c2.32-30.23,11.79-60,20.11-73.34,12.65-20.3,45.21-44.38,63.23-56.11l-15.83-54.88Z"/><path class="cls-21" d="M2371.63,1405l-97.71-61.37-319.11,629.13,344,148.09S2692.45,1607.18,2371.63,1405Z"/><path class="cls-22" d="M2132.23,1349.31l-411.61-53.51-24.31,173.38c-5.35,38.16,8.21,77.2,37.67,102,13.91,11.71,30.28,19.63,47.39,19.87l277.08,1.22,19.39,59.69L2067,2087l129.36-5.16,262.41-10.49,69-2.76s-41.09-345.17-124.69-521.89C2319.16,1369.39,2210.3,1359.47,2132.23,1349.31Z"/><polygon class="cls-22" points="2083.77 1670.23 2115.56 1592.31 2058.45 1592.31 2083.77 1670.23"/><path class="cls-16" d="M2090.62,834.37l-9-2.57-24.08-2.33-27.86-4.38-113.44,4.17-31.33,3.23-1.34.13L1848,836.29a136.84,136.84,0,0,0-121.13,114.86l-12.34,245.26c-8.7,41.74-40.43,196.57,2.16,198.32l78.24,3.25,82.45,3.42,223.18,9.26,16.95-69.21c2.48-9.38,4.91-18.7,7.23-28,23.84-95.47,38.81-193.28,26.67-354.75C2148.58,921.77,2148.53,865.44,2090.62,834.37Z"/><g class="cls-4"><path d="M1973.38,1301.9l-231.64-247.64c9.6,54.18,4.19,107.5,18.93,152A665.44,665.44,0,0,1,1794.88,1398l82.45,3.42,223.18,9.26,16.95-69.21C2119.94,1332.07,1971.06,1311.22,1973.38,1301.9Z"/><path d="M2045.38,1320.91c-32.08-6.61-68.44-14.11-71.23-18.54-.12-.19-.1-.28-.09-.3a.67.67,0,0,0-.17-.65l-231.64-247.64a.7.7,0,0,0-.83-.15.69.69,0,0,0-.37.75c4,22.7,5.4,45.26,6.74,67.08,1.87,30.39,3.63,59.09,12.22,85A668.13,668.13,0,0,1,1794.18,1398a.7.7,0,0,0,.68.68l305.62,12.68h0a.71.71,0,0,0,.68-.53l16.95-69.2a1.79,1.79,0,0,0-.25-1.41C2115,1335.58,2087.31,1329.56,2045.38,1320.91Zm71.4,20.37L2100,1409.94l-304.39-12.63A669.4,669.4,0,0,0,1761.34,1206c-8.53-25.72-10.28-54.33-12.14-84.63-1.3-21.12-2.64-42.93-6.37-64.91l229.82,245.69a1.91,1.91,0,0,0,.31,1c2.9,4.6,30.44,10.58,72.13,19.17,32.26,6.65,68.83,14.19,71.6,18.67C2116.81,1341.15,2116.79,1341.24,2116.78,1341.28Z"/></g><path class="cls-23" d="M2369.12,1334.29s2.33,1.25,6.07,3.12l1.37-2.65c-3.61-1.94-6.09-3.13-6.09-3.13Z"/><path class="cls-19" d="M2357.58,1285c-12.83-7.85-33.45-14-48-10.34l-68.15-10L2019,1210.19l-66-137.81-169.09,82,37.73,89.39,15.88,37.62a188.48,188.48,0,0,0,16.79,31.42A165.38,165.38,0,0,0,1885.7,1348a168.87,168.87,0,0,0,66.1,34.24,147.77,147.77,0,0,0,37.68,4.75l203.29-1.3h56.5l49-26.33s56.5,20.68,69.67,11.3c12.09-8.64-35.88-31.47-44-35.31,53.68,22.26,70.06,34.41,77.46,28.7,9.21-7.17-11.52-20.28-23.56-27,15.55,7.63,48.88,22.82,53.23,14.24C2435.09,1343.14,2388.88,1304.11,2357.58,1285Z"/><path class="cls-20" d="M1783.94,1154.38l37.73,89.39c3.9-6.27,8.58-13.23,14.2-20.82,23.2-31.36,123.24-76.14,146.77-88.71l-25.85-56Z"/><path class="cls-16" d="M1888.48,944.8l-146.74,109.44,33,128,0,0,198.63-89.12-84.92-148.33Z"/><path class="cls-24" d="M2426.33,1344.14a4.62,4.62,0,0,1,.06.66l.65.64Z"/><path class="cls-24" d="M2392.48,1362.32l-.61-.25-.54,0Z"/><path class="cls-24" d="M2352.1,1315.11c6.49,4.15,12.8,8.65,19.41,12.59,1.92,1.22,3.87,2.4,5.81,3.57-8.24-5.8-16.73-11.13-25.4-16.27l-3,4.77c6.54,4.23,12.92,8.68,19.65,12.67,2,1.28,4.1,2.52,6.17,3.74-8.29-5.79-16.94-11.19-25.65-16.3Z"/><path class="cls-24" d="M2331,1337.19l-1.83,4.31,35.4,14.83c-1.8-1.43-3.69-2.7-5.53-4A213,213,0,0,0,2331,1337.19Z"/><path class="cls-24" d="M2431.36,1342.27l-.59-.57c-12.77-12.43-25.91-24.34-39.84-35.44s-28.32-21.74-44.85-29.23c-2.13-.82-4.24-1.69-6.39-2.45-2.27-.53-4.53-1.13-6.8-1.58a79.86,79.86,0,0,0-13.63-.36,184.7,184.7,0,0,0-26.52,3.78,462.43,462.43,0,0,0-51.33,14.07l.69,2.1a459.41,459.41,0,0,1,51.29-12.84,185.94,185.94,0,0,1,26.05-3.15,75.11,75.11,0,0,1,12.85.48c2.06.45,4.07,1,6.11,1.51l6,2.37c15.66,7.33,29.85,18.08,43.45,29.15,13.33,11,26.26,22.59,38.57,34.69a4.62,4.62,0,0,0-.06-.66l.71,1.3-.65-.64a5.55,5.55,0,0,1-.66,2.91c-.45.32-.64.84-1.3,1a5.75,5.75,0,0,1-.82.43l-1.1.19c-3,.51-6.71-.19-10.21-1.19-7.14-2-14-5.51-20.85-8.89q-7.12-3.84-14.13-8,4.13,2.88,8.15,5.94a101.62,101.62,0,0,1,13.07,11.53,83.91,83.91,0,0,0,12.32,4.6c3.91,1,8,2,12.69,1.24a8.75,8.75,0,0,0,3.52-1.23,9,9,0,0,0,3.08-2.71,10.74,10.74,0,0,0,1.34-7.64Z"/><path class="cls-24" d="M2374.76,1336.18q3.75,2.63,7.4,5.37c5.18,4,10.35,8.15,14.25,12.9,1.93,2.27,3.09,5.31,2.23,5.65a5.62,5.62,0,0,1-2.89,1.38,23.18,23.18,0,0,1-3.88.59l.61.25-1.15-.2.54,0-60.94-24.9-1.84,4.31a209.13,209.13,0,0,1,27.58,14.39c4.18,2.78,8.73,5.93,10.93,9.64,2.34,3.17-3.39,5.28-8.19,5.47-10.07.49-20.51-1.74-30.63-4-10.16-2.42-20.25-5.35-30.15-8.67l-.75,2.08c9.93,3.6,20,6.77,30.18,9.48,10.25,2.53,20.57,5.1,31.57,4.85a20.29,20.29,0,0,0,8.43-1.89,7.34,7.34,0,0,0,3.65-3.75,6.61,6.61,0,0,0-.51-5.4,26.79,26.79,0,0,0-6.66-7.34l-35.4-14.83,1.83-4.31a213,213,0,0,1,28,15.13c1.84,1.31,3.73,2.58,5.53,4l25.93,10.86.6.25.56,0a33,33,0,0,0,5.43-.78,10.33,10.33,0,0,0,5.74-3.2,6.72,6.72,0,0,0,1.45-3.86,9.19,9.19,0,0,0-.68-3.44,20,20,0,0,0-2.94-5c-.68-.83-1.38-1.63-2.09-2.4-3.25-1.47-6.43-3-9.62-4.61Q2381.75,1340.29,2374.76,1336.18Z"/><path class="cls-24" d="M2385.47,1337.21q-4-3.06-8.15-5.94c-1.94-1.17-3.89-2.35-5.81-3.57-6.61-3.94-12.92-8.44-19.41-12.59l-3,4.77c8.71,5.11,17.36,10.51,25.65,16.3q7,4.13,14.16,8c3.19,1.56,6.37,3.14,9.62,4.61A101.62,101.62,0,0,0,2385.47,1337.21Z"/><path class="cls-25" d="M2048.27,726.85l-17.37,47.36s43.39,10.49,46.72-19S2048.27,726.85,2048.27,726.85Z"/><path class="cls-20" d="M2062.6,752.85a6.82,6.82,0,0,0-1.76,1.56l4.35.79c0-.83-.08-1.61,0-2.34a10.92,10.92,0,0,1,.12-1.15c-.28.07-.56.15-.84.25A8.48,8.48,0,0,0,2062.6,752.85Z"/><path class="cls-20" d="M2066.39,751.49c-.37.06-.74.13-1.1.22a10.92,10.92,0,0,0-.12,1.15c-.06.73,0,1.51,0,2.34l-4.35-.79a6.82,6.82,0,0,1,1.76-1.56,8.48,8.48,0,0,1,1.85-.89c.28-.1.56-.18.84-.25.05-.34.11-.69.2-1.05a15.91,15.91,0,0,1,.82-2.44c.38-.88.85-1.81,1.45-2.9a6.23,6.23,0,0,0-3.56.77,7.58,7.58,0,0,0-2.8,2.58,8,8,0,0,0-1.31,3.75,8.74,8.74,0,0,0,0,2,12.83,12.83,0,0,0,.41,1.86l1.95,6.91,2.41-6.12a7.2,7.2,0,0,1,.59-1.08c.26-.42.59-.86.91-1.32a35.64,35.64,0,0,0,2.09-3.17A7.88,7.88,0,0,0,2066.39,751.49Z"/><path class="cls-25" d="M1958.54,833.58a28.8,28.8,0,0,0,57.57,2l1-29.94-57.57-2Z"/><path class="cls-20" d="M1959.22,813.79c15.81,19.58,47.58,20.15,57,19.86l1-28-57.57-2Z"/><path class="cls-25" d="M1982.52,643.41c-65.94,6.06-57.66,70.24-57.66,70.24s-5.58,48.56,20.42,79.31c12,14.17,30.64,24.55,59.64,24.67a68.72,68.72,0,0,0,21.7-3.15c65-21.11,39.46-141.66,39.46-141.66S2048.47,637.34,1982.52,643.41Z"/><path class="cls-26" d="M2054.42,759.45l-1.34-5.45c-.43-1.81-.93-3.61-1.41-5.42s-1-3.61-1.47-5.41q-1.51-5.38-3.24-10.74c-1.14-3.56-2.36-7.1-3.74-10.61.48,3.74,1.11,7.43,1.82,11.11s1.47,7.33,2.31,11c.4,1.83.85,3.64,1.3,5.45s.87,3.63,1.37,5.44l1.44,5.41,1,3.47,2.09.23-1.54,1.69-.55-1.92-2.56-.29c-1.55-.19-3.11-.31-4.66-.46s-3.12-.24-4.68-.36-3.13-.19-4.7-.23c1.51.45,3,.84,4.54,1.24s3,.76,4.56,1.09,3,.7,4.58,1l4.58.93,2,.41-.47-2.1Z"/><polygon class="cls-26" points="2054.54 763.9 2052.45 763.67 2053 765.59 2054.54 763.9"/><path class="cls-27" d="M2062.83,707.88c-5.88-2.17-12.21.27-13.19,2.94s3.74,4.54,9.62,6.72,10.69,3.82,11.67,1.15S2068.71,710.06,2062.83,707.88Z"/><path class="cls-27" d="M2014.52,707.68c-5.79,2.4-8.76,8.49-7.67,11.11s5.83.79,11.62-1.61,10.43-4.47,9.35-7.09S2020.31,705.27,2014.52,707.68Z"/><path class="cls-27" d="M2057.43,725.43c-3.83.36-6.54,4.92-6,10.18s4,9.25,7.82,8.89,6.55-4.91,6.06-10.18S2061.27,725.08,2057.43,725.43Z"/><path class="cls-27" d="M2019.88,727.41c-3.84.35-6.55,4.91-6.06,10.18s4,9.24,7.83,8.89,6.54-4.92,6-10.18S2023.71,727.05,2019.88,727.41Z"/><path class="cls-28" d="M2003.77,743c-6.51-2.41-13.41,0-15.4,5.39s1.68,11.7,8.19,14.1,13.4,0,15.39-5.38S2010.28,745.39,2003.77,743Z"/><path class="cls-28" d="M2072.06,747.66c-3.58-2.09-8.53-.27-11,4.05s-1.68,9.53,1.89,11.62,8.53.27,11-4.05S2075.63,749.75,2072.06,747.66Z"/><path class="cls-25" d="M1933,715.37c-12.25-9.92-32.24-6.19-41.41,6.26a22,22,0,0,0-2.44,4.24,29.64,29.64,0,0,0-2.3,13.15c.48,10.2,6.16,19.74,15.84,23.61,10.56,4.21,22.66,1.36,32.75-2.8,9.21-14.22,4.15-35.8,4.14-35.82C1938.78,720.73,1935.44,717.37,1933,715.37Z"/><path class="cls-20" d="M1929.6,738.65a20.38,20.38,0,0,0-4.64-1.58c-.52-.11-1-.21-1.55-.29a16.27,16.27,0,0,1,2,4.82Z"/><path class="cls-20" d="M1928,733.1a18,18,0,0,0-6-5.2,22.09,22.09,0,0,0-7.11-2.37,19.9,19.9,0,0,0-7.26.16c2.2,1,4.27,2,6.22,3a37,37,0,0,1,5.35,3.47,19.48,19.48,0,0,1,4,4.26c.08.11.14.23.21.34.52.08,1,.18,1.55.29a20.38,20.38,0,0,1,4.64,1.58l-4.14,3a16.27,16.27,0,0,0-2-4.82c-1-.16-2-.26-3-.33a35.56,35.56,0,0,0-4.5,0,27.35,27.35,0,0,0-4.47.64c1.39.61,2.76,1.16,4.12,1.69l4,1.52c1.32.51,2.63,1,3.86,1.54a23.52,23.52,0,0,1,3.37,1.71l5.11,3.32-1-6.28A17,17,0,0,0,1928,733.1Z"/><path class="cls-29" d="M2037.3,768.78c-3.6-2.16-7.49-1.53-10.91.07a29.37,29.37,0,0,0-7,4.74c6.45-1.23,15.49-1.09,22.82,6.08a12.19,12.19,0,0,0,.19-1.74C2042.58,774.83,2041.51,771.32,2037.3,768.78Z"/><path class="cls-30" d="M2019.41,773.59a34.94,34.94,0,0,0-3,3L2040.3,785a17.12,17.12,0,0,0,1.93-5.34C2034.9,772.5,2025.86,772.36,2019.41,773.59Z"/><path d="M1935.94,768.05s25-55.85,65.13-102.49c6.38-7.42-6,32.9-6,32.9s41.7-21.77,47.28-52.93l1-26.2-132.26,31.85Z"/></g><polygon class="cls-31" points="1281.42 725.05 1231.17 725.05 1231.17 677.23 1200.43 677.23 1200.43 807.57 1231.17 807.57 1231.17 752.91 1281.42 752.91 1281.42 807.57 1311.98 807.57 1311.98 677.23 1281.42 677.23 1281.42 725.05"/><polygon class="cls-31" points="1372.21 754.35 1415.09 754.35 1415.09 727.66 1372.21 727.66 1372.21 704.11 1422.28 704.11 1422.28 677.23 1342.01 677.23 1342.01 807.57 1422.99 807.57 1422.99 780.15 1372.21 780.15 1372.21 754.35"/><polygon class="cls-31" points="1477.83 677.23 1446.73 677.23 1446.73 807.57 1528.61 807.57 1528.61 779.61 1477.83 779.61 1477.83 677.23"/><path class="cls-31" d="M1618.05,687a43.57,43.57,0,0,0-16.09-7.55q-9.07-2.25-24.54-2.25h-33.53V807.57H1575V759.93c.71.06,1.49.1,2.33.13s2.1.05,3.78.05q24.09,0,38.16-11.6t14.06-31.37a37,37,0,0,0-4-16.85A36.24,36.24,0,0,0,1618.05,687Zm-19.41,44.36q-6.21,4.53-18,4.54H1575V701.14h4.22q13.4,0,19.51,4.13t6.11,13Q1604.84,726.85,1598.64,731.39Z"/><path class="cls-31" d="M1666.05,779.25a14.76,14.76,0,0,0-10.74,4.5,15.25,15.25,0,1,0,21.57,21.57,15.17,15.17,0,0,0-10.83-26.07Z"/><path class="cls-31" d="M1652.7,719.12q2.83,21.93,8,47.55l9,1.35.54-2.61q14.37-69,14.56-92.41l-35.51,5Q1649.87,697.18,1652.7,719.12Z"/><g class="cls-4"><circle cx="3026.76" cy="576.15" r="181.13" transform="translate(479.11 2308.99) rotate(-45)"/><path d="M3088.33,405.36a181.56,181.56,0,1,0-61.75,352.36c74.39,0,144.33-46.08,171-120C3231.5,543.55,3182.51,439.31,3088.33,405.36Zm108.42,232.08a180.72,180.72,0,0,1-231.28,108.71c-93.73-33.8-142.5-137.55-108.7-231.28A180.37,180.37,0,0,1,3088,406.16C3181.77,440,3230.54,543.71,3196.75,637.44Z"/></g><circle class="cls-17" cx="3026.76" cy="553.11" r="181.13" transform="translate(495.41 2302.24) rotate(-45)"/><circle class="cls-32" cx="3026.76" cy="553.11" r="154.2" transform="translate(495.41 2302.24) rotate(-45)"/><path d="M2959.42,560.17a71.52,71.52,0,0,0,11.19-15.68,31.9,31.9,0,0,0,3.61-14.16,24.36,24.36,0,0,0-8-18.6q-8-7.46-19.84-7.46a29.17,29.17,0,0,0-17.15,5.12,30.15,30.15,0,0,0-10.88,14.44l15.65,7.74a13.54,13.54,0,0,1,4.07-7.43,11.24,11.24,0,0,1,14.78.06,9.47,9.47,0,0,1,2.91,7.15q0,5.37-8.25,15.14l-.23.29-29.61,35.49v6.61h57.65l2.77-16.79h-29.39Z"/><path d="M3037.47,506.93H3018l-32.55,50.36v15.37h34.65v16.22h17.35V572.66h8.42V558.08h-8.42Zm-17.35,51.15h-20.18l20.18-31.26Z"/><polygon points="3109.58 537 3077.99 537 3077.99 506.93 3058.66 506.93 3058.66 588.88 3077.99 588.88 3077.99 554.52 3109.58 554.52 3109.58 588.88 3128.8 588.88 3128.8 506.93 3109.58 506.93 3109.58 537"/><g class="cls-4"><path d="M668.22,1482.9h699.47c65.66,37.43,235,133.74,247.06,138.32,11.54,4.39-67.35-93.45-104-138.32H1760V972H668.22Z"/><path d="M1760,969.22H668.22a2.77,2.77,0,0,0-2.77,2.77V1482.9a2.77,2.77,0,0,0,2.77,2.77H1367c70.72,40.31,234.74,133.55,246.82,138.14a4.59,4.59,0,0,0,1.63.32,3.23,3.23,0,0,0,2.63-1.32c1.81-2.5,3.36-4.66-38.23-58.13-20.53-26.39-45-56.76-63.16-79H1760a2.77,2.77,0,0,0,2.77-2.77V972A2.77,2.77,0,0,0,1760,969.22Zm-2.77,510.91H1510.8a2.77,2.77,0,0,0-2.14,4.52c64.28,78.82,94.1,118.41,102.16,131.63-31.77-16.24-190.79-106.73-241.76-135.79a2.86,2.86,0,0,0-1.37-.36H671V974.76H1757.27Z"/></g><path class="cls-5" d="M681.3,1454.15h699.47c65.67,37.43,235,133.74,247.06,138.31,11.55,4.39-67.35-93.45-103.94-138.31h249.23V943.24H681.3Z"/><polygon points="1214.13 1127.67 1231.94 1127.67 1231.94 1171.98 1245.31 1171.98 1245.31 1127.67 1263.04 1127.67 1263.04 1115.96 1214.13 1115.96 1214.13 1127.67"/><polygon points="1304.26 1136.51 1282.67 1136.51 1282.67 1115.96 1269.45 1115.96 1269.45 1171.98 1282.67 1171.98 1282.67 1148.49 1304.26 1148.49 1304.26 1171.98 1317.4 1171.98 1317.4 1115.96 1304.26 1115.96 1304.26 1136.51"/><path d="M1350.08,1114.22,1321.53,1172H1335l3.63-8.15h22.72l3.55,8.15h14l-27.94-57.76Zm-7.61,40,7.46-17.54,7.26,17.54Z"/><polygon points="1419.24 1146.83 1384.35 1114.14 1383.08 1114.14 1383.08 1171.98 1395.4 1171.98 1395.4 1141.42 1430.4 1174.11 1431.56 1174.11 1431.56 1115.96 1419.24 1115.96 1419.24 1146.83"/><polygon points="1492.03 1115.96 1476.11 1115.96 1457.6 1140.34 1457.6 1115.96 1444.39 1115.96 1444.39 1171.98 1457.6 1171.98 1457.6 1146.17 1477.54 1171.98 1493.69 1171.98 1470.89 1142.62 1492.03 1115.96"/><polygon points="1539.82 1133.69 1528.11 1115.96 1511.96 1115.96 1531.97 1145.4 1531.97 1171.98 1545.3 1171.98 1545.3 1144.86 1566.9 1115.96 1552.72 1115.96 1539.82 1133.69"/><path d="M1613.1,1122.68a28.29,28.29,0,0,0-31.17-6.35,27,27,0,0,0-9.16,6.28,29.13,29.13,0,0,0-6.32,9.71,31.41,31.41,0,0,0-2.14,11.65,31.08,31.08,0,0,0,2.14,11.61,29.41,29.41,0,0,0,6.32,9.68,27.94,27.94,0,0,0,9.21,6.33,27.95,27.95,0,0,0,23.53-.81,28.59,28.59,0,0,0,10.07-8.46,27.86,27.86,0,0,0,4.36-8.46,32.55,32.55,0,0,0,1.47-9.89,32,32,0,0,0-2.11-11.73A27.72,27.72,0,0,0,1613.1,1122.68Zm-9.69,33.54a13.77,13.77,0,0,1-21.08,0,19.75,19.75,0,0,1,0-24.53,13.73,13.73,0,0,1,21.08,0,19.85,19.85,0,0,1,0,24.55Z"/><path d="M1665.34,1148.1q0,6.57-2.8,10t-8.14,3.44q-5.52,0-8.24-3.69t-2.73-11.11V1116h-13.21v32.22q0,12.16,6.2,18.89t17.37,6.73q11,0,17.27-6.78t6.22-18.92V1116h-11.94Z"/><path d="M1689.58,1134q1.22,9.43,3.46,20.44l3.86.58.23-1.12q6.18-29.67,6.26-39.72l-15.26,2.13Q1688.37,1124.53,1689.58,1134Z"/><path d="M1695.32,1159.81a6.39,6.39,0,1,0,4.69,1.87A6.33,6.33,0,0,0,1695.32,1159.81Z"/><g class="cls-33"><circle class="cls-34" cx="966.88" cy="1139.53" r="248.35"/><path d="M897.9,1065.53c-39.7-1.34-35.37,51-27.65,71.31h0v0q.45,2.85,1.08,5.61c1.4,11.29-2,41.28,47.62,55.59l125.92-30.45C1086.94,1085.13,985.61,958,897.9,1065.53Z"/><path class="cls-35" d="M1071.18,1259.93,1056,1248.71l12.93,267.4,45.38-35.11,45-34.81,35.63-19.44-32.62-59.39C1137.18,1318.82,1109.08,1287.86,1071.18,1259.93Z"/><path class="cls-19" d="M1448.72,1652.53a44.11,44.11,0,0,0-27.53-22.47L1355.87,1612l-168.06-107.3L1183.3,1489l-14.49-50.22-99.93,77.3.9,18.79a98.81,98.81,0,0,0,59.57,86l8,3.46,155.14,66.93,77.57,1.73c25,8.61,33.61,30.16,49.12,22.4,5.7-2.85-19.83-35.15-20.44-36.15l42.36,36.94c3.59,3.77,15.68,8.49,17.36,3.56a6.92,6.92,0,0,0-1.1-6.49c-7.3-9.33-29.37-37.53-27.91-35.85,1.21,1.38,18.72,18.57,28,27.49l.1.1c3.92,3.65,10-.92,7.75-5.77-1.33-2.85-3-6.39-3.67-7.35l-13.67-23a189.69,189.69,0,0,0,12.22,16.38c2,2.27,9.08,6.37,10,3.53a8.58,8.58,0,0,0-1-6.81Z"/><path class="cls-20" d="M1068.88,1516.11l.9,18.79a98.8,98.8,0,0,0,37.24,72.61c2.13-27.67,10.8-54.92,18.4-67.12,11.58-18.58,41.39-40.62,57.88-51.36l-14.49-50.22Z"/><path class="cls-21" d="M1313.14,1770.94l-89.43-56.16-292.06,575.8,314.87,135.53S1606.77,1956,1313.14,1770.94Z"/><path class="cls-22" d="M1094,1720l-376.72-49-22.24,158.69c-4.9,34.92,7.51,70.65,34.48,93.39,12.72,10.72,27.71,18,43.37,18.19l253.59,1.11,17.74,54.63-9.91,398.17,118.39-4.73,240.17-9.6,63.14-2.52s-37.61-315.91-114.12-477.66C1265.12,1738.38,1165.49,1729.3,1094,1720Z"/><polygon class="cls-22" points="1049.68 2013.72 1078.78 1942.4 1026.5 1942.4 1049.68 2013.72"/><path class="cls-35" d="M1056,1248.71l-8.21-2.35-22-2.14-25.5-4L896.37,1244l-28.68,3-1.22.12-32.62,3.36A125.24,125.24,0,0,0,723,1355.59l-11.3,224.47c-8,38.2-37,179.91,2,181.51l71.61,3,75.46,3.12,204.26,8.48,15.51-63.34c2.27-8.59,4.5-17.12,6.62-25.66,21.82-87.38,35.52-176.89,24.41-324.68C1109,1328.7,1109,1277.14,1056,1248.71Z"/><g class="cls-4"><path d="M948.65,1676.61,736.64,1450c8.79,49.59,3.84,98.39,17.33,139.08a609.3,609.3,0,0,1,31.31,175.51l75.46,3.12,204.26,8.48,15.51-63.34C1082.78,1704.22,946.53,1685.14,948.65,1676.61Z"/><path d="M1014.55,1694c-29.36-6-62.64-12.91-65.19-17a.4.4,0,0,1-.09-.28.61.61,0,0,0-.15-.59l-212-226.65a.64.64,0,0,0-1.1.55c3.68,20.77,5,41.42,6.17,61.39,1.71,27.82,3.33,54.09,11.18,77.78a611.25,611.25,0,0,1,31.28,175.33.65.65,0,0,0,.62.62l279.72,11.6h0a.64.64,0,0,0,.63-.49l15.51-63.33a1.65,1.65,0,0,0-.23-1.29C1078.27,1707.43,1052.92,1701.92,1014.55,1694Zm65.34,18.64-15.39,62.84-278.59-11.56a612.86,612.86,0,0,0-31.33-175.09c-7.8-23.54-9.41-49.73-11.11-77.46-1.19-19.32-2.42-39.28-5.83-59.41L948,1676.83a1.75,1.75,0,0,0,.29.89c2.65,4.21,27.86,9.68,66,17.55,29.52,6.09,63,13,65.52,17.09C1079.92,1712.53,1079.9,1712.62,1079.89,1712.65Z"/></g><path class="cls-23" d="M1310.84,1706.25s2.14,1.15,5.56,2.86l1.25-2.42c-3.3-1.78-5.57-2.87-5.57-2.87Z"/><path class="cls-19" d="M1300.28,1661.09c-11.74-7.18-30.61-12.82-44-9.46l-62.38-9.17-203.56-49.79L930,1466.54l-154.76,75,34.53,81.82,14.54,34.43a172.2,172.2,0,0,0,15.36,28.75,151.42,151.42,0,0,0,28.7,32.21,154.66,154.66,0,0,0,60.49,31.34,135.54,135.54,0,0,0,34.49,4.35l186.06-1.2h51.71L1246,1729.2s51.71,18.92,63.77,10.34c11.06-7.91-32.85-28.81-40.29-32.32,49.12,20.38,64.12,31.49,70.89,26.27,8.43-6.56-10.55-18.56-21.56-24.66,14.23,7,44.73,20.88,48.72,13C1371.22,1714.35,1328.93,1678.63,1300.28,1661.09Z"/><path class="cls-20" d="M775.27,1541.59l34.53,81.82c3.57-5.74,7.85-12.12,13-19.06,21.23-28.7,112.79-69.68,134.32-81.19l-23.65-51.22Z"/><path class="cls-35" d="M871,1349.78,736.64,1449.94l30.22,117.19h0l181.8-81.57L871,1349.79Z"/><path class="cls-24" d="M1332.23,1731.91l-.57-.23-.49,0Z"/><path class="cls-24" d="M1295.26,1688.7c6,3.8,11.72,7.91,17.77,11.52,1.76,1.12,3.54,2.2,5.32,3.26-7.54-5.3-15.31-10.18-23.25-14.88l-2.73,4.36c6,3.88,11.83,8,18,11.6,1.87,1.17,3.76,2.3,5.65,3.43-7.58-5.31-15.49-10.25-23.47-14.93Z"/><path class="cls-24" d="M1275.93,1708.9l-1.68,3.95,32.37,13.56c-1.64-1.3-3.35-2.46-5-3.66A196,196,0,0,0,1275.93,1708.9Z"/><path class="cls-24" d="M1363.2,1715.27a3.94,3.94,0,0,1,.06.61l.59.57Z"/><path class="cls-24" d="M1367.81,1713.56l-.54-.52c-11.69-11.38-23.72-22.28-36.46-32.44s-25.93-19.9-41-26.76c-2-.74-3.88-1.54-5.86-2.23-2.07-.49-4.14-1-6.21-1.45a73.57,73.57,0,0,0-12.48-.33,167.87,167.87,0,0,0-24.27,3.46,422.74,422.74,0,0,0-47,12.88l.64,1.92a418.82,418.82,0,0,1,46.94-11.75,169.49,169.49,0,0,1,23.85-2.89,69.64,69.64,0,0,1,11.76.44c1.88.41,3.72.94,5.59,1.38l5.46,2.18c14.34,6.71,27.32,16.54,39.77,26.67,12.2,10.05,24,20.69,35.3,31.76a3.94,3.94,0,0,0-.06-.61l.65,1.18-.59-.57a4.93,4.93,0,0,1-.61,2.65c-.4.3-.58.77-1.18.94a4.92,4.92,0,0,1-.76.39l-1,.18c-2.73.47-6.14-.18-9.35-1.1-6.53-1.8-12.84-5-19.08-8.13-4.35-2.35-8.67-4.78-12.93-7.33q3.76,2.65,7.46,5.45a93.06,93.06,0,0,1,12,10.55,77,77,0,0,0,11.27,4.2c3.58,1,7.33,1.84,11.62,1.14a8.11,8.11,0,0,0,3.23-1.12,8.57,8.57,0,0,0,2.81-2.48,9.77,9.77,0,0,0,1.22-7Z"/><path class="cls-24" d="M1325.81,1708.93q-3.69-2.81-7.46-5.45c-1.78-1.06-3.56-2.14-5.32-3.26-6-3.61-11.82-7.72-17.77-11.52l-2.73,4.36c8,4.68,15.89,9.62,23.47,14.93q6.39,3.77,13,7.27c2.92,1.43,5.83,2.87,8.8,4.22A93.06,93.06,0,0,0,1325.81,1708.93Z"/><path class="cls-24" d="M1316,1708c2.29,1.6,4.56,3.23,6.78,4.9,4.74,3.62,9.47,7.46,13,11.81,1.77,2.08,2.83,4.86,2,5.17a5.18,5.18,0,0,1-2.64,1.27,21.58,21.58,0,0,1-3.56.54l.57.23-1.06-.18.49,0-55.77-22.79-1.68,3.94a192.44,192.44,0,0,1,25.24,13.17c3.82,2.55,8,5.43,10,8.82,2.13,2.9-3.11,4.84-7.51,5-9.21.45-18.76-1.59-28-3.67s-18.53-4.89-27.6-7.93l-.68,1.9c9.09,3.29,18.27,6.2,27.63,8.67s18.82,4.67,28.88,4.45a18.64,18.64,0,0,0,7.73-1.73,6.72,6.72,0,0,0,3.33-3.43,6.07,6.07,0,0,0-.46-4.95,24.38,24.38,0,0,0-6.13-6.73l-32.37-13.56,1.68-3.95a196,196,0,0,1,25.66,13.85c1.68,1.2,3.39,2.36,5,3.66l23.76,10,.56.23.5-.06a29.71,29.71,0,0,0,5-.71,9.38,9.38,0,0,0,5.24-2.93,6,6,0,0,0,1.33-3.53,8.57,8.57,0,0,0-.61-3.15,18.43,18.43,0,0,0-2.7-4.55c-.62-.76-1.26-1.48-1.91-2.19-3-1.35-5.88-2.79-8.8-4.22Q1322.4,1711.75,1316,1708Z"/><path class="cls-25" d="M1017.19,1150.3l-15.9,43.35s39.71,9.6,42.76-17.41S1017.19,1150.3,1017.19,1150.3Z"/><path class="cls-20" d="M1030.3,1174.1a6.37,6.37,0,0,0-1.6,1.43l4,.72c0-.76-.08-1.47,0-2.14a9.35,9.35,0,0,1,.11-1,6.77,6.77,0,0,0-.77.22A8.28,8.28,0,0,0,1030.3,1174.1Z"/><path class="cls-20" d="M1033.78,1172.86a8.59,8.59,0,0,0-1,.2,9.35,9.35,0,0,0-.11,1c-.06.67,0,1.38,0,2.14l-4-.72a6.37,6.37,0,0,1,1.6-1.43,8.28,8.28,0,0,1,1.7-.82,6.77,6.77,0,0,1,.77-.22,8.1,8.1,0,0,1,.18-1,14.36,14.36,0,0,1,.75-2.24c.35-.81.78-1.66,1.32-2.65a5.68,5.68,0,0,0-3.25.7,7,7,0,0,0-2.56,2.36,7.29,7.29,0,0,0-1.2,3.44,7.74,7.74,0,0,0,0,1.8,12.11,12.11,0,0,0,.38,1.71l1.78,6.32,2.2-5.59a6.44,6.44,0,0,1,.54-1c.24-.38.54-.78.84-1.21a31.1,31.1,0,0,0,1.91-2.9A7.37,7.37,0,0,0,1033.78,1172.86Z"/><path class="cls-25" d="M935.07,1248a26.36,26.36,0,1,0,52.68,1.81l1-27.4L936,1220.59Z"/><path class="cls-20" d="M935.69,1229.87c14.47,17.92,43.55,18.45,52.12,18.18l.89-25.65L936,1220.59Z"/><path class="cls-25" d="M957,1073.93c-60.36,5.55-52.78,64.29-52.78,64.29s-5.1,44.44,18.69,72.59c11,13,28,22.47,54.58,22.58a62.88,62.88,0,0,0,19.86-2.88c59.53-19.33,36.12-129.65,36.12-129.65S1017.37,1068.38,957,1073.93Z"/><path class="cls-26" d="M1022.82,1180.14l-1.23-5c-.39-1.66-.85-3.31-1.28-5s-.87-3.31-1.36-5q-1.38-4.93-3-9.83c-1-3.26-2.17-6.5-3.43-9.71.44,3.42,1,6.8,1.66,10.16s1.35,6.71,2.12,10.05c.37,1.67.78,3.33,1.19,5s.8,3.32,1.25,5l1.32,5,.91,3.17,1.91.22-1.41,1.54-.5-1.76-2.35-.27c-1.42-.16-2.84-.28-4.27-.41s-2.85-.22-4.28-.34-2.86-.16-4.3-.2c1.38.4,2.77.77,4.16,1.13s2.78.7,4.17,1,2.79.64,4.19.92l4.2.85,1.84.38-.44-1.92Z"/><polygon class="cls-26" points="1022.93 1184.21 1021.02 1184 1021.52 1185.76 1022.93 1184.21"/><path class="cls-27" d="M1030.51,1132.94c-5.38-2-11.16.25-12.07,2.69s3.42,4.16,8.81,6.15,9.78,3.49,10.68,1S1035.89,1134.93,1030.51,1132.94Z"/><path class="cls-27" d="M986.3,1132.75c-5.29,2.2-8,7.78-7,10.18s5.34.72,10.64-1.48,9.55-4.09,8.55-6.49S991.6,1130.55,986.3,1132.75Z"/><path class="cls-27" d="M1025.58,1149c-3.51.32-6,4.49-5.54,9.31s3.65,8.46,7.16,8.14,6-4.5,5.54-9.32S1029.09,1148.68,1025.58,1149Z"/><path class="cls-27" d="M991.2,1150.81c-3.5.33-6,4.5-5.54,9.32s3.66,8.46,7.16,8.14,6-4.5,5.55-9.32S994.71,1150.49,991.2,1150.81Z"/><path class="cls-28" d="M976.46,1165.07c-6-2.2-12.27,0-14.09,4.93s1.53,10.71,7.49,12.92,12.27,0,14.09-4.94S982.42,1167.28,976.46,1165.07Z"/><path class="cls-28" d="M1039,1169.35c-3.27-1.91-7.8-.25-10.11,3.71s-1.54,8.71,1.73,10.63,7.8.25,10.12-3.71S1042.23,1171.26,1039,1169.35Z"/><path class="cls-25" d="M911.66,1139.8c-11.2-9.08-29.5-5.67-37.9,5.73a19.31,19.31,0,0,0-2.22,3.87,27,27,0,0,0-2.12,12c.45,9.33,5.65,18.07,14.51,21.61,9.66,3.85,20.73,1.24,30-2.56,8.43-13,3.79-32.77,3.79-32.79C917,1144.7,913.93,1141.63,911.66,1139.8Z"/><path class="cls-20" d="M908.58,1161.1a18.08,18.08,0,0,0-4.25-1.44c-.47-.11-1-.18-1.42-.25a17,17,0,0,1,1.88,4.39Z"/><path class="cls-20" d="M909.43,1161.07l-.22-.9-.36-.86c-.25-.57-.46-1.16-.76-1.71l-1-1.57a16.89,16.89,0,0,0-5.44-4.76,20.46,20.46,0,0,0-6.51-2.16,17.85,17.85,0,0,0-6.64.13c2,.9,3.9,1.8,5.69,2.77a35.58,35.58,0,0,1,4.9,3.17,19.3,19.3,0,0,1,3.64,3.9c.08.11.13.22.2.33.47.07,1,.14,1.42.25a18.08,18.08,0,0,1,4.25,1.44l-3.79,2.7a17,17,0,0,0-1.88-4.39c-.91-.15-1.82-.26-2.73-.32a33.32,33.32,0,0,0-4.12,0,25,25,0,0,0-4.1.58c2.55,1.12,5,2,7.47,2.95,1.21.46,2.41.91,3.54,1.4a21.56,21.56,0,0,1,3.08,1.57l5.17,3.35-1.38-6.06Z"/><path class="cls-29" d="M991.29,1192.67a8.8,8.8,0,0,0,5.59,7.8c3.5,1.59,7,.62,9.92-1.18a30.82,30.82,0,0,0,8.28-8L992.5,1186A15,15,0,0,0,991.29,1192.67Z"/><path class="cls-30" d="M999.39,1193.44a14.76,14.76,0,0,0-8.1-.77,8.8,8.8,0,0,0,5.59,7.8c3.5,1.59,7,.62,9.92-1.18A13.67,13.67,0,0,0,999.39,1193.44Z"/><path d="M914.38,1188s22.86-51.12,59.61-93.81c5.84-6.78-5.45,30.12-5.45,30.12s38.17-19.93,43.28-48.45l.9-24L891.66,1081Z"/></g><polygon class="cls-36" points="1288.39 1225.37 1275.86 1199.98 1263.33 1225.37 1235.31 1229.44 1255.59 1249.2 1250.8 1277.1 1275.86 1263.93 1300.92 1277.1 1296.13 1249.2 1316.4 1229.44 1288.39 1225.37"/><polygon class="cls-36" points="1381.09 1225.37 1368.56 1199.98 1356.03 1225.37 1328.01 1229.44 1348.28 1249.2 1343.5 1277.1 1368.56 1263.93 1393.61 1277.1 1388.83 1249.2 1409.1 1229.44 1381.09 1225.37"/><polygon class="cls-36" points="1473.78 1225.37 1461.25 1199.98 1448.72 1225.37 1420.71 1229.44 1440.98 1249.2 1436.19 1277.1 1461.25 1263.93 1486.31 1277.1 1481.53 1249.2 1501.8 1229.44 1473.78 1225.37"/><polygon class="cls-36" points="1566.48 1225.37 1553.95 1199.98 1541.42 1225.37 1513.41 1229.44 1533.68 1249.2 1528.89 1277.1 1553.95 1263.93 1579.01 1277.1 1574.22 1249.2 1594.49 1229.44 1566.48 1225.37"/><polygon class="cls-36" points="1659.18 1225.37 1646.65 1199.98 1634.12 1225.37 1606.1 1229.44 1626.38 1249.2 1621.59 1277.1 1646.65 1263.93 1671.71 1277.1 1666.92 1249.2 1687.19 1229.44 1659.18 1225.37"/><g class="cls-4"><path d="M2169,1178.43h126.67c22.48,12.82,80.46,45.79,84.58,47.36,4,1.5-23.06-32-35.59-47.36l69.95.33V1003.85l-245.61-.32Z"/><path d="M2414.57,1002.91l-245.62-.33h0a.93.93,0,0,0-.67.28,1,1,0,0,0-.28.67v174.9a.94.94,0,0,0,.95,1h126.42c24.21,13.8,80.36,45.72,84.49,47.29a1.58,1.58,0,0,0,.56.11,1.09,1.09,0,0,0,.9-.45c.66-.92,1.66-2.3-34.7-46.94l67.94.32a.91.91,0,0,0,.67-.28,1,1,0,0,0,.28-.67V1003.85A.94.94,0,0,0,2414.57,1002.91Zm-1,174.9-69-.32h0a.94.94,0,0,0-.73,1.54c22,27,32.21,40.53,35,45.06-7.59-3.89-37.67-20.78-82.76-46.48a1,1,0,0,0-.47-.12H2169.89v-173l243.73.32Z"/></g><path class="cls-5" d="M2173.43,1168.59H2300.1c22.48,12.81,80.46,45.79,84.58,47.35,4,1.5-23.06-32-35.59-47.35l69.95.33V994l-245.61-.33Z"/><path class="cls-17" d="M2353.38,1067.73c-2.57-1.4-5.63-1.46-8.55-1.48l-29.59-.22c2.67-15.43,3.48-32.25-4.37-45.8-2.36-4.09-8.71-9-13.75-5.84-4.72,3-3.41,10.27-3.17,14.88,1,19.2-9.94,38.51-26.9,47.56,0,0,1.12,40.89.88,61.75,23.71.4,47.72.72,69.53-.78,6.9-.48,12.87-11.45,4.48-14.91,3.53-1.81,7.11-3.56,8.65-7.51,1.46-3.75-.3-8.83-4.2-9.8,8.23,2,11.47-11,5.05-15.23,3.4-2.89,6.22-6.71,6.94-11.12S2357.29,1069.86,2353.38,1067.73Z"/><rect class="cls-17" x="2223.48" y="1076.83" width="35.84" height="61.7"/><path class="cls-22" d="M3009.4,1211.5C2992,1032.38,2902,1045.08,2902,1045.08s-248.53,41.84-230.37,167.35-80,356-80,356,631.28,211.38,596.48,61.11S3026.8,1390.63,3009.4,1211.5Z"/><path class="cls-37" d="M2670.09,1252.36c-10.39,1.79-15.79,20.8-12.05,42.47s15.18,37.78,25.56,36,12.92-19.68,9.19-41.35S2680.47,1250.57,2670.09,1252.36Z"/><path class="cls-38" d="M2679,1306l-6.54-2.66s-4.61,2.9-12.87-1.39c4.77,17.94,14.79,30.42,24,28.84a9.21,9.21,0,0,0,4.26-2c-1.34-2.84-2.43-5-2.43-5Z"/><path class="cls-39" d="M2702.4,1222.8c-8.06-1.49-30.91,4.57-33.51,16.37-5.9,26.85,3.9,89.13,21.89,104.5,6.55,5.6,24.8,4.46,31.28,2.47,16.43-5,16.49-31.32,10.48-66.19S2713.58,1224.87,2702.4,1222.8Z"/><path class="cls-37" d="M2714.44,1317.21c-13.16-1.79-23.58-1.78-29.25-13.84,0,0-4.34,6-12.71,0,4.11,17.82,10.42,33.56,18.3,40.3,6.55,5.6,24.8,4.46,31.28,2.47,8.4-2.58,12.51-10.74,13.72-22.74-6.76-4.8-14-10.1-14-10.1Z"/><path class="cls-40" d="M2697.61,1333.53c-17.4-23.64-19.09-77.22-17.39-89.07s9.43-22.18,24.2-21.08a12.07,12.07,0,0,0-2-.58c-8.06-1.49-30.91,4.57-33.51,16.37-5.9,26.85,3.9,89.13,21.89,104.5,5.17,4.42,17.6,4.64,25.8,3.56C2703.66,1345.36,2699.82,1336.55,2697.61,1333.53Z"/><path class="cls-41" d="M2697.61,1333.53c-5.67-7.69-9.66-18.57-12.42-30.15h0s-4.34,6-12.71,0c4.11,17.82,10.42,33.56,18.3,40.3,5.17,4.42,17.6,4.64,25.8,3.56C2703.66,1345.36,2699.82,1336.55,2697.61,1333.53Z"/><path class="cls-42" d="M2704.45,1249c-5.07.87-6.53,16.91-3.27,35.83s10,33.54,15.07,32.66,6.53-16.91,3.27-35.82S2709.51,1248.15,2704.45,1249Z"/><path class="cls-43" d="M2692.65,1235.54c-24.39-85,50.33-156,50.33-156l-2.77-3.33C2689,1130.66,2656.42,1196.34,2692.65,1235.54Z"/><path class="cls-19" d="M2066.48,1331.43c-49.34-9.87-62.75-72.43-65.49-103.9s-24.75-44.86-53.89-16.76,23.1,139.32,23.1,139.32l-98.59,10.23s-67.22-191-102.86-185.21-13.1,72.21-13.1,72.21c-46.07-82-70.73-77-88.51-66.59s58,167.27,58,167.27-83.51-31.67-126-21.18-67.8,34.33-3.26,57.21S1763,1477.31,1763,1477.31s17.55,41.43,54.81,82.8,145,20,168.09,27.62,46.63,59.6,46.63,59.6l177.28-181.63C2162.3,1371.28,2115.79,1341.28,2066.48,1331.43Z"/><path class="cls-24" d="M1762.44,1245.44a7,7,0,1,0-13.56,3.78c57.41,205.82,58.74,207.84,59.53,209a7,7,0,0,0,12.3-6.78C1818,1443.84,1784.47,1324.42,1762.44,1245.44Z"/><path class="cls-24" d="M1878.42,1358.51a7,7,0,0,0-13.62,3.61l22.78,86.21a7.06,7.06,0,0,0,6.81,5.24,7.47,7.47,0,0,0,1.8-.23,7,7,0,0,0,5-8.61Z"/><path class="cls-24" d="M1961.94,1413.29a7,7,0,0,0,6.36,12.56c3-1.49,73-35.66,120.38,32.86a7,7,0,0,0,5.8,3,6.94,6.94,0,0,0,4-1.25,7,7,0,0,0,1.79-9.8C2045.81,1371.94,1962.77,1412.86,1961.94,1413.29Z"/><path class="cls-44" d="M1599.21,1326.82c-42.44,10.46-67.8,34.33-3.26,57.21S1763,1477.31,1763,1477.31L1725.17,1348S1641.66,1316.33,1599.21,1326.82Z"/><path class="cls-19" d="M2898.64,1434l-145.91-9.16c-119,55.12-189,55.53-189,110.25,0,62,104.43,112.28,233.25,112.28s233.25-50.27,233.25-112.28C3030.27,1490.57,2976.55,1452.14,2898.64,1434Z"/><path class="cls-45" d="M2458.4,2380.17l-9.13,67.68s301,295.91,753.46,51.44l-20.18-72.09Z"/><path class="cls-22" d="M3103.53,2220H2503.6c-20.27,121.12-7.39,302.55,7.52,436.6,4.39,39.48,9,74.85,12.91,103.36h716.78l-26.28-103.36Z"/><path class="cls-46" d="M2503.6,2220c-1.56,9.35-2.92,19.07-4.1,29.08l632.43,82.62-28.4-111.7Z"/><path class="cls-35" d="M2382.47,1697l-23.82-39.71-80,140.09S2382.49,1697,2382.47,1697Z"/><path class="cls-35" d="M3267.13,1613.21c-6.5-14.21-17.29-85-84.34-113l-271.74-70.66-155.63-11.41L2461,1510.33a52.25,52.25,0,0,0-30,20.36l-72.33,126.58,23.82,39.71s-103.86,100.38-103.86,100.38l80-140.09-169.16-281.93-269.58,247.58s78.52,136.49,151.65,291.74c10.44,22.15,20.76,44.71,30.74,67.29,45.91,103.94,123.51,108.27,181.17,93.18,35.86-9.39,68.73-28,96.65-52.61l93-82,25.51,141.41-49.36,366c174.21-61.73,153.89-227.81,153.89-227.81h290.35l29,144c14.56,52.07,47.54,84.78,85.94,105.16,84.1,44.6,194.25,30.05,194.25,30.05l-63.6-227.14,65.25,9.59c29,4.26,59-.34,84.44-15.21,94.77-55.54,62-306.63,62-306.63C3330.13,1837.92,3301,1687.21,3267.13,1613.21Z"/><path class="cls-47" d="M2903.55,1428.19s.06,3.16-.64,4.12a1.12,1.12,0,0,1-.11.15c-3.2,18.56-16.16,96.13-28,202.46-.15,1.32-.3,2.65-.45,4-9.21,83.89-17.63,185.22-20,289.44l63.56,3.33,59.49-137.52-54.14-94.38,54.14-50.59Z"/><path class="cls-48" d="M2898.94,1430l-143.52-11.92C2709,1485,2584.2,1682.78,2575.1,1788.43c-.82,9.48-1,23.25-.7,40.09,2.16,119,28.76,391.52,28.76,391.52h290.35c-35.37-149.85-30.93-347.78-17.68-508.1C2889.06,1552,2898.94,1430,2898.94,1430Z"/><path class="cls-49" d="M2875.83,1711.94c-72.94,63.1-184.42,134.54-301.43,116.58,2.16,119,28.76,391.52,28.76,391.52h290.35C2858.14,2070.19,2862.58,1872.26,2875.83,1711.94Z"/><path class="cls-19" d="M2647.56,1603.91c52.85,11.42,102,19,163.67,19,25.09,0,49.61-1.11,73.49-3.12,4.18-37.92,4.13-86,9.67-124.15s9.43-66.67,9.43-66.67l-148.4-10.88C2731,1453.3,2683,1531.77,2647.56,1603.91Z"/><path class="cls-48" d="M2664.6,1553.73q-3.93,7.24-7.83,14.65Q2660.69,1561,2664.6,1553.73Z"/><path class="cls-35" d="M3122.28,1894.14c-119.05-14.7-240.38-3.32-291.19-19.48l-4.23,44.58-27.11,285.7-1.9,20s263.81,42.1,377.64,50.92l77.61-178.95S3241.32,1908.84,3122.28,1894.14Z"/><g class="cls-50"><path d="M3092.36,1891.74l35.75,2.4s-13.89-35.19-40.42-149.7Z"/><path d="M3088.18,1744.32a.5.5,0,0,0-.56-.38.49.49,0,0,0-.44.51l4.68,147.31a.49.49,0,0,0,.47.48l35.75,2.4h0a.5.5,0,0,0,.46-.69C3128.45,1893.6,3114.39,1857.46,3088.18,1744.32Zm4.67,147-4.5-141.74c23.5,100.75,37,138.49,39,144Z"/></g><g class="cls-50"><path d="M2395.72,1792.4c2.58,18.74,19.64,180.47-99.87,218.55s-224.29-96.29-224.29-96.29c10.44,22.15,20.76,44.71,30.74,67.29,45.91,103.94,123.51,108.27,181.17,93.18,35.86-9.39,68.73-28,96.65-52.61l93-82s-23.52-86.33-23.85-152.54c-.22-43.5,42.1-97,54.33-148.44l12.83-35.59S2393.15,1773.66,2395.72,1792.4Z"/><path d="M2516.67,1603.46a.52.52,0,0,0-.65.15c-5,6.94-123.37,170.13-120.8,188.86.72,5.19,6.68,52.15-4.14,101.84-5.9,27.09-15.74,50.23-29.25,68.76-16.58,22.75-38.83,38.7-66.13,47.4s-55.82,9-85.17,1c-23.5-6.39-47.5-18.1-71.33-34.81a348.2,348.2,0,0,1-67.24-62.34.49.49,0,0,0-.66-.12.5.5,0,0,0-.2.64c10.76,22.84,21.1,45.47,30.74,67.28,34.37,77.82,86.49,99.91,134.58,99.91a187.12,187.12,0,0,0,47.17-6.44c34.53-9,68-27.27,96.86-52.72l93-82a.48.48,0,0,0,.15-.51c-.23-.86-23.5-87-23.83-152.41-.12-24.44,13.14-51.83,27.18-80.82,10.72-22.15,21.8-45,27.12-67.45l12.83-35.59A.5.5,0,0,0,2516.67,1603.46Zm-13.56,35.92c-5.31,22.36-16.38,45.2-27.07,67.3-14.09,29.1-27.4,56.59-27.28,81.26.33,63.56,22.26,146.67,23.79,152.37l-92.77,81.83c-28.72,25.35-62.07,43.5-96.44,52.5-103.37,27.07-155.26-35.58-180.58-92.9-9.12-20.64-18.87-42-29-63.61a356,356,0,0,0,64.85,59.38c23.93,16.77,48,28.53,71.65,35,29.55,8,58.4,7.68,85.75-1,27.51-8.76,49.93-24.83,66.64-47.76,13.59-18.65,23.49-41.91,29.42-69.14,10.86-49.87,4.88-97,4.16-102.2-2.33-17,102.28-162.72,118.52-185.23Z"/></g><polygon class="cls-51" points="2688.01 1660.75 2736.72 2065.72 2750.23 2052.05 2695.55 1664.01 2688.01 1660.75"/><g class="cls-50"><path d="M3131.6,1895.23c-119-14.69-249.7-4.41-300.51-20.57L2797.86,2225c65.48,1.38,73-177.45,95.65-237.69s124.5-60,172.5-58.64c65.92,1.83,204.95,70.95,204.95,70.95S3250.64,1909.93,3131.6,1895.23Z"/><path d="M3131.66,1894.73c-56.14-6.93-114.8-8.3-166.56-9.52-57.45-1.34-107.07-2.51-133.86-11a.5.5,0,0,0-.43.06.47.47,0,0,0-.22.37l-33.24,350.31a.52.52,0,0,0,.13.38.48.48,0,0,0,.37.17h.75c46.29,0,63.68-90.22,77.67-162.78,5.72-29.7,11.13-57.76,17.71-75.24,9.73-25.85,35.43-43.38,76.39-52.09,32.69-7,68.27-7,95.63-6.22,65.05,1.8,203.35,70.2,204.74,70.89a.51.51,0,0,0,.53-.06.48.48,0,0,0,.18-.51c0-.22-5.33-22.81-25.14-46.87C3228,1930.4,3193.32,1902.35,3131.66,1894.73ZM3066,1928.14c-27.41-.76-63.08-.74-95.87,6.24-41.32,8.79-67.26,26.53-77.12,52.72-6.61,17.57-12,45.66-17.76,75.41-13.92,72.2-31.22,162-76.68,162h-.19l33.12-349.14c27.06,8.39,76.44,9.55,133.55,10.89,51.73,1.21,110.36,2.59,166.46,9.51,61.3,7.57,95.8,35.43,114,57.47,17.25,21,23.41,40.74,24.7,45.45C3257.57,1992.45,3128.38,1929.86,3066,1928.14Z"/></g><path class="cls-47" d="M2617.16,1554.47l13.49,47.43-72.34,40v46.19h81.85c7.37-16.87,15.29-33.83,23.53-50.62q1.84-3.75,3.7-7.48l1.85-3.72c.11-.19.2-.38.29-.57l3.46-6.85.11-.22,3.58-7c2.56-5,5.13-9.89,7.71-14.78q4.32-8.19,8.66-16.22c.32-.58.64-1.16.94-1.73,1.29-2.36,2.57-4.73,3.85-7.07s2.57-4.66,3.85-7,2.56-4.62,3.84-6.9c.64-1.14,1.27-2.28,1.92-3.41q1.93-3.43,3.85-6.83c.63-1.09,1.25-2.19,1.87-3.28s1.26-2.21,1.9-3.31c1.26-2.2,2.52-4.39,3.78-6.55l1.87-3.24,3.74-6.39c.62-1.06,1.24-2.1,1.86-3.15l3.67-6.2c1.22-2.05,2.44-4.07,3.64-6.08s2.41-4,3.59-5.94c1.3-2.13,2.59-4.24,3.85-6.32l3.17-5.13,1.72-2.77c.57-.92,1.13-1.83,1.7-2.73,1.05-1.71,2.11-3.39,3.15-5.05a1.37,1.37,0,0,0,.19-.3l2.94-4.63q2.61-4.11,5.13-8,1.54-2.42,3.08-4.74c.51-.8,25.11-43.34,25.62-44.13l-32.35-1.71Z"/><polygon class="cls-52" points="2246.69 1660.75 2326.93 2244.36 2768.25 2244.36 2688.01 1660.75 2246.69 1660.75"/><polygon class="cls-51" points="2668.36 1680.64 2227.04 1680.64 2275.56 2033.52 2307.28 2264.25 2748.61 2264.25 2690.5 1841.67 2668.36 1680.64"/><g class="cls-53"><path class="cls-54" d="M2275.56,2033.52l31.72,230.73h441.33l-58.11-422.58C2620.66,1917,2474.66,2041.13,2275.56,2033.52Z"/></g><path class="cls-55" d="M2469.94,1871.79c-13.81-9.71-28.7-13.51-43-11-40.94,7.21-64.45,62.62-53.53,126.13,6.7,38.92,25.22,72.37,49.55,89.48,11,7.76,22.75,11.75,34.34,11.75a50.08,50.08,0,0,0,8.71-.76c40.94-7.22,64.45-62.63,53.52-126.14C2512.8,1922.35,2494.27,1888.9,2469.94,1871.79ZM2462.2,2066c-10.79,1.9-20.53-3-26.79-7.36-19.42-13.66-35-42.55-40.65-75.41-8.57-49.85,7.87-96.14,35.9-101.08a28.34,28.34,0,0,1,4.88-.43c8.82,0,16.61,4.06,21.92,7.79,19.42,13.66,35,42.55,40.64,75.41C2506.68,2014.8,2490.24,2061.09,2462.2,2066Z"/><path class="cls-19" d="M2722.64,1837.5l8.51,66.13s-336.64-98.11-375.37-82.7,36,61.62,36,61.62-71.94-26.26-74.7-11,22.14,55.85,37.36,67.06c0,0-19.38-5.61-20.76,14s99.58,102.23,182.58,134.45c-1.89-.39-92.93-19.39-118.94,0,0,0,135.58,68.63,185.38,84,22.72,7,95.68,17.84,168.31,27.51,16.47,2.19,32.93,4.34,48.78,6.36l27.11-285.7a92.28,92.28,0,0,1-7.63-8.68C2790.17,1872.75,2722.64,1837.5,2722.64,1837.5Z"/><path class="cls-24" d="M2636.85,1955.93l-234.44-78.68a8.42,8.42,0,0,0-5.36,16l234.44,78.67a8.42,8.42,0,0,0,5.36-16Z"/><path class="cls-24" d="M2610.05,2020.66c-80.83-23-211.64-73.82-244.75-86.83a8.42,8.42,0,0,0-6.16,15.67c33.32,13.1,164.74,64.16,246.32,87.36a8.42,8.42,0,0,0,10.42-5.89h0A8.42,8.42,0,0,0,2610.05,2020.66Z"/><path class="cls-24" d="M2593.49,2100.43l-66.82-19.16a8.42,8.42,0,0,0-4.64,16.18l66.82,19.17a8.41,8.41,0,0,0,10.41-5.77h0A8.42,8.42,0,0,0,2593.49,2100.43Z"/><path class="cls-24" d="M2751,2198.58c17.49,2.33,35,4.61,51.72,6.73L2827.62,1920l.21-2.47-.57,2.12Z"/><path class="cls-22" d="M2947.42,1090.78l-.11,0a94.74,94.74,0,0,0-13.28-30.84,108.46,108.46,0,0,0-57.58-43.45c-34.19-10.71-72.69-4.29-103.25,14.39s-87.63,20.76-121.1,75.54c-16.29,26.67-14.29,63.22,0,91,3.94,7.66,8.38,15.19,12.92,22.62,2.49,4.11,5,8.18,7.5,12.23,12.77,20.79,83.66,46.41,102.4,62l18.24,14.67,76.31-8.1,20.49,16.4s74.6,23.22,82.19-123.61C2976.59,1108.15,2950.57,1091.36,2947.42,1090.78Z"/><path class="cls-56" d="M2748.15,1124.16c-38.4,15.69-23,110.87-20.48,114.92a224.14,224.14,0,0,0,47.26,55.19l18.24,14.67c8.83-7.27,15.61-20,18.28-37.76,8.17-54.17-39.09-128.18-39.09-128.18S2762.11,1118.46,2748.15,1124.16Z"/><path class="cls-57" d="M2669.17,1202.4c19.9,95.43,112.41,73,112.41,73l6.43-172.3C2716,1064.3,2651.05,1115.5,2669.17,1202.4Z"/><path class="cls-20" d="M2707.57,1282.4c0,.62-.1,1.27-.07,1.94l7-1.28a11.3,11.3,0,0,0-2.82-2.5,14.76,14.76,0,0,0-3-1.43,12.29,12.29,0,0,0-1.35-.39,14.13,14.13,0,0,1,.18,1.85C2707.61,1281.16,2707.54,1281.78,2707.57,1282.4Z"/><path class="cls-20" d="M2713.59,1273.84a12.38,12.38,0,0,0-4.49-4.13,9.93,9.93,0,0,0-5.7-1.23c.94,1.75,1.7,3.23,2.31,4.65a22.8,22.8,0,0,1,1.31,3.92c.14.58.25,1.13.33,1.69a12.29,12.29,0,0,1,1.35.39,14.76,14.76,0,0,1,3,1.43,11.3,11.3,0,0,1,2.82,2.5l-7,1.28c0-.67.08-1.32.07-1.94s0-1.24,0-1.81a14.13,14.13,0,0,0-.18-1.85,15,15,0,0,0-1.77-.35,12.54,12.54,0,0,0-3.3,0c.56,1,1.12,1.89,1.69,2.72s1.12,1.62,1.66,2.36,1,1.46,1.46,2.13a10.49,10.49,0,0,1,.95,1.74l3.89,10.54L2715,1286a19.75,19.75,0,0,0,.65-3,14,14,0,0,0,0-3.17A12.9,12.9,0,0,0,2713.59,1273.84Z"/><path class="cls-25" d="M2877,1362.07l-92.37,3.18,1.66,48a46.21,46.21,0,1,0,92.37-3.18Z"/><path class="cls-20" d="M2784.62,1365.25l1.55,45c15,.47,66-.45,91.38-31.88l-.56-16.27Z"/><path class="cls-25" d="M2840.16,1105c-105.81-9.74-134.08,47.2-134.08,47.2s-12.7,59.87-6,118.83a233.08,233.08,0,0,0,4.77,27.73c8.73,36.51,27.46,68.71,64.55,80.75a110.53,110.53,0,0,0,34.82,5c46.53-.2,76.49-16.85,95.7-39.58,41.72-49.35,32.76-127.28,32.76-127.28S2946,1114.67,2840.16,1105Z"/><path class="cls-39" d="M2720.7,1378.12c-14,1.91-32-20.34-36.7-46.51a3.39,3.39,0,0,0-3.78-2.8,3.33,3.33,0,0,0-2.87,3.86c4.92,27.62,23,50.93,39.51,52.24a22.11,22.11,0,0,0,4.75-.12c15.2-2.06,23.35-3.19,23.35-3.19l-.93-6.67S2735.89,1376.06,2720.7,1378.12Z"/><path class="cls-38" d="M2722.44,1382.78a22,22,0,0,1-4.74.12c-16.48-1.31-34.6-24.62-39.52-52.24a3.48,3.48,0,0,1,0-.72,3.22,3.22,0,0,0-.79,2.73c4.92,27.62,23,50.93,39.51,52.24a22.11,22.11,0,0,0,4.75-.12c15.2-2.06,23.35-3.19,23.35-3.19l-.26-1.86C2742,1380.11,2734.45,1381.16,2722.44,1382.78Z"/><path class="cls-37" d="M2755.65,1366.9l-13.34,1.82a8.42,8.42,0,0,0,2.28,16.68l13.35-1.83a8.41,8.41,0,0,0-2.29-16.67Z"/><path class="cls-39" d="M2765.13,1374.09c0-.21-.1-.4-.14-.61a8.37,8.37,0,0,1-6.71,5.41l-11.68,1.6a8.42,8.42,0,0,1-9.48-7.2h0a9.26,9.26,0,0,1-.06-1.66,8.4,8.4,0,0,0-1.95,6.57h0a8.42,8.42,0,0,0,9.48,7.2l13.35-1.83a8.41,8.41,0,0,0,7.19-9.48Z"/><path class="cls-26" d="M2727.07,1301c.31-1,.59-2.08.89-3.11l-3.36.39Z"/><path class="cls-26" d="M2739.55,1296.73c-2.5.23-5,.44-7.49.72-1.37.14-2.73.29-4.1.45-.3,1-.58,2.07-.89,3.11l-2.47-2.72,3.36-.39q4.53-15.74,8.19-31.69,2-8.78,3.7-17.62c1.14-5.89,2.15-11.82,2.91-17.82-2.21,5.63-4.17,11.31-6,17s-3.58,11.46-5.2,17.23q-4.89,17.31-8.74,34.89l-.73,3.35,3.2-.64c2.45-.48,4.91-1,7.36-1.49s4.89-1.08,7.34-1.62,4.88-1.17,7.32-1.76,4.86-1.26,7.28-2c-2.52.06-5,.21-7.54.36S2742,1296.48,2739.55,1296.73Z"/><path class="cls-29" d="M2744.08,1312.59s6.19,9.18,14.83,14.4c5.29,3.23,11.51,5,17.77,2.11,7.33-3.36,9.71-8.89,10-14a27,27,0,0,0-2.17-11.92Z"/><path class="cls-27" d="M2711.31,1208.41c-9.44,3.49-14.59,13.06-13,17.34s9.3,1.64,18.73-1.85,17-6.51,15.44-10.78S2720.74,1204.92,2711.31,1208.41Z"/><path class="cls-27" d="M2788.82,1208.07c-9.29-3.85-19.58-.34-21.33,3.88s5.7,7.52,15,11.38,16.9,6.8,18.65,2.58S2798.11,1211.93,2788.82,1208.07Z"/><path class="cls-27" d="M2720,1236.57c-6.15-.57-11.77,5.81-12.56,14.26s3.57,15.77,9.72,16.34,11.77-5.82,12.55-14.27S2726.11,1237.14,2720,1236.57Z"/><path class="cls-27" d="M2780.22,1239.74c-6.15-.57-11.77,5.81-12.55,14.26s3.56,15.76,9.71,16.34,11.78-5.82,12.56-14.27S2786.37,1240.31,2780.22,1239.74Z"/><path class="cls-28" d="M2806.07,1264.74c-10.45,3.86-16.33,14-13.13,22.63s14.25,12.52,24.7,8.65,16.33-14,13.14-22.64S2816.52,1260.87,2806.07,1264.74Z"/><path class="cls-28" d="M2700.09,1271a233.08,233.08,0,0,0,4.77,27.73,10.51,10.51,0,0,0,6.32-1.34c5.74-3.35,7.1-11.69,3.05-18.63C2711,1273.15,2705.21,1270.19,2700.09,1271Z"/><path class="cls-30" d="M2772.19,1316.51c-6.25,2.31-11.06,6.27-13.28,10.48,5.29,3.23,11.51,5,17.77,2.11,7.33-3.36,9.71-8.89,10-14A26.34,26.34,0,0,0,2772.19,1316.51Z"/><path class="cls-25" d="M2986.13,1230.47c-14.72-20-46.8-26-66.45-10-4,3.21-9.33,8.61-10.56,13.86,0,0-8.14,34.67,6.64,57.49,16.2,6.67,35.61,11.24,52.55,4.48,15.53-6.2,24.64-21.52,25.43-37.87a47.42,47.42,0,0,0-3.71-21.11A34.23,34.23,0,0,0,2986.13,1230.47Z"/><path class="cls-20" d="M2925.09,1257.77l6.64,4.74a26.31,26.31,0,0,1,3.28-7.73c-.82.13-1.65.28-2.48.46A33.23,33.23,0,0,0,2925.09,1257.77Z"/><path class="cls-20" d="M2941.75,1247.4a60.77,60.77,0,0,1,8.59-5.58c3.14-1.71,6.45-3.26,10-4.85a31.68,31.68,0,0,0-11.65-.24,35.3,35.3,0,0,0-11.41,3.8,28.47,28.47,0,0,0-9.56,8.34,27.26,27.26,0,0,0-4.84,12l-1.55,10.07,8.2-5.33a37.35,37.35,0,0,1,5.41-2.74c2-.87,4.07-1.66,6.19-2.47,4.25-1.64,8.64-3.16,13.1-5.16a43.23,43.23,0,0,0-7.19-1,58,58,0,0,0-7.22,0q-2.39.16-4.8.54a26.31,26.31,0,0,0-3.28,7.73l-6.64-4.74a33.23,33.23,0,0,1,7.44-2.53c.83-.18,1.66-.33,2.48-.46.12-.18.22-.37.34-.55A31.37,31.37,0,0,1,2941.75,1247.4Z"/><path class="cls-58" d="M2806.76,1157.51c-3.71,8.3,26.56,21.39,32.26,13.43C2848,1158.34,2812.93,1143.75,2806.76,1157.51Z"/><path class="cls-59" d="M2890.23,1227c-53.53-13.4-88.84-37.08-104.93-70.38-21.43-44.32-.78-91-.57-91.49a3.56,3.56,0,1,0-6.48-2.94c-.92,2-22.25,50.09.6,97.46,17.05,35.32,53.94,60.3,109.65,74.25a3.7,3.7,0,0,0,.87.11,3.56,3.56,0,0,0,.86-7Z"/><path class="cls-22" d="M2779.21,1044.88c-85.84,9.2-78.4,61.76-78.4,61.76-2.21,113,208.09,128.28,208.09,128.28l54.67,53.09,27.28-148.18S2898.5,1032.09,2779.21,1044.88Z"/><path class="cls-60" d="M2913.12,1208.41c-.2-.12-20.77-12-42.88-36.57a218.56,218.56,0,0,1-54-115.67,3.56,3.56,0,1,0-7.05,1,225.74,225.74,0,0,0,55.9,119.64c22.88,25.4,43.61,37.3,44.48,37.79a3.57,3.57,0,0,0,4.85-1.34A3.56,3.56,0,0,0,2913.12,1208.41Z"/><path class="cls-60" d="M2883.25,1119.65c18.44,23.93,54.2,43.13,54.2,43.13,10.79-80.57-85.81-117.9-85.81-117.9,30.18,22.73,42.48,57,42.48,57l-45.8-16.66c20.84,108.79,107.4,120.51,107.4,120.51C2901.24,1180.8,2883.25,1119.65,2883.25,1119.65Z"/><path class="cls-40" d="M2987.6,1246.35c-11.52-19.67-40.25-28.21-59.73-15.57-3.93,2.55-9.35,7-11,11.64,0,0-10.77,30.89.54,53.15,14.15,7.66,31.44,13.7,47.56,9.16,14.79-4.17,24.59-17.29,26.88-32.15a43.51,43.51,0,0,0-1.36-19.64A31.77,31.77,0,0,0,2987.6,1246.35Z"/><path class="cls-37" d="M2876,1024.71c-37.79-14.06-70.31-6.15-70.31-6.15,63.28.88,117.87,36.86,128.76,68.71,0,0,36.47,26.21,21.51.33S2913.84,1038.78,2876,1024.71Z"/><path class="cls-39" d="M2951,1079.71c-.24,0-16-3-17.78-3.2,0,0-19.22-29.33-53.83-43.18s-52.32-15-73.62-14.77c63.28.88,117.87,36.86,128.76,68.71,0,0,1.6,1.15,4,2.72,2.46.6,4,.71,4.82.36,1.91-.85,9.17-.52,14.12-.18-.41-.8-.86-1.64-1.4-2.57C2954.46,1084.93,2952.76,1082.31,2951,1079.71Z"/><path class="cls-39" d="M2930.1,1089c7.47,11,15.83,51.36,12.85,110.55,0,0,24.06,56.28,29,.41s-8.54-103-12.53-108.54C2953.28,1082.82,2922.63,1078.05,2930.1,1089Z"/><path class="cls-37" d="M2947,1185.71c-.44-2.64.55-25.82-1.43-47.9s-9.67-47.13-11.54-50-1.1-4.17,1.54-5.17c-5.31.08-8.53,1.94-5.5,6.38,7.47,11,15.83,51.36,12.85,110.55a120.69,120.69,0,0,0,6.15,12.07c7.44-.12,15.59-.41,21.46-1.07.56-3,1-6.47,1.4-10.59.28-3.18.49-6.32.66-9.43C2966.79,1193.21,2947.47,1188.34,2947,1185.71Z"/><path class="cls-39" d="M2948.05,1196.7c-10.74,3.17-21.37,24.27-23.72,59s.37,60.47,17,63.75c6.54,1.29,24.53.55,30.38-5.6,16-16.87,19.33-78.84,10.83-104.53C2978.79,1198,2955.79,1194.42,2948.05,1196.7Z"/><path class="cls-41" d="M2963.51,1294.09c-10.33,4.66-30.74,6.86-38.73,0,2,14.16,7,23.48,16.53,25.37,6.54,1.29,24.53.55,30.38-5.6,5-5.25,8.76-14.89,11.31-26.44-5.95-20-15.72-41.59-15.72-41.59C2961.81,1263.24,2963.51,1294.09,2963.51,1294.09Z"/><path class="cls-40" d="M2974.83,1202.68c-11.14-.76-21.87,23.79-24,54.83s5.23,56.81,16.37,57.56,21.87-23.8,24-54.83S2986,1203.43,2974.83,1202.68Z"/><path class="cls-37" d="M2965.06,1270.57c-2.8,18.5-1.55,23.52-1.55,23.52a47.62,47.62,0,0,1-9.57,3c2.95,10.73,7.62,17.61,13.29,18,6.56.44,13-7.93,17.56-21.19C2979.3,1272.34,2965.06,1270.57,2965.06,1270.57Z"/><path class="cls-37" d="M2984,1219.45c-10.35-.7-17.1,18.44-18.67,41.68s2.63,41.8,13,42.5,20-17.57,21.59-40.82S2994.39,1220.15,2984,1219.45Z"/><path class="cls-61" d="M2980.94,1295.59c-8.42-.57-13.67-10.35-15.88-25,.05,18.64,4.39,32.46,13.29,33.06,6.07.41,11.89-5.73,16-15.55C2990.27,1293.11,2985.67,1295.91,2980.94,1295.59Z"/><rect class="cls-31" x="1754.28" y="2301.14" width="514.72" height="458.86"/><g class="cls-4"><rect x="1754.28" y="2275.89" width="514.72" height="84.28"/><path d="M2269,2275.26H1754.27a.63.63,0,0,0-.63.63v84.28a.63.63,0,0,0,.63.63H2269a.63.63,0,0,0,.63-.63v-84.28A.63.63,0,0,0,2269,2275.26Zm-.64,84.28H1754.91v-83h513.45Z"/></g><rect class="cls-15" x="1400.04" y="2197.08" width="2574.04" height="113.11"/><rect class="cls-17" x="1382.23" y="2190.22" width="2609.66" height="63.41"/><path class="cls-62" d="M2456.51,2143.65l-527.46-.58c-13-.23-23.62,10.54-23.64,23.59a23.61,23.61,0,0,0,23.59,23.63l527.45.58c.41,0,.81,0,1.22,0a23.61,23.61,0,0,0-1.16-47.19Z"/><path class="cls-63" d="M1894.11,1711.94H1454.84a35.07,35.07,0,0,0-32.62,48l102.32,258.93,26.65,67.43,28.49,72.11a50.89,50.89,0,0,0,47.33,32.17H2172.9L1969.83,1760A83.72,83.72,0,0,0,1894.11,1711.94Z"/><path class="cls-62" d="M1742.47,1899.62c-23.14,7.45-32.09,44-20,81.6s40.68,62.08,63.83,54.63,32.08-44,20-81.6S1765.61,1892.17,1742.47,1899.62Z"/></g></svg>