<svg xmlns="http://www.w3.org/2000/svg" xmlns:xlink="http://www.w3.org/1999/xlink" viewBox="0 0 4680 3120"><defs><style>.cls-1{isolation:isolate;}.cls-2{fill:#fff;}.cls-3{fill:url(#linear-gradient);}.cls-4{fill:url(#linear-gradient-2);}.cls-5{fill:url(#linear-gradient-3);}.cls-6{fill:url(#linear-gradient-4);}.cls-7{fill:url(#linear-gradient-5);}.cls-22,.cls-41,.cls-8{fill:none;}.cls-22,.cls-8{stroke:#2c6d7c;}.cls-22,.cls-24,.cls-41,.cls-8{stroke-miterlimit:10;}.cls-8{stroke-width:7.07px;}.cls-9{opacity:0.5;fill:url(#linear-gradient-6);}.cls-11,.cls-15,.cls-25,.cls-29,.cls-44,.cls-45,.cls-46,.cls-52,.cls-9{mix-blend-mode:multiply;}.cls-10{fill:url(#linear-gradient-7);}.cls-11{fill:#e5e5e5;}.cls-12{fill:url(#linear-gradient-8);}.cls-13{fill:#339eef;}.cls-14,.cls-25,.cls-29,.cls-44,.cls-45,.cls-46{opacity:0.6;}.cls-14{fill:url(#linear-gradient-9);}.cls-15{fill:#ffb8b8;}.cls-16{fill:#eefcff;}.cls-17{fill:#006856;}.cls-18{fill:#1569ce;}.cls-19{fill:#7f7f7f;}.cls-20{fill:url(#linear-gradient-10);}.cls-21{fill:url(#linear-gradient-11);}.cls-22{stroke-width:8.12px;}.cls-23{fill:#1b7154;}.cls-24{fill:#0e2d34;stroke:#0e2d34;stroke-width:7.55px;}.cls-25{fill:#c1c1c1;}.cls-26{fill:#28211d;}.cls-27{fill:#00bea4;}.cls-28{fill:#352d29;}.cls-29{fill:url(#linear-gradient-12);}.cls-30{fill:#fbbd9d;}.cls-31{fill:#1d343a;}.cls-32{fill:#d83939;}.cls-33{fill:#304b51;}.cls-34{fill:#c5f8f3;}.cls-35{fill:#f45b5b;}.cls-36{fill:url(#linear-gradient-13);}.cls-37{fill:url(#linear-gradient-14);}.cls-38{fill:#f9a880;}.cls-39{fill:#ffba94;}.cls-40{fill:#fca286;}.cls-41{stroke:#1d2249;stroke-width:6.71px;}.cls-42{fill:#ff806d;}.cls-43{fill:#443a36;}.cls-44{fill:url(#linear-gradient-15);}.cls-45{fill:url(#linear-gradient-16);}.cls-46{fill:url(#linear-gradient-17);}.cls-47{fill:url(#linear-gradient-18);}.cls-48{fill:#06378e;}.cls-49{fill:url(#linear-gradient-19);}.cls-50{fill:#083db2;}.cls-51{fill:#d83f3f;}.cls-52{fill:#ccecff;}.cls-53{fill:#fbb035;}.cls-54{fill:#f5f5f5;}.cls-55{fill:url(#linear-gradient-20);}.cls-56{fill:#fbfbfb;}.cls-57{fill:#3888fc;}.cls-58{fill:#287ee5;}.cls-59{fill:#ce0c35;}.cls-60{fill:#ee4041;}.cls-61{mix-blend-mode:color-burn;fill:url(#Degradado_sin_nombre_6);}</style><linearGradient id="linear-gradient" x1="534.26" y1="1511.26" x2="4239.82" y2="1511.26" gradientUnits="userSpaceOnUse"><stop offset="0" stop-color="#3295ca"/><stop offset="1" stop-color="#4e42b4"/></linearGradient><linearGradient id="linear-gradient-2" x1="2308.49" y1="548.15" x2="2421.08" y2="2457.3" xlink:href="#linear-gradient"/><linearGradient id="linear-gradient-3" x1="2365.1" y1="2689.34" x2="2365.1" y2="2371.62" gradientUnits="userSpaceOnUse"><stop offset="0" stop-color="#fff"/><stop offset="0.08" stop-color="#f6f8fd" stop-opacity="0.98"/><stop offset="0.22" stop-color="#dee5f9" stop-opacity="0.92"/><stop offset="0.4" stop-color="#b7c6f1" stop-opacity="0.83"/><stop offset="0.6" stop-color="#819be7" stop-opacity="0.7"/><stop offset="0.82" stop-color="#3c65da" stop-opacity="0.54"/><stop offset="1" stop-color="#0036ce" stop-opacity="0.4"/></linearGradient><linearGradient id="linear-gradient-4" x1="2184.62" y1="1930.82" x2="2184.62" y2="2514.16" gradientUnits="userSpaceOnUse"><stop offset="0" stop-color="#00b488"/><stop offset="0.92" stop-color="#007bc0"/></linearGradient><linearGradient id="linear-gradient-5" x1="14965.64" y1="-3073.05" x2="15490.69" y2="-2003.01" gradientTransform="matrix(-0.78, 0.62, 0.62, 0.78, 14656.46, -5592.84)" gradientUnits="userSpaceOnUse"><stop offset="0" stop-color="#8ccc6d"/><stop offset="0.19" stop-color="#81c768"/><stop offset="0.54" stop-color="#62b85b"/><stop offset="0.92" stop-color="#39a54a"/></linearGradient><linearGradient id="linear-gradient-6" x1="1844.43" y1="1743.21" x2="2396.98" y2="457.59" gradientUnits="userSpaceOnUse"><stop offset="0" stop-color="#fff"/><stop offset="0.19" stop-color="#d3effa"/><stop offset="0.47" stop-color="#98daf3"/><stop offset="0.71" stop-color="#6ccaed"/><stop offset="0.89" stop-color="#52c1ea"/><stop offset="1" stop-color="#48bde9"/></linearGradient><linearGradient id="linear-gradient-7" x1="1939.56" y1="744.71" x2="1939.56" y2="1022.02" gradientUnits="userSpaceOnUse"><stop offset="0" stop-color="#321464"/><stop offset="1" stop-color="#544db8"/></linearGradient><linearGradient id="linear-gradient-8" x1="1510.69" y1="1853.03" x2="2382.59" y2="1853.03" gradientUnits="userSpaceOnUse"><stop offset="0" stop-color="#2d76f9"/><stop offset="0.3" stop-color="#378af3"/><stop offset="0.73" stop-color="#43a2ec"/><stop offset="1" stop-color="#48abe9"/></linearGradient><linearGradient id="linear-gradient-9" x1="2018.92" y1="1632.11" x2="1836.5" y2="1139.09" gradientUnits="userSpaceOnUse"><stop offset="0" stop-color="#29abe2" stop-opacity="0.6"/><stop offset="1" stop-color="#4f80ff"/></linearGradient><linearGradient id="linear-gradient-10" x1="3484.56" y1="2130.67" x2="3484.56" y2="2499.42" xlink:href="#linear-gradient-4"/><linearGradient id="linear-gradient-11" x1="11563.84" y1="908.52" x2="12167.08" y2="2137.91" gradientTransform="matrix(-1, 0.03, 0.03, 1, 15226.99, -219.59)" xlink:href="#linear-gradient-5"/><linearGradient id="linear-gradient-12" x1="3564.84" y1="1881.89" x2="3321.62" y2="1620.59" gradientUnits="userSpaceOnUse"><stop offset="0" stop-color="#fff" stop-opacity="0.5"/><stop offset="1"/></linearGradient><linearGradient id="linear-gradient-13" x1="2433.69" y1="1914.75" x2="2887.02" y2="1914.75" gradientUnits="userSpaceOnUse"><stop offset="0" stop-color="#f45b5b"/><stop offset="1" stop-color="#f42432"/></linearGradient><linearGradient id="linear-gradient-14" x1="3544.9" y1="2528.75" x2="2727.76" y2="1563.7" gradientUnits="userSpaceOnUse"><stop offset="0" stop-color="#f45b5b"/><stop offset="0.25" stop-color="#f45657"/><stop offset="0.55" stop-color="#f4474c"/><stop offset="0.89" stop-color="#f42e3a"/><stop offset="1" stop-color="#f42432"/></linearGradient><linearGradient id="linear-gradient-15" x1="11047.77" y1="2441.01" x2="11009.65" y2="2664.24" gradientTransform="matrix(-0.95, -0.32, -0.32, 0.95, 14251.06, 2328.61)" xlink:href="#linear-gradient-12"/><linearGradient id="linear-gradient-16" x1="11170.07" y1="2380.51" x2="11133.54" y2="2594.48" gradientTransform="matrix(-0.95, -0.32, -0.32, 0.95, 14251.06, 2328.61)" xlink:href="#linear-gradient-12"/><linearGradient id="linear-gradient-17" x1="3121.23" y1="1355.45" x2="3209.97" y2="1714.12" xlink:href="#linear-gradient-12"/><linearGradient id="linear-gradient-18" x1="3071.16" y1="2174.45" x2="2761.38" y2="1656.78" xlink:href="#linear-gradient-13"/><linearGradient id="linear-gradient-19" x1="3314.61" y1="2469.37" x2="3155.87" y2="2281.9" xlink:href="#linear-gradient-14"/><linearGradient id="linear-gradient-20" x1="2098.43" y1="657.36" x2="2428.76" y2="657.36" xlink:href="#linear-gradient-14"/><linearGradient id="Degradado_sin_nombre_6" x1="16040.06" y1="1759.36" x2="16143.77" y2="1637" gradientTransform="matrix(-0.81, 0, 0, 1.06, 13731.35, 170.54)" gradientUnits="userSpaceOnUse"><stop offset="0"/><stop offset="1" stop-color="#fff" stop-opacity="0"/></linearGradient></defs><title>10</title><g class="cls-1"><g id="_10" data-name="10"><rect class="cls-2" width="4680" height="3120"/><path class="cls-3" d="M3737.33,1219.26C3606.23,1003.32,3371.85,859,3103.59,859c-72.61,0-142.48,11.65-209.23,30.63C2735.22,632,2453.44,460,2131.11,460c-437.94,0-803.21,317.6-884.11,738.15-13.08-.88-25.94-2.44-39.4-2.44-371.79,0-673.34,306.2-673.34,683.21,0,377.49,301.55,683.6,673.34,683.6H3566.15c372.07,0,673.67-306.11,673.67-683.6C4239.82,1561.79,4026.67,1295.74,3737.33,1219.26Z"/><path class="cls-4" d="M3737.26,1219.26C3606.16,1003.32,3371.78,859,3103.52,859c-72.61,0-142.48,11.65-209.23,30.63C2735.15,632,2453.37,460,2131,460c-437.94,0-803.21,317.6-884.11,738.15-13.08-.88-25.94-2.44-39.4-2.44-371.79,0-673.34,306.2-673.34,683.21,0,377.49,301.55,683.6,673.34,683.6H3566.08c372.08,0,673.67-306.11,673.67-683.6C4239.75,1561.79,4026.6,1295.74,3737.26,1219.26Z"/><path class="cls-5" d="M4005.82,2660v-54.25c0-88.5-261.36-160.25-583.77-160.25H1308.14c-322.41,0-583.77,71.75-583.77,160.25V2660Z"/><path class="cls-6" d="M1599.58,2007.54c87.12-44.53,401-193.65,464.57-65,13.29,26.9,43.76,40.65,72.94,33.69,166.2-39.65,606.75-122.8,551.26,125.76-8.74,39.14,20.1,76.71,60.18,78.19,142.67,5.25,393.71,40.95,266,235a64.1,64.1,0,0,1-53.32,28.82l-647.83,2.62-927.51,28.09c-65.15,2-91.45-83.13-36.56-118.26l117.45-75.16a64.24,64.24,0,0,0,25.65-31.9l76.15-206.82A64.22,64.22,0,0,1,1599.58,2007.54Z"/><path class="cls-7" d="M857.9,2310.69c33.18,32.87,71.2,60.47,111.71,85.12s83.38,46.33,126.28,67.4c45.81,22.5,90.12,49.67,134.85,75.7l224.5-74.87c16.22-71.13,39-244.32,71.69-312,28-58,62.14-114.92,76.56-175.85s5.17-129-43-165.8-140.23-23.86-169.64,33.64c-11.87,23.21-19.9,56.24-46.52,59.17-25.17,2.78-35.7-26.87-32.3-50.25,5.54-38.18,27-74,45-110s33-75.67,24.49-112-49.5-65-89-50.61c-14.76,5.37-27.94,16-43.26,18.25-25.79,3.8-45.48-18.24-50-41.28s1.16-47.66,0-71.36c-4.19-83.28-109.23-137.79-194.68-101s-121.92,152.27-67.6,214c16.82,19.14,40.22,33.16,53.12,55s9.53,56.68-16.49,69.2c-26.34,12.7-53.83-5.75-82-7.11-46.79-2.31-88.12,47.18-87.51,90.87s31.06,79.39,65.81,105.65,75.17,46.55,105.77,76.89c10.72,10.66,20.52,26,12.83,40.36-12.27,23-47.2,14.59-73.32,12.44-62.42-5.06-121.36,57-126.78,116.14S816.79,2270,857.9,2310.69Z"/><path class="cls-8" d="M1187.52,1974.1A4873.1,4873.1,0,0,0,1338.41,2453l5.43-4.33c-1.74-4.52-3.41-9.06-5.1-13.62q-23.94-64.83-46-130.48a1928.31,1928.31,0,0,1,127.77-350.59c1.79-3.67-4.36-5.14-6.1-1.46a1929.36,1929.36,0,0,0-125.32,341.24q-73.1-218.65-125.42-444.55a3.22,3.22,0,0,0,.52-.84q30-67.74,60.1-135.49c1.65-3.74-4.48-5.18-6.1-1.46q-28.42,64-56.77,127.94-29.28-127.66-51.91-257.15c-.67-3.76-7.1-2.12-6.43,1.65q21.57,123.93,49.32,246.28,15,66.06,31.86,131.52a973.84,973.84,0,0,0-173.13-136c-3.29-2-7,3.28-3.72,5.31a967,967,0,0,1,179.76,143Z"/><path class="cls-8" d="M1311.71,2474.27l5.17-4.13c-89.69-120.17-196.41-227-316.31-322.76-3-2.39-8,2-5,4.36C1115.45,2247.44,1222.13,2354.18,1311.71,2474.27Z"/><path class="cls-9" d="M1394.35,841.73H2601a94.79,94.79,0,0,1,94.79,94.79v848.36a55.7,55.7,0,0,1-55.7,55.7H1394.35a55.7,55.7,0,0,1-55.7-55.7V897.42A55.7,55.7,0,0,1,1394.35,841.73Z"/><path class="cls-2" d="M2665.67,917.14v1370a50.77,50.77,0,0,1-50.62,50.62h-1351a50.76,50.76,0,0,1-50.61-50.62v-1370a50.75,50.75,0,0,1,50.61-50.62h1351A50.76,50.76,0,0,1,2665.67,917.14Z"/><path class="cls-10" d="M2665.67,917.14v104.37H1213.45V917.14a50.75,50.75,0,0,1,50.61-50.62h1351A50.76,50.76,0,0,1,2665.67,917.14Z"/><rect class="cls-11" x="1493.58" y="1099.22" width="871.91" height="871.91" rx="61.34"/><rect class="cls-2" x="1510.69" y="1084.21" width="871.91" height="871.91" rx="61.34"/><path class="cls-12" d="M2382.59,1749.94v156.42c0,27.37-27.6,49.75-61.34,49.75H1572c-33.74,0-61.34-22.38-61.34-49.75V1749.94Z"/><path class="cls-13" d="M2214.33,1428.11c0,141.27-114.51,255.81-255.8,255.81-129.88,0-237.16-96.83-253.58-222.22a256.68,256.68,0,0,1-2.2-33.59c0-141.27,114.51-255.8,255.78-255.8a255.72,255.72,0,0,1,255.8,255.8Z"/><path class="cls-14" d="M2123.52,1264.35c0,141.27-114.51,255.81-255.78,255.81A254.88,254.88,0,0,1,1705,1461.7a256.68,256.68,0,0,1-2.2-33.59c0-141.27,114.51-255.8,255.78-255.8a254.83,254.83,0,0,1,162.81,58.46A260.05,260.05,0,0,1,2123.52,1264.35Z"/><path class="cls-15" d="M1835.5,1489.43l69.72,67.07c8.23,7.91,16.2,16.28,24.85,23.73,20.8,17.92,52,11.78,64.21-12.78,11.67-23.38,21.26-48.06,31.84-72l51-115.27,31.64-71.52c5.07-11.45,3.34-24.91-8.31-31.73-9.87-5.77-26.64-3.19-31.73,8.32l-70.9,160.23L1959,1533.2c-1.25,2.82-5.83,10.9-4.75,12.4.26.35,6.74-1.25,7,.52-.14-.85-2.73-2.63-3.34-3.21l-14-13.44-75.72-72.84c-21.52-20.69-54.35,12.06-32.79,32.8Z"/><path class="cls-16" d="M1831.64,1481.33l69.72,67.07c8.23,7.91,16.2,16.28,24.85,23.74,20.8,17.91,52,11.77,64.21-12.79,11.67-23.38,21.26-48.06,31.84-72l51-115.27,31.64-71.52c5.07-11.45,3.34-24.91-8.31-31.73-9.87-5.77-26.64-3.19-31.73,8.32L1994,1437.42l-38.8,87.68c-1.25,2.82-5.83,10.9-4.75,12.4.25.35,6.74-1.25,7,.52-.14-.85-2.73-2.63-3.34-3.21l-14-13.43-75.72-72.84c-21.52-20.7-54.35,12-32.79,32.79Z"/><path class="cls-17" d="M1723.88,1909.15q-3.17-3.17-3.16-9v-93q0-5.82,3.16-9t9-3.16h33.42q19.13,0,32.92,7a48.68,48.68,0,0,1,21.12,20.12q7.32,13.14,7.32,31.42t-7.23,31.52a48.23,48.23,0,0,1-21,20.2q-13.8,7-33.09,7h-33.42Q1727,1912.31,1723.88,1909.15Zm40.57-17.8q37.41,0,37.42-37.75,0-37.57-37.42-37.58h-17.79v75.33Z"/><path class="cls-17" d="M1871.12,1906.4a50,50,0,0,1-19.87-21q-7-13.54-7-31.85t7-31.84a49.56,49.56,0,0,1,19.87-20.87q12.89-7.32,30.35-7.32t30.35,7.32a49.56,49.56,0,0,1,19.87,20.87q7,13.56,7,31.84t-7,31.85a50,50,0,0,1-19.87,21q-12.88,7.41-30.35,7.4T1871.12,1906.4Zm53.38-23q8.4-10.3,8.4-29.77t-8.32-29.68q-8.31-10.23-23.11-10.23t-23,10.23q-8.24,10.23-8.23,29.68t8.31,29.77q8.32,10.32,23,10.31T1924.5,1883.37Z"/><path class="cls-17" d="M2076.82,1797.81a12.87,12.87,0,0,1,3.41,9.23v93.29a13.05,13.05,0,0,1-3.41,9.4,11.74,11.74,0,0,1-8.89,3.57,12,12,0,0,1-9.65-4.32l-55.71-71.34v62.69a13.44,13.44,0,0,1-3.24,9.4,11.21,11.21,0,0,1-8.73,3.57,11.45,11.45,0,0,1-8.81-3.57,13.22,13.22,0,0,1-3.33-9.4V1807a12.87,12.87,0,0,1,3.41-9.23,11.74,11.74,0,0,1,8.9-3.57q6.15,0,9.47,4.32L2056,1869.4V1807a13,13,0,0,1,3.33-9.23,11.28,11.28,0,0,1,8.65-3.57A11.74,11.74,0,0,1,2076.82,1797.81Z"/><path class="cls-17" d="M2106.67,1909.15q-3.16-3.17-3.16-9v-93q0-5.82,3.16-9t9-3.16h58.87q12.3,0,12.3,10,0,10.14-12.3,10.14h-45.73v27.44h42.4q12.3,0,12.31,10.14t-12.31,10h-42.4v29.43h45.73q12.3,0,12.3,10.15,0,10-12.3,10h-58.87Q2109.83,1912.31,2106.67,1909.15Z"/><path class="cls-2" d="M1717.22,1909.15q-3.17-3.17-3.16-9v-93q0-5.82,3.16-9t9-3.16h33.42q19.13,0,32.93,7a48.74,48.74,0,0,1,21.12,20.12q7.3,13.14,7.31,31.42t-7.23,31.52a48.18,48.18,0,0,1-21,20.2q-13.8,7-33.09,7H1726.2Q1720.38,1912.31,1717.22,1909.15Zm40.57-17.8q37.43,0,37.42-37.75,0-37.57-37.42-37.58H1740v75.33Z"/><path class="cls-2" d="M1864.47,1906.4a50,50,0,0,1-19.88-21q-7-13.54-7-31.85t7-31.84a49.52,49.52,0,0,1,19.88-20.87q12.87-7.32,30.34-7.32t30.35,7.32a49.5,49.5,0,0,1,19.87,20.87q7,13.56,7,31.84t-7,31.85a49.93,49.93,0,0,1-19.87,21q-12.89,7.41-30.35,7.4T1864.47,1906.4Zm53.38-23q8.39-10.3,8.39-29.77t-8.31-29.68q-8.33-10.23-23.12-10.23t-23,10.23q-8.23,10.23-8.23,29.68t8.32,29.77q8.31,10.32,22.94,10.31T1917.85,1883.37Z"/><path class="cls-2" d="M2070.17,1797.81a12.86,12.86,0,0,1,3.4,9.23v93.29a13,13,0,0,1-3.4,9.4,11.76,11.76,0,0,1-8.9,3.57,12,12,0,0,1-9.65-4.32l-55.7-71.34v62.69a13.4,13.4,0,0,1-3.25,9.4,11.21,11.21,0,0,1-8.73,3.57,11.47,11.47,0,0,1-8.81-3.57,13.22,13.22,0,0,1-3.33-9.4V1807a12.87,12.87,0,0,1,3.41-9.23,11.74,11.74,0,0,1,8.9-3.57q6.15,0,9.48,4.32l55.71,70.84V1807a13,13,0,0,1,3.32-9.23,11.28,11.28,0,0,1,8.65-3.57A11.76,11.76,0,0,1,2070.17,1797.81Z"/><path class="cls-2" d="M2100,1909.15q-3.15-3.17-3.16-9v-93q0-5.82,3.16-9t9-3.16h58.87q12.3,0,12.3,10,0,10.14-12.3,10.14h-45.73v27.44h42.4q12.31,0,12.31,10.14t-12.31,10h-42.4v29.43h45.73q12.3,0,12.3,10.15,0,10-12.3,10H2109Q2103.17,1912.31,2100,1909.15Z"/><path class="cls-18" d="M1401.17,2075a48.76,48.76,0,1,0,48.76-48.77A48.76,48.76,0,0,0,1401.17,2075Z"/><path class="cls-18" d="M1401.17,2207.34a48.76,48.76,0,1,0,48.76-48.76A48.75,48.75,0,0,0,1401.17,2207.34Z"/><rect class="cls-19" x="1603.91" y="2047.8" width="676.13" height="15.49" transform="translate(3883.94 4111.1) rotate(-180)"/><rect class="cls-19" x="1603.91" y="2084.47" width="197.18" height="15.49" transform="translate(3404.99 4184.42) rotate(-180)"/><rect class="cls-19" x="1897.5" y="2084.47" width="421.41" height="15.49" transform="translate(4216.4 4184.42) rotate(-180)"/><rect class="cls-19" x="1603.91" y="2179.64" width="768.86" height="15.49" transform="translate(3976.67 4374.78) rotate(-180)"/><rect class="cls-19" x="1603.91" y="2216.31" width="197.18" height="15.49" transform="translate(3404.99 4448.12) rotate(-180)"/><rect class="cls-19" x="1837.02" y="2216.31" width="506.54" height="15.49" transform="translate(4180.58 4448.12) rotate(-180)"/><path class="cls-20" d="M3155.54,2174c54-31.62,193.25-104.81,234.81-46.3,15.51,21.83,42.48,32.39,68.42,25.75,97.38-24.9,285.39-57,275.81,69.76-2.62,34.6,23.25,64.9,57.77,68.37,71.63,7.19,163.13,33.88,126.06,126.16a64.06,64.06,0,0,1-59.17,40l-328.84,1.57-421.57,15.1c-62.69,2.24-91.07-77.52-41-115.38h0a64.17,64.17,0,0,0,22.56-32.11l36.3-116.59A64.27,64.27,0,0,1,3155.54,2174Z"/><path class="cls-21" d="M2849.51,1746.78c7.6,53.12,23.3,104.77,43.33,155.43s44.27,100.25,69,149.3c26.37,52.36,48.14,108,71.06,162.84l327.21-8.49a1132.8,1132.8,0,0,1,212.37-140.61c65.88-33.71,136.6-62.21,192-108s94.15-114.58,75.53-181.74-111.94-119.08-178.75-86.79c-27,13-57.22,37.73-83.64,22-25-14.89-14.08-49.36,5.25-68.42,31.54-31.14,76.1-49.11,117.51-69.58s82.74-46.42,100.06-85.59-.26-93.91-46.5-108.1c-17.25-5.32-36.71-4.7-52.29-13.27-26.27-14.41-29-48.25-17.16-72.47s34.1-42.86,49.45-65.41c53.89-79.19-4.56-202-108.38-227.45s-217.26,55-210.27,149.18c2.13,29.2,13.85,58.27,10.55,87.19s-30.56,58.54-63.08,52c-32.95-6.63-45.34-42.59-70.17-63.33-41.26-34.56-113.43-17.87-143.17,22.58s-26.58,94.26-12.95,142.41,36.6,94.77,43.6,143.78c2.44,17.2.8,38-16.22,45.87-27.21,12.58-53.36-19.36-75.81-39.44-53.68-47.91-150.73-31.87-196.67,18.51S2840.08,1681,2849.51,1746.78Z"/><path class="cls-22" d="M3384.84,1666.92a5603.77,5603.77,0,0,0-193.74,543.32l8-.21c1.54-5.34,3.16-10.66,4.78-16q23-76,48.35-151.39c110.69-88,231.31-165.92,360.12-232.62,4.18-2.13-.43-7.74-4.58-5.57a2216,2216,0,0,0-351.39,225.75q84.63-251,193.3-494.23a3.69,3.69,0,0,0,1.05-.41l149-82.47c4.11-2.28-.51-7.85-4.57-5.57q-70.38,38.9-140.71,77.86,61.7-137.26,130.71-271.58c2-3.91-5-6.86-7-3q-66.17,128.51-125.56,259.84-32.07,70.89-62,142.58a1119,1119,0,0,0-64.33-244.64c-1.59-4.16-8.71-1.87-7.08,2.29a1111.46,1111.46,0,0,1,65.57,255.6C3384.76,1666.66,3384.8,1666.81,3384.84,1666.92Z"/><path class="cls-22" d="M3151.87,2211.26l7.59-.2c1.15-172.28-22.57-344.14-66-515-1.07-4.25-8.69-3.75-7.59.54C3129.31,1867.39,3153.05,2039.13,3151.87,2211.26Z"/><path class="cls-23" d="M3229,2125.64c.79,32.89,6.62,65.47,15.16,97.76s19.72,64.23,31.2,95.88c12.28,33.78,21.52,69.22,31.52,104.27L3506.71,2442a694.69,694.69,0,0,1,139.44-70.27c42.55-15.77,87.67-28,124.73-51.91s65.6-63,59.11-105.19-59.56-80.59-102.56-65.75c-17.36,6-37.57,18.84-52.51,7.33-14.14-10.87-5-31.07,8.13-41.28,21.45-16.69,49.88-24.41,76.57-33.88s53.73-22.29,67.1-44.89,6.62-57.2-20.51-69.17c-10.12-4.49-22-5.51-30.88-11.86-14.95-10.66-14.18-31.47-5.21-45.36s23.86-23.63,34.82-36.25c38.54-44.33,11.81-123.29-49.56-146.31s-136.25,17.8-138.79,75.65c-.81,17.93,4.22,36.48.13,53.85s-22.84,33.43-42.16,27.09c-19.58-6.42-24.53-29.21-38.15-43.63-22.63-24-67.77-19.07-88.8,3.41s-23,55.48-18.16,85.78,15.44,60.33,16.17,90.68c.23,10.65-2.26,23.2-13.19,26.75-17.48,5.7-31.1-15.63-43.31-29.48-29.23-33-89.47-30.28-121.08-2.92S3228,2084.88,3229,2125.64Z"/><path class="cls-24" d="M3560.7,2115.67a3430.29,3430.29,0,0,0-157.18,316.8l4.87.45c1.32-3.14,2.69-6.26,4.06-9.4q19.5-44.61,40.37-88.68a1357.93,1357.93,0,0,1,236-115.63c2.7-1,.3-4.75-2.38-3.73a1358.65,1358.65,0,0,0-230.24,112.08q69.64-146.71,153.36-287a2.94,2.94,0,0,0,.68-.17L3707,2001c2.66-1.09.26-4.82-2.38-3.72q-45.66,18.6-91.29,37.25,47.46-79.12,99.19-155.92c1.5-2.23-2.57-4.54-4.07-2.3q-49.56,73.45-95.2,149.14-24.64,40.84-48,82.33a686,686,0,0,0-21.5-153.59c-.67-2.65-5.17-1.77-4.48.88a681.24,681.24,0,0,1,21.47,160.35A1.64,1.64,0,0,0,3560.7,2115.67Z"/><path class="cls-24" d="M3379.55,2430.26l4.64.43c13.13-104.81,11.11-211.16-3-318.32-.34-2.66-5-2.91-4.65-.22C3390.64,2219.27,3392.7,2325.55,3379.55,2430.26Z"/><path class="cls-25" d="M3653.27,2173.22c-5.05-30.37-65.7-138.91-135-247.62,7.94-12.13,16.94-33.38,5.72-57.88a47.4,47.4,0,0,0-5.89-9.69c-20.76-26.33-61.31-19.13-62.76-79.72-1.58-67-11.17-111.77-78.22-170.86s-158.43-146.82-151.68-314.52c6-149-119.94-272.39-234.22-253.89-20.65-7.2-46.65-8.67-77.36,4.59a157.78,157.78,0,0,0-38.24,3.16c-32.62-8.84-77.27-11.37-113.44,21.67-42.2,38.58-54.29,91.89-57.56,124.75a36.9,36.9,0,0,0,4.81,21.61c-36.56,49.42-60.79,87-32.2,158.47,41.53,103.79,30.87,139.85-5.84,165s-94.21,52.28-81.44,132.1,12.79,76.65-14.36,105.38c-22.13,23.43-39,49-19.31,69.75-34,67.16-60,121.22-60,121.22l-132-211.83a.23.23,0,0,1,0,.07c-.17.5-1.23,3.63-3.43,8.58h0l-.07-.12,3.52-8.54s-1.36-6.47-12.22-6.53l-34-58.91-.34-.56s40.72-100.15,33.53-152.85l-34.4-122.14s-10.46-6.17-18,1.21l-42.16-133.26-14.22,4.3,0-.06-138.83,42,23.55,73.62-9.41,11s22.76,138.12,34.34,164.86,73.84,156.07,73.84,156.07l26.75,73.55c-26.41,29.1-31.67,55.88-28.88,64.83l0,.07c1.66,5.43,81.3,266.24,151.77,357.74,0,0,0,0,0,.05q3.89,5.07,7.74,9.39c7.94,8.93,15.73,15.46,23.22,19a30.46,30.46,0,0,0,7.74,2.54c74.77,13.29,116.85-8.68,118.82-9.74,0,0,.05,0,.07,0A235.9,235.9,0,0,0,2566.5,2236c40.06-21.64,125.33-62.54,165.06-81.47.33-.15.65-.32,1-.45a129.74,129.74,0,0,0,7.19,21c.2.45.32.67.32.67v0c18.49,42.13,57.42,85.29,61.36,89.68a5.68,5.68,0,0,1,.64.77s.05.1.17.29l2.54,3.87.13.2,70.2,108.27a6.19,6.19,0,0,1,1,3.87c-.64,7.84-2.58,35.47.15,42.74s28,24.43,34.64,28.79a6.17,6.17,0,0,0,3.42,1h215.77l40.41-11.81s14.3,5.82,31.23,11.81h64a6.26,6.26,0,0,0,5.87-4.12l14.39-39.24,22.76-62.1a5.88,5.88,0,0,1,.66-1.3,6,6,0,0,1,1-1.21l.07-.06a3.61,3.61,0,0,1,.3-.25l.17-.12.29-.2.2-.12.3-.17.22-.1.32-.15.17-.06a6.3,6.3,0,0,1,1.41-.34h0l.45,0h.72l.41,0,.19,0,.39.09.22.06.35.1.57.23c2.14,1,4.24,2.15,6.26,3.31,28.84,16.56,46.61,45.8,55.56,64.31,1.75,3.65,3.18,6.9,4.27,9.54a6.23,6.23,0,0,0,9.39,2.71c8.08-5.74,23.05-16.46,41.88-30.49C3513.7,2336.78,3661.08,2220.06,3653.27,2173.22ZM3293,1660.61c-.39,0-.77,0-1.14,0h.29Zm-185.1,11.27,1.28-1Zm-1.62,1.23c-.16.12-.31.25-.48.37l-.69.51-.19.13c.75-.55,1.51-1.12,2.24-1.69C3106.91,1672.66,3106.62,1672.89,3106.32,1673.11Zm-3.39,2.46c-.26.18-.52.36-.79.53l-.09.07-.39.26.48-.33c.72-.49,1.42-1,2.12-1.48C3103.82,1674.94,3103.38,1675.26,3102.93,1675.57Zm-3,2s0,0,0,0l1-.65Zm41.3-51.93c-.37,1.13-.82,2.31-1.28,3.5C3140.4,1628,3140.82,1626.83,3141.22,1625.67Zm-108-139.53h0c-4.77,33.84-11.44,98.15-3.74,155.67C3021.73,1584.3,3028.4,1520,3033.17,1486.14Zm15,222.17-.28-.56Zm7.46,12.78,0,0,0,0Zm1.63,2.33c-.18-.25-.37-.51-.54-.76Zm6.85,8.5-.11-.12Zm42.14,27.38-.36-.11Zm23.21,3.73h-.69l-.48,0Zm135.41-88.47-.75,1Zm1.81-2.19-.16.18c-.42.49-.83,1-1.23,1.47C3265.75,1673.45,3266.21,1672.9,3266.68,1672.37Zm2.94-3c-.41.41-.83.81-1.25,1.24l-.38.37C3268.53,1670.37,3269.08,1669.83,3269.62,1669.32Zm1.88-1.63c-.51.41-1,.85-1.51,1.29h0C3270.49,1668.52,3271,1668.1,3271.5,1667.69Zm.69-.56-.49.4,0,0,0,0Zm.62-.47.07-.05.38-.27-.54.39Zm1-.7,0,0,.78-.52c-.43.29-.87.57-1.28.88Zm6.17-3.3c-.33.14-.66.27-1,.43s-.89.39-1.33.61l-1.31.69c-.44.25-.89.5-1.31.77A30.25,30.25,0,0,1,3280,1662.66Zm2-.71-1,.33Zm.4-.12.59-.17.79-.2c.17,0,.34-.08.52-.12-.71.16-1.42.35-2.13.56,0,0,0,0-.05,0h0Zm2.16-.55c.33-.08.67-.14,1-.21l.85-.14.13,0c-.69.11-1.36.23-2.05.38Zm2.47-.44,1.32-.15h.13c-.61,0-1.22.12-1.8.21h0Zm3.27-.27h.32c-.25,0-.51,0-.76,0h0Zm-292.68,41.74h-2.15a149.67,149.67,0,0,1-30.19-3.13h0v0a213.09,213.09,0,0,0,53.63,2.52,236.31,236.31,0,0,0,24.81-3.09q1.05,2.54,2.19,5l-.2-.4a6.19,6.19,0,0,0-6.9-3.52A166.07,166.07,0,0,1,2997.6,1702.31ZM3130.44,1763h0Zm4-.06-1,0Zm2.19-.11-.78,0Zm2.76-.22-.64.06Zm2.3-.24-.49,0Zm2.56-.34-.25,0Zm2.45-.39-.21,0Zm148.4-100.91c-.57-.07-1.13-.11-1.67-.14h.32l.24,0c.55,0,1.1.1,1.65.16a44.4,44.4,0,0,1,7.22,1.45,70.37,70.37,0,0,1,16.57,7.43,217.14,217.14,0,0,0-23.12-8.66A5,5,0,0,0,3295.14,1660.77Zm71.41,52.06c-8.28-9.54-15.92-17.79-22.87-24.55A250.82,250.82,0,0,1,3366.55,1712.83Zm-22.8,523.2-.2.29a6.18,6.18,0,0,1-11.09-1.87s0-.1-.05-.12c-1-3.87-2-8-3-12.45-2.32-9.89-4.68-21-7-32.86-10.13-51.15-20.06-115.17-24.84-147.09a6.26,6.26,0,0,1,10.79-5.16l94.71,103a6.27,6.27,0,0,1,.57,7.74l-36.19,53.54Z"/><path class="cls-26" d="M3005.05,1640.74l-13.19,51.65v0l-41.1,160.68s-111.83,7.1-209.77,7.61c-63,.31-120.17-2.08-138.29-10.82-46.31-22.35-27.14-54.29,0-83s27.15-25.54,14.36-105.38,44.71-107,81.44-132.11,47.37-61.19,5.84-165,28.27-136,85.53-236.83c72.91-128.39,190.11-86.69,191.55-85.75l-41.88,61.81q-5.55-1-10.8-1.54c-8.6-4.91-15.63-1.19-16.28-.83h0l0,0,61.86,360.24,6.92,40.29Z"/><path class="cls-27" d="M3163,1629.37s92.48,1.3,159.81,22.55c-11.6-1.36-22.8,2.53-32,15.32-36.71,51.09-122.94,127.73-194.79,60.68-10.7-10-19-23.14-25.19-38.24,54.29-9.76,79.95-36.5,92.07-60.2A.5.5,0,0,0,3163,1629.37Z"/><path class="cls-27" d="M3370.83,1679.4a148,148,0,0,0-24.17-18.56C3353.09,1663.7,3361.26,1670.11,3370.83,1679.4Z"/><path class="cls-28" d="M3545.38,1916.71c-52.19-81.82-109.35-163.73-151.5-212.54a2.13,2.13,0,0,1-.18-.22,250.65,250.65,0,0,0-22.87-24.56,149.86,149.86,0,0,0-24.16-18.56s0,0-.05,0a70.73,70.73,0,0,0-16.57-7.42,44.43,44.43,0,0,0-7.22-1.46,32.64,32.64,0,0,0-14,1.24c-6.46,2.12-12.55,6.55-18,14.07-36.7,51.08-122.93,127.74-194.77,60.67-10.72-10-18.95-23.13-25.21-38.24,2-.37,4.06-.76,6-1.18,1.25-.27,2.51-.54,3.74-.84,2.74-.61,5.4-1.3,8-2,.91-.25,1.8-.5,2.69-.77s1.6-.49,2.39-.74c1.16-.37,2.29-.74,3.42-1.13.87-.27,1.71-.57,2.52-.86,1.7-.62,3.35-1.24,5-1.88,1-.42,2.07-.84,3.09-1.28s2.31-1,3.42-1.5,2.37-1.11,3.5-1.68q4.82-2.37,9.1-5c1.11-.67,2.19-1.36,3.25-2l.13-.07c.74-.49,1.5-1,2.21-1.5.92-.6,1.78-1.21,2.64-1.85s1.63-1.19,2.42-1.83a.7.7,0,0,0,.17-.09c.76-.6,1.5-1.16,2.22-1.78.57-.44,1.11-.89,1.63-1.36s1.15-1,1.72-1.47,1.21-1.06,1.78-1.61,1.16-1.08,1.7-1.62,1.06-1,1.58-1.56c.69-.69,1.35-1.38,2-2.09a95.25,95.25,0,0,0,9.34-11.64c.42-.61.84-1.23,1.26-1.87,1-1.5,1.92-3,2.76-4.51.45-.74.87-1.48,1.26-2.25s.81-1.47,1.18-2.21c.55-1,1-2.07,1.51-3.09q.43-.92.81-1.77c.32-.67.59-1.33.86-2s.57-1.33.82-2l.14-.37c.47-1.18.92-2.37,1.29-3.5l0,0,.62-1.85c.19-.62.39-1.24.59-1.85.74-2.44,1.35-4.76,1.85-6.93a81,81,0,0,0,2.32-18.73l-68.44-52.26L3078,1514.21l-13.81-60.72v0c7.45-2.39,14.87-7.6,21.45-14.45,0,0,0,0,0,0a92.07,92.07,0,0,0,18.07-27.74c11.21-26.72,8.28-56.62-27.64-61.16-1.48-.22-3-.34-4.63-.46.66-29.66.27-212.1-111.89-243.63a202.53,202.53,0,0,0-20-4.61v-31.33h0C3064,953.52,3260,1099,3252.55,1284c-6.75,167.7,84.6,255.46,151.68,314.52s76.64,103.81,78.22,170.86c1.45,60.59,42,53.39,62.76,79.72a47.4,47.4,0,0,1,5.89,9.69C3562.32,1883.33,3553.32,1904.58,3545.38,1916.71Z"/><path class="cls-29" d="M3545.38,1916.71c-52.19-81.82-109.35-163.73-151.5-212.54a2.13,2.13,0,0,1-.18-.22,250.65,250.65,0,0,0-22.87-24.56,149.86,149.86,0,0,0-24.16-18.56s0,0-.05,0a70.73,70.73,0,0,0-16.57-7.42,44.43,44.43,0,0,0-7.22-1.46,32.64,32.64,0,0,0-14,1.24l1.16-10.21c98.6-23,142.16,53.42,151.18,122.44,8.26,63.11,39.42,58.23,84.09,83.74a47.4,47.4,0,0,1,5.89,9.69C3562.32,1883.33,3553.32,1904.58,3545.38,1916.71Z"/><path class="cls-28" d="M3171.45,1606.13c-.5,2.17-1.11,4.51-1.85,6.93-.2.61-.4,1.23-.59,1.85s-.42,1.23-.62,1.85l0,0c-.4,1.16-.82,2.32-1.29,3.5l-.14.37c-.25.64-.52,1.31-.82,2s-.54,1.33-.86,2-.52,1.18-.81,1.77c-.47,1-1,2-1.51,3.09-.37.74-.76,1.47-1.18,2.21s-.81,1.51-1.26,2.25c-.84,1.5-1.77,3-2.76,4.51-.42.64-.84,1.26-1.26,1.87a95.25,95.25,0,0,1-9.34,11.64c-.64.71-1.3,1.4-2,2.09-.52.52-1,1-1.58,1.56s-1.11,1.08-1.7,1.62-1.16,1.06-1.78,1.61-1.13,1-1.72,1.47-1.06.92-1.63,1.36-1.46,1.18-2.22,1.78a.7.7,0,0,1-.17.09c-.79.62-1.6,1.24-2.42,1.83l-2.64,1.85c-.74.49-1.47,1-2.24,1.48,0,0-.07,0-.1.09-1.06.67-2.14,1.36-3.25,2q-4.29,2.58-9.1,5c-1.13.57-2.29,1.13-3.5,1.68s-2.27,1-3.42,1.5-2,.86-3.09,1.28c-1.6.64-3.25,1.26-5,1.88-.84.29-1.68.59-2.52.86-1.13.39-2.26.76-3.42,1.13-.79.25-1.58.5-2.39.74s-1.78.52-2.69.77c-2.59.74-5.25,1.43-8,2-1.23.3-2.49.57-3.74.84-2,.42-4,.81-6,1.18-35.35-85.41-7.13-233.94-6.71-236.18l13.81,60.72,27.38,20.93,68.44,52.26A81,81,0,0,1,3171.45,1606.13Z"/><path class="cls-30" d="M3070.86,1689.68a236.85,236.85,0,0,1-24.82,3.09,212.42,212.42,0,0,1-54.18-2.62c-89.1-16.39-120.39-88.91-120.39-88.91l68.16,13.43a5,5,0,0,0,5.82-5.91l-21.84-102.27c5.65-22.12,26.68-37.13,50.67-47.21,39.37-16.55,86.65-19.84,86.65-19.84l3.21,14v0C3063.71,1455.74,3035.49,1604.26,3070.86,1689.68Z"/><path class="cls-31" d="M3071.44,1349.64c-2.31-.13-4.75-.17-7.3-.13-78.24,1.59-95.82-132.53-110.18-199.58-6.92-32.32-16.82-45.31-25.22-50.08a187.86,187.86,0,0,1,30.8,6.15C3071.71,1137.54,3072.11,1320,3071.44,1349.64Z"/><path class="cls-32" d="M2391.4,1746s-4.79-22.88-68.65,17-75.76,87.51-71.85,100.06,96.86-11.18,96.86-11.18L2391.4,1746Z"/><path class="cls-30" d="M2317.27,1670.94a64.38,64.38,0,0,1-24.32,9.63c-32.73,5.8-73.45-71.14-73.45-71.14l-9.58-65.94,102.18-35.11S2269.79,1577,2285,1632.91C2290,1651.5,2302.64,1663.37,2317.27,1670.94Z"/><path class="cls-30" d="M2344.84,1680l.34.56c-24.13-5.13-54.11-12.44-67.55-40.48-31.88-66.48,57.63-149.65,57.63-149.65-.32-.31-23.77,17.29-24.11,16.93-8.64-10,3.52-58.64,8.16-85.87,4.77-28.22,24.66-16.49,24.66-16.49l34.4,122.14C2385.56,1579.85,2344.84,1680,2344.84,1680Z"/><polygon class="cls-31" points="2224.2 1611.44 2130.71 1319.21 2269.54 1277.2 2355.97 1557.47 2224.2 1611.44"/><polygon class="cls-33" points="2238.43 1604.96 2144.94 1314.97 2283.78 1272.96 2372.45 1553.23 2238.43 1604.96"/><polygon class="cls-34" points="2240.03 1591.9 2153.89 1324.73 2281.8 1286.02 2363.5 1544.24 2240.03 1591.9"/><path class="cls-30" d="M2391.41,1760.64l-44.58,96.6-49.07-9.52-44.73-123s-62.26-129.32-73.84-156.06-34.34-164.87-34.34-164.87l12-14s21.54-45.52,27.93-60.68,24.75-31.94,33.93-21.57c8.76,9.9-4.26,53.94-5.44,58,1.32-2.46,11.33-20.23,21-6.09,10.15,14.8-6,65.73-6.76,68.18.81-2,16.15-39.92,23.41-13.49,7.43,27.15-41,129.32-41,129.32l9.58,65.94s40.72,76.94,73.45,71.14a64.38,64.38,0,0,0,24.32-9.63,110.93,110.93,0,0,0,27.91,9.63Z"/><path class="cls-35" d="M2560.32,2242.06s-.05,0-.07.05c-2,1.06-44.05,23-118.82,9.73a30.07,30.07,0,0,1-7.74-2.54c-7.49-3.5-15.28-10-23.22-19q-3.85-4.33-7.74-9.4s0,0,0,0c-70.55-91.61-150.29-352.91-151.77-357.77a.06.06,0,0,1,0-.05,193.38,193.38,0,0,0,46.86-15.38c53.84-25.78,79.68-70.35,89.17-90.84.37-.79.69-1.53,1-2.22,2.2-5,3.26-8.08,3.43-8.57a.24.24,0,0,0,0-.08l132,211.83,26.6,8.5,1,26.4.34,9,4.1,109.37,4.09,109.33Z"/><path class="cls-35" d="M2903.39,1721.5l-32,107.21-8.6,28.84-82.88,278s-7.77,3.65-20.26,9.64c-.32.12-.65.29-1,.44-39.73,18.93-125,59.83-165.06,81.47a236.05,236.05,0,0,1-33.33,14.92s-.05,0-.07.05c-34,12-54.95,9.51-54.95,9.51l.74-11.83,2.56-41.66,14.79-240.3s26-54.06,60-121.24c17.37-34.29,36.85-72,56-107.75,40.06-74.57,78.86-140.33,94.73-147.83a73.85,73.85,0,0,1,18.39-5.62l1-.17c17.65-3,38-1.85,55,.39a168.26,168.26,0,0,1,60.2,20.09l13.73,7.72,4.51,25.51Z"/><path class="cls-36" d="M2887,1628.93l-15.6,199.78-8.6,28.84-82.88,278s-7.77,3.65-20.26,9.64c-.32.12-.65.29-1,.44-39.73,18.93-125,59.83-165.06,81.47a236.05,236.05,0,0,1-33.33,14.92s-.05,0-.07.05c-2,1.06-44.05,23-118.82,9.73a30.07,30.07,0,0,1-7.74-2.54c31.65-9.76,56.11-28.76,74.91-51.17,23.1-27.46,37.72-60.05,46.82-87a372.94,372.94,0,0,0,12.52-47.45c3.4-17.58-5.74-41.36-16.62-61.92a354.43,354.43,0,0,0-26.77-42.43l26.43,33.4,65,82.27,20.95-19.45c39.79-70.56,15.71-216.47,2.47-326.71,40.06-74.57,78.86-140.33,94.73-147.83a73.85,73.85,0,0,1,18.39-5.62l.79.59.2-.76c17.65-3,38-1.85,55,.39a168.26,168.26,0,0,1,60.2,20.09l13.73,7.72Z"/><path class="cls-37" d="M3680.42,2164.33c-5.05-30.37-65.7-138.91-135-247.62-52.19-81.82-109.35-163.73-151.5-212.54a2.13,2.13,0,0,1-.18-.22c-8.28-9.54-15.92-17.8-22.87-24.56a149.86,149.86,0,0,0-24.16-18.56l-.05,0a215,215,0,0,0-23.12-8.65,5.06,5.06,0,0,0-1.21-.28c-.59-.07-1.18-.12-1.75-.14s-1.31-.08-1.95-.08h-.25c-.44,0-.91,0-1.35,0-.27,0-.52,0-.77,0l-.22,0a1.37,1.37,0,0,0-.29,0c-.64,0-1.29.13-1.9.23h0c-.76.12-1.5.24-2.26.42s-1.48.37-2.22.59l-.05,0h-.05c-.54.17-1.09.35-1.63.55s-1,.39-1.45.61-.89.4-1.33.62-.87.44-1.31.69-.89.49-1.31.76l-.24.15c-.5.32-1,.64-1.46,1s-1.08.78-1.62,1.23l0,0s0,0-.05,0c-.55.45-1.06.91-1.61,1.38,0,0,0,0,0,0-.54.52-1.06,1-1.6,1.58-.4.37-.74.74-1.11,1.13-.1.13-.22.25-.32.37l-.42.5c-.47.54-.94,1.08-1.38,1.65s-1,1.26-1.46,1.92c-26.82,37.32-80.11,88.33-134.91,86.9l-1.63-.08c-1.77-.07-3.57-.22-5.37-.42-1-.1-2.07-.24-3.11-.39-.84-.12-1.68-.27-2.51-.42-1.38-.25-2.76-.52-4.17-.86-.89-.2-1.77-.42-2.64-.67-2.17-.57-4.36-1.26-6.53-2-.94-.35-1.85-.69-2.76-1.06-1.09-.42-2.17-.89-3.25-1.38s-1.95-.89-2.94-1.39h0c-1-.49-2-1-3-1.57s-1.85-1-2.79-1.56l-.42-.24c-1-.59-1.95-1.19-2.93-1.83s-2-1.3-3-2-2-1.4-3-2.17-1.78-1.33-2.66-2c-.45-.35-.92-.72-1.39-1.11-1-.84-2-1.7-3-2.59s-1.75-1.58-2.64-2.39c-.69-.64-1.35-1.28-2-1.92-2-2-3.82-4-5.6-6.17-1-1.21-2-2.46-2.93-3.74s-1.87-2.57-2.79-3.92-1.77-2.69-2.61-4.1-1.68-2.81-2.49-4.24q-2.55-4.58-4.81-9.54a6.19,6.19,0,0,0-6.9-3.52,166.07,166.07,0,0,1-41.19,2.66h-2.15a149.67,149.67,0,0,1-30.19-3.13c-.2,0-.37-.07-.55-.12a4.72,4.72,0,0,1-.66-.15.21.21,0,0,1-.12,0l-.25,0c-61.28-13.46-92.84-62.67-102.2-79.9-.72-1.31-1.29-2.41-1.75-3.33a6.2,6.2,0,0,0-4.27-3.3h-.1l-3.92-.79-2-.39-5.15-1-5.2-1-13.36-2.66-3.06-.62a6.29,6.29,0,0,0-6.95,3.72l-3.5,8.34-1.93,4.56-96.41,229.15a6.81,6.81,0,0,0-.49,2.59c.08,2.15.22,6.71.42,13.19,0,.74.05,1.48.07,2.24,1.93,56.87,8.73,241.24,18.34,283.42.08.37.18.74.28,1.11a129.32,129.32,0,0,0,7.19,21c.2.45.32.67.32.67v0c18.49,42.12,57.42,85.29,61.36,89.68a5.73,5.73,0,0,1,.64.76s0,.1.17.3l2.54,3.87.13.19,70.2,108.27a6.19,6.19,0,0,1,1,3.87c-.64,7.84-2.58,35.47.15,42.75s28,24.43,34.64,28.79a6.25,6.25,0,0,0,3.42,1h215.77l40.41-11.8s14.3,5.81,31.23,11.8h64a6.27,6.27,0,0,0,5.87-4.11l14.39-39.25L3335.9,2341a6.22,6.22,0,0,1,8.48-3.55c2.14,1,4.24,2.14,6.26,3.3,28.84,16.57,46.61,45.8,55.56,64.31,1.75,3.65,3.18,6.91,4.27,9.54a6.24,6.24,0,0,0,9.39,2.72c8.08-5.75,23-16.47,41.88-30.5C3540.84,2327.89,3688.23,2211.17,3680.42,2164.33Zm-309.52,62.81-.2.3a6.18,6.18,0,0,1-11.09-1.88s0-.09-.05-.12c-1-3.87-2-8-3-12.45-2.32-9.88-4.69-21-7-32.86C3339.37,2129,3329.44,2065,3324.65,2033a6.26,6.26,0,0,1,10.8-5.15l94.71,103a6.27,6.27,0,0,1,.57,7.74l-36.19,53.54Z"/><path class="cls-38" d="M2763.71,1220.68s-42.5,240.46,42.51,309.7a120.32,120.32,0,0,0,31.12,18.2c59,23.59,138.44,13.31,193.08-66,65.16-94.58,60-250.35,60-250.35L2944,1117.36,2938,1119l-104.42,27.54Z"/><path class="cls-39" d="M2763.71,1220.68a882,882,0,0,0-10.87,98.07,671.72,671.72,0,0,0-.18,77.15c3.42,58.14,19.35,106.62,53.56,134.48a120.32,120.32,0,0,0,31.12,18.2c57.45,15.59,135.26-4.76,185.64-77.92,65.16-94.58,110.4-227.25,110.4-227.25L2938,1119l-104.42,27.54Z"/><path class="cls-28" d="M2870.56,1161.13a112.23,112.23,0,0,0,19.53,1.11s42.45-14.13,50,10.39,6.56,159.38,142.35,204.68l.1,3,2.7,82.83s145.25-49,134-213.09S3074,1072.7,3074,1072.7s-68.81-104.69-183.89-4.76C2807.3,1139.87,2843.68,1157.1,2870.56,1161.13Z"/><path class="cls-28" d="M2731.73,1184.32c-1.82,18.19,11.67,36.75,32.53,45.16a441.8,441.8,0,0,0,72.9,22.08c6.16,1.31,11.81,2.37,16.84,3.23,12.4,2.13,22.94-5,22.66-15.35a175.24,175.24,0,0,1,1.42-24.24,258.54,258.54,0,0,1,34.86-100.89l30.53-51.36,4-6.75s-3.82-2.31-10.42-5.52c-4-1.89-9-4.12-14.74-6.33-32.12-12.45-88.89-25.1-133,15.22C2747.09,1098.15,2735,1151.46,2731.73,1184.32Z"/><path class="cls-28" d="M2961.89,1298.27c-5.74-1-11.62-4.93-17.49-8.5s-11.81-7.3-17.08-10.27-11.45-6.23-17.64-9.33-12.57-6.18-16.29-10.57c-3.61-4.17-2.83-9.86,5.75-12.54,8.18-2.71,24.77-1.32,42.26,8.51s27,23.25,28.69,31.54C2972,1295.73,2967.39,1299.24,2961.89,1298.27Z"/><path class="cls-28" d="M2798.05,1245.34c-3,1.41-6.79.78-10.48.44s-7.46-.78-10.72-.93-7-.17-10.75-.08-7.56.26-10.41-1.41-3.74-5.75-.25-10.67c3.29-4.8,11.62-9.79,22.43-9.31s18.62,6.28,21.44,11.36C2802.32,1240,2800.94,1244,2798.05,1245.34Z"/><path class="cls-40" d="M2752.84,1318.75a671.72,671.72,0,0,0-.18,77.15,96.07,96.07,0,0,0,7.86-35.16C2761.15,1345,2758.22,1330.42,2752.84,1318.75Z"/><ellipse class="cls-41" cx="2759.83" cy="1310.55" rx="57.11" ry="37.16" transform="translate(1238.52 3960.05) rotate(-85.54)"/><path class="cls-39" d="M2799.51,1348.94l-17,22.63s-7-12.77,2.36-20.43C2791,1346.11,2799.51,1348.94,2799.51,1348.94Z"/><path class="cls-42" d="M2786.39,1382.26c.23.09.48.17.72.24l9.57,2.76a2.22,2.22,0,0,0,2.54-1.71c.39-1.24-.13-2.58-1.13-2.78l-9.56-2.76c-2.81-.79-4.88-3.22-5.94-6.8a22.23,22.23,0,0,1,.49-12.78l.41-1.33c1.11-3.5,3.76-5.86,5.92-5.24,3.19.92,6.76,0,10-2.74a23.11,23.11,0,0,0,7.05-10.92l5.89-19a2.17,2.17,0,0,0-1.15-2.77,2.25,2.25,0,0,0-2.54,1.73l-5.88,19a17.66,17.66,0,0,1-5.33,8.31c-2.22,1.83-4.58,2.51-6.65,1.91-4.18-1.2-9.12,2.69-11,8.67l-.42,1.32a27.62,27.62,0,0,0-.55,15.86C2780.18,1377.77,2782.84,1381,2786.39,1382.26Z"/><ellipse class="cls-40" cx="2956.04" cy="1402.74" rx="67.1" ry="61.13" transform="translate(264.83 3263.71) rotate(-60.05)"/><ellipse class="cls-41" cx="2893.14" cy="1339.71" rx="64.61" ry="58.94" transform="translate(1148.98 4008.6) rotate(-81.68)"/><path class="cls-41" d="M2834.41,1329.15s-27.44-21.73-38.71-6.63"/><path class="cls-42" d="M2803.89,1445.76s45.57,7.87,67.27-.61c0,0-6.62,57.53-29.25,50S2803.89,1445.76,2803.89,1445.76Z"/><line class="cls-41" x1="2953.23" y1="1340.5" x2="3069.22" y2="1369.76"/><path class="cls-28" d="M2872,1335.66c-1.69,8.57,2.45,16.61,9.24,17.95s13.68-4.52,15.37-13.1-2.44-16.61-9.24-18S2873.72,1327.08,2872,1335.66Z"/><path class="cls-28" d="M2892.88,1332.93a22.29,22.29,0,0,0,11.32-5.65s-4,7-7.18,9.63S2892.88,1332.93,2892.88,1332.93Z"/><path class="cls-28" d="M2782.56,1315.18c-.95,8.21-6.41,14.62-12.19,14.33s-9.7-7.2-8.75-15.41,6.41-14.62,12.19-14.32S2783.5,1307,2782.56,1315.18Z"/><path class="cls-28" d="M2766.66,1308a17.25,17.25,0,0,1-7.52-7.7s1.3,7.28,3.15,10.4S2766.66,1308,2766.66,1308Z"/><path class="cls-43" d="M3071.59,1330.27s88.56-83.79,71.82-175.92C3143.41,1154.35,3142.74,1257.7,3071.59,1330.27Z"/><path class="cls-43" d="M3008.42,1275.79s109-54.68,119.5-147.73C3127.92,1128.06,3097.47,1226.83,3008.42,1275.79Z"/><path class="cls-44" d="M2870.56,1161.13a112.23,112.23,0,0,0,19.53,1.11s42.45-14.13,50,10.39,6.56,159.38,142.35,204.68l.1,3c11.5-.91,9.55-5.18-18-15.25-98.06-35.87-91.42-178.27-115-220.71s-64.44-11.41-64.44-11.41Z"/><path class="cls-45" d="M2835.38,1241.44c.49,3.53,1.09,6.91,1.78,10.12,6.16,1.31,11.81,2.37,16.84,3.23,12.4,2.13,22.94-5,22.66-15.35a175.24,175.24,0,0,1,1.42-24.24,258.54,258.54,0,0,1,34.86-100.89l34.71-58.62c-2.11-4.88-8.43-1.77-10.59-5-4.84-7.24-9.7-10-14.49-6.5l-.25.17C2916.63,1048,2817.09,1113.17,2835.38,1241.44Z"/><path class="cls-46" d="M3330.05,1653.39a44.43,44.43,0,0,0-7.22-1.46c-11.61-1.38-22.8,2.52-32,15.31-36.7,51.08-122.93,127.74-194.77,60.67-10.72-10-18.95-23.13-25.21-38.24-35.35-85.41-7.13-233.94-6.71-236.18v0c7.45-2.39,14.87-7.6,21.45-14.45,0,0,0,0,0,0a92.07,92.07,0,0,0,18.07-27.74c6.41,22.88,12.47,58.87,4.85,100-1.35,7.27-2.44,15.31-3.23,23.89-4,43.38.23,100,21.72,133.56,0,0,0,0,0,0,15.48,24.18,40,36.39,76.86,23C3292,1659.94,3288.12,1636.72,3330.05,1653.39Z"/><path class="cls-39" d="M3066.59,1364.83s32.84-39.25,68.55-8.52,7.5,99.42-36.87,119.79-64.05-27.57-64.05-27.57Z"/><path class="cls-42" d="M3085.74,1443.82a5.58,5.58,0,0,1-3.06-2.86l-14.18-30,43.43-24.9a5.48,5.48,0,0,1,7.83,2.41,6.59,6.59,0,0,1-2.67,8.42l-33,18.9,9.07,19.23a6.61,6.61,0,0,1-2.7,8.42A5.6,5.6,0,0,1,3085.74,1443.82Z"/><path class="cls-47" d="M3461.74,2386.78c-18.83,14-33.8,24.75-41.88,30.5a6.24,6.24,0,0,1-9.39-2.72c-1.09-2.63-2.52-5.89-4.27-9.54-8.95-18.51-26.72-47.74-55.56-64.31-2-1.16-4.12-2.27-6.26-3.3a6.23,6.23,0,0,0-7.82,2.24,5.75,5.75,0,0,0-.66,1.31l-22.76,62.09-14.39,39.25a6.27,6.27,0,0,1-5.87,4.11h-64c-16.93-6-31.23-11.8-31.23-11.8l-40.41,11.8H2941.45a6.25,6.25,0,0,1-3.42-1c-6.61-4.36-31.85-21.4-34.64-28.79s-.79-34.91-.15-42.75a6.19,6.19,0,0,0-1-3.87L2832,2261.7l-.13-.19-2.54-3.87c-.12-.2-.17-.3-.17-.3a5.73,5.73,0,0,0-.64-.76c-3.94-4.39-42.87-47.56-61.36-89.68v0s-.12-.22-.32-.67a129.32,129.32,0,0,1-7.19-21c-.1-.37-.2-.74-.28-1.11-9.61-42.18-16.41-226.55-18.34-283.42,0-.76,0-1.5-.07-2.24-.2-6.48-.34-11-.42-13.19a6.81,6.81,0,0,1,.49-2.59l96.41-229.15a8.53,8.53,0,0,0,1.93-4.56l3.5-8.34a6.29,6.29,0,0,1,6.95-3.72l3.06.62,13.36,2.66,5.2,1,5.15,1,2,.39,3.92.79h.1a6.2,6.2,0,0,1,4.27,3.3c.46.92,1,2,1.75,3.33-.84,4.07-1.73,8.41-2.64,13l-.3,1.48c-10.89,54.53-26.25,142.88-26.52,233.2,0,4,0,8,0,11.93,1.65,140.83,41.9,283.22,194.42,307.43,176.75,28.07,258.32,17.72,295.86,3.05,2.34,11.84,4.71,23,7,32.86,1,4.41,2,8.58,3,12.45,0,0,0,.08.05.12a6.18,6.18,0,0,0,11.09,1.88l.2-.3,23.64-35Z"/><path class="cls-48" d="M3939.38,2496A61.56,61.56,0,0,1,3878,2557.4H941a61.4,61.4,0,0,1,0-122.8H3878A61.57,61.57,0,0,1,3939.38,2496Z"/><path class="cls-49" d="M3336.56,2339.65l14.08,1.06-37.5,62.34-26.1,43.36-7.57,12.6a15.38,15.38,0,0,1-2.19.17c-9.84,0-30.6-6.48-48.42-12.77-16.93-6-31.23-11.8-31.23-11.8l-40.41,11.8-10.89,3.18s-35.7.65-62.79-3.18h-49.32s35-79.52,67-88.15,102.77,11.91,146.77,0c38-10.3,94-116.52,108.59-145.27,1,4.41,2,8.58,3,12.45,0,0,0,.08.05.12a6.18,6.18,0,0,0,11.09,1.88L3305,2326.63l9.1,11.34Z"/><path class="cls-50" d="M3446.59,2496a61.59,61.59,0,0,1-61.41,61.39H812.38a61.4,61.4,0,0,1,0-122.8h2572.8A61.6,61.6,0,0,1,3446.59,2496Z"/><path class="cls-32" d="M3414.05,2421.92s-80.9-35.39-104.85-95.27c0,0,66-6.64,104.85,95.27"/><path class="cls-51" d="M3520.57,2132.66c-45.48-4-74.24,8.78-74.24,8.78L3305,2326.65l54.83-88.21c1.28,4.84-1.18-3.8,0,0l64.26-95.06a13.54,13.54,0,0,0-1.25-16.73L3318.35,2013l115.21,112.73C3467.09,2121.15,3520.57,2132.66,3520.57,2132.66Z"/><path class="cls-51" d="M2757.74,2145.67c-39.76,18.93-125,59.83-165.07,81.46a235.28,235.28,0,0,1-33.33,14.92s-.05,0-.07,0c-2,1.07-44.06,23-118.82,9.74-9.81-1.75-20.25-9.43-31-21.48,21.07,20.38,56.21,20.13,95.57,9.43a397.15,397.15,0,0,0,53.48-19.33c84-36.62,167.71-98.19,167.71-98.19-8.78-41.5,13.35-135.71,13.35-135.71C2733.48,2060.54,2747.81,2116.92,2757.74,2145.67Z"/><path class="cls-51" d="M3252.34,1714.34s-23.15,186,46.31,272.22C3298.65,1986.56,3209.23,1925.09,3252.34,1714.34Z"/><path class="cls-30" d="M3406.82,2404.73l-.62.29c-8.55,4.22-103.68,50.79-126.73,54a15.38,15.38,0,0,1-2.19.17c-9.84,0-30.6-6.48-48.42-12.77-16.93-6-31.23-11.8-31.23-11.8l-40.41,11.8-10.89,3.18s-35.7.65-62.79-3.18c-15.38-2.17-28-5.79-29.68-11.8-3-10.63,25.91-34.86,47.11-50.93a60.9,60.9,0,0,1,46.17-11.66l118.94,18.51,57.54-62.93a91.25,91.25,0,0,1,28.52,10.62C3390.6,2360.36,3406.82,2404.73,3406.82,2404.73Z"/><path class="cls-2" d="M743.16,1635.16H716.47v-26.69a3.74,3.74,0,0,0-3.73-3.73H706.9a3.74,3.74,0,0,0-3.73,3.73v26.69H676.48a3.75,3.75,0,0,0-3.74,3.74v5.84a3.75,3.75,0,0,0,3.74,3.73h26.69v26.69a3.74,3.74,0,0,0,3.73,3.73h5.84a3.74,3.74,0,0,0,3.73-3.73v-26.69h26.69a3.75,3.75,0,0,0,3.74-3.73v-5.84A3.75,3.75,0,0,0,743.16,1635.16Z"/><path class="cls-2" d="M838.68,1478.08l-14.11,13.46-13.46-14.11a2.74,2.74,0,0,0-3.86-.09l-3.08,3a2.72,2.72,0,0,0-.09,3.85l13.46,14.11-14.11,13.46a2.75,2.75,0,0,0-.09,3.86l2.95,3.09a2.75,2.75,0,0,0,3.86.09l14.1-13.46,13.47,14.1a2.72,2.72,0,0,0,3.85.09l3.09-2.94a2.73,2.73,0,0,0,.09-3.86l-13.46-14.11,14.1-13.46a2.73,2.73,0,0,0,.09-3.86l-2.94-3.08A2.73,2.73,0,0,0,838.68,1478.08Z"/><path class="cls-2" d="M2832.54,967.52h-9.35v-9.35a1.31,1.31,0,0,0-1.31-1.31h-2a1.31,1.31,0,0,0-1.31,1.31v9.35h-9.35a1.3,1.3,0,0,0-1.3,1.3v2a1.31,1.31,0,0,0,1.3,1.31h9.35v9.34a1.31,1.31,0,0,0,1.31,1.31h2a1.31,1.31,0,0,0,1.31-1.31v-9.34h9.35a1.31,1.31,0,0,0,1.3-1.31v-2A1.3,1.3,0,0,0,2832.54,967.52Z"/><path class="cls-2" d="M3902.79,2093.88h-18.45v-17.44a2.52,2.52,0,0,0-2.58-2.45h-4a2.52,2.52,0,0,0-2.58,2.45v17.44h-18.45a2.52,2.52,0,0,0-2.58,2.45v3.81a2.52,2.52,0,0,0,2.58,2.45h18.45V2120a2.52,2.52,0,0,0,2.58,2.44h4a2.52,2.52,0,0,0,2.58-2.44v-17.45h18.45a2.52,2.52,0,0,0,2.58-2.45v-3.81A2.52,2.52,0,0,0,3902.79,2093.88Z"/><path class="cls-2" d="M4047.59,1924.91l-21.79-19,17.93-20.61a4,4,0,0,0-.54-5.54l-4.77-4.15a4,4,0,0,0-5.56.24l-17.92,20.61-21.79-19a4,4,0,0,0-5.56.23l-3.92,4.51a4,4,0,0,0,.54,5.54l21.79,19-17.93,20.61a4,4,0,0,0,.54,5.54l4.77,4.14a3.93,3.93,0,0,0,5.55-.23l17.93-20.61,21.79,19a4,4,0,0,0,5.56-.23l3.92-4.51A4,4,0,0,0,4047.59,1924.91Z"/><path class="cls-2" d="M819.38,2307.13H805.94v-13.44a1.89,1.89,0,0,0-1.88-1.88h-2.94a1.89,1.89,0,0,0-1.88,1.88v13.44H785.81a1.88,1.88,0,0,0-1.88,1.88V2312a1.88,1.88,0,0,0,1.88,1.88h13.43v13.43a1.88,1.88,0,0,0,1.88,1.88h2.94a1.88,1.88,0,0,0,1.88-1.88v-13.43h13.44a1.89,1.89,0,0,0,1.88-1.88V2309A1.88,1.88,0,0,0,819.38,2307.13Z"/><path class="cls-2" d="M1930.77,639.77,1910.87,622l17.77-19.9a3.74,3.74,0,0,0-.29-5.27l-4.36-3.89a3.74,3.74,0,0,0-5.27.29l-17.78,19.91L1881,595.35a3.75,3.75,0,0,0-5.27.3l-3.89,4.36a3.74,3.74,0,0,0,.3,5.27l19.91,17.78L1874.3,643a3.74,3.74,0,0,0,.3,5.28l4.35,3.89a3.75,3.75,0,0,0,5.27-.3L1902,631.92l19.91,17.78a3.74,3.74,0,0,0,5.27-.3l3.89-4.36A3.74,3.74,0,0,0,1930.77,639.77Z"/><path class="cls-2" d="M2647.63,794.43l-19.91-17.78,17.78-19.91a3.74,3.74,0,0,0-.3-5.27l-4.36-3.89a3.74,3.74,0,0,0-5.27.3l-17.77,19.91L2597.89,750a3.74,3.74,0,0,0-5.27.3l-3.89,4.35a3.74,3.74,0,0,0,.29,5.27l19.91,17.78-17.78,19.91a3.75,3.75,0,0,0,.3,5.27l4.36,3.89a3.73,3.73,0,0,0,5.27-.3l17.78-19.9,19.9,17.77a3.75,3.75,0,0,0,5.28-.29l3.89-4.36A3.75,3.75,0,0,0,2647.63,794.43Z"/><path class="cls-52" d="M3704.07,1617l87.27-49.41a204.9,204.9,0,0,1,75-157.29c85.38-70.13,212.56-59.56,285.14,23.74,76.45,87.74,64.91,221.1-25.26,294.42-86.63,70.45-215.3,58.09-287-27.51a204.58,204.58,0,0,1-38.19-69.33l-94.14-3.08A6.17,6.17,0,0,1,3704.07,1617Z"/><path class="cls-53" d="M3708.23,1598.39l87.28-49.42a204.93,204.93,0,0,1,75-157.29c85.38-70.12,212.57-59.55,285.15,23.75,76.44,87.73,64.9,221.1-25.27,294.42-86.63,70.44-215.3,58.08-287-27.51a204.84,204.84,0,0,1-38.19-69.33l-94.14-3.09A6.17,6.17,0,0,1,3708.23,1598.39Z"/><path class="cls-54" d="M4130.38,1551.45A126.48,126.48,0,1,0,4005,1679,126.46,126.46,0,0,0,4130.38,1551.45Zm-19.6-9.07-8.23.07a9.55,9.55,0,0,0,.17,19.09l8.18-.07a107.53,107.53,0,0,1-96.5,98l-.07-7.9a9.55,9.55,0,0,0-19.09.16l.07,7.91a107.54,107.54,0,0,1-98.22-96.22l8.18-.08a9.55,9.55,0,1,0-.17-19.09l-8.23.08a107.54,107.54,0,0,1,96.55-98.55l.07,8.5a9.55,9.55,0,1,0,19.09-.17l-.08-8.5A107.53,107.53,0,0,1,4110.78,1542.38Z"/><path class="cls-54" d="M4050.17,1531.35l-35.3,15.29a2.81,2.81,0,0,1-.1.31,10.42,10.42,0,0,1-.9,1.87l17.19,56.76a7.16,7.16,0,0,1-13.72,4.13L4000.16,1553a10.73,10.73,0,0,1,8.25-19.8c.27.1.52.22.77.33l75.14-32.55a7.16,7.16,0,1,1,5.69,13.14l-39.84,17.27"/><path class="cls-55" d="M2428.76,550.67V764a26.76,26.76,0,0,1-26.69,26.68h-276.7A26.76,26.76,0,0,1,2098.68,764V717l-.25.07V638l.25-.32v-87A26.76,26.76,0,0,1,2125.36,524h276.71A26.77,26.77,0,0,1,2428.76,550.67Z"/><path class="cls-56" d="M2301.54,604.7c-30.8.67-37.69,35.28-38.17,38-.48-2.71-7.38-36.75-38.17-38-27.19-1.09-36.33,23.2-34.85,38.18,4.34,43.85,53.5,68.88,68.5,75.53a10.67,10.67,0,0,0,8.63,0c15.06-6.64,64.57-31.67,68.91-75.54C2337.87,627.9,2329.4,604.09,2301.54,604.7Z"/><path class="cls-52" d="M842.29,2097l-57.18-51.68a179.69,179.69,0,1,0-30.24,40.72Z"/><path class="cls-57" d="M447.88,2004.29A179.32,179.32,0,0,0,747,2078.21l87.42,11-57.19-51.68a179.28,179.28,0,1,0-329.33-33.2"/><ellipse class="cls-58" cx="629.13" cy="2070.87" rx="82.21" ry="7.34"/><path class="cls-59" d="M563.91,1939.13c.22,29.41,54.82,114.16,54.82,114.16h7.66c10.84-17.24,47.36-89.1,47.17-114.67-.23-29.4-24.95-54.93-55.23-54.79S563.69,1909.73,563.91,1939.13Zm30.2-.55c-.1-13.21,10.84-24,24.44-24s24.7,10.59,24.8,23.8-10.84,24-24.44,24S594.21,1951.78,594.11,1938.58Z"/><path class="cls-60" d="M574.13,1937c.22,29.08,52.26,116.3,52.26,116.3s50.71-87.7,50.49-116.78-23.4-52.56-51.77-52.42S573.91,1907.9,574.13,1937Zm28.3-.54c-.1-13.07,10.15-23.7,22.89-23.76s23.15,10.48,23.25,23.54-10.15,23.7-22.89,23.76S602.53,1949.51,602.43,1936.45Z"/><path class="cls-61" d="M574.13,1937c.22,29.08,52.26,116.3,52.26,116.3s50.71-87.7,50.49-116.78-23.4-52.56-51.77-52.42S573.91,1907.9,574.13,1937Zm28.3-.54c-.1-13.07,10.15-23.7,22.89-23.76s23.15,10.48,23.25,23.54-10.15,23.7-22.89,23.76S602.53,1949.51,602.43,1936.45Z"/></g></g></svg>